<?xml version="1.0" encoding="UTF-8" standalone="no"?>
<!DOCTYPE svg PUBLIC "-//W3C//DTD SVG 1.1//EN" "http://www.w3.org/Graphics/SVG/1.1/DTD/svg11.dtd">
<svg width="100%" height="100%" viewBox="0 0 2500 2500" version="1.1" xmlns="http://www.w3.org/2000/svg" xmlns:xlink="http://www.w3.org/1999/xlink" xml:space="preserve" xmlns:serif="http://www.serif.com/" style="fill-rule:evenodd;clip-rule:evenodd;stroke-miterlimit:2.613;">
    <path d="M2389.7,1348.4C2389.7,1337.53 2383.7,1326.31 2371.37,1314.03C2330.84,1273.8 2216,1216.73 2054.06,1165.58C2048.11,1142.25 2036.25,1108.71 2012.71,1072.56C2027.81,1081.92 2042.35,1090.86 2050.26,1095.46L2055.15,1098.31C2055.55,1098.32 2060.47,1095.54 2060.47,1095.54C2061.78,1094.92 2062.93,1094.01 2063.84,1092.87C2067.38,1100.68 2068.81,1101.52 2070.68,1102.6L2096.16,1117.1L2111.84,1126.02L2116.55,1128.69C2116.9,1128.71 2121.67,1126.2 2121.67,1126.2C2123.38,1125.47 2124.81,1124.2 2125.74,1122.6C2131.83,1138.58 2133.58,1139.64 2136.03,1141.04C2172.07,1161.52 2227.35,1189.46 2227.91,1189.74L2242.07,1196.89L2242.25,1181.01C2242.3,1177.33 2241.51,1098.18 2114.86,1003.28L2137.46,1008.93L2151.54,1012.43L2149.65,998.023L2149.32,995.533L2162.09,1012.59L2164.21,1015.46L2167.69,1016.28L2225.62,1030.21L2238.52,1033.31L2237.78,1020.05L2237.67,1018.17L2247.35,1033.6L2249.55,1037.1L2253.59,1038L2344,1058.07L2367.73,1063.34L2354.39,1042.98C2284.3,936.002 2181.88,910.283 2099.58,889.622L2096.87,888.935L2110.35,887.858L2122.84,886.86L2119.39,876.276L2128,882.424L2130.89,884.499L2134.43,884.24L2178.41,881.075L2194.45,879.908L2186.16,866.095L2185.17,864.448L2208.48,876.25L2211.11,877.586L2214.06,877.249L2320.2,865.044L2349.3,861.698L2324.13,846.705C2246.82,800.675 2193.5,783.685 2044.72,779.846C2051.87,770.145 2062.18,756.28 2077.63,736.436L2084.16,728.058L2075.34,722.131L2075.07,721.936L2087.03,721.301L2091.28,721.067L2094.05,717.825C2096.12,715.373 2099.95,710.626 2104.03,705.62C2108.31,700.328 2112.75,694.855 2114.93,692.313L2122.96,682.962L2115.51,678.967L2121.97,678.487L2126.04,678.189L2128.7,675.102C2163.66,634.766 2204.19,590.008 2204.6,589.554L2219.4,573.212L2197.39,573.004C2058.09,571.694 1970.87,678.111 1928.98,729.238L1921.78,737.993C1921.46,736.112 1921.12,734.309 1920.82,732.39C1909.9,667.93 1894.99,579.658 1783.65,497.663L1764.07,483.24L1768.05,507.26L1780.84,584.314L1781.55,588.516L1785.06,590.902L1799.83,600.889L1795.04,600.98L1783.64,601.226L1785.5,612.484L1790.92,645.7L1791.68,650.356L1795.76,652.703L1806.12,658.618L1804.17,658.708L1793.12,659.214L1794.85,670.148C1797.18,684.92 1800.9,708.746 1803.54,726.203L1802.15,725.282C1753.03,692.261 1670.83,636.997 1481.5,670.122L1461.69,673.585C1385.39,645.662 1304.76,631.422 1223.52,631.524C1038.88,631.524 865.278,703.571 734.711,834.384C691.685,877.487 654.507,926.055 624.131,978.841C564.665,980.125 467.275,1002.74 424.825,1128.53C419.697,1143.58 416.112,1159.12 414.125,1174.9C310.613,1209.76 226.66,1248.18 179.164,1282C160.903,1293.45 146.623,1304.24 136.766,1314.02C124.419,1326.3 118.414,1337.52 118.414,1348.39C118.414,1348.6 118.453,1348.79 118.453,1349C113.07,1356.73 110.373,1364.1 110.373,1371.27C110.373,1382.14 116.378,1393.36 128.725,1405.64C153.99,1430.75 208.217,1462.38 284.712,1495.06L244.286,1560.7L213.807,1610.25L303.077,1610.25C315.256,1610.25 320.807,1610.25 325.606,1602.7L330.392,1595.26C335.048,1587.98 342.726,1580.61 352.842,1586.54C376.227,1600.3 437.133,1632.47 497.3,1634.14C535.989,1635.23 570.112,1631.51 599.683,1623.17C633.288,1693.57 678.513,1757.57 734.711,1813.86C865.278,1944.7 1038.88,2016.72 1223.52,2016.72C1499.28,2016.72 1744.62,1854.2 1854.83,1605.79C2116.08,1546.07 2308.37,1460.31 2363.41,1405.64C2375.75,1393.36 2381.76,1382.14 2381.76,1371.27C2381.76,1371.06 2381.73,1370.87 2381.7,1370.66C2386.99,1362.94 2389.7,1355.6 2389.7,1348.4ZM1968.37,1140.35L1968.34,1140.34L1968.34,1140.29L1968.37,1140.35ZM1923.81,1117.9L1924.52,1114.69L1924.7,1115.48L1927.54,1117.64L1951.2,1135.71C1929.33,1129.89 1906.84,1124.23 1883.79,1118.77C1878.44,1101.47 1872.41,1084.39 1865.7,1067.57L1911.35,1107.11L1923.81,1117.9ZM1647.21,756.293C1643.52,761.688 1643.84,764.166 1644.2,766.461L1644.99,771.714C1645.4,772.259 1650.18,774.502 1650.18,774.502C1655.07,776.798 1660.57,779.742 1666.29,782.985C1661.77,782.345 1657.24,781.748 1652.71,781.195C1643.92,774.199 1634.97,767.414 1625.86,760.845L1626.47,760.716L1647.21,756.293Z" style="fill:white;"/>
    <path d="M2389.7,1348.4C2389.7,1337.53 2383.7,1326.31 2371.37,1314.03C2330.84,1273.8 2216,1216.73 2054.06,1165.58C2048.11,1142.25 2036.25,1108.71 2012.71,1072.56C2027.81,1081.92 2042.35,1090.86 2050.26,1095.46L2055.15,1098.31C2055.55,1098.32 2060.47,1095.54 2060.47,1095.54C2061.78,1094.92 2062.93,1094.01 2063.84,1092.87C2067.38,1100.68 2068.81,1101.52 2070.68,1102.6L2096.16,1117.1L2111.84,1126.02L2116.55,1128.69C2116.9,1128.72 2121.67,1126.2 2121.67,1126.2C2123.38,1125.47 2124.81,1124.2 2125.74,1122.6C2131.83,1138.58 2133.58,1139.64 2136.03,1141.04C2172.07,1161.52 2227.35,1189.46 2227.91,1189.74L2242.07,1196.89L2242.25,1181.01C2242.3,1177.33 2241.51,1098.18 2114.86,1003.28L2137.46,1008.93L2151.54,1012.43L2149.65,998.023L2149.32,995.533L2162.09,1012.59L2164.21,1015.46L2167.69,1016.28L2225.62,1030.21L2238.52,1033.31L2237.78,1020.05L2237.67,1018.17L2247.35,1033.6L2249.55,1037.1L2253.59,1038L2344,1058.07L2367.73,1063.34L2354.39,1042.98C2284.3,936.002 2181.88,910.283 2099.58,889.622L2096.87,888.935L2110.35,887.858L2122.84,886.86L2119.39,876.276L2128,882.424L2130.89,884.499L2134.43,884.24L2178.41,881.075L2194.45,879.908L2186.16,866.095L2185.17,864.448L2208.48,876.25L2211.11,877.586L2214.06,877.249L2320.2,865.044L2349.3,861.698L2324.13,846.705C2246.82,800.675 2193.5,783.685 2044.72,779.846C2051.87,770.145 2062.18,756.28 2077.63,736.436L2084.16,728.058L2075.34,722.131L2075.07,721.936L2087.03,721.301L2091.28,721.067L2094.05,717.825C2096.12,715.373 2099.95,710.626 2104.03,705.62C2108.31,700.328 2112.75,694.855 2114.93,692.313L2122.96,682.962L2115.51,678.967L2121.97,678.487L2126.04,678.189L2128.7,675.115C2163.66,634.779 2204.19,590.008 2204.6,589.567L2219.4,573.225L2197.39,573.017C2058.09,571.707 1970.87,678.124 1928.98,729.251L1921.78,738.006C1921.46,736.125 1921.12,734.322 1920.82,732.403C1909.9,667.943 1894.99,579.671 1783.65,497.676L1764.07,483.253L1768.05,507.286L1780.84,584.34L1781.55,588.542L1785.06,590.928L1799.83,600.915L1795.04,601.006L1783.64,601.252L1785.5,612.51L1790.92,645.726L1791.68,650.382L1795.76,652.729L1806.12,658.644L1804.17,658.734L1793.12,659.24L1794.85,670.174C1797.18,684.946 1800.9,708.772 1803.54,726.229L1802.15,725.308C1753.03,692.287 1670.83,637.023 1481.5,670.148L1461.69,673.611C1385.39,645.683 1304.76,631.44 1223.52,631.537C1038.88,631.537 865.278,703.584 734.711,834.397C691.678,877.496 654.494,926.065 624.118,978.854C564.652,980.138 467.262,1002.76 424.812,1128.54C419.684,1143.6 416.099,1159.14 414.112,1174.92C310.6,1209.77 226.647,1248.2 179.151,1282.01C160.89,1293.46 146.61,1304.25 136.753,1314.03C124.406,1326.31 118.401,1337.53 118.401,1348.4C118.401,1348.61 118.44,1348.8 118.44,1349.01C113.07,1356.74 110.36,1364.11 110.36,1371.28C110.36,1382.15 116.365,1393.37 128.712,1405.65C153.977,1430.76 208.204,1462.39 284.712,1495.08L244.286,1560.72L213.807,1610.26L303.077,1610.26C315.256,1610.26 320.807,1610.26 325.606,1602.71L330.392,1595.27C335.048,1587.99 342.713,1580.62 352.842,1586.55C376.227,1600.31 437.133,1632.48 497.3,1634.15C535.989,1635.24 570.112,1631.52 599.683,1623.18C633.288,1693.58 678.513,1757.59 734.711,1813.87C865.278,1944.71 1038.88,2016.73 1223.52,2016.73C1499.28,2016.73 1744.62,1854.21 1854.83,1605.8C2116.08,1546.09 2308.37,1460.32 2363.41,1405.65C2375.75,1393.37 2381.76,1382.15 2381.76,1371.28C2381.76,1371.07 2381.73,1370.88 2381.7,1370.67C2386.99,1362.94 2389.7,1355.6 2389.7,1348.4M1968.37,1140.35L1968.34,1140.34L1968.34,1140.29L1968.37,1140.35M1923.81,1117.9L1924.52,1114.69L1924.7,1115.48L1927.54,1117.64L1951.2,1135.7C1929.33,1129.87 1906.84,1124.22 1883.79,1118.76C1878.44,1101.46 1872.41,1084.38 1865.7,1067.55L1911.35,1107.1L1923.81,1117.9M1647.21,756.293C1643.52,761.688 1643.84,764.166 1644.2,766.461L1644.99,771.714C1645.4,772.259 1650.18,774.502 1650.18,774.502C1655.07,776.798 1660.57,779.742 1666.29,782.985C1661.77,782.345 1657.24,781.748 1652.71,781.195C1643.92,774.199 1634.97,767.414 1625.86,760.845L1626.47,760.716L1647.21,756.293Z" style="fill:none;fill-rule:nonzero;stroke:white;stroke-width:12.74px;"/>
    <path d="M2389.7,1348.4C2389.7,1337.53 2383.7,1326.31 2371.37,1314.03C2330.84,1273.8 2216,1216.73 2054.06,1165.58C2048.11,1142.25 2036.25,1108.71 2012.71,1072.56C2027.81,1081.92 2042.35,1090.86 2050.26,1095.46L2055.15,1098.31C2055.55,1098.32 2060.47,1095.54 2060.47,1095.54C2061.78,1094.92 2062.93,1094.01 2063.84,1092.87C2067.38,1100.68 2068.81,1101.52 2070.68,1102.6L2096.16,1117.1L2111.84,1126.02L2116.55,1128.69C2116.9,1128.71 2121.67,1126.2 2121.67,1126.2C2123.38,1125.47 2124.81,1124.2 2125.74,1122.6C2131.83,1138.58 2133.58,1139.64 2136.03,1141.04C2172.07,1161.52 2227.35,1189.46 2227.91,1189.74L2242.07,1196.89L2242.25,1181.01C2242.3,1177.33 2241.51,1098.18 2114.86,1003.28L2137.46,1008.93L2151.54,1012.43L2149.65,998.023L2149.32,995.533L2162.09,1012.59L2164.21,1015.46L2167.69,1016.28L2225.62,1030.21L2238.52,1033.31L2237.78,1020.05L2237.67,1018.17L2247.35,1033.6L2249.55,1037.1L2253.59,1038L2344,1058.07L2367.73,1063.34L2354.39,1042.98C2284.3,936.002 2181.88,910.283 2099.58,889.622L2096.87,888.935L2110.35,887.858L2122.84,886.86L2119.39,876.276L2128,882.424L2130.89,884.499L2134.43,884.24L2178.41,881.075L2194.45,879.908L2186.16,866.095L2185.17,864.448L2208.48,876.25L2211.11,877.586L2214.06,877.249L2320.2,865.044L2349.3,861.698L2324.13,846.705C2246.82,800.675 2193.5,783.685 2044.72,779.846C2051.87,770.145 2062.18,756.28 2077.63,736.436L2084.16,728.058L2075.34,722.131L2075.07,721.936L2087.03,721.301L2091.28,721.067L2094.05,717.825C2096.12,715.373 2099.95,710.626 2104.03,705.62C2108.31,700.328 2112.75,694.855 2114.93,692.313L2122.96,682.962L2115.51,678.967L2121.97,678.487L2126.04,678.189L2128.7,675.102C2163.66,634.766 2204.19,590.008 2204.6,589.554L2219.4,573.212L2197.39,573.004C2058.09,571.694 1970.87,678.111 1928.98,729.238L1921.78,737.993C1921.46,736.112 1921.12,734.309 1920.82,732.39C1909.9,667.93 1894.99,579.658 1783.65,497.663L1764.07,483.24L1768.05,507.26L1780.84,584.314L1781.55,588.516L1785.06,590.902L1799.83,600.889L1795.04,600.98L1783.64,601.226L1785.5,612.484L1790.92,645.7L1791.68,650.356L1795.76,652.703L1806.12,658.618L1804.17,658.708L1793.12,659.214L1794.85,670.148C1797.18,684.92 1800.9,708.746 1803.54,726.203L1802.15,725.282C1753.03,692.261 1670.83,636.997 1481.5,670.122L1461.69,673.585C1385.39,645.662 1304.76,631.422 1223.52,631.524C1038.88,631.524 865.278,703.571 734.711,834.384C691.685,877.487 654.507,926.055 624.131,978.841C564.665,980.125 467.275,1002.74 424.825,1128.53C419.697,1143.58 416.112,1159.12 414.125,1174.9C310.613,1209.76 226.66,1248.18 179.164,1282C160.903,1293.45 146.623,1304.24 136.766,1314.02C124.419,1326.3 118.414,1337.52 118.414,1348.39C118.414,1348.6 118.453,1348.79 118.453,1349C113.07,1356.73 110.373,1364.1 110.373,1371.27C110.373,1382.14 116.378,1393.36 128.725,1405.64C153.99,1430.75 208.217,1462.38 284.712,1495.06L244.286,1560.7L213.807,1610.25L303.077,1610.25C315.256,1610.25 320.807,1610.25 325.606,1602.7L330.392,1595.26C335.048,1587.98 342.726,1580.61 352.842,1586.54C376.227,1600.3 437.133,1632.47 497.3,1634.14C535.989,1635.23 570.112,1631.51 599.683,1623.17C633.288,1693.57 678.513,1757.57 734.711,1813.86C865.278,1944.7 1038.88,2016.72 1223.52,2016.72C1499.28,2016.72 1744.62,1854.2 1854.83,1605.79C2116.08,1546.07 2308.37,1460.31 2363.41,1405.64C2375.75,1393.36 2381.76,1382.14 2381.76,1371.27C2381.76,1371.06 2381.73,1370.87 2381.7,1370.66C2386.99,1362.94 2389.7,1355.6 2389.7,1348.4ZM1968.37,1140.35L1968.34,1140.34L1968.34,1140.29L1968.37,1140.35ZM1923.81,1117.9L1924.52,1114.69L1924.7,1115.48L1927.54,1117.64L1951.2,1135.71C1929.33,1129.89 1906.84,1124.23 1883.79,1118.77C1878.44,1101.47 1872.41,1084.39 1865.7,1067.57L1911.35,1107.11L1923.81,1117.9ZM1647.21,756.293C1643.52,761.688 1643.84,764.166 1644.2,766.461L1644.99,771.714C1645.4,772.259 1650.18,774.502 1650.18,774.502C1655.07,776.798 1660.57,779.742 1666.29,782.985C1661.77,782.345 1657.24,781.748 1652.71,781.195C1643.92,774.199 1634.97,767.414 1625.86,760.845L1626.47,760.716L1647.21,756.293Z"/>
    <path d="M1771.97,1058.68L1735.67,1070.08L1723.07,1074.04L1722.92,1065.87L1721.4,1068.47L1719.35,1071.99L1715.42,1073.03L1688.57,1080.16C1710.1,1083.62 1731.46,1087.22 1752.36,1091.09L1771.97,1058.68ZM1218.68,765.346C1231.13,764.814 1243.61,764.451 1256.12,764.451C1328.58,764.451 1399.52,773.115 1467.45,789.677C1521.74,777.628 1568.71,775.488 1608.39,777.369C1506.4,705.588 1386.06,664.274 1261.48,658.267C1245.36,679.823 1215.49,725.606 1218.68,765.346ZM1189.47,767.058C1185.93,720.522 1208.33,678.876 1222.52,657.528C1150.11,658.126 1078.29,670.636 1009.94,694.557L1040.59,790.818C1089.47,778.772 1139.27,770.824 1189.47,767.058ZM1406.43,806.655C1357.49,798.082 1307.21,793.685 1256.12,793.685C1245.86,793.685 1235.64,793.931 1225.42,794.294C1248.88,854.072 1330.28,912.345 1472.87,971.474C1533.21,921.619 1606.07,905.406 1663.04,897.3C1661.34,896.34 1659.64,895.355 1657.91,894.395C1621.53,888.974 1582.83,882.709 1554.69,877.379C1551.11,876.705 1548.11,874.26 1546.74,870.894C1545.72,868.784 1545.45,866.393 1545.97,864.111C1524.18,873.241 1520.33,872.567 1518.03,872.139C1510,870.677 1501.93,869.393 1493.85,868.287C1486.5,867.223 1478.88,866.121 1470.36,864.552C1470.36,864.552 1464.48,863.462 1464.27,863.293L1462.5,857.587C1462.24,856.803 1462.03,856.001 1461.89,855.187C1449.75,860.674 1446.92,860.207 1444.82,859.818C1424.53,856.056 1354.74,846.705 1354.03,846.601L1318.62,841.867L1351.42,827.704C1369.45,819.918 1387.81,812.895 1406.43,806.655ZM1092.57,1050.32L1021.19,826.057C971.915,839.772 923.966,857.859 877.91,880.102C897.222,920.879 902.631,1002.69 894.771,1069.02C960.452,1060.35 1026.43,1054.11 1092.57,1050.32ZM861.322,855.797C909.808,832.071 960.358,812.817 1012.34,798.276L982.602,704.829C916.817,731.269 855.709,768.116 801.622,813.957C824.746,822.616 845.292,837.016 861.322,855.797Z" style="fill:rgb(68,168,137);"/>
    <path d="M1235.79,1046.19L1272.26,1046.19C1373.6,1046.19 1472.55,1052.56 1567.11,1063.42C1569.52,1060.33 1572.16,1057.15 1575.11,1053.91C1558.19,1043.3 1540.73,1033.56 1522.81,1024.73L1434.2,1038.93L1410.86,1042.68L1424.6,1023.4C1432.16,1012.81 1440.47,1002.77 1449.45,993.341C1298.83,929.374 1216.9,865.836 1195.07,795.954C1145.62,799.456 1096.84,807.147 1049.45,818.677L1122.7,1048.8C1160,1047.1 1197.72,1046.19 1235.79,1046.19ZM1625.27,1012.8L1626.89,1000.06L1627.65,993.951L1612.32,1010.57L1609.99,1013.08L1606.59,1013.63L1573.63,1018.8C1581.66,1023.46 1589.59,1028.26 1597.42,1033.25C1607.27,1025.52 1617.67,1018.54 1628.55,1012.36L1625.27,1012.8ZM1802.54,1651.89C1809.9,1639.13 1816.81,1626.08 1823.32,1612.78C1817.76,1614 1812.17,1615.16 1806.57,1616.32C1805.38,1629.03 1804.02,1640.95 1802.54,1651.89ZM1264.23,1673.48L1227.76,1673.48C1073.12,1673.48 923.979,1658.78 787.771,1635.68C791.233,1649.39 795.358,1662.92 800.273,1676.26C885.251,1907.33 1063.08,1961.95 1064.87,1962.45L1070.75,1965.14C1122.43,1977.83 1175.47,1984.22 1228.69,1984.19C1282.19,1984.19 1334.2,1977.81 1384.03,1965.8L1290.93,1673.32C1282.04,1673.42 1273.14,1673.48 1264.23,1673.48ZM707.994,991.188C729.458,999.528 748.563,1011.97 764.023,1022.06C768.16,1024.75 772.077,1027.31 775.333,1029.32C782.647,1033.81 801.026,1024.9 810.935,1017.04L825.318,1005.18L831.051,1000.46L838.366,1001.73C845.719,1003.02 847.38,1005.78 854.37,1017.47L859.208,1025.56L868.118,1040.47C871.763,985.598 867.236,923.901 851.971,893.215C799.586,920.866 751.157,953.797 707.994,991.188ZM1831.05,1106.84C1839.94,1108.75 1848.75,1110.69 1857.47,1112.68C1853.75,1101.42 1849.73,1090.28 1845.4,1079.24L1831.05,1106.84ZM1596.72,1658.06L1596.01,1658L1595.29,1657.9C1588.97,1656.88 1582.69,1655.66 1576.45,1654.23C1491.76,1664.56 1406.62,1670.76 1321.33,1672.8L1412.23,1958.24L1408.05,1959.56C1551.76,1919.14 1675.65,1831.33 1761.93,1714.05C1765.02,1700.04 1771.55,1666.95 1775.96,1622.54C1759.88,1625.73 1743.59,1628.77 1727.09,1631.71C1686.86,1652.23 1641.76,1661.34 1596.72,1658.06ZM674.039,982.589C721.482,939.167 775.488,901.087 834.449,869.545C806.745,840.83 772.025,840.506 772.025,840.506C728.656,881.973 691.096,929.118 660.369,980.657C665.064,981.241 668.656,981.85 670.809,982.239C671.873,982.317 672.949,982.46 674.039,982.589ZM665.401,1072.78C642.276,1070.56 620.305,1081.3 610.746,1099.53C606.842,1106.96 605.014,1115.09 604.637,1123.55C639.222,1115.07 673.976,1107.29 708.875,1100.23C698.616,1084.14 683.714,1074.55 665.401,1072.78Z" style="fill:rgb(68,168,137);"/>
    <path d="M772.894,1686.37C766.225,1668.03 760.762,1649.28 756.539,1630.24C717.962,1623.22 679.541,1615.36 641.303,1606.68C638.67,1608.07 635.921,1609.37 633.197,1610.66C696.697,1741.35 801.596,1848.13 931.022,1913.51C872.982,1864.51 811.648,1791.75 772.894,1686.37Z" style="fill:rgb(68,168,137);"/>
    <path d="M1029.05,877.21L1149.72,902.138L1034.45,857.729L1152.01,828.081L1032.77,838.586L1071.64,721.378L1009.28,828.963L961.734,717.267L987.557,823.852L874.409,769.328L978.219,837.367L832.879,831.31L976.156,858.144L867.081,911.165L980.722,873.384L908.675,972.434L1000.85,893.176L1011.67,1009.53L1016.61,885.498L1071.72,994.34L1029.05,877.21ZM1310.21,927.157L1366.16,893.993L1305.41,917.611L1340.83,864.253L1297.96,910.737L1271.65,851.128L1285.37,915.328L1227.24,888.598L1275.07,921.061L1211.57,939.971L1276.23,929.66L1217.29,978.958L1282.76,938.505L1258.92,998.01L1289.96,942.85L1296.87,1007.15L1304.82,943.421L1350.24,985.028L1308.25,934.822L1368.34,957.739L1310.21,927.157ZM917.066,1759.88L984.82,1679.84L904.758,1747.93L930.594,1647.95L889.804,1741.37L818.353,1664.51L873.06,1755.02L770.495,1745.04L860.401,1769.18L773.672,1831.55L866.666,1781.67L811.168,1875.7L881.296,1791.68L876.328,1894.86L894.512,1794.48L938.907,1888.72L917.455,1787.49L1008.53,1826.84L918.156,1772.58L1021.69,1775.74L917.066,1759.88ZM1322.46,1845.48L1462.26,1827.06L1321.02,1822.38L1436.99,1746.13L1312.02,1802.32L1310.15,1660.99L1283.02,1800.75L1189.78,1697.87L1257.61,1803.41L1114.88,1786.99L1252.61,1821.51L1093.21,1869.62L1258.14,1844.74L1160.08,1943.1L1268.78,1859.51L1227.99,1993.67L1297.96,1873.34L1353.24,1995.06L1312.12,1859.11L1412.46,1956.05L1322.46,1845.48Z" style="fill:rgb(231,183,60);"/>
    <path d="M1942.75,1537.61C1910.51,1536.77 1877.63,1520.73 1864.99,1513.87C1863.18,1512.91 1858.2,1510.2 1853.64,1514.13C1852.52,1515.85 1851.36,1517.61 1850.12,1519.42L1847.39,1523.4C1833.01,1544.12 1816.59,1563.36 1798.38,1580.81C1863.12,1567.67 1927.32,1551.97 1990.82,1533.77C1976.59,1536.74 1960.61,1538.06 1942.75,1537.61ZM499.167,1351.54C497.87,1349.84 495.393,1347.13 492.553,1343.99C472.437,1321.78 425.097,1269.44 429.027,1190.39C246.413,1251.39 134.678,1317.65 134.678,1348.4C134.678,1372.51 203.431,1418.49 321.209,1466.62L366.24,1393.51L370.987,1385.78L432.036,1385.78L421.232,1408.88C405.318,1442.98 398.613,1472.38 401.051,1496.83C444.569,1512.02 488.559,1525.82 532.954,1538.21C538.961,1531.26 544.033,1523.55 548.037,1515.28C561.967,1487.11 565.002,1436.08 500.322,1353.01L499.167,1351.54ZM1723.33,1313.75L1806.19,1249.95C1813.72,1242.15 1799.94,1236.47 1799.94,1236.47L1814.43,1202.78L1938.54,1202.78L1927.67,1225.93L1921.56,1238.92L1917.18,1248.24L1906.89,1248.24C1889.67,1248.24 1879.41,1254.37 1870.37,1260.65C1864.47,1264.72 1837.92,1285.29 1809.83,1307.05L1767.52,1339.74L1792.42,1473.53C1793.38,1478.24 1801.36,1479.21 1801.57,1479.23L1818.94,1479.23L1865.05,1411.43L1869.86,1404.34L1919.23,1404.34L1907.4,1427.87C1896.88,1448.76 1894.33,1466.04 1900.01,1477.85C1904.71,1487.61 1913.99,1491.46 1916.04,1491.89L1918.9,1492.31C1934.61,1494.79 1952.34,1495.61 1963.97,1473.74C1970.3,1461.86 1971.04,1439.62 1938.67,1401.29L1938.01,1400.53C1937.5,1399.89 1936.13,1398.5 1934.79,1397.15C1921.72,1383.84 1881.9,1343.3 1904.04,1282.23C1930.69,1208.68 2001.52,1201.97 2036.29,1208.81C2041.08,1209.14 2045.79,1210.05 2050.32,1211.35L2044.1,1206.58L1984.75,1161.26C1931.47,1146.15 1877.7,1132.81 1823.54,1121.26L1723.33,1313.75ZM1648.63,1515.69L1643.87,1523.29L1557.97,1523.29C1570.7,1559.3 1589.63,1596.14 1640.57,1600.07L1641.29,1600.12L1641.97,1600.25C1645.27,1600.75 1717.31,1610.38 1788.62,1523.29L1723.01,1523.29C1704.54,1523.29 1691.27,1508.88 1688.14,1495.3C1688.12,1495.25 1677.99,1449.8 1669.99,1413.96L1640.33,1465.41C1633.84,1484.92 1670.3,1480.03 1670.3,1480.03C1670.4,1480.03 1658.31,1500.29 1658.31,1500.29L1648.63,1515.69Z" style="fill:rgb(79,53,127);"/>
    <path d="M972.953,1271.09C972.953,1262.15 969.957,1259.64 968.971,1258.83C965.794,1256.17 960.372,1255.32 955.69,1255.24L908.804,1341.85C916.768,1341.64 924.965,1338.96 933.356,1333.67C957.039,1318.64 972.953,1289.17 972.953,1271.09ZM1145.45,1317.9L1105.8,1367.22L1136.63,1367.22L1145.45,1317.9Z"/>
    <path d="M2057.94,1183.48C2059.43,1191.96 2059.86,1197.25 2059.94,1198.08L2061.08,1215.23C2070.55,1219.21 2079.17,1224.33 2086.3,1228.63C2088.56,1230 2090.71,1231.3 2092.52,1232.32C2098.09,1235.46 2109.61,1229.81 2114.55,1226.07L2128.43,1215.6C2128.51,1215.55 2137.97,1230.14 2137.97,1230.14L2144.62,1240.41L2150.41,1249.34L2144.56,1258.22L2095.07,1333.25L2080.21,1355.77L2067.34,1332.06L2061.01,1320.44L2055.14,1309.65L2063.62,1301.33C2065.34,1298.35 2065.64,1287.57 2064.26,1278.79C2057.5,1259.47 2042.73,1255.16 2034.41,1254.32C2020.96,1252.97 2007.81,1258.73 2002.41,1268.27C1990.74,1288.92 2014.53,1323.12 2024.68,1334.54C2043.45,1355.66 2085.12,1411.11 2066.68,1469.6C2057.86,1497.59 2039.33,1516.97 2011.51,1527.7C2233.74,1461.52 2373.36,1382.77 2373.36,1348.4C2373.36,1316.48 2252.99,1246.32 2057.94,1183.48ZM1423.46,1486.5L1423.2,1484.75C1423.2,1484.75 1412.62,1412.43 1411.24,1403.21C1407.87,1390.54 1403.82,1383.81 1400.85,1380.72C1388.44,1403.63 1363.64,1448.63 1356.7,1462.16C1351.84,1471.91 1359.94,1481.64 1381.9,1481.03L1369.87,1500.28L1360.22,1515.69L1355.46,1523.29L1346.5,1523.29L1321.8,1523.36C1245.69,1523.55 1216.77,1523.55 1210.4,1523.29L1061.38,1523.29L1079.05,1478.95C1079.05,1478.95 1112.81,1480.84 1118.43,1461.04L1126.61,1411.34L1069.88,1411.34L1029.28,1466.62C1017.19,1480.84 1060.14,1478.4 1060.14,1478.4L1043.22,1523.77L1033.85,1523.29L928.778,1523.29L903.422,1523.31L914.07,1500.27L921.191,1484.84L925.535,1475.41L935.885,1475.41C953.381,1475.41 965.638,1463.08 967.065,1461.59C1130.77,1258.3 1157.36,1225.41 1157.36,1225.41C1166.88,1212.89 1180.92,1204.96 1195.95,1203.53L1196.71,1203.46L1197.46,1203.46L1245.01,1203.41L1263.62,1203.4L1261.09,1221.87C1251.73,1290.22 1227.28,1468.93 1226.56,1475.13C1226.51,1475.56 1229.5,1482.5 1234.59,1473.51L1352.66,1258.42C1358.34,1243 1318.64,1243 1318.64,1243C1318.56,1243 1335.61,1222.34 1335.61,1222.34L1346.78,1208.98L1351.64,1203.18L1359.19,1203.18L1474.81,1203.15C1526.28,1203.15 1565.59,1217.81 1582.66,1243.35C1590.87,1255.62 1598.07,1276.48 1585.83,1306.28C1565.76,1355.17 1525.28,1376.95 1491.59,1384.95C1507.11,1404.46 1520.69,1429.63 1532.12,1455.38L1743.67,1105.5C1713.54,1100.02 1683.31,1095.05 1653.01,1090.6L1611.21,1103.81L1591.09,1109.64L1558.16,1119.2L1544.21,1123.25L1545.57,1108.75C1545.7,1107.53 1547.11,1095.43 1557.05,1078.31C1462.47,1067.82 1367.4,1062.53 1272.24,1062.46L1235.77,1062.46C1097.93,1062.46 966.04,1073.86 844.422,1092.2L766.319,1219.76L751.092,1244.63L738.032,1218.54L726.488,1195.49L721.391,1185.31L729.212,1177.03C737.318,1168.46 737.253,1136.89 734.089,1116.64C733.544,1114.92 732.96,1113.21 732.338,1111.51C684.561,1120.8 637.055,1131.43 589.878,1143.4C597.88,1192.19 636.413,1239.92 638.631,1242.62C668.591,1279.23 732.13,1370.3 717.436,1468.41C721.845,1466.02 724.712,1463.65 726.086,1462.38L837.315,1259.62C844.345,1243.38 809.248,1244 809.248,1244C809.184,1244 831.297,1202.86 831.297,1202.86L961.163,1202.83C1012.63,1202.83 1051.94,1217.47 1069.02,1243.02C1077.22,1255.31 1084.43,1276.17 1072.2,1305.96C1043.86,1374.96 974.885,1390.01 941.696,1388.39C914.693,1388.74 897.041,1386.13 885.757,1383.12C872.243,1408.08 847.924,1452.48 842.166,1463.81C836.485,1481.67 869.778,1477.89 869.778,1477.89L856.303,1499.85L846.64,1515.61L841.893,1523.31L700.536,1523.31C691.737,1541.52 679.39,1557.78 664.221,1571.14C830.843,1608.17 1026.49,1634.4 1235.75,1634.4L1272.22,1634.4C1351.12,1634.4 1428.09,1630.65 1502.28,1624.01C1437.04,1580.85 1427.31,1513.43 1423.46,1486.5Z" style="fill:rgb(79,53,127);"/>
    <path d="M1469.31,1255.56L1422.42,1342.18C1430.4,1341.94 1438.61,1339.28 1446.97,1333.97C1470.68,1318.97 1486.59,1289.51 1486.59,1271.4C1486.59,1262.46 1483.61,1259.97 1482.61,1259.14C1479.43,1256.5 1474.01,1255.63 1469.31,1255.56Z"/>
    <path d="M961.163,1219.05L843.722,1219.08L836.122,1232.43C836.122,1232.43 870.505,1234.16 858.495,1256.15C846.485,1278.13 739.173,1472.17 739.173,1472.17C739.173,1472.17 726.177,1491.04 695.672,1491.37C695.867,1490.71 696.1,1490.1 696.295,1489.45C727.759,1382.47 647.567,1279.14 626.089,1252.92C604.599,1226.68 550.255,1144.96 582.044,1084.4C613.833,1023.85 721.378,1017.98 749.899,1112.86C749.899,1112.86 759.224,1168.86 740.963,1188.19L752.506,1211.22L843.528,1062.56L831.375,1042.21C831.375,1042.21 790.209,1076.53 758.394,1057.02C736.735,1043.73 701.029,1016.12 666.062,1014.39C666.062,1014.39 509.426,978.906 455.42,1138.94C416.537,1254.18 497.39,1322.8 511.956,1341.58C526.534,1360.37 598.477,1449.88 562.564,1522.55C526.637,1595.23 461.594,1579.87 444.214,1575.19C427.276,1570.6 345.813,1532 406.55,1402.05L380.014,1402.05L271.794,1577.8L302.987,1577.8C302.987,1577.8 329.536,1535.27 369.158,1558.58C400.921,1577.24 451.62,1600.43 498.117,1601.71C555.612,1603.31 652.677,1597.2 690.056,1507.1L832.84,1507.1L842.503,1491.34C821.297,1489.14 815.292,1481 822.296,1467.08C829.3,1453.14 878.274,1362.89 878.274,1362.89C878.274,1362.89 891.658,1372.88 941.89,1372.16C941.89,1372.16 1025.51,1376.92 1057.19,1299.79C1080.2,1243.76 1025.22,1219.05 961.163,1219.05ZM884.408,1352.81L945.587,1239.79C945.587,1239.79 989.139,1231.12 989.139,1271.09C989.152,1311.04 936.404,1377.56 884.408,1352.81ZM1630.87,1746.56L1692.9,1709.8L1625.55,1735.98L1664.81,1676.85L1617.32,1728.38L1588.16,1662.31L1603.36,1733.43L1538.94,1703.83L1591.96,1739.8L1521.56,1760.78L1593.23,1749.32L1527.93,1803.97L1600.47,1759.13L1574.05,1825.07L1608.46,1763.94L1616.1,1835.2L1624.92,1764.58L1675.28,1810.67L1628.74,1755.04L1695.32,1780.45L1630.87,1746.56Z" style="fill:rgb(231,183,60);"/>
    <path d="M991.188,803.684L1008.57,845.901L1035.52,800.001L1023.81,843.631L1058.44,845.81L1025.93,855.836L1044.31,871.101L1022.71,863.851L1030.25,897.91L1015.07,867.898L1010.11,894.278L1005.38,875.278L972.94,902.994L996.973,860.31L969.788,869.311L992.887,855.123L958.012,845.94L997.116,847.224L973.108,826.848L998.205,837.951L991.188,803.684ZM1269.34,911.891L1291.1,922.202L1285.37,894.693L1296.24,915.899L1310.56,904.434L1301.41,919.907L1313.98,919.336L1302.98,924.187L1318,934.822L1301.44,928.492L1308.83,940.554L1300.25,934.822L1297.38,957.169L1291.66,931.942L1284.24,945.146L1288.24,931.385L1271.36,940.191L1287.09,926.793L1270.51,927.364L1284.24,922.786L1269.34,911.891ZM846.861,1758.23L885.394,1762.45L862.204,1723.59L889.907,1750.13L905.653,1725.13L899.868,1753.53L918.726,1746L904.524,1759.21L932.967,1767.43L904.434,1766.57L922.047,1781.01L905.964,1776.81L913.383,1812.37L891.399,1776.99L887.015,1801L885.861,1777.92L864.811,1800.27L881.711,1771.57L856.757,1781.19L875.239,1766.95L846.861,1758.23ZM1254,1780.23L1288.6,1819.33L1300.54,1759.58L1304.23,1811.16L1342.47,1800.46L1311.09,1823.55L1336.68,1833.12L1310.61,1833.42L1331.53,1867.41L1303.86,1840.67L1308.4,1871.04L1296.15,1852.29L1271.46,1894.44L1281.45,1839.27L1255.43,1859.22L1275.08,1835.2L1233.96,1838.39L1276.72,1825.07L1243.14,1812.07L1274.41,1814.63L1254,1780.23ZM1585.61,1729.63L1609.72,1741.06L1603.36,1710.6L1615.42,1734.07L1631.27,1721.39L1621.12,1738.53L1635.07,1737.9L1622.87,1743.27L1639.51,1755.04L1621.17,1748.03L1629.35,1761.41L1619.86,1755.04L1616.68,1779.83L1610.35,1751.85L1602.09,1766.47L1606.55,1751.22L1587.84,1761L1605.27,1746.16L1586.9,1746.79L1602.09,1741.7L1585.61,1729.63Z" style="fill:white;"/>
    <path d="M2096.61,901.399C2076.2,896.263 2056.91,891.425 2039.37,885.692L2039.87,881.36L2106.55,876.017L2098.52,851.426L2096.45,844.98L2101.95,848.923L2134.37,872.126L2173.91,869.273L2157.09,841.31L2153.11,834.695L2160,838.184L2213.32,865.161L2312.18,853.8C2235.64,808.963 2183.45,794.372 2025.28,791.597L2020.82,791.519L2023.56,788.004C2025.89,784.995 2028.8,781.065 2032.48,776.072C2039.5,766.539 2050.04,752.207 2066.58,730.924L2043.72,715.542L2038.2,711.82L2044.87,711.456L2085.4,709.291C2087.47,706.787 2090.89,702.572 2094.59,698.033C2098.01,693.818 2101.45,689.538 2103.94,686.58L2079.78,673.611L2073.03,669.992L2080.66,669.434L2120.13,666.529C2143.9,639.236 2167.91,612.15 2192.15,585.274C2061.62,586.648 1978.47,687.955 1938.28,737.007C1929.38,747.876 1922.34,756.462 1917.07,761.273L1914.16,763.932L1913.39,760.067C1911.77,751.948 1910.33,743.466 1908.8,734.491C1897.83,669.525 1884.13,588.892 1780.85,510.866L1792.55,581.46L1832.32,608.36L1838.11,612.29L1831.12,612.445L1797.77,613.133L1802.58,642.769L1841.64,665.077L1848.31,668.877L1840.63,669.227L1807.09,670.757C1809.06,683.182 1817.56,737.357 1818.47,746.021L1818.92,750.392L1815.14,748.187C1808.41,744.127 1801.79,739.862 1795.31,735.399C1748.27,703.778 1669.87,651.186 1490.1,681.042C1505.75,689.148 1548.2,711.119 1568.77,721.378C1572.52,721.547 1600.29,713.389 1624.77,705.542L1632.53,703.052L1627.11,709.148L1601.33,738.07L1624.66,748.745L1676.13,737.785L1684.22,736.06L1678.08,741.624C1668.65,750.145 1658.39,760.612 1656.55,764.192C1666.49,768.951 1678.13,775.812 1689.48,782.531C1701.36,789.56 1712.58,796.201 1719.52,798.938L1718.4,803.218C1710.96,802.271 1702.45,800.896 1693.42,799.456C1627.49,788.873 1517.8,771.351 1363.76,835.746C1382.91,838.353 1430.5,844.902 1446.97,847.937C1450.59,848.08 1475.57,835.201 1497.63,822.659L1500.29,826.174C1489.9,836.615 1478.86,848.365 1475.29,853.138C1482.46,854.409 1489.14,855.408 1495.57,856.329C1503.22,857.431 1511.15,858.585 1520.21,860.272C1523.56,860.674 1546.55,851.05 1566.83,841.517L1574.14,838.08L1569.6,844.786C1564.21,852.775 1558.65,862.502 1558.05,865.732C1610.05,875.524 1702.46,889.233 1742.38,893.669L1742.73,898.014C1732.61,900.984 1717.59,902.76 1698.59,905.03C1628.18,913.409 1511.08,927.442 1437.67,1026.13L1529.17,1011.46L1569.43,974.055L1575.36,968.556L1573.08,976.312L1563.75,1008.13L1603.93,1001.82L1639.73,963.044L1644.44,957.921L1643.56,964.834L1639.22,998.776C1649.4,997.44 1684.41,992.81 1695.01,991.214L1696.07,995.52C1582.45,1034.83 1561.74,1092.18 1558.27,1106.55L1587.71,1098.01L1607.77,1092.18L1656.33,1076.85L1680.17,1042.29L1684.32,1036.26L1684.22,1043.59L1683.84,1068.92L1711.4,1061.6L1730.22,1029.49L1734.23,1022.68L1734.38,1030.58L1734.86,1057.67L1834.85,1026.26L1836.04,1025.89L1836.97,1026.71L1916.44,1095.56L1922.26,1069.67L1926.59,1069.67L1935.52,1108.55L1958.45,1126.06L1963.39,1096.53L1967.72,1096.26L1982.1,1144.14L2047.25,1193.85C2044.67,1174.7 2031.25,1104.09 1969.49,1036.6L1972.3,1033.2L1988.03,1042.99C2009,1056.06 2040.21,1075.52 2054.55,1083.99C2055.62,1079.23 2056.47,1065.26 2056.73,1053.16L2061.04,1052.43C2066.59,1067.57 2075.12,1089.72 2077.02,1092.37L2102.1,1106.63L2116.03,1114.54C2117.33,1109.8 2119.04,1095.62 2120.08,1082.81L2124.41,1082.28C2131.66,1103.84 2140.3,1127.93 2142.29,1130.74C2172.91,1148.12 2217.27,1170.83 2229.84,1177.21C2227.76,1158.82 2210.18,1074.41 2061.1,981.305L2063,977.311C2069.56,979.567 2123.46,993.043 2137.17,996.467L2132.31,959.659L2131.19,951.216L2136.29,958.038L2171.24,1004.78L2225.51,1017.82L2223.46,980.657L2222.98,972.045L2227.57,979.347L2257.08,1026.45L2341.11,1045.1C2273.69,945.924 2175.65,921.242 2096.61,901.399Z" style="fill:rgb(79,53,127);"/>
    <path d="M2124.38,1238.99C2124.38,1238.99 2101.95,1256.32 2084.57,1246.47C2072.71,1239.77 2053.18,1225.82 2034.07,1224.95C2034.07,1224.95 1948.5,1207.04 1919.24,1287.81C1898.16,1345.96 1942.39,1380.59 1950.37,1390.07C1958.37,1399.57 1997.76,1444.74 1978.25,1481.42C1958.72,1518.1 1923.45,1509.24 1913.7,1507.97C1903.92,1506.7 1859.9,1486.18 1892.9,1420.6L1878.38,1420.6L1827.49,1495.45L1801.45,1495.45C1796,1495.45 1779.56,1491.73 1776.44,1476.5L1749.71,1332.95C1791.63,1300.76 1851.19,1254.18 1861.1,1247.3C1871.01,1240.43 1884.73,1232.02 1906.84,1232.02L1912.95,1219.03L1825.25,1219.03L1819.9,1232.02C1845.64,1240.05 1815.87,1262.97 1815.87,1262.97L1676.24,1367.77L1703.88,1491.67C1705.27,1497.75 1712.26,1507.09 1722.95,1507.09L1797.79,1507.09L1797.87,1506.83L1819.63,1506.98L1819.61,1507.04L1820.8,1507.04C1736.37,1632.32 1639.3,1616.27 1639.3,1616.27C1565.33,1610.57 1548.06,1543.61 1538.49,1516.63C1537.95,1515.14 1536.81,1511.77 1535.14,1507.09L1634.89,1507.09L1644.51,1491.67C1644.51,1491.67 1610.2,1489.99 1621.61,1466.46L1864.92,1008.77L1872.32,998.633L1960.42,1072.88C1949.73,1044.01 1922.55,962.344 1922.55,962.344L2071.57,1032.47L1964.52,951.164L2125.93,939.244L1950.54,912.021L2109.44,819.624L1939.85,868.3L2014.78,718.979L1907.72,832.815L1861.62,674.428L1867.36,842.71L1718.34,731.352C1718.34,731.352 1792.03,816.563 1825.39,863.345L1671.17,831.803L1817.96,914.485L1663.15,945.833L1800.58,960.476L1711.74,1014.3L1831.12,992.018C1830.72,993.596 1830.29,995.166 1829.83,996.726L1539.12,1475.78C1539.12,1475.78 1535.85,1481.7 1527.35,1486.24C1513.31,1450.37 1487.42,1393.81 1455.48,1372.49C1455.48,1372.49 1539.07,1377.25 1570.77,1300.09C1593.76,1244.11 1538.8,1219.39 1474.74,1219.39L1359.13,1219.42L1347.96,1232.76C1347.96,1232.76 1384.08,1234.5 1372.07,1256.5C1360.06,1278.46 1246.69,1485.04 1246.69,1485.04C1246.69,1485.04 1240.83,1491.87 1226.01,1493.49C1212.21,1489.34 1209.7,1479.51 1210.39,1473.33C1211.16,1466.46 1244.97,1219.65 1244.97,1219.65L1197.42,1219.7C1179.5,1221.39 1170.34,1235.21 1170.05,1235.45C1169.76,1235.68 979.308,1472.17 979.308,1472.17C979.308,1472.17 962.395,1491.65 935.833,1491.65L928.726,1507.07C943.978,1507.07 1033.68,1507.05 1034.14,1507.07L1039.5,1491.65C1027.63,1491.65 1004.78,1481.55 1011.54,1468C1016.54,1457.97 1061.64,1395.12 1061.64,1395.12L1145.67,1395.12L1134.14,1465.15C1128.03,1483.5 1109.89,1489.71 1089.86,1493.45L1085.32,1507.09L1210.61,1507.09C1215.63,1507.49 1330.44,1507.09 1346.46,1507.09L1356.11,1491.67C1334.5,1486.57 1328.89,1481.33 1335.91,1467.4C1342.9,1453.44 1391.86,1363.21 1391.86,1363.21C1391.86,1363.21 1414.88,1353.03 1427.1,1399.87C1427.1,1399.87 1434.38,1448.9 1439.19,1482.47C1444.03,1516.01 1456.44,1619.46 1597.77,1641.88C1728.21,1650.81 1809.06,1552.21 1840.24,1504.69C1844.5,1499.95 1855.87,1490.5 1872.66,1499.59C1890.05,1509.02 1917.74,1520.72 1943.14,1521.38C1976.45,1522.21 2034.16,1518.72 2051.18,1464.74C2068.2,1410.73 2024.31,1358.6 2012.53,1345.35C2000.78,1332.11 1970.99,1290.87 1988.27,1260.31C2005.54,1229.73 2064.26,1226.78 2079.96,1274.67C2079.96,1274.67 2085.12,1302.94 2075.18,1312.67L2081.51,1324.32L2131,1249.27L2124.38,1238.99ZM1150.2,1383.46L1071.94,1383.46L1172.56,1258.3L1150.2,1383.46ZM1398.05,1353.14L1459.25,1240.1C1459.25,1240.1 1502.79,1231.43 1502.79,1271.39C1502.79,1311.36 1450.06,1377.86 1398.05,1353.14Z" style="fill:rgb(231,183,60);"/>
    <path d="M1899.54,861.685L1944,825.383L1909.42,888.079L1987.64,874.058L1906.96,912.825L1982.7,935.924L1935.69,939.154L1961.3,964.795L1898.71,941.696L1922.5,1010.29L1879.79,969.749L1822.12,1047.3L1846.73,971.656L1785.9,982.953L1837.78,952.422L1771.92,942.526L1850.14,919.427L1763.68,864.98L1857.41,885.679L1817.21,825.383L1883.07,869.934L1879.79,795.682L1899.54,861.685Z" style="fill:white;"/>
    <path d="M866.769,1144.27L876.497,1144.27L860.323,1174.2L891.697,1174.2L887.962,1181.13L846.835,1181.13L866.769,1144.27ZM946.287,1144.27L977.116,1144.27C984.976,1144.27 986.532,1146.05 982.784,1152.99L972.278,1172.43C968.53,1179.35 965.054,1181.14 957.182,1181.14L926.365,1181.14C918.506,1181.14 916.949,1179.35 920.698,1172.43L931.203,1152.99C934.951,1146.05 938.427,1144.27 946.287,1144.27ZM961.591,1174.2L974.224,1150.85L942.098,1150.85L929.478,1174.2L961.591,1174.2ZM1028.09,1150.7L1023.81,1158.63L1049.93,1158.63C1057.79,1158.63 1059.42,1160.42 1055.67,1167.34L1052.94,1172.41C1049.19,1179.34 1045.63,1181.13 1037.78,1181.13L1011.9,1181.13C1004.04,1181.13 1002.41,1179.34 1006.15,1172.41L1006.7,1171.4L1016.14,1169.83L1013.8,1174.19L1043.4,1174.19L1047.96,1165.76L1021.85,1165.76C1013.99,1165.76 1012.43,1163.99 1016.17,1157.05L1018.37,1152.97C1022.12,1146.03 1025.6,1144.26 1033.47,1144.26L1057.24,1144.26C1064.7,1144.26 1066.7,1145.97 1063.26,1152.33L1062.83,1153.12L1053.28,1154.89L1055.56,1150.68L1028.09,1150.68L1028.09,1150.7ZM1164.63,1144.27L1174.05,1144.27L1178.12,1181.13L1167.17,1181.13L1166.5,1173.05L1139.98,1173.05L1130.76,1181.13L1121.03,1181.13L1164.63,1144.27ZM1166.05,1166.42L1165.15,1151.42L1147.71,1166.42L1166.05,1166.42ZM1226.08,1144.27L1232.74,1144.27L1250.44,1166C1251.49,1167.2 1252.41,1168.49 1253.07,1169.99C1254.49,1166.92 1255.49,1164.78 1256.11,1163.63L1266.56,1144.27L1275.33,1144.27L1255.41,1181.13L1248.76,1181.13L1230.34,1158.34C1229.6,1157.42 1228.97,1156.42 1228.47,1155.35C1227.64,1157.34 1226.72,1159.3 1225.71,1161.21L1214.94,1181.14L1206.17,1181.14L1226.08,1144.27ZM1316.64,1150.85L1303.99,1174.2L1334.42,1174.2L1338.86,1166L1322.97,1166L1326.37,1159.7L1351.75,1159.7L1344.86,1172.43C1341.11,1179.35 1337.64,1181.14 1329.79,1181.14L1300.91,1181.14C1293.03,1181.14 1291.48,1179.35 1295.23,1172.43L1305.74,1152.99C1309.47,1146.05 1312.97,1144.27 1320.82,1144.27L1349.7,1144.27C1357.33,1144.27 1359.17,1145.98 1355.57,1152.64L1355.12,1153.49L1344.81,1155L1347.04,1150.86L1316.64,1150.86L1316.64,1150.85ZM1395.37,1144.27L1438.2,1144.27L1434.78,1150.55L1401.69,1150.55L1397.26,1158.77L1416.57,1158.77L1413.17,1165.06L1393.87,1165.06L1388.93,1174.2L1422.42,1174.2L1418.67,1181.13L1375.46,1181.13L1395.37,1144.27ZM1471.24,1144.27L1480.97,1144.27L1464.78,1174.2L1496.15,1174.2L1492.4,1181.13L1451.29,1181.13L1471.24,1144.27ZM1541.28,1144.27L1584.09,1144.27L1580.69,1150.55L1547.6,1150.55L1543.17,1158.77L1562.48,1158.77L1559.06,1165.06L1539.76,1165.06L1534.82,1174.2L1568.33,1174.2L1564.58,1181.13L1521.34,1181.13L1541.28,1144.27ZM1622.49,1150.7L1618.21,1158.63L1644.33,1158.63C1652.18,1158.63 1653.83,1160.42 1650.08,1167.34L1647.34,1172.41C1643.59,1179.34 1640.03,1181.13 1632.17,1181.13L1606.28,1181.13C1598.41,1181.13 1596.79,1179.34 1600.53,1172.41L1601.09,1171.4L1610.52,1169.83L1608.16,1174.19L1637.77,1174.19L1642.34,1165.76L1616.21,1165.76C1608.34,1165.76 1606.79,1163.99 1610.53,1157.05L1612.74,1152.97C1616.49,1146.03 1619.96,1144.26 1627.84,1144.26L1651.6,1144.26C1659.04,1144.26 1661.05,1145.97 1657.63,1152.33L1657.2,1153.12L1647.63,1154.89L1649.91,1150.68L1622.49,1150.68L1622.49,1150.7Z" style="fill:rgb(231,183,60);"/>
    <path d="M1645.46,790.079C1661.73,790.079 1674.9,779.223 1674.9,765.839C1674.9,752.454 1661.73,741.611 1645.46,741.611C1629.22,741.611 1616.05,752.454 1616.05,765.839C1616.06,779.223 1629.22,790.079 1645.46,790.079Z"/>
    <path d="M897.261,1344.45L949.205,1248.31C949.205,1248.31 978.608,1248.17 978.608,1277.73C978.608,1307.26 934.926,1362.73 897.261,1344.45ZM1089.15,1376.26L1144.76,1375.65L1162.48,1283.2L1089.15,1376.26ZM1411.79,1343.94L1463.74,1247.81C1463.74,1247.81 1493.16,1247.66 1493.16,1277.22C1493.14,1306.78 1449.48,1362.23 1411.79,1343.94Z" style="fill:rgb(79,53,127);"/>
</svg>
