<?xml version="1.0" encoding="UTF-8" standalone="no"?>
<!DOCTYPE svg PUBLIC "-//W3C//DTD SVG 1.1//EN" "http://www.w3.org/Graphics/SVG/1.1/DTD/svg11.dtd">
<svg width="100%" height="100%" viewBox="0 0 2500 2500" version="1.1" xmlns="http://www.w3.org/2000/svg" xmlns:xlink="http://www.w3.org/1999/xlink" xml:space="preserve" xmlns:serif="http://www.serif.com/" style="fill-rule:evenodd;clip-rule:evenodd;stroke-linejoin:round;stroke-miterlimit:2;">
    <g>
        <path d="M1279.14,526.3C1279.14,526.3 1245.37,626.18 1217.16,647.334C1217.16,647.334 939.556,682.586 1001.82,793.335C1001.82,793.335 916.054,810.96 916.054,855.602C916.054,855.602 798.25,837.977 784.152,959.01C784.152,959.01 596.142,892.333 569.113,1059.19C569.113,1059.19 474.81,1048.62 488.908,1117.94C488.908,1117.94 317.059,1090.93 344.373,1288.34C344.373,1288.34 -98.337,1503.38 233.624,1676.39L114.938,1776.27L337.318,1852.95C337.318,1852.95 481.853,1783.32 492.423,1769.5C492.423,1769.5 495.951,1855.27 645.479,1817.69C645.479,1817.69 686.606,1874.11 745.359,1863.51L679.564,1945.76L932.487,1956.35L987.712,1835.31C987.712,1835.31 1134.6,1835.31 1161.92,1824.76L1165.44,1931.68C1165.44,1931.68 1355.52,1922.28 1389.87,1904.65L1355.52,1755.42C1355.52,1755.42 1542.65,1844.72 1729.77,1682.26C1729.77,1682.26 1887.53,1790.37 1929.81,1641.14C1929.81,1641.14 2100.22,1665.81 2072,1516.57C2072,1516.57 2682.46,1249.55 2210.97,1062.7L2262.67,969.581L2189.82,803.892L2041.45,903.772C2041.45,903.772 1975.67,753.362 1822.62,872.048C1822.62,872.048 1783.84,807.42 1739.17,852.075C1739.17,852.075 1718.01,719.29 1614.61,758.07C1614.61,758.07 1646.05,643.793 1403.67,640.265L1386.34,515.704C1386.38,515.717 1361.7,412.023 1279.14,526.3Z" style="fill:rgb(46,62,55);"/>
        <path d="M1224.51,1459.89C1184.57,1510.7 1120.82,1546.85 1063.53,1546.85C1027.1,1546.85 1000.07,1531.86 985.689,1507.76L981.578,1499.55C980.422,1497.18 979.438,1494.73 978.634,1492.21L962.772,1450.21L912.54,1459.01L877.288,1569.76L765.657,1605.02L727.461,1568.29C643.741,1697.25 326.475,1812.41 326.475,1812.41L205.441,1769.52L473.059,1560.94C496.846,1546.55 512.124,1533.05 521.527,1521.29C461.309,1497.2 452.787,1473.42 452.787,1473.42L411.375,1377.34L415.486,1343.56C466.886,1227.52 888.144,1062.72 888.144,1062.72L943.965,1111.18C751.844,1224.28 649.318,1327.12 620.525,1373.52C635.506,1376.74 647.84,1377.04 647.84,1377.04C671.925,1388.79 687.787,1401.71 696.891,1415.52L707.176,1345.02L971.863,1255.42L986.26,1275.11C1026.51,1230.16 1085.26,1199.6 1138.14,1199.6C1186.32,1199.6 1218.04,1225.16 1225.4,1263.93L1245.95,1307.12L1312.36,1143.19L1490.08,1086.79C1551.48,1065.63 1578.8,1082.09 1591.13,1100.59L1594.37,1095.6L1625.81,1140.24L1689.27,1006.28L1810.01,1108.8L2173.11,869.389L2209.54,948.414L1946.32,1421.07L1788.27,1424.02L1751.84,1345L1740.36,1326.79L1693.95,1421.08L1600.53,1406.7L1607.29,1421.08L1520.63,1449.89L1391.36,1402.88L1357.87,1474.26L1239.49,1492.47L1224.51,1459.89Z" style="fill:rgb(184,81,63);"/>
        <path d="M888.144,1062.72C888.144,1062.72 146.091,1335.91 511.242,1451.68C511.242,1451.68 584.093,1492.79 473.046,1560.94L205.428,1769.52C205.428,1769.52 909.583,1504.86 647.84,1377.05C647.853,1377.05 365.242,1370.87 888.144,1062.72Z" style="fill:rgb(223,165,83);"/>
        <path d="M971.876,1255.43L944.549,1367.93L876.108,1379.98L837.912,1511L716.294,1544.21L757.421,1433.46L692.209,1448.44L707.189,1345.03L971.876,1255.43ZM1424.26,1233.7C1443.95,1229.59 1463.62,1221.06 1465.67,1203.72C1469.19,1170.24 1426.61,1181.99 1426.61,1181.99L1424.25,1182.87L1424.25,1107.67L1490.06,1086.81C1599.64,1048.92 1601.11,1131.17 1601.11,1131.17L1601.11,1147.91C1596.09,1243.09 1502.39,1267.47 1502.39,1267.47L1570.83,1342.1L1484.17,1370.88L1424.24,1349.14L1424.24,1233.7L1424.26,1233.7ZM1403.42,1188.74L1382.55,1237.51C1382.55,1237.51 1403.42,1238.09 1424.28,1233.7L1424.28,1349.14L1354.67,1323.89L1321.45,1395.27L1203.08,1413.48L1312.36,1143.22L1424.28,1107.67L1424.28,1182.87L1403.42,1188.74Z" style="fill:rgb(223,165,83);"/>
        <path d="M1689.26,1006.31L1538.84,1323.88L1657.21,1342.1L1704.54,1246.32L1733.62,1294.8L1826.16,1217.24L1751.83,1345.03L1909.88,1342.1L2173.1,869.415L1766.81,1137.03L1689.26,1006.31ZM1082.03,1362.06C1098.49,1356.21 1114.05,1342.37 1120.81,1326.24C1129.62,1304.78 1119.34,1287.14 1098.19,1287.14C1092.9,1287.14 1087.32,1288.34 1082.03,1290.09L1082.03,1209.9C1100.84,1203.14 1119.63,1199.61 1138.14,1199.61C1211.88,1199.61 1246.82,1259.55 1215.98,1333.59C1192.76,1389.7 1138.72,1437.58 1082.02,1457.84L1082.02,1362.06L1082.03,1362.06ZM1043.26,1326.24C1034.45,1347.66 1044.74,1364.99 1065.88,1364.99C1071.17,1364.99 1076.75,1364.13 1082.04,1362.05L1082.04,1457.83C1063.83,1464.29 1045.03,1467.81 1027.12,1467.81C953.369,1467.81 918.428,1407.6 948.972,1333.58C972.188,1277.74 1025.65,1229.86 1082.06,1209.88L1082.06,1290.08C1065.58,1295.96 1050.01,1310.08 1043.26,1326.24Z" style="fill:rgb(223,165,83);"/>
        <path d="M479.816,1570.64C602.614,1494.55 518.596,1442.26 516.832,1441.39C279.758,1366.18 565.598,1212.83 764.775,1125.58C415.772,1356.48 611.719,1386.44 644.922,1388.49C736.281,1434.62 686.334,1502.48 581.46,1572.67C489.518,1634.07 361.428,1692.24 278.578,1727.2L479.816,1570.64Z" style="fill:white;"/>
        <path d="M828.509,1501.3L735.386,1526.87L775.929,1417L706.009,1433.16L717.76,1353.85L955.418,1273.35L934.861,1357.65L867.003,1370.01L828.509,1501.3ZM1477.16,1204.89C1480.11,1179.63 1463.05,1170.52 1448.94,1168.76C1443.07,1168.03 1437.12,1168.24 1431.32,1169.35C1426.63,1169.94 1423.42,1170.82 1423.42,1170.82L1421.34,1171.4L1421.34,1120.87L1493.92,1097.95C1546.2,1079.75 1568.24,1091.5 1577.93,1102.37C1583.53,1108.54 1586.46,1115.59 1587.93,1121.76C1589.39,1127.33 1589.39,1131.44 1589.39,1131.44L1589.39,1146.71C1584.98,1233.37 1499.8,1255.99 1499.49,1256.3L1480.69,1260.99L1550.03,1336.78L1484.22,1358.52L1421.34,1335.61L1421.34,1246.02C1422.54,1245.72 1423.7,1245.72 1424.86,1245.42C1443.95,1241.62 1474.22,1231.93 1477.16,1204.89ZM1421.33,1171.4L1394.91,1179.04L1365.22,1248.66C1365.22,1248.66 1379.02,1248.96 1389.89,1248.66C1399.59,1248.38 1411.34,1247.78 1421.33,1246.03L1421.33,1335.63L1348.78,1309.18L1313.51,1384.66L1221.57,1398.78L1321.16,1152.6L1421.33,1120.87L1421.33,1171.4ZM1902.83,1330.65L1772.4,1332.97L1839.66,1217.54L1823.8,1204.61L1736.56,1277.17L1703.64,1221.93L1650.75,1329.17L1556.16,1314.76L1690.43,1031.28L1762.98,1153.49L2139.61,905.549L1902.83,1330.65ZM1098.19,1275.69C1092.7,1275.46 1087.22,1276.26 1082.03,1278.05L1082.03,1222.23C1099.89,1215.16 1118.92,1211.47 1138.14,1211.36C1201.89,1211.36 1233.32,1261.01 1205.11,1329.17C1183.67,1381.15 1134.02,1425.51 1082.03,1445.18L1082.03,1374.41C1103.18,1368.22 1123.16,1350.9 1131.39,1330.63C1142.84,1303.31 1129.63,1275.69 1098.19,1275.69ZM1082.03,1278.05C1060.88,1283.93 1040.9,1301.26 1032.68,1321.53C1021.23,1349.14 1034.44,1376.75 1065.88,1376.75C1071.17,1376.75 1076.75,1375.87 1082.04,1374.42L1082.04,1445.19C1063.53,1452.26 1045.03,1456.06 1027.12,1456.06C963.368,1456.06 931.644,1406.13 959.84,1337.99C981.292,1286.26 1030.34,1241.91 1082.04,1222.23L1082.04,1278.05L1082.03,1278.05ZM1255.65,1666.99L1263.87,1666.11C1265.06,1686.37 1292.09,1706.94 1292.09,1706.94L1315.29,1875.27L1255.65,1881.15L1255.65,1666.99ZM1569.39,840.052L1569.39,841.803C1568.81,875.005 1495.96,908.778 1390.5,929.063C1384.63,927.883 1386.67,923.188 1389.31,919.66C1419,907.624 1436.6,892.929 1435.71,878.533C1433.96,849.156 1354.07,831.531 1255.65,838.288L1255.65,780.118L1256.82,780.118C1326.16,774.827 1390.2,776.305 1442.2,783.063L1439.54,781.597C1401.06,741.053 1327.62,734.011 1255.65,739.588L1255.65,688.474C1269.31,686.614 1283.02,685.243 1296.77,684.363C1325.26,684.363 1317.92,672.91 1317.92,672.91C1305.3,657.93 1271.52,653.806 1271.52,653.806L1314.71,541.89C1330.57,501.645 1346.42,538.647 1346.42,538.647L1352.88,647.347C1355.82,681.12 1370.81,684.363 1370.81,684.363C1401.36,681.12 1505.05,703.454 1505.05,703.454C1587.02,741.053 1557.06,783.361 1532.96,804.8C1555.58,814.488 1568.5,826.537 1569.39,840.052ZM1255.65,1021.01L1344.65,994.56L1378.17,883.513L1324.11,884.979C1324.11,884.979 1296.2,976.922 1255.65,993.964L1255.65,1021.01ZM904.9,1699.01L1008.01,1694.91L983.342,1731.35C1121.42,1736.61 1212.48,1713.72 1212.48,1713.72L1212.48,1670.25L1255.67,1667L1255.67,1881.16L1220.42,1884.67L1212.48,1766.59C1139.33,1781.58 953.667,1786.87 953.667,1786.87L887.275,1910.24C855.265,1924.93 762.428,1908.77 762.428,1908.77C778.575,1894.07 904.9,1699.01 904.9,1699.01ZM1255.65,688.461L1255.65,739.575C1157.82,747.499 1062.35,778.354 1062.35,778.354C1067.35,719.005 1189.85,696.386 1255.65,688.461ZM1255.65,780.105L1255.65,838.275C1253.29,838.56 1250.95,838.56 1248.9,838.858C1147.55,847.094 1066.48,878.222 1068.53,908.48C1069.11,921.113 1084.69,931.683 1109.94,939.024C1112,941.086 1113.47,943.434 1112,944.899C1020.34,937.26 957.48,915.224 955.716,884.681C952.487,839.455 1086.74,792.453 1255.65,780.105ZM1255.65,993.977C1254.07,994.772 1252.38,995.365 1250.65,995.741C1207.47,1006.89 1186.32,936.404 1185.74,904.083L1133.44,905.847C1133.44,905.847 1137.25,1028.64 1134.62,1054.19C1131.68,1080.06 1134.62,1056.56 1134.62,1056.56L1255.65,1021.01L1255.65,993.977Z" style="fill:white;"/>
        <path d="M894.914,893.215C894.914,893.215 807.952,913.474 807.952,996.908C807.952,996.908 629.345,917.3 597.024,1094.44C597.024,1094.44 477.171,1078.86 545.314,1184.04C545.314,1184.04 534.743,1079.75 638.437,1125.28C638.437,1125.28 661.354,927.87 839.377,1035.39C839.377,1035.39 857.003,941.67 912.228,945.198L894.914,893.215ZM506.845,1170.82L503.318,1153.19C503.318,1153.19 354.671,1143.49 399.611,1288.03C399.611,1288.03 -29.869,1478.67 274.764,1648.2L323.232,1613.83C323.232,1613.83 45.628,1478.68 444.266,1284.51C444.266,1284.51 406.654,1187.56 506.845,1170.82ZM586.454,1713.98L538.271,1744.84C538.271,1744.84 557.959,1817.69 676.347,1762.46C676.347,1762.46 697.203,1873.79 825.577,1776.26C825.577,1776.26 691.029,1804.46 714.829,1717.52C714.829,1717.53 634.922,1786.86 586.454,1713.98ZM1774.44,1665.82C1774.44,1665.82 1899.01,1724.56 1902.52,1599.7C1902.52,1599.7 2072.91,1631.44 2034.11,1482.21C2034.11,1482.21 2588.47,1253.06 2200.39,1083.86L2186.27,1101.48C2186.27,1101.48 2512.67,1243.37 1982.4,1475.15C1982.4,1475.15 2027.37,1609.72 1847.28,1564.75C1847.31,1564.75 1902.52,1683.15 1774.44,1665.82ZM1970.39,953.433C1970.39,953.433 1896.35,833.58 1772.68,972.823C1772.68,972.823 1766.81,869.415 1683.97,930.814C1683.97,930.814 1696.61,827.704 1623.45,836.511C1623.45,836.511 1616.69,804.19 1591.43,801.259C1591.43,801.259 1717.14,766.306 1705.39,893.798C1705.39,893.798 1779.44,840.324 1804.69,920.244C1804.69,920.244 1913.97,809.197 2005.35,921.126L1970.39,953.433Z" style="fill:rgb(184,81,63);"/>
        <path d="M1715.41,1129.41L1684.85,1186.4L1495.06,1208.42L1715.41,1129.41ZM1332.9,1248.38L1355.24,1197.27L1143.43,1284.51L1332.9,1248.38ZM993.614,1332.97L1021.51,1295.68L834.384,1364.72L993.614,1332.97ZM791.791,1387.03L814.994,1344.15L601.732,1443.72L791.791,1387.03ZM560.009,1474.27L579.697,1420.24L357.901,1533.93L560.009,1474.27Z" style="fill:rgb(223,165,83);"/>
        <path d="M420.467,1330.04C420.467,1330.04 149.905,1485.44 370.235,1585.05L435.447,1533.93C435.447,1533.93 261.237,1488.38 411.946,1352.38L420.467,1330.04ZM701.612,1644.68L743.907,1618.24C743.907,1618.24 1037.67,1637.93 1242.44,1600.61L1246.84,1609.43C1246.84,1609.42 874.642,1664.06 701.612,1644.68ZM2118.45,1202.84C2118.45,1202.84 2262.69,1301.26 1837.3,1482.81L1831.72,1503.38C1831.72,1503.38 2423.67,1310.66 2163.08,1132.34L2118.45,1202.84ZM1741.54,1049.5C1741.54,1049.5 1860.8,1047.74 1885.78,1067.13L1928.67,1035.4C1928.67,1035.4 1788.84,1023.35 1715.41,1040.98L1741.54,1049.5Z" style="fill:rgb(223,165,83);"/>
        <path d="M1242.43,1580.92C1252.13,1455.79 1394.29,1338 1559.99,1317.43C1725.38,1297.17 1851.71,1382.05 1841.71,1506.9C1831.72,1632.04 1689.55,1750.14 1523.87,1770.4C1358.48,1790.97 1232.44,1706.06 1242.43,1580.92Z" style="fill:rgb(46,62,55);"/>
        <path d="M1681.34,1488.97C1681.92,1496.31 1681.92,1503.66 1681.61,1511.32C1681.02,1518 1680.14,1524.66 1678.98,1531.28C1631.08,1523.93 1573.49,1562.13 1534.43,1606.49C1486.83,1659.66 1396.35,1667 1349.93,1667C1331.72,1644.38 1321.44,1616.47 1321.74,1584.75C1321.74,1570.06 1324.1,1555.36 1328.78,1540.98C1428.67,1512.17 1612.28,1468.11 1681.34,1488.97ZM1655.47,1413.76C1651.06,1412.59 1648.13,1411.42 1648.13,1411.42C1617.28,1400.26 1566.46,1388.22 1520.91,1379.1C1529.73,1377.05 1538.85,1375.28 1547.66,1373.81C1573.49,1370.01 1598.19,1369.71 1620.79,1372.64C1622.87,1374.69 1624.92,1376.74 1626.98,1378.83C1637.19,1388.93 1646.35,1400.05 1654.31,1412.02L1655.47,1413.76Z" style="fill:rgb(213,135,69);"/>
        <path d="M1546.19,1617.04C1584.97,1573.57 1636.37,1541.56 1675.43,1546.85C1657.52,1611.47 1605.51,1674.05 1547.36,1724.89L1541.78,1726.06C1468.62,1736.92 1404.88,1719.01 1365.22,1683.16C1428.98,1681.39 1505.35,1663.16 1546.19,1617.04Z" style="fill:white;"/>
        <path d="M1725.69,1417.88C1752.72,1442.83 1768.27,1476.04 1768,1515.1C1768,1517.76 1767.7,1520.39 1767.7,1523.34C1754.78,1509.54 1732.75,1493.68 1696.32,1477.81C1694.2,1462.51 1689.95,1447.58 1683.67,1433.46C1698.66,1432.86 1713.93,1428.45 1725.69,1417.88Z" style="fill:rgb(213,135,69);"/>
        <path d="M1675.73,1417.3C1673.18,1412.53 1670.34,1407.92 1667.22,1403.5C1661.43,1394.39 1654.94,1385.75 1647.82,1377.63C1672.8,1383.82 1695.13,1394.11 1713.36,1407.61C1703.35,1415.53 1690.12,1418.17 1675.73,1417.3ZM1764.45,1544.79C1760.93,1562.42 1753.89,1579.74 1744.49,1596.19C1733.62,1563.58 1716.29,1543.91 1694.25,1535.39C1695.72,1527.44 1696.61,1519.81 1697.2,1512.16C1697.47,1506.58 1697.47,1501.29 1697.47,1495.71C1720.39,1506.3 1750.94,1523.65 1764.45,1544.79Z" style="fill:white;"/>
        <path d="M1732.74,1613.83C1699.25,1660.82 1643.72,1699.6 1579.1,1717.82C1644.9,1655.84 1678.09,1600.33 1691.01,1551.26C1708.34,1559.19 1723.91,1577.98 1732.74,1613.83Z" style="fill:rgb(213,135,69);"/>
        <path d="M1642.83,1426.4C1650.18,1429.42 1657.89,1431.5 1665.76,1432.59C1671.34,1444.34 1676.04,1457.54 1678.99,1471.95C1627.87,1460.2 1536.22,1474.58 1456.61,1492.21C1415.99,1501.17 1375.63,1511.26 1335.58,1522.46C1360.24,1466.96 1414.61,1417.58 1483.05,1391.14L1488.63,1389.09C1543.25,1399.09 1611.41,1415.25 1642.83,1426.4ZM356.72,1533.93L559.425,1473.99L544.73,1518.05L356.72,1533.93ZM791.506,1386.44L770.054,1423.17L604.365,1442.25L791.506,1386.44ZM979.217,1358.26L993.614,1332.97L834.384,1364.72L979.217,1358.26ZM1318.51,1281.88L1332.9,1248.38L1143.43,1284.51L1318.51,1281.88ZM1663.98,1223.11L1684.85,1186.4L1495.06,1208.42L1663.98,1223.11ZM1518.27,969.594L1589.07,946.676L1581.14,964.886L1536.79,979.567L1530.6,993.082L1571.74,979.567L1564.09,997.193L1522.98,1010.71L1515.32,1027.46L1560.87,1012.77L1552.34,1032.16L1480.1,1055.66L1518.27,969.594ZM1377.86,1089.16L1377.86,1086.81L1414.87,1003.38L1441.32,994.859L1412.51,1059.79L1453.65,1046.27L1444.25,1067.42L1377.86,1089.16ZM1377.86,1017.76L1379.02,1015.12L1377.86,1015.42L1377.86,1017.76ZM1377.86,1015.43L1377.86,1017.78L1369.62,1036.28L1342.59,1045.09L1313.81,1110.02L1287.37,1118.54L1316.17,1053.91L1289.14,1062.73L1298.55,1041.29L1377.86,1015.43ZM1377.86,1086.8L1376.66,1089.45L1377.86,1089.16L1377.86,1086.8ZM1102.31,1166.71L1102.31,1150.85L1109.64,1148.5L1113.75,1120.89L1102.3,1137.64L1102.3,1113.26L1109.63,1102.99L1138.42,1093.59L1132.55,1169.08L1104.63,1178.19L1106.98,1165.26L1102.31,1166.71ZM1188.67,1077.41L1268.88,1051.26L1259.45,1072.4L1232.72,1081.22L1203.94,1145.85L1177.5,1154.37L1206.29,1089.76L1179.28,1098.57L1188.67,1077.41ZM1102.31,1113.23L1102.31,1137.62L1090.85,1154.65L1102.31,1150.83L1102.31,1166.69L1076.75,1175.22L1066.17,1190.79L1042.96,1198.13L1042.96,1194.32L1102.31,1113.23ZM1042.96,1132.04L1046.78,1123.52L1042.96,1124.7L1042.96,1132.04ZM1042.96,1124.7L1042.96,1132.04L1038.55,1142.03L994.197,1156.42L988.024,1169.94L1029.15,1156.72L1021.51,1174.05L980.385,1187.56L972.745,1204.59L1018.58,1189.61L1009.76,1209L937.792,1232.2L975.988,1146.72L1042.96,1124.7ZM1042.96,1194.32L1039.44,1199.61L1042.96,1198.15L1042.96,1194.32ZM835.564,1241.32L861.426,1231.62C860.246,1235.45 859.947,1238.09 860.544,1239.85C861.724,1242.49 864.954,1242.79 869.947,1241.31C873.773,1240.14 877.003,1238.08 879.947,1235.73C882.593,1233.37 884.642,1230.74 885.524,1228.39C886.704,1226.34 886.704,1224.58 885.524,1223.4C884.356,1222.52 880.53,1222.22 874.071,1222.82C863.786,1224 857.042,1223.4 853.8,1220.47C850.868,1217.82 850.868,1213.42 853.8,1206.67C855.862,1202.26 858.793,1197.85 863.203,1193.15C867.612,1188.16 872.606,1184.05 878.766,1179.92C885.888,1175.64 893.477,1172.2 901.386,1169.65C912.254,1166.12 919.595,1165.54 923.72,1167.89C927.533,1169.95 928.116,1175.23 925.185,1183.76L899.622,1193.45C900.789,1189.94 900.504,1187.58 899.025,1186.41C897.858,1185.23 895.212,1185.53 891.684,1186.69C888.77,1187.46 886.062,1188.86 883.76,1190.81C881.939,1192.36 880.44,1194.25 879.35,1196.38C878.766,1197.85 878.766,1198.73 879.648,1199.33C880.232,1200.21 882.878,1200.21 886.989,1199.61C897.56,1198.44 904.615,1198.15 908.441,1199.33C912.254,1200.21 914.615,1202.27 915.198,1205.2C915.782,1208.15 915.198,1211.96 912.851,1216.36C910.503,1221.95 906.677,1227.52 901.684,1233.1C896.691,1238.98 890.815,1243.68 884.356,1248.09C877.28,1252.27 869.797,1255.72 862.022,1258.38C847.328,1263.06 838.521,1263.37 835.577,1259.55C832.335,1255.71 832.335,1249.83 835.564,1241.32Z" style="fill:white;"/>
    </g>
</svg>
