<?xml version="1.0" encoding="utf-8"?>
<!-- Generator: Adobe Illustrator 22.0.1, SVG Export Plug-In . SVG Version: 6.00 Build 0)  -->
<svg version="1.1" id="Layer_1" xmlns="http://www.w3.org/2000/svg" xmlns:xlink="http://www.w3.org/1999/xlink" x="0px" y="0px"
	 width="720px" height="720px" viewBox="0 0 720 720" style="enable-background:new 0 0 720 720;" xml:space="preserve">
<style type="text/css">
	.st0{fill:#FFFFFF;}
	.st1{fill:#BF0D3E;}
	.st2{fill:#041E42;}
</style>
<g>
	<path class="st0" d="M630.074646,185.3298645H90.0280991c-14.3166122-0.0448303-28.0744133,5.5528107-38.2929268,15.5802307
		c-10.2021828,10.2181702-15.8707809,24.1071167-15.731987,38.5458221v240.9874115
		c-0.1570587,14.3876648,5.4967308,28.2303467,15.6814156,38.3941345
		c10.1680069,10.1652832,23.965683,15.862793,38.3434982,15.8331299H630.074646
		c29.8419189-0.1392822,53.9520264-24.3850403,53.9237671-54.2272644V239.4053497
		c0.223877-29.6407013-23.62323-53.850708-53.263916-54.0745392c0,0-0.000061,0-0.000061,0
		C630.5145264,185.3291473,630.2946777,185.3288269,630.074646,185.3298645z"/>
	<path class="st1" d="M665.0795288,480.1399841V239.4054413h-0.0504761
		c0.223938-19.1638641-15.1298218-34.8806152-34.293457-35.1047668c-0.2202148-0.002533-0.4406738-0.0029907-0.6608887-0.0013733
		H479.1286926l86.6017151,144.7240143l7.9925537,1.0115051l5.0584717,6.6265259v6.1715698l5.4631958,1.1128845l5.0584717,6.8794556
		v5.9690857l5.6654663,1.0117493l5.7161255,6.2220154v13.7593689c6.8052979,6.1439514,14.4746704,11.2567749,22.7632446,15.175415
		c7.6385498,2.9338684,8.4984741,15.1756592,13.1015015,21.7010498c5.7668457,9.5099487,13.65802,13.3039856,11.9888306,18.615387
		c-3.8444824,14.2143555-18.4130859,38.1915894-31.9697876,39.3046875h-53.6201782v22.9654846h67.177063
		c19.3882446-0.0829468,35.0384521-15.8676453,34.9552612-35.2561035L665.0795288,480.1399841z"/>
	<path class="st2" d="M427.5824585,204.2993011H90.027916c-9.3378677-0.0545959-18.3191299,3.5816345-24.9889679,10.1169434
		c-6.5687141,6.6481781-10.210701,15.6439667-10.1171761,24.9891968v241.0379181
		c-0.117485,9.3198853,3.5302658,18.293335,10.1171761,24.8878479c6.6286011,6.6281433,15.6151657,10.3572083,24.9889679,10.3698425
		h219.1348267c-5.3620605-9.2062988-11.4829712-19.6775513-13.3546448-22.7632141h-0.0504456h-25.9500427
		c0-64.8499756,21.9033203-100.7149048,48.1569519-107.8473206c3.5915527-0.6576843,1.8716736-18.3624268-2.6809082-23.7749634
		h-15.1756592c-2.4279785,0-1.0117493-4.5528564-1.0117493-4.5528564l12.2922363-26.2536316l-1.6691895-7.183075h-45.4255676
		l37.3318787-26.1018372c1.7198792-68.8462677,72.3364563-74.2083435,114.8788452-45.5267181
		c25.292572,16.7436981,27.2146912,49.9275055,25.292572,72.8425446c-0.3036194,1.4669189-6.5760803,0.5058594-6.5760803,0.5058594
		s-4.2998962,25.2926025,6.9301453,25.2926025h49.6238708c20.2341309-0.8094788,39.7598877,12.8989868,39.7598877,12.8989868
		l4.7550659-17.3504639L427.5824585,204.2993011z M127.5615921,465.7745056c-0.0002289,0-0.0002289,0-0.0002289,0
		l-0.2013321-0.0009155c-13.1026382,0.0287781-23.7477951-10.5696106-23.7763596-23.6722412
		c-0.0002289-0.101593,0.0002289-0.2033997,0.001152-0.3049927h0.0002289
		c0.0002289-13.2422485,10.7356873-23.9770203,23.978157-23.976532
		c13.2422256,0.0004578,23.9769974,10.7359009,23.9765396,23.9781494
		C151.5392914,455.0404358,140.803833,465.7749634,127.5615921,465.7745056z"/>
</g>
</svg>
