<?xml version="1.0" encoding="UTF-8" standalone="no"?>
<!DOCTYPE svg PUBLIC "-//W3C//DTD SVG 1.1//EN" "http://www.w3.org/Graphics/SVG/1.1/DTD/svg11.dtd">
<svg width="100%" height="100%" viewBox="0 0 512 512" version="1.1" xmlns="http://www.w3.org/2000/svg" xmlns:xlink="http://www.w3.org/1999/xlink" xml:space="preserve" xmlns:serif="http://www.serif.com/" style="fill-rule:evenodd;clip-rule:evenodd;stroke-linecap:round;stroke-linejoin:round;stroke-miterlimit:2;">
    <path d="M291.912,401.331L253.146,420.503L228.037,417.608L196.26,388.926L182.963,342.087L181.575,304.676L185.547,234.179L235.721,241.56L265.778,232.92L271.122,193.758L297.237,209.085L306.469,247.268L323.77,261.46L351.752,264.574L344.514,313.463L354.415,325.84L355.169,347.801L344.906,384.318L291.912,401.331Z" style="fill:rgb(206,229,235);"/>
    <path d="M345.75,349.651C345.75,349.651 344.792,357.974 344.151,364.536C343.516,371.094 337.911,378.932 337.911,378.932C337.911,378.932 334.385,384.37 326.385,383.255C318.385,382.135 312.464,384.286 307.188,386.531C307.188,386.531 281.422,396.536 270.229,395.094C259.411,393.714 251.724,387.984 251.214,387.599C251.193,387.589 251.172,387.568 251.167,387.557C250.625,387.052 241.865,378.807 241.089,374.234C240.276,369.516 243.292,371.521 247.714,372.63C252.13,373.74 264.781,376.839 272.104,377.443C279.438,378.047 299.109,379.156 311.568,373.724C324.01,368.307 325.219,358.771 325.219,358.771C325.219,358.771 326.521,348.026 329.844,341.896C333.161,335.781 337.375,328.948 346.818,321.521C346.818,321.521 352.042,317.901 353.047,309.573C354.047,301.25 353.24,296.823 358.167,288.792C363.078,280.76 368.411,270.214 366.698,256.87C364.984,243.521 359.365,231.87 355.849,226.547C352.333,221.219 342.797,208.172 341.599,206.156C340.474,204.276 334.37,197.349 338.042,185.13C338.271,184.406 337.396,183.849 336.833,184.365C333.182,187.682 326.089,195.776 327.438,207.573C329.13,222.307 334.5,238.526 328.391,249.844C328.021,250.531 326.99,250.276 326.99,249.5C326.99,242.427 326.078,222.578 316.51,207.781C304.656,189.453 290.12,184.859 292.807,166.693C295.49,148.516 298.661,133.667 286.016,121.344C273.979,109.604 241.875,105.406 230.651,80.646C230.302,79.88 229.161,80.177 229.234,81.016C229.938,89.01 233.875,107.172 254.094,125.135C281.115,149.156 275.74,156.432 270.526,163.542C265.318,170.651 251.25,171.443 244.141,164.964C237.026,158.479 229.922,149.318 227.073,136.365C225.167,127.667 220.615,124.667 217.833,123.625C217.146,123.37 216.531,124.141 216.969,124.745C218.828,127.411 221.708,133.531 220.286,144.896C218.24,161.172 222.969,167.495 222.969,167.495C222.969,167.495 229.292,178.089 239.568,186.302C249.844,194.516 261.057,209.375 253.313,222.651C245.568,235.927 232.927,233.245 232.927,233.245C232.927,233.245 213.797,230.714 208.271,210.01C202.74,189.313 202.37,177.943 192.948,168.135C185.047,159.927 175.839,156.016 162.807,158.833C162.01,159.005 162.047,160.156 162.854,160.292C169.438,161.339 180.859,166.323 185.688,187.724C185.688,187.724 194.984,223.047 180.865,223.391C170.12,223.646 168.792,213.182 168.766,208.156C168.766,207.391 167.745,207.13 167.375,207.807C165.438,211.344 162.818,218.849 167.188,229.271C173.406,244.073 173.745,244.865 176.578,260.802C179.391,276.729 182.62,290.417 196.969,304.37C196.99,304.391 197.016,304.411 197.042,304.432C197.599,304.87 205.115,310.797 208.88,318.995C212.161,326.115 219.073,336.229 222.833,341.901C226.594,347.589 224.208,348.13 222.927,348.5C222.927,348.5 214.505,350.635 202.74,341.24C202.068,340.724 201.188,341.542 201.661,342.234C204.385,346.313 209.776,353.182 219.286,361.146C234.682,374.052 237.385,386.219 237.385,386.219C237.385,386.219 241.359,403.078 236.245,409.729C231.13,416.365 227.896,414.328 225.172,410.745C222.448,407.167 211.891,392.349 206.948,385.536C202.01,378.724 187.349,359.302 186.505,342.943C185.651,326.594 189.568,311.255 184.292,300.359C181.427,294.427 178.594,291.917 176.62,290.875C175.927,290.505 175.224,291.354 175.688,291.984C177.599,294.563 180.13,300.198 178.333,310.927C175.609,327.109 170.495,344.823 173.896,366.125C177.307,387.422 188.031,397.63 188.031,397.63C188.031,397.63 193.479,402.906 201.495,404.958C209.505,407.005 214.443,411.427 217.677,414.839C220.911,418.255 237.099,430.974 252.26,431.365C272.193,431.88 281.906,429.49 295.188,423.354C308.474,417.214 329.599,404.104 340.5,396.943C351.401,389.786 361.62,380.927 361.286,368.318C360.958,356.224 354.448,338.167 363.313,317.161C363.62,316.438 362.74,315.781 362.146,316.307C358.016,319.943 349.568,329.563 345.776,349.698M335.813,301.542C343.161,295.656 346.115,287.177 347.271,282.01C347.458,281.151 348.729,281.292 348.734,282.167C348.802,286.974 347.443,293.255 345.594,297.771C343.031,304.021 339.661,308.51 325.078,317.958C315.432,324.208 309.156,335.469 306.01,342.38C305.641,343.177 304.448,342.776 304.609,341.911C309.766,316.047 325.417,309.859 335.823,301.526M204.573,288.229C202.922,275.391 215.859,267.307 222.417,264.073C223.177,263.703 222.828,262.563 221.979,262.672C210.359,264.115 201.031,272.37 197.958,275.391C197.521,275.828 196.781,275.557 196.708,274.943C194.703,257.714 190.896,248.953 188.24,244.745C187.792,244.026 188.672,243.234 189.333,243.771C194.302,247.75 198.932,254.068 198.932,254.068C198.932,254.068 202.958,258.828 208.464,256.297C212.182,254.583 212.375,250.182 212.109,247.49C212.047,246.813 212.813,246.417 213.328,246.854C223.401,255.411 256.141,263.203 271.021,246.917C282.807,234.021 279.573,217.193 277.177,209.479C276.927,208.688 277.99,208.172 278.484,208.823C294.917,230.406 289.089,246.615 286.995,251.719C284.885,256.875 290.411,258.536 290.88,258.672C290.901,258.672 290.932,258.693 290.953,258.703C298,261.495 306.432,265.792 308.813,267.021C309.182,267.208 309.318,267.656 309.135,268.026L304.953,276.052C304.76,276.443 304.932,276.911 305.328,277.078C318.698,282.708 327.219,287.906 329.979,289.677C330.438,289.979 330.438,290.641 329.979,290.932C318.635,297.932 302.047,309.203 296.818,312.766C296.255,313.146 295.526,312.625 295.693,311.974C298.453,300.594 294.932,294.229 294.932,294.229C291.859,287.745 279.12,284.13 276.568,283.469C276.286,283.401 276.083,283.172 276.047,282.885C273.24,268.302 260.672,266.089 254.932,265.849C254.167,265.823 253.865,266.828 254.521,267.229C260.615,270.885 262.755,274.922 263.5,277.391C263.714,278.109 262.87,278.661 262.302,278.156C260.318,276.411 256.667,273.698 252.552,272.974C247.651,272.115 242.984,274.953 241.208,276.203C240.776,276.51 240.177,276.25 240.052,275.74C239.635,273.953 240.427,271.922 241.083,270.656C241.365,270.094 240.875,269.469 240.25,269.589C235.802,270.469 230.573,274.943 232.755,281.281C234.26,285.63 239.995,288.234 244.208,289.583C245.026,289.849 244.823,291.073 243.958,291.042C240.469,290.885 235.62,290.063 231.052,287.156C224.802,283.172 225.536,276.224 226.333,272.901C226.49,272.255 225.771,271.76 225.208,272.13C219.177,276.042 215.188,278.932 216.156,287.281C217.036,294.854 228.615,302.911 239.849,306.828C247.203,309.391 261.542,312.057 270.542,313.578C271.432,313.734 271.313,315.052 270.401,315.052C244.922,315.099 231.052,310.484 231.052,310.484C231.052,310.484 206.75,305.349 204.552,288.255M231.047,328.161C228.219,323.635 223.203,317.12 222.563,316.307C222.563,316.307 221.755,315.193 222.193,314.703C222.635,314.214 223.24,314.427 223.906,314.865C224.563,315.307 226.974,317.005 230.875,318.391L230.917,318.391C231.422,318.547 245.172,322.724 254.917,323.51C264.844,324.307 267.089,328 267.089,330.88C267.089,333.76 267.719,343.849 263.88,353.615C260.042,363.385 253.786,358.422 253.786,358.422C253.786,358.422 248.255,355.151 242.26,346.026C237.875,339.349 234.24,333.276 231.052,328.161" style="fill:none;stroke:rgb(206,229,235);stroke-width:11px;"/>
    <path d="M345.75,349.651C345.75,349.651 344.792,357.974 344.151,364.536C343.516,371.094 337.911,378.932 337.911,378.932C337.911,378.932 334.385,384.37 326.385,383.255C318.385,382.135 312.464,384.286 307.188,386.531C307.188,386.531 281.422,396.536 270.229,395.094C259.411,393.714 251.724,387.984 251.214,387.599C251.193,387.589 251.172,387.568 251.167,387.557C250.625,387.052 241.865,378.807 241.089,374.234C240.276,369.516 243.292,371.521 247.714,372.63C252.13,373.74 264.781,376.839 272.104,377.443C279.438,378.047 299.109,379.156 311.568,373.724C324.01,368.307 325.219,358.771 325.219,358.771C325.219,358.771 326.521,348.026 329.844,341.896C333.161,335.781 337.375,328.948 346.818,321.521C346.818,321.521 352.042,317.901 353.047,309.573C354.047,301.25 353.24,296.823 358.167,288.792C363.078,280.76 368.411,270.214 366.698,256.87C364.984,243.521 359.365,231.87 355.849,226.547C352.333,221.219 342.797,208.172 341.599,206.156C340.474,204.276 334.37,197.349 338.042,185.13C338.271,184.406 337.396,183.849 336.833,184.365C333.182,187.682 326.089,195.776 327.438,207.573C329.13,222.307 334.5,238.526 328.391,249.844C328.021,250.531 326.99,250.276 326.99,249.5C326.99,242.427 326.078,222.578 316.51,207.781C304.656,189.453 290.12,184.859 292.807,166.693C295.49,148.516 298.661,133.667 286.016,121.344C273.979,109.604 241.875,105.406 230.651,80.646C230.302,79.88 229.161,80.177 229.234,81.016C229.938,89.01 233.875,107.172 254.094,125.135C281.115,149.156 275.74,156.432 270.526,163.542C265.318,170.651 251.25,171.443 244.141,164.964C237.026,158.479 229.922,149.318 227.073,136.365C225.167,127.667 220.615,124.667 217.833,123.625C217.146,123.37 216.531,124.141 216.969,124.745C218.828,127.411 221.708,133.531 220.286,144.896C218.24,161.172 222.969,167.495 222.969,167.495C222.969,167.495 229.292,178.089 239.568,186.302C249.844,194.516 261.057,209.375 253.313,222.651C245.568,235.927 232.927,233.245 232.927,233.245C232.927,233.245 213.797,230.714 208.271,210.01C202.74,189.313 202.37,177.943 192.948,168.135C185.047,159.927 175.839,156.016 162.807,158.833C162.01,159.005 162.047,160.156 162.854,160.292C169.438,161.339 180.859,166.323 185.688,187.724C185.688,187.724 194.984,223.047 180.865,223.391C170.12,223.646 168.792,213.182 168.766,208.156C168.766,207.391 167.745,207.13 167.375,207.807C165.438,211.344 162.818,218.849 167.188,229.271C173.406,244.073 173.745,244.865 176.578,260.802C179.391,276.729 182.62,290.417 196.969,304.37C196.99,304.391 197.016,304.411 197.042,304.432C197.599,304.87 205.115,310.797 208.88,318.995C212.161,326.115 219.073,336.229 222.833,341.901C226.594,347.589 224.208,348.13 222.927,348.5C222.927,348.5 214.505,350.635 202.74,341.24C202.068,340.724 201.188,341.542 201.661,342.234C204.385,346.313 209.776,353.182 219.286,361.146C234.682,374.052 237.385,386.219 237.385,386.219C237.385,386.219 241.359,403.078 236.245,409.729C231.13,416.365 227.896,414.328 225.172,410.745C222.448,407.167 211.891,392.349 206.948,385.536C202.01,378.724 187.349,359.302 186.505,342.943C185.651,326.594 189.568,311.255 184.292,300.359C181.427,294.427 178.594,291.917 176.62,290.875C175.927,290.505 175.224,291.354 175.688,291.984C177.599,294.563 180.13,300.198 178.333,310.927C175.609,327.109 170.495,344.823 173.896,366.125C177.307,387.422 188.031,397.63 188.031,397.63C188.031,397.63 193.479,402.906 201.495,404.958C209.505,407.005 214.443,411.427 217.677,414.839C220.911,418.255 237.099,430.974 252.26,431.365C272.193,431.88 281.906,429.49 295.188,423.354C308.474,417.214 329.599,404.104 340.5,396.943C351.401,389.786 361.62,380.927 361.286,368.318C360.958,356.224 354.448,338.167 363.313,317.161C363.62,316.438 362.74,315.781 362.146,316.307C358.016,319.943 349.568,329.563 345.776,349.698M335.813,301.542C343.161,295.656 346.115,287.177 347.271,282.01C347.458,281.151 348.729,281.292 348.734,282.167C348.802,286.974 347.443,293.255 345.594,297.771C343.031,304.021 339.661,308.51 325.078,317.958C315.432,324.208 309.156,335.469 306.01,342.38C305.641,343.177 304.448,342.776 304.609,341.911C309.766,316.047 325.417,309.859 335.823,301.526M204.573,288.229C202.922,275.391 215.859,267.307 222.417,264.073C223.177,263.703 222.828,262.563 221.979,262.672C210.359,264.115 201.031,272.37 197.958,275.391C197.521,275.828 196.781,275.557 196.708,274.943C194.703,257.714 190.896,248.953 188.24,244.745C187.792,244.026 188.672,243.234 189.333,243.771C194.302,247.75 198.932,254.068 198.932,254.068C198.932,254.068 202.958,258.828 208.464,256.297C212.182,254.583 212.375,250.182 212.109,247.49C212.047,246.813 212.813,246.417 213.328,246.854C223.401,255.411 256.141,263.203 271.021,246.917C282.807,234.021 279.573,217.193 277.177,209.479C276.927,208.688 277.99,208.172 278.484,208.823C294.917,230.406 289.089,246.615 286.995,251.719C284.885,256.875 290.411,258.536 290.88,258.672C290.901,258.672 290.932,258.693 290.953,258.703C298,261.495 306.432,265.792 308.813,267.021C309.182,267.208 309.318,267.656 309.135,268.026L304.953,276.052C304.76,276.443 304.932,276.911 305.328,277.078C318.698,282.708 327.219,287.906 329.979,289.677C330.438,289.979 330.438,290.641 329.979,290.932C318.635,297.932 302.047,309.203 296.818,312.766C296.255,313.146 295.526,312.625 295.693,311.974C298.453,300.594 294.932,294.229 294.932,294.229C291.859,287.745 279.12,284.13 276.568,283.469C276.286,283.401 276.083,283.172 276.047,282.885C273.24,268.302 260.672,266.089 254.932,265.849C254.167,265.823 253.865,266.828 254.521,267.229C260.615,270.885 262.755,274.922 263.5,277.391C263.714,278.109 262.87,278.661 262.302,278.156C260.318,276.411 256.667,273.698 252.552,272.974C247.651,272.115 242.984,274.953 241.208,276.203C240.776,276.51 240.177,276.25 240.052,275.74C239.635,273.953 240.427,271.922 241.083,270.656C241.365,270.094 240.875,269.469 240.25,269.589C235.802,270.469 230.573,274.943 232.755,281.281C234.26,285.63 239.995,288.234 244.208,289.583C245.026,289.849 244.823,291.073 243.958,291.042C240.469,290.885 235.62,290.063 231.052,287.156C224.802,283.172 225.536,276.224 226.333,272.901C226.49,272.255 225.771,271.76 225.208,272.13C219.177,276.042 215.188,278.932 216.156,287.281C217.036,294.854 228.615,302.911 239.849,306.828C247.203,309.391 261.542,312.057 270.542,313.578C271.432,313.734 271.313,315.052 270.401,315.052C244.922,315.099 231.052,310.484 231.052,310.484C231.052,310.484 206.75,305.349 204.552,288.255M231.047,328.161C228.219,323.635 223.203,317.12 222.563,316.307C222.563,316.307 221.755,315.193 222.193,314.703C222.635,314.214 223.24,314.427 223.906,314.865C224.563,315.307 226.974,317.005 230.875,318.391L230.917,318.391C231.422,318.547 245.172,322.724 254.917,323.51C264.844,324.307 267.089,328 267.089,330.88C267.089,333.76 267.719,343.849 263.88,353.615C260.042,363.385 253.786,358.422 253.786,358.422C253.786,358.422 248.255,355.151 242.26,346.026C237.875,339.349 234.24,333.276 231.052,328.161" style="fill:rgb(231,31,45);"/>
</svg>
