<?xml version="1.0" encoding="UTF-8" standalone="no"?>
<!DOCTYPE svg PUBLIC "-//W3C//DTD SVG 1.1//EN" "http://www.w3.org/Graphics/SVG/1.1/DTD/svg11.dtd">
<svg width="100%" height="100%" viewBox="0 0 200 200" version="1.1" xmlns="http://www.w3.org/2000/svg" xmlns:xlink="http://www.w3.org/1999/xlink" xml:space="preserve" xmlns:serif="http://www.serif.com/" style="fill-rule:evenodd;clip-rule:evenodd;stroke-linejoin:round;stroke-miterlimit:2;">
    <path d="M144.937,145C162.469,145 177.662,135.025 185.131,120.451C185.112,120.467 169.99,132.39 144.937,132.39C125.059,132.39 111.434,124.884 106.644,121.776C105.312,120.913 103.759,120.454 102.172,120.454L73.672,120.454C74.394,121.863 75.187,123.229 76.05,124.544L18.703,124.544L16.963,128.634L107.35,128.634C109.053,128.634 110.687,129.335 111.844,130.582C113.997,132.902 116.394,134.993 118.994,136.817L87.919,136.817C90.153,138.385 92.537,139.76 95.044,140.907L11.741,140.907L10,144.997L144.937,144.997L144.937,145Z" style="fill:rgb(179,199,231);fill-rule:nonzero;"/>
    <path d="M95.481,104.091L68.938,104.091C69.063,105.476 69.25,106.838 69.497,108.181L25.666,108.181L23.925,112.271L98.513,112.271C100.372,112.271 102.175,112.901 103.628,114.058C108.959,118.3 124.088,128.628 144.938,128.628C165.788,128.628 180.681,118.456 186.122,114.154C187.613,112.976 188.647,111.321 189.047,109.469C189.563,107.062 189.888,104.581 190,102.047L153.509,102.047L155.256,97.947L190,97.947C189.888,95.413 189.563,92.935 189.047,90.525C188.65,88.67 187.613,87.018 186.122,85.84C180.681,81.538 165.628,71.366 144.938,71.366C124.247,71.366 109.003,81.666 103.65,85.921C102.181,87.087 100.363,87.726 98.485,87.726L34.369,87.726L32.628,91.816L69.497,91.816C69.25,93.159 69.063,94.524 68.938,95.905L95.481,95.905C96.744,95.905 97.981,96.258 99.056,96.925C100.128,97.592 101.366,97.944 102.631,97.944L136.556,97.944L134.809,102.043L102.631,102.043C101.369,102.043 100.131,102.396 99.056,103.063C97.985,103.73 96.747,104.082 95.481,104.082L95.481,104.091ZM142.053,94.303L127.331,94.303L130.966,85.759L169.134,85.759L165.5,94.303L152.863,94.303L143.163,117.078L132.353,117.078L142.053,94.303Z" style="fill:rgb(179,199,231);fill-rule:nonzero;"/>
    <path d="M41.334,71.366L39.594,75.456L76.05,75.456C75.187,76.774 74.393,78.14 73.672,79.546L102.172,79.546C103.759,79.546 105.312,79.088 106.643,78.224C111.434,75.116 125.059,67.61 144.937,67.61C169.99,67.61 185.112,79.533 185.131,79.549C177.665,64.978 162.468,55 144.937,55L48.297,55L46.556,59.09L95.047,59.09C92.54,60.24 90.156,61.612 87.922,63.18L118.997,63.18C116.4,65.004 114.003,67.095 111.847,69.415C110.687,70.661 109.056,71.363 107.353,71.363L41.334,71.363L41.334,71.366Z" style="fill:rgb(179,199,231);fill-rule:nonzero;"/>
</svg>
