<?xml version="1.0" encoding="UTF-8" standalone="no"?>
<!DOCTYPE svg PUBLIC "-//W3C//DTD SVG 1.1//EN" "http://www.w3.org/Graphics/SVG/1.1/DTD/svg11.dtd">
<svg width="100%" height="100%" viewBox="0 0 960 640" version="1.1" xmlns="http://www.w3.org/2000/svg" xmlns:xlink="http://www.w3.org/1999/xlink" xml:space="preserve" xmlns:serif="http://www.serif.com/" style="fill-rule:evenodd;clip-rule:evenodd;stroke-linejoin:round;stroke-miterlimit:2;">
    <path d="M809.38,374.728C780.989,336.377 719.725,295.535 719.725,295.535L722.215,256.186L708.77,259.675L706.357,243.86L796.761,111.748L686.188,111.692L685.36,106.269C702.628,91.825 687.673,57.894 650.828,64.929C614.575,71.849 623.792,108.042 635.294,111.666L416.867,111.555C398.525,89.117 370.348,63.646 325.754,43.014C225.642,-3.306 172.847,0.18 172.847,0.18C259.697,51.417 291.66,92.838 302.6,111.497L144.458,111.416L301.318,344.21C280.635,358.76 230.416,393.985 216.68,402.619C199.246,413.577 138.98,453.422 233.61,452.925C281.083,452.675 323.901,438.889 355.558,424.708L369.986,446.121C363.701,451.069 362.113,456.411 362.113,456.411C362.113,456.411 305.333,550.546 287.905,577.941C270.47,605.334 291.887,625.256 305.333,634.221C318.781,643.186 334.721,640.198 339.203,634.221C342.535,629.781 390.409,552.198 414.793,512.619L468.203,591.885L566.486,448.261C577.305,445.643 584.254,443.959 584.254,443.959L595.214,453.422L635.056,450.434L630.573,442.465C635.056,444.955 653.486,449.438 653.486,449.438C697.315,455.912 692.334,428.518 692.334,428.518C700.8,424.037 721.722,411.085 721.722,411.085C760.074,419.055 783.981,417.064 783.981,417.064C834.282,413.078 809.381,374.727 809.381,374.727L809.38,374.728Z" style="fill:rgb(1,1,1);fill-rule:nonzero;"/>
    <g>
        <path d="M366.103,419.782C364.072,420.769 362.033,421.738 359.985,422.689L373.957,443.462C375.755,442.442 377.822,441.497 380.171,440.682L366.103,419.782ZM637.207,121.709L636.29,116.19L420.51,116.134C421.929,117.97 423.319,119.829 424.68,121.709L637.207,121.709ZM310.315,337.87L165.874,122.206L307.825,122.206C307.825,122.206 307.17,120.079 305.137,116.104L153.753,116.064L305.311,341.398C308.477,339.168 310.316,337.87 310.316,337.87L310.315,337.87ZM468.202,571.465L421.387,501.913L417.507,508.213L468.202,583.585L559.773,449.885L550.067,452.232L468.202,571.465ZM686.876,116.203L687.716,121.709L777.003,121.709L703.953,228.104L705.359,237.319L788.292,116.229L686.876,116.203Z" style="fill:rgb(162,170,173);fill-rule:nonzero;"/>
    </g>
    <g>
        <path d="M562.997,140.302L640.293,140.302L639.219,133.829L559.455,133.829C560.668,135.616 561.855,137.744 562.997,140.302ZM377.314,414.093L392.566,437.479L398.315,436.054L382.019,411.564C380.509,412.392 378.929,413.238 377.314,414.093ZM690.554,140.302L744.134,140.302L700.274,204.005L701.511,212.108L755.093,133.829L689.566,133.829L690.554,140.302ZM525.247,458.228L468.203,541.083L431.582,486.048C430.862,487.289 430.082,488.554 428.853,489.782L427.796,491.5L468.036,553.202L534.589,455.972L525.247,458.228ZM524.435,140.302C525.959,137.943 527.458,135.76 528.902,133.829L432.898,133.829C434.251,135.967 435.571,138.125 436.859,140.302L524.435,140.302Z" style="fill:rgb(0,103,127);fill-rule:nonzero;"/>
    </g>
    <g>
        <path d="M439.029,144.039C445.801,155.909 449.45,164.161 452.263,166.037C452.263,166.037 488.625,177.491 501.573,182.473C501.573,182.473 511.909,160.633 522.085,144.039L439.029,144.039ZM443.297,477.827C438.448,478.882 435.924,480.384 434.28,482.104L468.203,533.114L518.631,459.824C484.654,468.021 449.058,476.575 443.297,477.827ZM472.188,401.125C458.242,397.638 438.317,392.161 427.361,389.171C416.406,386.184 416.406,390.168 410.427,394.151C408.563,395.394 399.872,401.527 385.927,409.394L402.899,434.917L509.044,408.596C509.044,408.596 486.131,404.611 472.188,401.125ZM699.254,197.317L735.914,144.039L691.124,144.039L699.254,197.317ZM571.8,176.994C571.8,176.994 574.79,202.894 573.795,211.858C573.795,211.858 636.548,240.746 647.009,249.214L642.029,228.295L656.473,237.759L640.913,144.039L564.52,144.039C567.364,151.661 569.879,162.265 571.8,176.994Z" style="fill:white;fill-rule:nonzero;"/>
    </g>
    <path d="M193.27,135.156L321.772,135.156C308.82,85.184 218.338,22.76 197.085,8.812C197.085,8.812 265.488,12.134 357.135,67.254C415.506,102.364 444.793,166.037 448.281,172.014C448.281,172.014 488.127,181.974 506.056,190.941C506.056,190.941 530.46,141.631 533.448,138.146C536.439,134.657 548.393,120.38 557.689,141.631C568.318,165.923 569.973,207.709 568.979,216.176C568.979,216.176 600.189,225.308 653.982,259.176L650.498,239.751L661.95,247.886L639.539,109.256C621.855,99.544 628.583,70.408 655.226,68.664C686.866,66.594 695.573,90.331 681.374,105.521L705.282,267.643L716.241,262.662L713.751,297.029C713.751,297.029 774.847,335.215 805.397,377.385C805.397,377.385 826.647,408.595 780.492,412.581C780.492,412.581 751.768,412.746 720.393,405.276C720.393,405.276 698.643,421.38 689.179,425.863C689.179,425.863 693.332,453.671 650.743,444.208C650.743,444.208 638.793,441.966 620.612,434.994L629.077,447.446L599.194,449.936C599.194,449.936 592.722,444.456 585.749,439.975L440.313,473.843C440.313,473.843 432.342,476.833 420.388,497.253C406.548,520.894 338.205,629.241 338.205,629.241C338.205,629.241 325.754,644.681 305.332,628.742C288.97,615.972 278.938,597.365 290.39,581.925C290.39,581.925 362.05,466.984 369.586,453.422C374.566,444.456 382.534,443.959 391,441.469L533.325,408.595C533.325,408.595 531.459,406.105 499.58,401.624C467.705,397.141 438.48,386.694 430.85,384.191C420.221,380.704 414.41,385.187 414.41,385.187C397.479,394.65 319.278,449.936 230.625,446.947C230.625,446.947 177.827,443.793 199.742,424.037L324.258,334.881L193.27,135.156Z" style="fill:white;fill-rule:nonzero;"/>
    <g>
        <path d="M572.923,351.941C583.133,359.411 589.609,368.501 589.609,368.501C596.456,367.881 615.131,370.619 615.131,370.619C601.685,362.028 572.923,351.941 572.923,351.941Z" style="fill:rgb(1,1,1);fill-rule:nonzero;"/>
        <path d="M788.13,363.77C750.94,326.913 709.104,298.357 709.104,298.357L710.429,283.747L712.422,268.804L707.274,270.383L698.476,281.422L696.486,273.122L689.843,272.125L686.522,280.759L684.366,256.934L701.548,272.374L676.892,103.944C694.16,85.017 672.909,68.582 652.487,73.395C626.505,79.522 634.892,101.62 642.527,106.269L668.927,258.511L658.299,250.875L661.62,268.805C610.818,236.929 562.67,218.002 562.67,218.002C562.67,218.002 565.766,189.202 555.864,153.087C547.394,122.207 536.439,141.63 536.439,141.63L508.877,196.75C488.291,187.121 453.095,177.825 453.095,177.825C459.07,187.785 462.061,194.759 462.061,194.759C453.095,190.109 444.296,175.5 444.296,175.5C408.435,104.775 358.393,75.253 355.64,73.395C295.87,33.052 215.68,15.121 215.68,15.121C215.68,15.121 258.269,43.593 288.4,74.891C322.598,110.42 330.069,139.639 330.069,139.639L201.735,139.639L328.74,331.396C334.222,329.403 338.704,319.94 338.704,319.94C339.699,326.58 338.872,331.561 334.222,335.215C329.572,338.867 224.977,413.245 207.712,425.199C190.445,437.153 219.002,440.804 219.002,440.804C305,451.762 400.962,389.338 410.924,381.701C420.884,374.063 433.833,380.372 433.833,380.372C441.14,382.032 466.375,393.322 496.592,397.638C526.808,401.956 544.076,408.928 544.076,408.928C538.097,410.256 409.926,439.145 390.999,444.456C372.075,449.77 372.406,456.079 372.406,456.079C372.406,456.079 298.691,575.283 293.38,583.917C288.066,592.549 288.73,601.847 291.057,606.164C293.38,610.48 297.387,618.387 310.645,627.746C324.758,637.709 335.216,626.501 335.216,626.501C335.216,626.501 417.896,493.269 424.206,483.971C430.515,474.674 432.174,473.013 437.488,471.685C442.802,470.357 582.757,437.485 582.757,437.485C582.757,437.485 575.287,429.515 583.257,432.753C591.222,435.989 600.188,445.785 600.188,445.785L622.436,444.457L615.463,435.824C615.463,435.824 617.126,433.75 615.463,432.504C613.14,432.254 610.153,431.259 610.153,431.259C610.153,431.259 609.904,427.025 604.672,430.012C601.932,431.009 597.532,428.851 597.532,428.851L602.182,427.523L604.838,424.867C618.12,431.176 651.988,441.469 651.988,441.469C691.501,448.774 684.528,423.539 684.528,423.539C703.788,413.578 718.065,400.628 718.065,400.628C745.958,406.937 779.162,408.596 779.162,408.596C831.296,404.611 788.128,363.77 788.128,363.77L788.13,363.77ZM473.577,367.297L472.674,367.717C466.995,356.445 465.874,346.835 469.346,339.15C473.982,328.884 485.394,325.798 485.508,325.767L485.873,326.687C462.129,339.678 473.459,367.022 473.577,367.297ZM489.061,372.827L488.211,373.347C481.247,362.955 478.925,353.48 481.31,345.183C484.558,333.889 495.614,328.831 495.726,328.783L496.22,329.641C474.255,345.471 488.91,372.556 489.061,372.827ZM502.345,374.497L501.495,375.012C495.077,365.755 492.814,356.917 494.765,348.742C497.719,336.372 509.519,329.862 509.639,329.797L510.201,330.613C489.174,348.726 502.211,374.241 502.345,374.496L502.345,374.497ZM330.77,604.571L301.276,587.075L302.291,585.365L331.785,602.861L330.77,604.571ZM332.906,601.025L303.416,583.529L304.43,581.819L333.92,599.315L332.906,601.025ZM335.369,597.205L305.881,579.71L306.897,578L336.384,595.496L335.369,597.206L335.369,597.205ZM337.508,593.66L308.018,576.164L309.033,574.454L338.523,591.949L337.508,593.659L337.508,593.66ZM339.974,589.837L310.48,572.341L311.495,570.631L340.989,588.127L339.974,589.837ZM342.114,586.291L312.62,568.795L313.635,567.085L343.129,584.581L342.114,586.291ZM344.577,582.472L315.086,564.976L316.101,563.266L345.591,580.762L344.577,582.472ZM346.716,578.926L317.222,561.43L318.237,559.72L347.731,577.216L346.716,578.926ZM349.179,575.104L319.685,557.608L320.7,555.898L350.194,573.394L349.179,575.104ZM351.319,571.558L321.824,554.062L322.839,552.352L352.333,569.848L351.318,571.558L351.319,571.558ZM353.781,567.739L324.291,550.243L325.306,548.533L354.796,566.029L353.781,567.739ZM355.917,564.193L326.43,546.697L327.445,544.987L356.932,562.483L355.917,564.193ZM358.383,560.371L328.893,542.875L329.908,541.165L359.398,558.661L358.383,560.371ZM360.523,556.825L331.033,539.329L332.047,537.619L361.537,555.114L360.523,556.824L360.523,556.825ZM362.989,553.005L333.495,535.51L334.51,533.8L364.004,551.296L362.989,553.006L362.989,553.005ZM365.125,549.46L335.635,531.963L336.649,530.253L366.14,547.75L365.125,549.46ZM367.588,545.637L338.098,528.141L339.113,526.431L368.603,543.927L367.588,545.637ZM369.728,542.095L340.233,524.595L341.248,522.885L370.742,540.385L369.727,542.095L369.728,542.095ZM372.194,538.272L342.7,520.776L343.715,519.066L373.209,536.562L372.193,538.272L372.194,538.272ZM374.329,534.726L344.839,517.23L345.854,515.52L375.344,533.016L374.329,534.726ZM376.792,530.904L347.305,513.408L348.32,511.698L377.808,529.194L376.792,530.904ZM378.932,527.361L349.442,509.865L350.456,508.155L379.946,525.651L378.932,527.361ZM381.395,523.539L351.904,506.043L352.919,504.333L382.409,521.829L381.395,523.539ZM383.534,519.993L354.044,502.497L355.059,500.787L384.549,518.283L383.534,519.993ZM386,516.171L356.51,498.675L357.525,496.965L387.015,514.461L386,516.171ZM388.136,512.628L358.646,495.132L359.661,493.422L389.151,510.918L388.136,512.628ZM390.603,508.806L361.109,491.31L362.124,489.6L391.618,507.096L390.603,508.806ZM392.807,505.508L363.313,488.012L364.328,486.302L393.822,503.798L392.807,505.508ZM394.895,501.57L365.405,484.074L366.419,482.364L395.909,499.86L394.895,501.57ZM397.286,498.392L367.799,480.896L368.814,479.186L398.301,496.682L397.286,498.392ZM399.378,494.454L369.888,476.958L370.903,475.248L400.393,492.744L399.378,494.454ZM673.408,127.353L674.406,132.5L659.894,132.5L658.732,127.353L673.408,127.353ZM652.988,131.42L656.225,128.058L657.138,133.287L653.983,135.944L652.988,131.42ZM657.097,154.082L656.099,149.558L659.339,146.196L660.248,151.426L657.097,154.082ZM663.007,150.637L661.842,145.489L676.521,145.489L677.519,150.637L663.007,150.637ZM669.589,391.993C657.635,406.603 640.367,413.577 640.367,413.577C650.331,400.627 649.333,390.332 649.333,390.332C664.193,390.665 669.589,391.992 669.589,391.992L669.589,391.993ZM579.149,393.902L572.298,391.412L581.018,390.666L579.148,393.902L579.149,393.902ZM588.237,397.14L581.018,394.4L583.505,390.665L588.983,390.415L588.237,397.14ZM588.57,371.407C577.281,357.128 564.333,347.497 564.333,347.497C596.869,356.132 624.097,373.067 624.097,373.067C598.201,371.075 588.57,371.407 588.57,371.407ZM590.98,390.167L599.195,389.667L591.225,397.389L590.979,390.167L590.98,390.167ZM602.432,398.137C602.432,398.137 593.966,400.502 592.723,398.385L602.929,389.668L606.418,389.668L602.432,398.136L602.432,398.137ZM605.422,398.137L608.908,389.918C608.908,389.918 622.605,388.921 626.339,389.421L616.876,398.136C616.876,398.136 614.136,396.641 605.423,398.136L605.422,398.137ZM617.874,409.093L614.886,407.848L619.117,404.943C621.11,400.959 618.62,399.63 618.62,399.63L628.584,390.914C624.595,403.614 617.874,409.094 617.874,409.094L617.874,409.093ZM632.318,389.421C635.969,389.087 645.018,390.001 645.018,390.001C635.721,401.623 621.774,408.927 621.774,408.927C629.078,400.627 632.318,389.421 632.318,389.421ZM623.437,411.584C631.074,408.594 646.346,393.321 646.346,393.321C644.52,405.358 635.056,415.235 635.056,415.235C631.074,414.239 623.436,411.584 623.436,411.584L623.437,411.584ZM640.367,416.564C640.367,416.564 657.137,409.342 670.42,395.396C670.42,395.396 663.696,409.591 655.479,420.798C655.479,420.798 646.012,418.888 640.367,416.564ZM674.569,392.324C685.198,393.321 690.839,394.982 690.839,394.982C680.879,409.922 658.964,419.885 658.964,419.885C666.601,410.919 674.569,392.325 674.569,392.325L674.569,392.324ZM661.621,421.877C675.094,414.392 689.095,401.623 689.095,401.623C684.448,410.587 672.58,422.541 672.58,422.541C667.93,423.205 661.62,421.877 661.62,421.877L661.621,421.877ZM677.226,421.877C677.226,421.877 688.849,410.919 694.491,395.647C694.491,395.647 708.274,398.137 712.259,399.131C712.259,399.131 696.817,417.561 677.226,421.877Z" style="fill:rgb(1,1,1);fill-rule:nonzero;"/>
    </g>
    <g>
        <path d="M602.683,408.347L562.833,420.052C562.833,420.052 584.253,418.558 584.751,418.806L602.683,408.346L602.683,408.347ZM591.973,430.823C591.973,430.823 597.45,431.072 602.183,433.065C602.183,433.065 605.919,432.565 608.409,433.811C610.899,435.056 611.898,438.294 615.383,440.535C615.383,440.535 602.165,437.739 591.973,430.823ZM588.454,432.16C588.454,432.16 607.009,440.94 609.748,441.438L602.465,442.154L588.454,432.16Z" style="fill:rgb(203,96,21);fill-rule:nonzero;"/>
        <path d="M609.49,402.952C609.49,402.952 413.251,447.113 407.937,448.442C402.623,449.77 383.696,451.429 377.721,465.044L372.741,473.014L402.459,490.528C402.459,490.528 415.656,468.115 425.119,460.893C434.494,453.741 443.134,451.498 447.78,450.501C455.104,448.931 574.293,421.878 574.293,421.878L544.904,422.542L609.489,402.952L609.49,402.952Z" style="fill:rgb(203,96,21);fill-rule:nonzero;"/>
        <path d="M598.86,420.284C598.86,420.284 450.52,452.925 446.785,454.318C436.382,458.204 429.153,460.297 419.359,474.076L325.39,620.51C325.39,620.51 321.074,624.91 316.758,624.826C316.758,624.826 322.768,629.641 328.909,621.836C328.909,621.836 418.563,480.054 421.551,476.069C424.541,472.085 424.541,467.369 438.819,463.718C453.095,460.064 564.333,435.161 564.333,435.161L565.988,431.177C565.988,431.177 571.637,432.173 573.629,431.841C575.619,431.509 573.629,428.935 571.637,428.603C571.637,428.603 571.8,425.116 582.592,427.193C582.592,427.193 584.336,425.781 587.327,424.784C590.314,423.788 590.894,425.2 595.874,423.539C599.077,422.471 601.022,422.195 598.862,420.284L598.86,420.284Z" style="fill:rgb(203,96,21);fill-rule:nonzero;"/>
        <path d="M328.741,606.577L300.106,589.395C300.106,589.395 290.097,598.518 299.108,610.065C307.076,620.275 315.827,627.192 321.52,618.282C327.25,609.318 328.741,606.577 328.741,606.577ZM645.347,101.453L651.989,93.816L672.579,93.816L674.569,96.806C678.888,97.8 685.527,77.712 658.632,77.546C640.69,77.436 634.725,93.152 644.352,101.453" style="fill:rgb(203,96,21);fill-rule:nonzero;"/>
        <path d="M654.497,97.303L669.172,97.303L671.417,113.242L656.905,113.242L654.497,97.303ZM651.615,98.672L654.149,113.739L650.497,116.396L648.13,102.906L651.615,98.672ZM665.08,165.413L679.76,165.413L695.32,262.829L683.118,247.721L680.979,253.696L665.08,165.413ZM662.574,166.12L682.124,279.596L679.218,278.434L678.554,266.813L675.563,264.488L659.338,169.482L662.574,166.12ZM671.417,265.401L676.647,269.635L676.891,278.102L674.405,276.109L671.417,265.401ZM671.417,274.367L668.177,261.168L663.943,259.175L667.595,272.79L671.417,274.367ZM691.335,276.857L694.077,276.857L693.829,287.814L689.843,284.825L691.335,276.857ZM697.811,290.056L702.795,294.788L707.108,281.091L707.775,275.363L697.811,290.056Z" style="fill:rgb(203,96,21);fill-rule:nonzero;"/>
    </g>
</svg>
