<?xml version="1.0" encoding="utf-8"?>
<!-- Generator: Adobe Illustrator 22.0.1, SVG Export Plug-In . SVG Version: 6.00 Build 0)  -->
<svg version="1.1" id="Layer_1" xmlns="http://www.w3.org/2000/svg" xmlns:xlink="http://www.w3.org/1999/xlink" x="0px" y="0px"
	 width="720px" height="720px" viewBox="0 0 720 720" style="enable-background:new 0 0 720 720;" xml:space="preserve">
<style type="text/css">
	.st0{fill:#13274F;}
	.st1{fill:#CE1141;}
</style>
<g>
	<path class="st0" d="M661.2745972,488.8981628c-8.0233154-7.7681885-21.0562134-20.3587646-37.156189-12.546936
		c-12.0541382,5.8544006-14.2735596,18.3562622-14.2735596,27.7623291c0.0286865,2.9565735,0.2129517,5.9089966,0.5514526,8.8464661
		c0.3057251,3.0834961,0.4572754,6.0564575,0.4517822,8.9174194c0,27.0266724-13.4832764,43.291748-28.2210083,45.711853
		c-10.3901978,0.4190674-48.4978027-32.3036499-66.8554077-106.4235229
		c70.059021-26.3127136,95.913208-67.1871033,104.5412598-98.211792
		c2.8623047-10.2182922,4.3201294-20.7777405,4.3364258-31.3891907c0-23.2919922-7.1592407-42.0386658-14.5137329-50.1971436
		c-4.0717773-4.5235901-16.4685059-18.3098755-32.9329834-13.0369873
		c-16.8015747,5.376709-18.9910278,24.4031372-19.7867432,31.5761108
		c-3.2350464,27.9971313-19.335022,48.8090515-50.7281799,65.4331665
		c3.3646545-81.4907837,32.4906311-169.6986542,85.776825-257.3223572
		c4.2587891-6.9736252,10.9006958-17.9044724,10.9006958-28.6946182c0.0750732-6.1260071-2.3805542-12.0118256-6.7852783-16.2664795
		c-13.9528809-14.0920372-32.2217407-3.1981773-43.1211548,3.3223114l-3.2036133,1.8782654
		c-155.5274048,80.9365921-233.9524841,238.1757202-291.2284851,353.0116577c0,0-1.0605469,2.1443787-2.0024109,4.0252991
		c-88.3675842,33.615448-104.0512085,94.1305542-104.1918488,94.7489014
		c-0.9759064,3.8451538-1.5137634,7.789978-1.6010742,11.7565918c-0.3180847,7.4486694,2.9183197,14.6066895,8.7208252,19.2872314
		c3.5544281,2.8405151,7.8937225,4.5221558,12.4336395,4.8224487c-4.4825897,3.0166016-9.653183,4.859314-15.0338745,5.3548584
		c-26.5925751,1.8809204-51.2878876-13.8491211-60.8277664-38.7409668
		c-0.8981018-24.0618896-15.074791-28.944458-21.367424-29.8439636
		c-23.5923424-3.4015503-32.1794662,25.8500061-35.8444405,38.3560486
		c-8.1393223,27.5917358-1.0195694,60.7389526,18.5119019,86.4906616
		c23.0941429,30.4418335,60.1411095,46.8762817,104.3173981,46.2769775
		c75.4398499-1.0455322,123.973114-83.8494873,163.3965454-164.4611816
		c21.8970337-5.274292,44.099823-9.1917725,66.4787292-11.7333679c0,0,22.1891174-3.3756409,39.7919312-6.0537109
		c19.9382629,81.7118835,57.3224182,142.158783,104.5767212,166.875885
		c28.1241455,15.1949463,61.7299805,16.3879395,90.8586426,3.2241211
		c28.3466187-12.2521362,48.2808228-39.4439697,54.6593628-74.5976563
		C688.2261963,542.3508301,679.9325562,506.9268494,661.2745972,488.8981628z M371.3360596,402.2981873
		c13.5296936-29.3129578,28.8161621-57.7823792,45.7773743-85.252655
		c-0.3739929,9.2518005-0.9459229,18.6005554-0.9459229,27.7486877c0,16.8070068,1.3622437,33.1322327,2.6112671,49.4915161
		C404.4095459,397.2232361,388.596283,399.8944702,371.3360596,402.2981873z"/>
	<path class="st1" d="M646.7669067,503.8961487c-8.8205566-8.5393372-18.159729-17.8171082-15.6317749,6.9463806
		c4.3297119,42.5860596-17.182373,72.7931519-45.1863403,77.3330688
		c-26.9925537,4.4088745-77.4832458-47.5723877-94.7884827-140.322876
		c138.9497375-41.9963989,114.8318787-139.917511,103.4942932-152.5271912
		c-9.6968384-10.7601624-14.5192871-10.5212708-16.5162354,6.9573059
		c-5.0900269,44.3891907-35.8703613,74.5143738-92.6522827,95.1952209
		c-3.4056091-80.5776062,17.8676147-183.0700226,89.1524658-300.2824097
		c21.3319092-35.0541039-7.0446777-14.446991-14.7527466-10.4366455
		c-154.3016968,80.2868729-229.5954285,238.5865784-287.6358337,354.7328796
		c-76.998642,26.1121216-97.1594391,74.956604-99.0840454,83.2557373
		c-2.5948334,11.3006592-1.5751953,13.4846191,12.1524353,6.9586792c17.134613-8.1694336,34.4453278-15.9675903,51.918457-23.386261
		c-25.0597076,43.5115662-49.2867737,72.3413391-78.8400116,73.7868347
		c-59.05867,2.8964844-82.5636673-48.5018921-82.5636673-57.3592529c0-16.5053711-7.8431854-17.3830566-16.4999199,12.1755981
		c-11.8002548,40.010376,18.8285713,107.1661377,102.5374603,106.0059204
		c63.4225311-0.8681641,107.7448578-75.4494019,149.2416534-161.4828491
		c48.336792-13.4273376,79.563446-12.8458557,136.5323486-23.3657837
		c26.1462097,130.1223755,96.6980896,206.6992188,171.3161926,174.4310913
		C670.703186,610.1422119,672.8449097,529.0855103,646.7669067,503.8961487 M440.5249634,410.8999023
		c-33.701416,7.6548157-67.8573608,13.1679993-102.2576599,16.5067444c-0.6388245,0.0764465-1.2789917,0.1133118-1.912323,0.1951904
		c32.6312561-70.0249329,65.6051025-139.1039429,107.0882568-175.7305298
		C436.0464478,304.5678406,435.0663757,357.9672852,440.5249634,410.8999023"/>
</g>
</svg>
