<?xml version="1.0" encoding="utf-8"?>
<!-- Generator: Adobe Illustrator 22.0.1, SVG Export Plug-In . SVG Version: 6.00 Build 0)  -->
<svg version="1.1" id="Layer_1" xmlns="http://www.w3.org/2000/svg" xmlns:xlink="http://www.w3.org/1999/xlink" x="0px" y="0px"
	 width="720px" height="720px" viewBox="0 0 720 720" style="enable-background:new 0 0 720 720;" xml:space="preserve">
<style type="text/css">
	.st0{fill:#0D2B56;}
	.st1{fill:#BD3039;}
</style>
<g>
	<path class="st0" d="M548.4430542,435.8951416l0.003418-0.013916
		c-6.0870361-17.8333435-8.1828003-52.1660156-42.4451599-75.8967896
		c34.2623596-23.6958618,36.3581238-58.0282898,42.4451599-75.8616333
		c9.8856201-28.9614563,16.4502563-46.7245026,37.4990845-59.2571259
		c-75.0191345-43.4245911-38.7979126-82.9176178-101.0001221-145.1234741
		C431.2172241,26.0317898,346.769104,21.7839718,288.2104797,66.9991837
		c-16.1867065-18.1780891-39.7280884-29.6061668-65.9304199-29.6061668c-48.732605,0-88.2256317,39.500103-88.2256317,88.193924
		c0,10.5493698,1.8178253,20.659935,5.2392273,30.0452042c8.3945007-17.432663,25.1430054-29.3199158,44.3934937-29.3199158
		c27.6756439,0,50.122757,24.5608521,50.122757,54.8828888v100.3262787c0,10.508667-3.5231628,57.252655-63.6450653,78.4840393
		c60.1206055,21.2318115,63.6450653,67.9629517,63.6450653,78.5014038v100.3262939
		c0,30.2901001-22.447113,54.8828735-50.122757,54.8828735c-19.2504883,0-36.000061-11.8872681-44.3934937-29.3505249
		c-3.4211884,9.3751831-5.2392273,19.5056763-5.2392273,30.0245972c0,48.732605,39.4930267,88.2466431,88.2256317,88.2466431
		c26.2051239,0,49.7437134-11.4482422,65.9306335-29.6164551c58.5584106,45.1905518,143.0067444,40.9429321,196.7310791-12.755249
		c62.2023926-62.2022095,25.9805908-101.7057495,101.0003662-145.1481018
		C564.894165,482.637207,558.3275757,464.8473816,548.4430542,435.8951416z M438.9614258,530.9273682
		c0,27.9631348-26.9846191,50.7124023-60.124054,50.7124023c-21.3241272,0-40.1038818-9.4035034-50.7758179-23.5681763V428.8680725
		c10.671936-14.1445313,29.4521179-23.5527344,50.7758179-23.5527344v-0.0004272
		c33.1374817,0,60.124054,22.7710876,60.124054,50.7124329c0,14.8173218-7.5935669,28.1669312-19.6747437,37.4500122
		C431.3678589,502.7494812,438.9614258,516.1297607,438.9614258,530.9273682z M438.9614258,264.0156555
		c0,27.9207764-26.9846191,50.6948547-60.124054,50.6948547c-21.3241272,0-40.1038818-9.4240417-50.7758179-23.5681458v-129.203537
		c10.671936-14.1338196,29.4521179-23.536438,50.7758179-23.536438v0.0008545
		c33.1374817,0,60.124054,22.7293091,60.124054,50.6809082c0,14.8171234-7.5935669,28.156662-19.6747437,37.4500122
		C431.3678589,235.8159485,438.9614258,249.1769104,438.9614258,264.0156555z"/>
	<path class="st1" d="M525.9475098,429.0011292c-3.4824219-13.7575684-17.258667-49.9693298-46.9563293-68.9950562
		c29.6974487-19.0372925,43.4739075-55.2391968,46.9563293-69.0055542c1.204834-4.7078552,2.338501-9.1300964,3.7477417-13.2864075
		c6.4952393-19.0552979,12.4081421-36.3756866,23.9379883-50.754837
		c-28.6055298-22.6635284-36.479187-45.5891113-44.0671997-67.9031677
		c-7.0868225-20.7717896-13.7862854-40.4100952-38.6432495-65.267067
		c-50.5195618-50.5223579-134.3218994-48.8549423-184.8344116,1.6646347
		c-10.84375-23.5203781-36.2533264-38.2468643-63.8066101-38.2468643c-33.4162445,0-61.3267059,24.1006088-67.2398071,55.8307953
		c8.7315521-4.2077484,18.4538574-6.5565338,28.6458435-6.5565338c38.5639648,0,69.9466095,33.507515,69.9466095,74.7136002
		v100.3262939c0,17.4225769-6.668808,52.7998047-41.0235291,78.4840393
		c34.3547211,25.6930237,41.0235291,61.0584412,41.0235291,78.5014038v100.3262939
		c0,41.18573-31.3837128,74.6925659-69.9466095,74.6925659c-10.1919861,0-19.9142914-2.3386841-28.6458435-6.5464478
		c5.9152374,31.7393799,33.824646,55.8203125,67.2398071,55.8203125c27.5539398,0,52.9611206-14.737854,63.8066101-38.2468872
		c50.5090942,50.5194092,134.3148499,52.2043457,184.8344116,1.6849976
		c24.8565369-24.8683472,31.5559998-44.4849854,38.6432495-65.2773438v0.0066528
		c7.5897217-22.3233032,15.4620972-45.2398682,44.0671997-67.9421692
		c-11.5298462-14.3403625-17.442749-31.6601257-23.9379883-50.7265625
		C528.2862549,438.171936,527.1525269,433.709198,525.9475098,429.0011292z M458.7816467,530.9277954
		c0,38.9616089-35.7752991,70.5467529-79.9442749,70.5467529c-30.6044312,0-57.1630859-15.1642456-70.5924072-37.3867798
		V422.8853455c13.4276123-22.2339172,39.9854126-37.4043579,70.5924072-37.4043579
		c44.1689758,0,79.9442749,31.5982056,79.9442749,70.5467834c0,13.7655029-4.4719543,26.5738831-12.2232056,37.4500122
		C454.309906,504.3226318,458.7816467,517.1817627,458.7816467,530.9277954z M458.7816467,264.0182495
		c0,38.9312134-35.7752991,70.5150452-79.9442749,70.5150452c-30.6044312,0-57.1630859-15.1500854-70.5924072-37.3726501
		V155.9408875c13.4276123-22.2341309,39.9854126-37.3726578,70.5924072-37.3726578v0.0034332
		c44.1689758,0,79.9442749,31.5662613,79.9442749,70.5150681c0,13.7655029-4.4719543,26.6043091-12.2232056,37.4500122
		C454.309906,237.3912201,458.7816467,250.2518768,458.7816467,264.0182495z"/>
</g>
</svg>
