<?xml version="1.0" encoding="utf-8"?>
<!-- Generator: Adobe Illustrator 22.0.1, SVG Export Plug-In . SVG Version: 6.00 Build 0)  -->
<svg version="1.1" id="Layer_1" xmlns="http://www.w3.org/2000/svg" xmlns:xlink="http://www.w3.org/1999/xlink" x="0px" y="0px"
	 width="720px" height="720px" viewBox="0 0 720 720" style="enable-background:new 0 0 720 720;" xml:space="preserve">
<style type="text/css">
	.st0{fill:#C6011F;}
</style>
<g>
	<path d="M674.4991455,431.598877l7.0234985,16.5518494c-46.7700806,78.2119446-146.4906616,141.9147644-275.1747131,141.9147644
		c-146.8977966,0-203.5768585-56.6793213-271.8532715-128.6865845
		c-28.149231-29.7800293-45.9535446-55.4531555-89.4019318-91.0352478L36,348.8395691
		c45.1104889,33.5108643,62.8860168,60.0004883,90.6281128,89.7805176
		c67.8670349,72.4143982,125.7985535,135.328949,272.6963196,135.328949
		C528.0107422,573.9490356,627.7290649,510.2202148,674.4991455,431.598877z M213.1159821,360.4081421
		c0-45.9270325,54.2029572-137.7765198,194.8937836-137.7765198c84.4188843,0,148.12146,38.9012756,169.6553345,72.8215332H684
		c-2.0689697-3.730835-6.6153564-16.5518799-6.6153564-16.5518799H575.5961304
		c-21.0979614-33.9202576-88.1507568-72.8215179-172.5696411-72.8215179
		c-143.576355,0-199.8460083,95.1732025-199.8460083,141.0979462c0,26.4896545,7.8665314,49.6556091,20.6898193,69.5289001
		C215.184967,400.5641479,213.1159821,376.1434631,213.1159821,360.4081421z"/>
	<path class="st0" d="M396.0029907,496.5516052c-67.4598999,0-138.2146912-28.1204529-172.1326904-79.8450012
		c-13.2592163-19.873291-20.6898193-43.0392456-20.6898193-69.5289001c0-45.9247437,56.2696533-141.0979462,200.2819214-141.0979462
		c84.3923645,0,151.4439087,38.9012604,172.5421143,72.8215179h101.380127
		c-47.1782227-93.1042175-168.8400269-148.9667511-290.4740906-148.9667511
		c-119.5916138,0-210.6268463,69.0929565-263.1967468,131.1624298C54.2137146,343.0397339,36,348.8395691,36,348.8395691
		c45.1104889,33.5108643,62.8860168,60.0004883,90.6281128,89.7805176
		c67.8670349,72.4143982,125.7985535,135.328949,272.6963196,135.328949
		c128.6863098,0,228.4046326-63.7288208,275.1747131-141.9430237H573.9355469
		C526.7560425,467.5858459,469.2339172,496.5516052,396.0029907,496.5516052z"/>
</g>
</svg>
