<?xml version="1.0" encoding="utf-8"?>
<!-- Generator: Adobe Illustrator 22.0.1, SVG Export Plug-In . SVG Version: 6.00 Build 0)  -->
<svg version="1.1" id="Layer_1" xmlns="http://www.w3.org/2000/svg" xmlns:xlink="http://www.w3.org/1999/xlink" x="0px" y="0px"
	 width="720px" height="720px" viewBox="0 0 720 720" style="enable-background:new 0 0 720 720;" xml:space="preserve">
<style type="text/css">
	.st0{opacity:0.992;fill:#0C2340;stroke:#FF5B11;stroke-width:0.5562136;stroke-opacity:0;enable-background:new    ;}
	.st1{fill:#CE0E2D;}
</style>
<g>
	<path class="st0" d="M425.7930908,445.6551208v86.7505798c-15.62677,5.9147339-48.8518677,15.553833-69.5172119,19.7890015
		c-18.3286133-5.3306274-41.4036255-13.2171021-61.3386841-21.0302734
		c-1.6795044-54.6938477-2.1177673-150.2801208-2.1177673-201.1766663c0-38.5557251,0.7302856-105.9553223,1.3874817-138.5963135
		c21.7606201-8.9086456,43.229187-17.525238,65.5011292-25.0465698c20.6651611,6.2798767,41.9147949,13.8012085,62.0689697,21.6875
		c0.5111694,27.3834686,1.3143921,74.1908264,1.6064148,102.6695557
		c34.3934631,1.6064148,75.8701782-0.8763123,112.819458-5.9878235
		c9.2006836-60.0244751,24.3164673-155.9757233,32.8599854-221.4766693
		c-33.1520386-6.8641396-69.5172119-9.2008591-112.3083191-9.6389313
		c-2.1175842,5.6226807-6.2069397,16.7220192-8.2514343,22.4178047C425.0629578,64.3327026,384.1703491,45.4929085,360.1461182,36
		c-58.710083,22.3448753-140.0567474,58.6369781-205.1927185,92.6654663
		c14.0932617,68.129715,18.0365753,116.3974609,18.0365753,190.8072205c0,110.6287842-10.2231903,203.6592102-22.0528259,280.186554
		C204.4624481,625.8012695,294.1338196,663.2617188,355.4726563,684
		c83.464447-29.0628052,161.3063354-60.5354614,210.3042603-85.0710449
		c-4.2352295-36.1460571-18.8398438-112.6734314-30.7423706-162.9127502
		C500.6408997,437.1116333,453.541687,441.2738953,425.7930908,445.6551208z"/>
	<path class="st1" d="M444.7059631,462.2311096v0.0001831v83.39151
		c-28.4787292,10.3690186-57.687561,19.4238892-89.3062134,25.9957886
		c-26.9454041-8.2514648-53.5983887-17.2331543-79.156311-27.5292969
		c-1.4604187-62.4341125-3.1399231-146.8479614-2.4096375-214.4664917
		c0.5840759-53.890625,0.2918701-99.237381,1.6795349-151.0102234
		c26.506958-11.6834412,58.8559265-23.8782196,83.8295593-32.3489532
		c28.6976624,8.5436707,54.4745178,18.1096802,81.2008057,28.4788971
		c0.3651428,20.738266,1.3874817,69.5171967,1.6795349,97.4847412c19.4969788,0.7301331,46.5882263-1.2414551,77.476593-4.746521
		c9.7120361-63.2373352,19.6430054-128.7382813,28.4786987-188.6165466
		c-23.9512939-4.1622696-52.2839966-5.7688751-78.2797852-6.1338501l-11.0264282,29.7929382
		c-32.0568848-16.5028992-64.2596436-31.7646866-99.0182495-46.1499863
		c-64.186554,25.1196671-123.4076385,51.9188614-183.6510468,82.5881119
		c11.1724396,57.4686279,15.6267548,102.7424622,15.6267548,180.365097c0,101.7201233-8.9817352,196.4300842-20.0812531,269.0143127
		c60.8276825,28.4786987,120.0487518,53.0140991,183.6512299,75.3590088
		c65.0628662-22.782959,129.030304-47.2454224,189.7119446-76.1622314
		c-3.5050659-25.8499756-14.8966064-86.7505798-25.192749-132.0244141
		C495.2373657,456.7544556,470.4828186,458.9451599,444.7059631,462.2311096z"/>
</g>
</svg>
