<?xml version="1.0" encoding="UTF-8" standalone="no"?>
<!DOCTYPE svg PUBLIC "-//W3C//DTD SVG 1.1//EN" "http://www.w3.org/Graphics/SVG/1.1/DTD/svg11.dtd">
<svg width="100%" height="100%" viewBox="0 0 720 720" version="1.1" xmlns="http://www.w3.org/2000/svg" xmlns:xlink="http://www.w3.org/1999/xlink" xml:space="preserve" xmlns:serif="http://www.serif.com/" style="fill-rule:evenodd;clip-rule:evenodd;stroke-linejoin:round;stroke-miterlimit:2;">
    <g>
        <path d="M584.5,638.576C562.348,616.789 521.911,502.346 488.501,494.81C500.746,488.657 577.818,470.705 578.161,387.372C577.819,297.279 494.387,268.086 410.936,268.086C393.205,268.086 360.878,269.395 328.019,271.346C286.312,273.956 264.925,275.91 233.155,278.513L233.155,309.157C277.965,309.157 287.358,319.583 287.358,368.471L287.358,426.767C225.61,413.729 185.063,345.015 185.063,248.435C185.063,146.182 233.106,74.279 303.282,74.279C329.685,74.279 352.89,84.832 371.37,103.961C389.862,123.083 403.044,150.795 408.856,184.446L433.657,184.446L428.934,46.554L409.372,46.554C407.274,53.159 404.64,55.797 399.862,55.797C386.684,55.797 355.563,36 299.082,36L299.081,36.003C237.861,36.003 185.6,58.435 149.199,98.022C112.246,138.263 91.12,193.026 91.12,258.995C91.12,304.519 104.31,355.959 134.418,396.868C164.488,437.767 213.062,467.462 283.76,467.462C284.98,467.462 286.144,467.364 287.356,467.341L287.356,595.964C287.356,643.547 276.929,653.325 233.153,653.325L233.153,683.975L430.753,683.975L430.753,653.325C390.079,653.325 374.953,647.466 374.953,599.229L374.953,511.88L402.592,511.88C402.592,511.88 504.454,684.007 507.228,684C514.439,683.977 628.88,683.924 628.88,683.924L628.88,653.439C628.88,653.439 605.882,657.215 584.5,638.576ZM374.954,479.938L374.954,458.409C376.936,458.339 378.94,458.218 380.874,458.218C387.238,458.218 393.021,458.22 397.769,459.549C403.044,460.201 408.339,461.514 413.071,463.495L414.682,458.886C429.965,414.03 442.648,365.205 446.859,327.584L422.053,327.584C409.442,361.391 393.703,386.709 374.955,403.608L374.955,299.38L400.496,299.38C451.072,299.38 477.693,333.272 477.693,384.754C477.693,451.909 450.593,481.245 374.954,479.938Z" style="fill:rgb(140,143,146);fill-rule:nonzero;stroke:rgb(141,144,147);stroke-width:1px;"/>
        <path d="M220.194,77.299C220.194,77.299 220.2,77.294 220.2,77.294L220.2,77.297L220.194,77.299ZM467.867,475.047C467.867,475.047 551.813,457.755 551.589,389.132C551.363,311.238 469.229,303.833 469.229,303.833C469.229,303.833 498.938,322.809 498.899,389.901C498.899,456.356 467.867,475.047 467.867,475.047ZM541.766,605.454C524.401,563.899 491.9,513.121 469.168,501.682L469.166,501.714C469.166,501.714 462.828,504.221 454.118,506.691C444.568,509.442 425.001,512.542 425.001,512.542C451.66,549.696 509.671,653.425 509.671,653.425L573.874,653.578C573.874,653.578 560.476,642.921 541.766,605.454ZM112.96,255.811C112.828,395.678 216.246,422.097 216.246,422.097C216.246,422.097 163.001,355.242 163.164,247.924C163.358,132.497 220.076,77.414 220.194,77.299C220.076,77.346 113.061,119.364 112.96,255.811ZM308.709,653.234L353.738,653.234L353.738,300.765L308.709,303.884L308.709,653.234Z" style="fill:rgb(51,0,114);fill-rule:nonzero;"/>
    </g>
</svg>
