<?xml version="1.0" encoding="utf-8"?>
<!-- Generator: Adobe Illustrator 22.0.1, SVG Export Plug-In . SVG Version: 6.00 Build 0)  -->
<svg version="1.1" id="Layer_1" xmlns="http://www.w3.org/2000/svg" xmlns:xlink="http://www.w3.org/1999/xlink" x="0px" y="0px"
	 width="720px" height="720px" viewBox="0 0 720 720" style="enable-background:new 0 0 720 720;" xml:space="preserve">
<style type="text/css">
	.st0{fill:#004687;}
</style>
<path class="st0" d="M674.1345825,550.0474854c-26.0366821-50.8995056-73.0166016,7.2670898-32.4926758,29.0715332
	c5.5593872,2.9905396,7.7389526,6.8629761,2.7457886,20.7455444
	c-34.0440674,95.5640869-220.1113281,104.8809814-215.5192261-191.0812073
	c1.2622681-79.9945984,18.409729-197.271637,109.9215698-194.1660614
	c89.9161987,3.0614777,103.8693237,105.916275,105.6890869,137.0789948h22.0551758V172.0437317h-25.4734497
	c-4.5919189,20.7691498-7.6976929,39.4679871-41.8095703,29.0715179
	c-34.0646973-10.3962708-48.7820435-8.7770538-60.7739258-9.3374329
	c-106.8629456-5.1996765-179.6318665,130.823349-164.8704529,239.865921
	c-25.7859192-20.745575-63.566803-173.4205322-163.9678497-181.7228851c0,0,65.5458832-109.5116577,98.5782318-154.7189789
	c25.7861023-35.306263,45.1160583-35.306263,60.7769775-35.306263h10.1485901V36H235.4485626v23.8956108
	c23.0194855,0,46.9828033,0,31.3218536,34.2711906c-12.7823334,27.903595-74.054718,124.6384811-97.4104767,161.157135
	l-11.2957916,6.9751434l0.0235748-142.1870422c0-42.261055,23.7391815-57.9219818,46.9827881-59.8331795l-0.0471649-24.1460075
	h-68.4952087H42.922226v23.6713142l8.1903992,0.2919807c24.839241-0.2919807,52.6071091,14.3336945,52.6071091,60.0128326
	v317.7666016c0,45.6793213-27.7649918,60.3257141-52.6071091,60.013031l-8.1903992,0.3126831v23.6505737h87.9815979h87.9547577
	v-23.6505737l-8.1903992-0.3126831c-24.8628082,0.3125-52.6071014-14.3367615-52.6071014-60.013031l-0.4277039-83.09729
	l0.6753998-46.6908264c15.4132385-16.6282959,56.3882751-47.1627808,106.6123657,20.769165
	C329.3875122,416.0506592,380.0393066,684,553.2120972,684C664.6849976,684,686.0852661,573.3589478,674.1345825,550.0474854z"/>
</svg>
