<?xml version="1.0" encoding="utf-8"?>
<!-- Generator: Adobe Illustrator 22.0.1, SVG Export Plug-In . SVG Version: 6.00 Build 0)  -->
<svg version="1.1" id="Layer_1" xmlns="http://www.w3.org/2000/svg" xmlns:xlink="http://www.w3.org/1999/xlink" x="0px" y="0px"
	 width="720px" height="720px" viewBox="0 0 720 720" style="enable-background:new 0 0 720 720;" xml:space="preserve">
<style type="text/css">
	.st0{fill:#083884;}
</style>
<path class="st0" d="M502.8833008,524.5925903l80.9998779,0.0004883l-0.6891479-151.631958h-62.1340942l-0.6806641,92.6636658
	h-32.3244324L423.4720764,196.914505l-88.074707,0.4393463l-64.6980286,268.9190063h-29.6071472V90.4342651h49.2480774V36.0025177
	L138.0605927,36l0.7480316,54.4342651h45.2598267v378.4305725h-47.9516144v55.7277527l121.3905487-0.7426758l-21.749649,100.9450684
	l-50.3931274,0.8851318V684h158.1112823v-58.3198853l-48.8145752-0.0212402l23.2749939-101.0911865l123.2090149,0.6729736
	l23.1604004,100.4394531h-49.5500183V684H574.163147v-58.2625732l-48.4371338-0.7052612L502.8833008,524.5925903z
	 M331.8121033,465.5671692l47.9072266-202.7655334l47.0090027,202.7304077
	C425.7828979,466.4778137,331.8121033,466.5124207,331.8121033,465.5671692z"/>
</svg>
