<?xml version="1.0" encoding="utf-8"?>
<!-- Generator: Adobe Illustrator 22.0.1, SVG Export Plug-In . SVG Version: 6.00 Build 0)  -->
<svg version="1.1" id="Layer_1" xmlns="http://www.w3.org/2000/svg" xmlns:xlink="http://www.w3.org/1999/xlink" x="0px" y="0px"
	 width="720px" height="720px" viewBox="0 0 720 720" style="enable-background:new 0 0 720 720;" xml:space="preserve">
<style type="text/css">
	.st0{fill:#FF5910;}
</style>
<path class="st0" d="M520.3136597,439.0545349V277.7648315c25.1829224,10.324707,31.5548706,48.1652222,11.8098145,66.4117737
	c0,0,49.4855347-5.116394,49.4855347-56.2868042c0-40.3621674-32.7374268-63.6821136-61.2953491-69.2089996V105.6103592
	c0.2105713-12.9950562,33.5366821-28.9521255,47.838562-2.3624954c24.383667-31.85186-10.7567749-94.8158112-76.9472656-53.8082848
	c-66.1283264-41.0075226-101.2714844,21.9564247-76.8662109,53.8082848
	c14.3018799-26.5896301,47.5874634-10.6325607,47.7980652,2.3624954v126.8998489
	c-17.3825378,9.0693207-39.106781,23.9947662-59.7806091,48.8212738L256.0946045,103.995697
	c2.762146-12.646843,33.9200439-26.2628403,47.6090393-0.7478333c24.4052734-31.85186-10.7162781-94.8158112-76.8877869-53.8082848
	c-66.1902924-41.0075226-101.3120041,21.9564247-76.906723,53.8082848
	c14.3018646-26.5896301,47.609024-10.6325607,47.8196411,2.3624954v113.461998
	c-28.0556488,6.1802979-59.3378143,29.3840485-59.3378143,68.8174438c0,51.1730652,49.4855499,56.2868042,49.4855499,56.2868042
	c-19.2590637-17.7605896-13.7105865-54.0943604,9.8496246-65.5261841v160.4041138
	c-0.2106171,12.9950562-33.5177765,28.9628296-47.8196411,2.3840942
	c-24.4052811,31.8302612,10.7162628,94.79422,76.9067383,53.7893372
	c66.1715088,41.0075073,101.2930603-21.9590759,76.8877869-53.7893372
	c-14.3018799,26.5787354-47.5874634,10.6109619-47.8196564-2.3840942V291.1703796
	c41.9984283,28.6118164,71.4014435,85.4386597,74.9249115,118.3974304v186.9316406
	c0,30.2696533-33.5393372,52.0559692-47.7980347,25.482666c-24.4268799,31.8490601,10.6946716,88.6975098,76.8851318,47.6899414
	c66.1499329,41.0075684,101.2714844-15.8408813,76.8662109-47.6899414
	c-14.280304,26.5759888-47.7980652,2.2788086-47.7980652-25.482666V412.2462158
	c0.8018799-12.3389893,5.6537781-28.5821533,13.6889954-45.5705261l59.4431152,73.0566406
	c-1.2662659,12.8465881-33.6878357,27.8638306-47.7575073,1.7091064
	c-24.4052734,31.8302612,10.737854,94.7940369,76.8661804,53.7893066
	c66.1904602,41.0075378,101.3308411-21.9590454,76.9472961-53.7893066
	C553.8503418,468.0173645,520.524231,452.0495911,520.3136597,439.0545349z M360.0013123,355.7461853
	c-28.5389709-75.2273254-73.5938721-108.7775421-104.1173096-124.2404022V186.364563l115.8866272,142.3491821
	C367.5963745,337.0568237,363.6706238,346.0639954,360.0013123,355.7461853z M462.1368103,353.850708l-28.6442871-34.7733154
	c8.6049194-10.0303955,18.2465515-19.1104431,28.6442871-26.5247192V353.850708z"/>
</svg>
