<?xml version="1.0" encoding="utf-8"?>
<!-- Generator: Adobe Illustrator 22.0.1, SVG Export Plug-In . SVG Version: 6.00 Build 0)  -->
<svg version="1.1" id="Layer_1" xmlns="http://www.w3.org/2000/svg" xmlns:xlink="http://www.w3.org/1999/xlink" x="0px" y="0px"
	 width="720px" height="720px" viewBox="0 0 720 720" style="enable-background:new 0 0 720 720;" xml:space="preserve">
<style type="text/css">
	.st0{fill:#001C43;}
</style>
<g>
	<path class="st0" d="M221.7111969,95.8236847C245.4347076,70.85186,273.5065613,49.5085716,305.3224487,36
		c-3.2163086,9.7645111-5.5832825,19.7865868-7.8862915,29.7959061
		c-5.2102051,25.5763779-4.9532776,52.2461624,1.0546875,77.6551437
		c4.2717896,21.0606384,11.3087463,41.4259033,17.741394,61.8947449
		c7.1016541,20.6492004,14.5124512,41.207962,22.9778137,61.3546448
		c8.5552979,20.0316772,17.2136536,40.1400146,28.2522278,58.9359741
		c20.0310364-37.1937256,37.631012-75.6477509,54.5230408-114.3465881
		c11.0253296-26.3871307,22.2957153-53.069397,26.8243103-81.488739
		c2.2638855-10.2539215,2.9718628-20.7522507,4.2069397-31.1474228c0.0257263-9.893425,0.1671143-19.799324-0.077301-29.6801376
		c-0.9649048-7.7706451-1.6853638-15.5667648-3.2294617-23.2473526
		c18.2814636,10.3434486,34.1577759,24.2766876,49.7374268,38.2095795
		c5.8666992,6.1367493,12.646698,11.3218536,18.1528015,17.8060989c12.3125,12.7232742,24.5214233,25.9359436,33.2055054,41.4773712
		c-12.15802,2.9977264-24.2124023,7.7964935-33.5911865,16.325943
		c-16.4290161,14.8724213-27.0944824,34.7753143-36.5373535,54.5236969
		c-10.2796326,21.9093475-19.7616272,44.1793365-29.2818298,66.4234467
		c-4.155365,9.1602173-7.7832642,18.5385132-12.0033569,27.6730347
		c-11.70755,27.9694214-24.0967102,55.6298523-37.0260925,83.045929
		c33.9516907,27.3769836,70.5531006,52.0139465,99.9373474,84.5894165c3.023468,3.2677917,5.6222534,7.0112,9.2890015,9.6231079
		c-1.3506165-7.2435608-3.6924744-14.2547607-4.8370972-21.5493774
		c-6.5614319-30.8384094-10.2539063-62.2810974-11.0516968-93.8011169
		c-0.2054443-40.2938538,4.0141296-81.15448,17.4585876-119.3514557
		c10.3048706-30.0017548,26.2318726-59.6308136,52.4387817-78.6071472
		c16.7122803,4.8244934,31.8804932,13.6630707,46.3024902,23.1832886
		c11.7716064,8.1695862,22.7328491,17.5226593,32.8579712,27.6735382
		c-20.4431152,8.5295563-38.6473389,22.848526-51.0239258,41.2846375
		c-11.0769043,15.0394287-17.7545166,32.7034912-23.0419922,50.4837341
		c-3.6278076,16.5314026-6.4710083,33.2820435-6.715332,50.2387695c0.2958984,12.5179443-1.44104,25.0101318-0.2702026,37.5279541
		c0.5145264,20.2371521,3.9362793,40.2556763,7.7444458,60.1071167
		c5.4551392,24.688385,12.9557495,49.0810242,24.2385864,71.7755432
		c7.7192383,15.6312256,17.8700562,30.3748779,31.661438,41.2456665
		c7.0500488,4.8502197,14.6022339,9.0314331,22.4627075,12.4280396
		c-17.5993652,18.8865356-36.614563,36.3577271-55.9766235,53.3909912
		C576.6390991,656.4552002,558.7947388,670.710083,540.243103,684
		c-2.3928223-38.9432983-11.5913696-77.6680298-28.6636353-112.8547974
		c-26.1427002-54.2528687-70.8622437-97.2618408-119.9306641-131.0075378
		c-1.3763428,2.1616211-1.0804443,4.8120117-1.2608032,7.2562866c-0.7977905,40.2555542-3.4863586,80.5369568-1.093689,120.8050842
		c0.4372864,14.3320923-0.0124817,29.178833,4.9658813,42.8670044c6.2272034,19.710022,21.4595947,34.8010254,37.0524902,47.5758667
		c-12.6724548,2.7532959-25.6791687,3.5894165-38.6091919,4.1045532
		c-12.7365112-0.0646973-25.4861755,1.2218018-38.2226868,0.1671143
		c-26.9524536-0.1802368-54.085907-1.9297485-80.4081726-8.1055298
		c21.6655579-13.8685303,35.4184265-37.3477173,41.6582336-61.8690186
		c2.9199219-11.8872681,5.0042419-24.0326538,5.0814209-36.2930298c0.1156616-8.1695557,1.2093506-16.2877197,1.0164795-24.4440918
		c0.1287842-12.0291748,1.2092285-24.0326233,1.0421143-36.0743103c-0.1802673-23.5822144,0.488739-47.2027893-0.8235168-70.7591858
		c-0.2569275-6.3297424,0-12.6724548-0.4246826-18.9763184c-1.2218323-5.3389893-1.993866-10.90979-4.0907898-15.9528503
		c-9.0704346-6.7028198-18.0628967-13.5475464-26.9014893-20.5845032
		c-32.6394043-25.782196-62.885498-54.4715881-91.343689-84.7955017c-2.4832611-2.4568787-4.8244934-5.0946655-7.7575226-7.0501709
		c-0.3216248-0.5402222-0.9648895-1.6465149-1.2865295-2.1867371c9.1212463,27.1328125,14.795105,55.4747009,15.6826782,84.1132507
		c0.2827759,20.0826111,0.5528259,40.2555542-1.9945068,60.2226563c-4.6309967,49.2738647-17.2135162,97.2612-28.406601,145.3263855
		c-5.0042114,22.4752808-6.9597473,45.4400024-9.3399506,68.3017578
		c-0.5659485,15.3096313-2.4575348,30.5939941-0.9906311,45.9294434
		c-23.2216187-15.1300049-46.1995773-30.8252563-66.7193604-49.5189819
		c-10.4467545-8.838562-20.0059357-18.7445068-28.2910919-29.6159058
		c16.7249222-28.3551636,32.4208603-57.3404541,46.5726929-87.0720215
		c9.3273544-21.1253662,18.0497742-42.5974426,24.6112061-64.7769775
		c5.2233124-18.8865051,9.2117004-38.1586304,10.7426605-57.7267761c0.3473663-10.382019,0.3341217-20.7647095,0.0257416-31.1600037
		c-2.4318085-32.9736633-13.4960938-65.2267456-31.7518463-92.7840881
		c-10.677948-16.9824829-23.9553299-32.2022552-38.3898239-46.0708008
		c18.0371628-27.0303955,41.1814651-50.7922363,67.9674301-69.2672119
		c5.0042114-3.0875397,10.0222015-6.1493683,15.1683197-8.9925995
		c20.8030853,57.4567413,56.7744751,109.0592194,102.2659607,149.7263336
		c10.7043152,9.1087646,21.6009827,18.1018677,33.6426392,25.4222412
		c-2.8946838-10.63974-5.6989441-21.3183289-9.2757568-31.7518616c-1.9813843-6.4452515-4.4897461-12.7240295-6.2650146-19.2338562
		c-9.4177856-25.5887299-19.9543457-50.9461212-34.3247833-74.1941223
		c-13.9589691-23.1958923-32.0344849-44.9513855-56.144455-58.0610199
		C201.3710175,120.1647034,211.1745148,107.4922562,221.7111969,95.8236847z"/>
</g>
</svg>
