<?xml version="1.0" encoding="utf-8"?>
<!-- Generator: Adobe Illustrator 22.0.1, SVG Export Plug-In . SVG Version: 6.00 Build 0)  -->
<svg version="1.1" id="Layer_1" xmlns="http://www.w3.org/2000/svg" xmlns:xlink="http://www.w3.org/1999/xlink" x="0px" y="0px"
	 width="720px" height="720px" viewBox="0 0 720 720" style="enable-background:new 0 0 720 720;" xml:space="preserve">
<style type="text/css">
	.st0{fill:#E81828;}
</style>
<path class="st0" d="M510.7982483,198.9176483c-5.9083252-51.0573425-36.3652344-75.0418854-90.4721375-71.4034271
	l-13.9649353,0.9483185v173.4959869l17.7388916-3.3232727C482.0886841,287.7862244,516.0900879,248.6478882,510.7982483,198.9176483
	 M267.6074829,228.9460144c0,0-18.0540619,110.688324-104.8988495,71.8651428
	c-52.2683182-23.4343567-57.6485901-114.5175323,23.8380127-194.4531097
	c121.0562592-117.9762878,420.7952881-89.1644211,408.8790894,98.3794708
	c-6.5166016,106.8286438-84.541748,149.5004272-191.7602234,188.3125v197.14328
	c0,59.9488525-61.8676758,101.4594116-112.9775391,92.6203613c-54.568634-9.6187134-56.1086121-74.5663452,9.217804-143.3515015
	V145.551712C249.553421,166.2959137,216.5197296,230.1044617,267.6074829,228.9460144z"/>
</svg>
