<?xml version="1.0" encoding="utf-8"?>
<!-- Generator: Adobe Illustrator 22.0.1, SVG Export Plug-In . SVG Version: 6.00 Build 0)  -->
<svg version="1.1" id="Layer_1" xmlns="http://www.w3.org/2000/svg" xmlns:xlink="http://www.w3.org/1999/xlink" x="0px" y="0px"
	 width="720px" height="720px" viewBox="0 0 720 720" style="enable-background:new 0 0 720 720;" xml:space="preserve">
<style type="text/css">
	.st0{fill:#FD5A1E;}
</style>
<path class="st0" d="M471.5221252,268.4457092c-17.3989258,5.8811035-149.0328064,2.3270264-149.0328064,2.3270264v-56.0110779
	h169.2175598c21.6905823,4.0465698,35.3493347,20.714325,38.4854431,42.287262h62.2643433
	c-10.6039429-19.6767578-26.2364502-72.4961243-24.2747803-100.3189697
	c-12.3946533,7.1051178-296.4860229,12.0723419-323.9336243,2.8785095
	c-2.8229218,26.7168274-4.9702606,29.1709442-15.6328583,50.6164246
	c32.052475,8.5833435,31.6246796,16.8538513,31.6246796,60.5478516l-36.709549-1.4717712l-28.8607788-28.0675812V123.5714493
	l28.984848-25.3721313h221.7366028l26.1619263,29.1119308h62.2704163
	c-7.2321777-17.7707443-7.9013672-25.6134644-5.7600708-47.7409363C504.2191467,71.7896271,487.3157349,58.9176483,471.5561523,36
	c-26.1619263,9.7453346-252.2893066,11.5794868-276.8648376,0c-9.6246643,17.2192535-36.7719421,42.8361206-62.2643738,55.0291367
	l-0.0435028,0.0030212c9.0667572,29.9671707,8.3325653,143.892334,0,175.5884705
	c26.7168427,13.2279358,53.3776855,41.1778564,62.2643738,58.4561157
	c31.0644836-2.3304138,65.5710907-0.6101074,65.5710907-0.6101074v180.403656h-39.4057465l-26.1653442-30.5160217v-87.3910217
	h-67.1045074c7.6013947,18.1395569,10.052475,104.0591736,4.8431702,117.9070435
	c22.6142883,8.7039795,53.8050995,43.0770874,62.2643738,62.208374c28.2506409-5.7668457,65.5710754-4.2356567,65.5710754-4.2356567
	v35.1791382c-3.1236267,18.7530518-19.9181061,30.8840332-40.3260345,31.807373c0,0,18.5113678,34.6832275,19.000824,54.1704712
	h106.3892059c0.6755676-19.9211426,18.8801575-54.1704712,18.8801575-54.1704712
	c-22.7409973-1.9056396-35.6065369-7.7837524-41.6767578-31.807373v-35.1791382c0,0,118.0961609-4.291687,149.0328064,4.2356567
	c12.7478943-25.1950684,37.6922302-50.0739746,62.2704163-62.208374c-6.1322632-47.6792908-7.541626-126.0568848,0-171.9508362
	C511.2346191,323.8432617,480.1705017,290.8708801,471.5221252,268.4457092z M471.5811157,474.3546753l-26.2303772,30.515625
	H322.4802246v-65.8093567c0,0,76.2393494-6.4390259,108.2854004,10.0426331c-3.12323-7.8427124-4.471344-54.9671021,0-69.4935608
	c-25.3036804,15.4437256-108.2854004,10.17276-108.2854004,10.17276v-65.3259583l-0.0098267-0.0245972
	c36.2234802,0,100.6446838,0.2477417,118.7096863,2.169281l30.4010315,35.2377625V474.3546753z"/>
</svg>
