<?xml version="1.0" encoding="utf-8"?>
<!-- Generator: Adobe Illustrator 22.0.1, SVG Export Plug-In . SVG Version: 6.00 Build 0)  -->
<svg version="1.1" id="Layer_1" xmlns="http://www.w3.org/2000/svg" xmlns:xlink="http://www.w3.org/1999/xlink" x="0px" y="0px"
	 width="720px" height="720px" viewBox="0 0 720 720" style="enable-background:new 0 0 720 720;" xml:space="preserve">
<style type="text/css">
	.st0{fill:#C41E3A;}
</style>
<path id="path905" class="st0" d="M188.8896332,36c-3.3425293,0-6.2672424,2.9980011-6.2672424,6.4242897V68.974678
	c0,3.4262848,2.9247131,6.4242859,6.2672424,6.4242859h5.8510742c13.7879791,0,25.0690308,11.5637283,25.0690308,25.6971588
	v23.1291199c0,0.856575-0.837265,1.7148132-1.6728973,1.7148132
	c-61.8369141,9.8505783-109.4647827,64.6728592-109.4647827,130.200592
	c0,65.9560242,47.6294861,117.3503418,109.0485992,126.3443604c0.8356323,0,1.6728973,0.8582458,1.6728973,1.7148132v102.7886658
	c-16.2948761-6.8525696-32.1735535-14.1384583-47.6327667-22.2759094
	c-5.4316254-2.9979858-10.8648682-6.420929-16.2964935-9.4189453c-1.2534485-0.8565369-2.5085297-0.8615723-3.7619781-0.8615723
	c-2.0890961,0-3.7570953,0.4282837-5.0105591,2.1414185c-5.4316101,6.4242859-12.1183167,13.7051392-20.4746552,23.5557251
	c-5.0138016,5.567749-10.0292358,11.5670776-16.2964859,18.4196472c-1.2534485,1.2848816-1.6647491,2.9979858-1.6647491,4.2828674
	c-0.4178238,3.4263,2.9181976,6.4259644,7.9319992,5.9976807c8.3563385-0.8565674,15.465744-0.8599243,21.3151855-1.288208
	c16.2948608,0.8565674,22.1394043,5.5727539,43.0302429,15.8516235
	c9.1919861,4.7111206,22.5604858,10.7054443,38.0197296,17.5580444v71.09375
	c0,20.5577393-24.6479492,16.7014771-34.2577362,17.5581055c-2.0890808,0.4283447-2.921463,2.5697632-2.921463,4.2828369v43.6901245
	c0,3.4263306,2.9247131,6.4243164,6.2672577,6.4243164h322.5513916c40.9460754,0,73.1195984-13.7051392,99.8598328-40.6871948
	c2.0891113-1.7130737,2.506958-5.5693359,0-8.1390381l-29.6633301-32.9830322c-2.506897-2.5697021-6.6900024-2.5697021-9.1968994,0
	c-20.8908081,21.4143066-45.1226196,27.838623-60.9996338,27.838623H300.4516602
	c-14.20578,0-26.7419128-1.2798462-26.7419128-16.2698364v-54.3973389
	c31.7540588,8.9939575,58.0748901,14.5684204,88.1577148,17.5664063
	c117.8243713,12.8485718,226.8778381-24.4156494,226.8778381-129.7740173
	c0-56.1054688-63.0936279-114.7773132-155.8489685-116.490448c-0.8356323,0-1.6729126-0.8582764-1.6729126-1.7148438v-40.2605591
	c0-0.8565674,0.8372803-1.7148132,1.6729126-1.7148132c23.3977661,0,43.4545898,6.4242859,43.4545898,6.4242859
	c8.3563232,3.4263,7.0996094-6.8542786,7.0996094-10.2805481l-0.4161377-31.6864777
	c0-2.1414185-2.5085754-3.4296265-3.7620239-3.4296265H332.2041321c-1.6712952,0-3.7619934,1.2865295-3.7619934,3.8562469
	v31.6948242c0,3.8545837-0.4210815,12.4136047,7.0996094,10.2721863c0,0,15.8786926-6.8525696,43.4545898-6.4242859
	c0.8356323,0,1.6729126,0.8582458,1.6729126,1.7148132v40.2605591c0,0.8565369-0.8372803,1.7148132-1.6729126,1.7148132H275.3826294
	c-0.8356018,0-1.6728821-0.8582458-1.6728821-1.7148132V177.3343658c0-0.8565674,0.8372803-1.7148132,1.6729126-1.7148132
	c55.151825-0.8565674,155.4246521,6.857605,234.8098145,35.1244659c2.9247742,0.8565826,5.8526917-0.0068359,7.5239563-2.5764008
	c6.6851196-11.5637207,15.4543457-26.1187592,28.4066772-48.8179169c2.9246826-5.5677032-1.6712646-9.8522339-8.3563232-8.1390991
	c-34.678833,9.422287-35.93396,5.9943237-66.4345703-1.7148132c-34.678772-8.9940033-115.7352905-26.5554047-196.3739014-25.270546
	c-0.8356323,0-2.0890808-0.8582458-2.0890808-1.7148209v-21.414299c0-14.1334305,11.2810364-25.6971588,25.0690002-25.6971588
	h5.8510742c3.3425293,0,6.2672424-2.9980011,6.2672424-6.4242859V42.4242897c0-3.4262886-2.9247131-6.4242897-6.2672424-6.4242897
	H188.8896332z M218.226593,177.2423553c0.8813477,0.1204834,1.5831451,0.8432007,1.5831451,1.806839V328.522644
	c-0.4178162,1.2848816-1.2518158,2.141449-2.5052643,2.141449c-36.7678986-5.9960327-59.7510986-38.124176-59.7510986-77.526474
	c0-36.4042969,25.490097-67.2375488,59.7510986-75.8032684C217.6178284,177.2272797,217.9328308,177.202179,218.226593,177.2423553z
	 M275.3826599,382.0583801h104.0298767c0.8356018,0,1.6728821,0.8499146,1.6728821,1.7064514v41.9753723
	c0,2.141449-0.4127808,3.8562622-1.2485352,5.9976807l-5.8510742,14.563385
	c-1.253479,2.5697632,0.8372803,5.9893494,3.7619934,5.9893494h57.2376404c2.9247131,0,5.0154419-2.9913025,3.7619934-5.9893494
	l-6.2672729-14.1367188c-0.8356323-2.141449-1.2567139-4.2828979-1.2567139-6.4243469v-41.5403748
	c0-0.8565674,0.8372803-2.1430969,1.6729126-1.7148132c37.6035461,0.4282837,104.8704224,15.4149475,104.8704224,69.3789673
	c0,71.9520569-121.1620483,97.2226257-264.4732056,55.2505798c0,0-0.4243469,0.0016479-0.4243469-0.4266052V383.7648315h0.8405151
	C273.7097473,382.9082947,274.5470276,382.0583801,275.3826599,382.0583801z"/>
</svg>
