<?xml version="1.0" encoding="utf-8"?>
<!-- Generator: Adobe Illustrator 22.0.1, SVG Export Plug-In . SVG Version: 6.00 Build 0)  -->
<svg version="1.1" id="Layer_1" xmlns="http://www.w3.org/2000/svg" xmlns:xlink="http://www.w3.org/1999/xlink" x="0px" y="0px"
	 width="720px" height="720px" viewBox="0 0 720 720" style="enable-background:new 0 0 720 720;" xml:space="preserve">
<style type="text/css">
	.st0{fill:#8FBCE6;}
	.st1{fill:#092C5C;}
</style>
<g>
	<path class="st0" d="M189.217804,89.3605957H90.4770813c-34.6270752,14.1746826-46.6439209,64.6169434-48.7221069,74.6459351
		l-1.2301636,6.0324097l-30.4019775-1.6063232l1.7089233-13.8937378l16.593811,0.5469971
		c2.5916138-12.5122681,15.5903931-64.8024292,53.574646-79.8414917l0.4956665-0.1878052l106.7219238-0.1898193V89.3605957z
		 M490.4531555,453.6040649l6.5622559,0.4956055c12.0415039,0.9515991,116.6690369,11.6485596,118.7515564,91.7497559
		c0.0524902-1.5748291,0.0874023-3.1586914,0.0874023-4.7337036c0-89.6674805-115.4508972-100.7741699-125.3731384-101.5614624
		L490.4531555,453.6040649z M460.8957825,228.1375732l-0.2684326,414.6764526l14.6500244-0.3764648V242.2597656
		c6.2453003-0.1530762,18.1146851-0.4785156,18.1146851-0.4785156c0.7982788-0.0262451,41.2724915-1.8620605,68.2549133,23.7197266
		c16.012085,15.1912842,24.3557129,37.1688843,24.8474121,65.3325195c0.0700684-1.4764404,0.0876465-3.00354,0.0876465-4.5457153
		c0-91.4348145-76.7791443-98.5045776-95.9759827-98.8459473l0.0010986,0.0018311
		C477.6666565,226.6375732,460.8957825,228.1375732,460.8957825,228.1375732z M514.5424805,203.0767822h0.2587891
		c-0.0853271-0.0001831-0.166748-0.0027466-0.2521973-0.0029297L514.5424805,203.0767822z M678.0736084,462.5092163
		c-23.0554199-22.5524902-53.6645508-31.7921753-76.1837158-35.6315918
		c31.6844482-15.6515503,78.5428467-49.4787598,78.5428467-113.317749c0-75.3685913-50.7994385-110.4830933-159.8577881-110.4830933
		h-5.7736816c100.4438477,0.2807007,151.4157715,30.3228149,151.4157715,103.348999
		c0,91.3823242-101.5319824,117.692749-101.5319824,117.692749v0.0857544
		c0.3670654,1.8843994,131.2426758-1.5541992,130.9399414,113.5626221
		c-0.2336426,88.8271484-56.9294434,131.946106-154.5205078,131.946106H317.8638h-10.8347778L306.9605408,684H548.190918
		c104.2619629,0,161.6862793-49.383606,161.6862793-139.0857544
		C709.8771973,510.8339844,699.1824951,483.1260986,678.0736084,462.5092163z M354.5195007,476.0250854
		c0,0-61.2263794-11.1426392-71.0917358-12.9365234V89.2563477h98.9157715
		c32.3304443,13.4202271,46.5477905,71.4425049,50.1569824,89.0197754l1.2304077,6.0152588l30.4359741-1.6062622
		l-17.2605591-146.680542H434.17453l-0.0004272,0.0026855l15.5855103,132.6763916l-16.5096436,0.8914185
		c-2.4608765-11.9766846-16.8011475-79.2667236-55.125-94.494751l-0.484375-0.203125l-107.7319336-0.09375V461.875061
		c0,0,66.7062988,12.1665039,71.0915527,12.9540405v21.3274536l-222.3476563-0.3106079l-0.034729,14.6486816h235.9016724
		V476.0250854z M306.9617004,237.6625366c0,0,64.2398071,10.5869751,74.3571777,12.2382202l-0.1893311-13.2637329
		c0,0-69.6795044-11.9055176-74.0980225-12.5723267L306.9617004,237.6625366z"/>
	<path class="st1" d="M564.6878052,424.2067871v-0.102417c0,0,101.5318604-26.3140869,101.5318604-117.692749
		c0-73.0935059-51.0563965-103.1068726-151.6678467-103.3432617c-0.3605347-0.017334-0.7105713-0.017334-1.09375-0.017334
		H317.8840332h-10.8514404l-0.0010986,0.0061646v0.0175781v10.8687744v10.5269165
		c4.4297485,0.6665649,74.0998535,12.1672363,74.0998535,12.1672363v398.8305054c0,0-0.0228271-0.008667-0.0340576,0
		c-1.8812256,0.3167725-69.7451172,12.1202393-74.0646973,12.8858643v1.1619873v9.3482666v10.8512573h10.8512573h223.2059326
		c97.6031494,0,154.5551758-43.1150513,154.5551758-131.9459229
		C695.6449585,421.1005859,564.6878052,424.2067871,564.6878052,424.2067871z M615.7599487,545.8466797
		c-1.9030762,48.5716553-33.4503174,96.605957-108.6541748,96.605957h-2.289978
		c-22.5200195,0-40.4090576-0.0255737-43.6463013-0.0342407h-0.1708984V228.4335938l2.5291138-0.3076172
		c6.0264282-0.6343994,17.4417725-0.6323242,22.7459717-0.6323242c0,0,1.5814209-0.0997314,4.3234253-0.0518188l0.0038452,0.0018311
		c19.1952515,0.3379517,95.9758911,7.4127197,95.9758911,98.8457031c0,1.5421753-0.0349121,3.0692749-0.102417,4.5457153
		c-3.2044678,85.4631348-95.9932251,94.9784546-95.9932251,94.9784546v0.7005615v13.3294678
		c9.9308472,0.7874756,125.366272,11.5975952,125.366272,101.2694092
		C615.8474731,542.677002,615.8123169,544.2719116,615.7599487,545.8466797z M340.2489624,496.149292H132.9065552h-14.2524414
		v-21.3275146c5.1079102-0.7874756,70.5620728-12.9540405,70.5620728-12.9540405V89.3565063V75.0866699v-0.0342407H82.4958496
		l-0.5127563,0.2052002C44.0093384,90.2966919,31.0171509,142.586853,28.4250488,155.098877
		c0,0.086731-0.0515747,0.2202148-0.0515747,0.3076172l-16.5421753-0.871521L25.9637451,36.2124634l408.192749-0.2052002
		L434.1571655,36h0.0175781l15.6025391,132.8210449l-1.6065063,0.0682373l-3.1272583,0.1708984l-11.9285278,0.6494751
		c-2.4498901-11.979187-16.7042236-79.3338013-55.0280762-94.5584106l-0.4956055-0.1880493l-0.0339966-0.017334H269.9093018
		v0.017334v386.904541c0,0,66.7058105,12.1665649,71.0915527,12.9540405v21.3275146H340.2489624z"/>
</g>
</svg>
