<?xml version="1.0" encoding="UTF-8" standalone="no"?>
<!DOCTYPE svg PUBLIC "-//W3C//DTD SVG 1.1//EN" "http://www.w3.org/Graphics/SVG/1.1/DTD/svg11.dtd">
<svg width="100%" height="100%" viewBox="0 0 720 720" version="1.1" xmlns="http://www.w3.org/2000/svg" xmlns:xlink="http://www.w3.org/1999/xlink" xml:space="preserve" xmlns:serif="http://www.serif.com/" style="fill-rule:evenodd;clip-rule:evenodd;stroke-linejoin:round;stroke-miterlimit:2;">
    <path d="M457.325,251.725L444.132,251.725L444.132,211.512L483.568,211.512L483.568,248.635L456.938,283.415L445.685,283.415L457.325,251.725ZM626.669,302.716C594.999,296.443 568.585,290.045 576.568,266.959C583.292,247.477 630.233,249.367 646.458,273.843L671.063,248.749C654.998,226.512 625.922,215.126 598.529,216.499L598.525,216.5C577.22,217.568 556.93,226.354 544.588,243.735C505.763,298.325 549.958,327.841 600.106,340.387C620.571,345.492 646.855,357.316 633.822,377.423C622.821,394.356 580.36,386.364 548.325,357.317L526.623,386.808C546.078,409.426 622.039,456.758 669.611,399.096C709.033,351.238 658.318,309 626.669,302.716ZM571.147,493.131C562.954,505.125 493.987,608.524 493.987,608.524C468.904,647.733 429.092,618.262 411.809,566.357L368.219,435.43L244.481,435.43L210.924,534.267C230.35,539.989 248.029,549.042 261.771,560.669C287.811,535.172 322.507,542.329 326.876,546.671L263.307,624.758C162.431,551.514 51.177,599.202 36,623.392C52.689,555.326 107.152,527.902 161.438,527.359L226.528,335.769C226.537,335.714 226.553,335.669 226.571,335.625C248.29,271.745 175.635,270.091 155.575,288.284C163.088,215.768 227.99,209.252 258.592,241.39L266.309,218.668C276.547,188.535 276.412,171.645 250.96,156.496C221.463,138.927 189.431,160.262 171.873,185.354C186.42,121.609 223.882,94.615 263.448,93.463L263.496,93.457C272.627,93.191 281.876,94.309 290.975,96.662C322.772,106.715 341.463,132.343 351.581,162.715L460.904,491.118C472.442,525.73 494.165,554.327 561.044,481.13C563.001,479.251 579.328,481.165 571.147,493.131ZM350.712,382.951L306.95,251.553L306.949,251.553L262.324,382.951L350.712,382.951Z" style="fill:none;fill-rule:nonzero;stroke:rgb(255,184,28);stroke-width:20px;"/>
    <path d="M457.325,251.725L444.132,251.725L444.132,211.512L483.568,211.512L483.568,248.635L456.938,283.415L445.685,283.415L457.325,251.725ZM626.669,302.716C594.999,296.443 568.585,290.045 576.568,266.959C583.292,247.477 630.233,249.367 646.458,273.843L671.063,248.749C654.998,226.512 625.922,215.126 598.529,216.499L598.525,216.5C577.22,217.568 556.93,226.354 544.588,243.735C505.763,298.325 549.958,327.841 600.106,340.387C620.571,345.492 646.855,357.316 633.822,377.423C622.821,394.356 580.36,386.364 548.325,357.317L526.623,386.808C546.078,409.426 622.039,456.758 669.611,399.096C709.033,351.238 658.318,309 626.669,302.716ZM571.147,493.131C562.954,505.125 493.987,608.524 493.987,608.524C468.904,647.733 429.092,618.262 411.809,566.357L368.219,435.43L244.481,435.43L210.924,534.267C230.35,539.989 248.029,549.042 261.771,560.669C287.811,535.172 322.507,542.329 326.876,546.671L263.307,624.758C162.431,551.514 51.177,599.202 36,623.392C52.689,555.326 107.152,527.902 161.438,527.359L226.528,335.769C226.537,335.714 226.553,335.669 226.571,335.625C248.29,271.745 175.635,270.091 155.575,288.284C163.088,215.768 227.99,209.252 258.592,241.39L266.309,218.668C276.547,188.535 276.412,171.645 250.96,156.496C221.463,138.927 189.431,160.262 171.873,185.354C186.42,121.609 223.882,94.615 263.448,93.463L263.496,93.457C272.627,93.191 281.876,94.309 290.975,96.662C322.772,106.715 341.463,132.343 351.581,162.715L460.904,491.118C472.442,525.73 494.165,554.327 561.044,481.13C563.001,479.251 579.328,481.165 571.147,493.131ZM350.712,382.951L306.95,251.553L306.949,251.553L262.324,382.951L350.712,382.951Z" style="fill:rgb(0,56,49);fill-rule:nonzero;"/>
</svg>
