<?xml version="1.0" encoding="utf-8"?>
<!-- Generator: Adobe Illustrator 22.0.1, SVG Export Plug-In . SVG Version: 6.00 Build 0)  -->
<svg version="1.1" id="Layer_1" xmlns="http://www.w3.org/2000/svg" xmlns:xlink="http://www.w3.org/1999/xlink" x="0px" y="0px"
	 width="720px" height="720px" viewBox="0 0 720 720" style="enable-background:new 0 0 720 720;" xml:space="preserve">
<style type="text/css">
	.st0{fill:#3EC1CD;}
	.st1{fill:#A71930;}
</style>
<g>
	<path class="st0" d="M424.1834717,637.723999H684L559.8641357,82.2760239H386.9262085L36,637.6256104h276.894043
		l-39.6516418-83.4679565l85.5114746-143.519043c2.2956543,8.8881226,6.6903381,26.3032227,7.3791809,28.9925232
		c-4.36203,7.6087952-70.6969604,122.2339172-70.6969604,122.2339172s97.7870178-80.8114319,102.2804565-84.5832214
		c1.6069031,2.0007019,72.3825378,87.8301086,72.3825378,87.8301086s-33.2888794-111.0501709-35.5845032-118.5933838
		c1.7053833-2.7221985,12.7906799-20.334137,19.8421326-31.6491699l30.2058105,139.5835571v0.0983887L424.1834717,637.723999z
		 M361.8039246,405.5223999l54.5411377-91.4769897h16.1360168l19.842041,91.4769897H361.8039246z"/>
	<path class="st1" d="M443.2056274,514.8014526c0,0-38.6018982-46.8339539-44.0134277-53.3603821
		c-7.674469,6.4281921-62.4778748,51.7206726-62.4778748,51.7206726s38.4378662-66.3807983,41.5863953-71.7596436
		c-1.1478271-4.4931641-6.329834-24.5320129-6.329834-24.5320129h67.9223022c0,0-14.8243103,23.5481262-17.6775208,28.0086365
		h-0.0328064C424.0851135,450.9788208,443.2056274,514.8014526,443.2056274,514.8014526z M655.4995728,615.78302
		L541.4977417,104.1095734H412.7702026l31.7145081,48.7163849l-79.8931274,35.9060059l34.4038086,59.657547L293.980011,298.6735535
		l35.1712952,65.1871033l-108.7970886,68.4896545l33.5545807,82.1560974L90.8692017,615.5206299h183.4653625l-29.5432587-60.7724609
		l158.4348602-260.5546875h49.0969543l59.2967834,265.6380615L470.295929,615.78302H655.4995728z"/>
	<path d="M383.0233765,243.2862854L277.8800659,293.983551l37.3589172,66.9580688l-108.6954346,68.1615906l34.128418,81.2050781
		L56.0094872,626.5075684L393.5513306,94.1020126l36.4043884,53.4109116l-80.8443604,36.0075378L383.0233765,243.2862854z
		 M551.0744629,92.7995682H405.3907776l7.379425,11.3591766h128.7275391l114.0018311,511.6569214H470.295929l41.3566589-55.9185181
		l-59.3294678-265.6512146h-49.0969543L244.7913055,554.7808228l29.5957489,60.8053589H90.8692017l-17.9759979,11.2164307
		h221.2967072l-34.9679565-72.2512817l150.170105-250.5089722h32.7313232l56.672699,253.0999146l-50.9333496,69.6603394h222.0019531
		v-0.0982056L551.0744629,92.7995682z"/>
</g>
</svg>
