<?xml version="1.0" encoding="utf-8"?>
<!-- Generator: Adobe Illustrator 22.0.1, SVG Export Plug-In . SVG Version: 6.00 Build 0)  -->
<svg version="1.1" id="Layer_1" xmlns="http://www.w3.org/2000/svg" xmlns:xlink="http://www.w3.org/1999/xlink" x="0px" y="0px"
	 width="720px" height="720px" viewBox="0 0 720 720" style="enable-background:new 0 0 720 720;" xml:space="preserve">
<style type="text/css">
	.st0{fill:#DF4601;}
	.st1{fill:#FFFFFF;}
</style>
<g>
	<path class="st0" d="M676.9827271,123.6608887c-7.2481079-17.602478-24.3328247-29.5100708-46.5947876-33.6517944h-0.5177002
		c-3.6240845-0.5177612-7.7658081-0.5177612-12.425293-0.5177612c-31.0632324,0-74.0339355,9.3189697-119.5933228,19.1556396
		c-9.3189697,2.0709229-19.1555786,4.1417847-28.4745483,6.2126465
		c-18.6379395,4.1417847-55.9137573,9.3189697-65.2327271,10.3544312
		C376.1875,93.6331177,341.5002441,74.477478,300.6004028,69.300293
		c-7.2480469-0.5177612-12.9429932-1.0354614-17.0847778-1.0354614s-7.2480469-0.5177002-9.8366699-1.0354614
		c-0.5177612,0-0.5177612,0-1.0354614-0.5177002c-5.6948853-4.1417236-18.6378632-13.4606934-40.899826-13.4606934
		c-4.1417847,0-8.2835693,0.5177002-12.425293,1.0354004c-1.0354614,0.5177612-30.027771,4.1417847-52.8074341,27.9569092
		c-4.1417847,4.1417236-12.425293,14.4961548-16.5670166,25.8859863c-1.5531616,1.0354614-3.1063232,2.0708618-5.1772461,3.6240234
		c-3.6240234,3.1063232-8.8012085,6.2126465-16.5670166,13.9784546
		c-72.4807816,61.6086426-54.8783035,141.3375244-36.2404251,184.8259888
		c-69.3744507,55.9136963-54.8782959,119.0755615-54.3605347,121.6641235l1.0354004,3.6240234l20.7088013-3.6240234
		c0.5177002,64.1973267,22.2619629,120.111084,63.6795654,161.5286255
		c46.077095,46.5947876,114.4160843,72.9985352,187.4145508,72.9985352h0.000061
		c50.7365723,0,99.9199219-13.4607544,137.713501-38.8290405c42.4530029-26.9213867,69.8921509-65.7503662,80.7642822-112.3451538
		c18.1201782-78.6934814,32.0985718-112.3452759,100.9553833-130.4654541
		c16.0493164-4.6594849,22.7796631-15.5316162,22.2619629-24.8505859
		c-3.1063843-27.4390869-52.2897339-55.3959961-128.9122925-55.3959961c-9.3189697,0-19.1555786,0-28.4745483,1.0354614
		c-2.588623-9.3189697-3.6240845-15.013916-4.1417847-18.1201782
		c38.3112793-8.8012695,105.6148682-28.4746094,152.727356-66.2681885
		C682.6776123,189.9290161,692.5142822,160.9367065,676.9827271,123.6608887z"/>
	<path d="M294.3864136,151.0980835c-1.5529785-3.6240845-1.5549927-7.7637939,0.5158691-10.8701782
		c1.0352783-1.5531616,3.6300659-2.588501,6.218811-2.588501c6.2125854,0,11.899231,11.9117432,15.0056152,22.2659912
		c-4.6596069,2.0708618-8.2774048,2.0688477-11.9014282,0.515686
		C300.0835571,158.868103,296.4574585,155.2398071,294.3864136,151.0980835z M348.1953735,176.9810791
		c-0.5178223,1.0355225-0.5198364,2.0708618,0.515686,2.588501c0.5176392,0.5178833,1.5531616,1.0335083,2.588501,0.5158691
		c1.0355225-0.5178833,1.5552368-1.0274658,2.072876-2.0628052c0.5178833-0.5178833,0.5158691-2.0770874,0.5158691-3.630127
		c-0.5178833,0-0.5158691-0.5158081-0.5158691-0.5158081h-0.515625
		C350.2682495,174.9122314,348.7130737,175.9455566,348.1953735,176.9810791z M626.7484741,184.2341919
		c-5.6948853,5.6949463-27.439209,21.7441406-59.0201416,36.2403564
		c-44.5239258,20.1911011-96.2957764,32.0985718-108.7211304,35.7226563
		c-20.1911011,5.6948853-19.6734619,10.8721313-15.5315552,19.6734009
		c8.8013306,19.6732788,11.3898315,32.616272,15.013855,78.6934204
		c28.9922485-8.8012695,81.7996216-7.7659302,128.3944092,3.6240234
		c-28.9921875,11.9075317-59.0199585,31.5809326-84.9059448,65.7504272
		c-76.6225586,101.9907227-198.8043823,92.6717529-253.682785,40.382019
		c-11.9075317,9.836853,3.6240234,44.5239258,3.6240234,44.5239258c-2.588501,2.5887451-8.2834473,0-8.2834473,0
		c-41.4175415-68.3388672,2.588562-85.9414673,36.7579803-88.0123291c14.4962158-2.588562,12.9429932,5.6948853-0.5176392,8.2836304
		c-56.9490814,12.9428101,21.7442627,78.1755371,119.0756226,52.807373
		c85.9414673-22.7798462,80.7642212-77.6580811,157.3867798-120.111145
		c-61.6086426-11.3898315-104.5794067,4.1416626-123.2173462,12.425293
		c-12.4251099,6.2125854-32.616272,6.7302856-41.4175415,3.6240845
		c-10.8721924,34.1694336-48.1480103,44.0061035-119.0756226,26.9213257
		c-50.736557-11.9074707-90.6008759,37.2758789-68.338913,100.9553833
		c22.7796021,65.2327271,135.6425018,130.4654541,258.8598633,53.8429565
		c-9.8366699,12.9429932-22.7796631,24.3328247-37.2758789,33.6517944
		c-32.0985718,20.1911011-73.5161133,31.5809326-116.4868774,31.5809326
		c-61.0909882,0-118.557785-22.2620239-156.3513031-60.5731812
		c-34.6873245-35.2049561-51.7720413-81.7998047-51.2544022-138.2312012c0-9.836853,3.1063843-32.0986328,6.7304688-38.8290405
		l-24.850708,1.5531616c0,0,7.7659912-36.2404785,61.6087112-67.3035278
		c-59.0199661-108.2034912-5.6949463-150.6566162,17.6026001-169.8121948
		c18.6378784-15.5314941,23.2973022-14.4962158,26.9213257-27.9568481
		c1.5532227-7.7658081,9.8366089-16.0491943,19.6734619-21.2264404c12.9429932-7.2481079,28.4745483-8.2836304,37.2758179-1.5532227
		c8.2834473,8.2834473,24.8505096,10.3544922,35.2047577,10.3544922
		c79.2113037,2.588501,103.0264893,60.5731201,103.0264893,60.5731201
		c18.1200562-5.6948853,47.1124268-6.2125244,97.848999-16.5670166
		c96.8136597-21.2264404,104.0615234-21.7443237,119.5932617-23.2973022
		c18.1200562-1.5532227,33.1341553-0.5178833,39.3467407,14.4959717
		C647.9749146,161.4543457,631.4078979,180.0922852,626.7484741,184.2341919z M242.6167755,119.5195313
		c0,0-9.171875-7.0424805-18.9495239-6.6633911c-7.6047974,0.2944946-15.5761719,5.0821533-19.8794556,21.1638794
		L242.6167755,119.5195313z M341.4609375,179.0559692c-0.5177002,5.1772461-1.5471802,9.3169556-4.1356812,10.8701172
		l-1.0405884,4.6593628h0.515686c3.1061401-1.5529785,5.1812744-4.661377,6.734436-9.838623l0.515686-4.6616211l0.515625-4.1356201
		v-1.0413818l0.5259399-4.1358643c0-1.0353394,0.515625-2.0688477,0.515625-3.104187v-0.5259399l0.515686,0.5259399
		c1.0355225,1.5532227,4.1396484,4.1417236,5.6928711,5.1772461l0.515625,0.515625h-0.515625
		c-5.1772461,2.0708618-6.2125854,5.6969604-5.1772461,7.2501221c0.5178833,1.0353394,1.5551758,2.0708618,2.072876,2.588562
		c1.0355225,0.5178833,2.5927734,0.5097656,4.1459351-0.5257568c3.1062012-1.5532227,5.1710205-5.1732178,4.1356812-8.7970581
		v-0.515625l-0.515625-1.557251c-0.5178833-1.5532227-1.0355835-2.5826416-2.5887451-4.1356812l-3.6290894-3.1218872
		l-1.0407715-1.0303345c-1.0353394-0.5176392-1.546936-1.5531616-1.546936-2.588501v-0.5158081h-0.526001l0.0466919,0.0094604
		l-4.1728516,3.1011353c-0.5176392,1.5532227-1.0415649,4.661377-1.0415649,7.2501221L341.4609375,179.0559692z
		 M335.8071899,164.0410767c0,0.5176392,1.0355225,0.5176392,2.5887451,0c0.5176392,0,1.031311-0.5136108,1.031311-1.0314941
		c1.0355225-1.0353394,1.0435791-3.1102295,0.5259399-4.145752c-0.5178833-0.5176392-1.0375977-0.515625-2.0731201-0.515625
		c0-1.0355225-0.0020142-1.5512085,0.5158691-3.1043701h-0.5158691v0.0001831c-0.5176392,0-1.0393677,1.0375366-1.5570068,2.072876
		C335.2875366,159.3877563,334.7718506,162.4880981,335.8071899,164.0410767z M286.1054077,152.1396484
		c-4.6596069,11.3898315-4.1479492,24.8442383-1.0415649,35.1987305
		c3.6240234,10.8721313,8.8095703,18.6419678,16.0576782,22.2659912c4.1417236,2.5887451,9.3189697,2.5827026,12.9429932,1.5471802
		c5.177063-1.5532227,8.7970581-5.1752319,11.3855591-10.8699341c5.6949463-11.9077148,4.6575928-29.5100708,0.515686-41.4176025
		c2.0710449-1.5531616,4.6575317-5.1752319,5.6928711-8.2816162l-3.6199951-1.03125
		c-1.0353394,2.0708618-2.0668335,4.1397095-3.6200562,5.6928711
		c-6.2125244-17.0848999-15.0221558-25.8882446-23.8232422-25.3703613l-0.0001831-0.0002441
		c-5.177063,0.5178833-9.8283691,2.5927734-12.4168701,6.7346802
		C285.0718994,140.7498169,284.0345459,146.9624023,286.1054077,152.1396484z M485.9439087,217.3683472
		c48.0352783-33.572998,96.0609131-62.5028076,96.2854614-62.6379395c0.0002441,0,0.0095215-0.0020142,0.0095215-0.0020142
		l0.0009766-0.0042725c0,0-0.0098877,0.0058594-0.010498,0.0062866
		c-0.2039795,0.0447998-98.939209,21.7460938-161.0015259,29.5037842
		C354.4420776,192,294.9042969,238.0771484,294.9042969,238.0771484
		c-25.3683472,16.5670166,0.5236816,16.5628052,39.8706055,21.7400513
		C395.3480835,261.3703613,433.6541748,248.4313965,485.9439087,217.3683472z M622.0608521,153.1725464
		c-0.0961304-0.159729-0.2896729-0.2449951-0.5596924-0.2698364c0.0109253,0.0007935,0.0311279-0.0056763,0.0418091-0.0046387
		l-0.0484619,0.0014038c0.0032349,0.0002441,0.003418,0.0030518,0.0066528,0.0032349
		c-8.7390747-0.5675659-99.8574219,62.9138794-99.8574219,62.9138794
		C582.1962891,195.6254272,630.8619385,165.0800171,622.0608521,153.1725464z M311.439209,203.3827515
		c2.588562-0.5177002,4.1397095-1.546936,5.6929321-4.1356812c2.588501-4.1417236,3.104126-10.8699341,3.104126-16.0471802
		c0-6.2127686-1.5509644-13.982605-3.104126-19.6774902c-8.8013306,4.6593628-16.0474243,4.6593628-23.8131714,0v0.0001831
		c-1.5531616,6.2125854-1.5531616,13.4647217,0,19.6774902C295.9077148,192.519043,303.1558228,204.9359131,311.439209,203.3827515z
		"/>
	<path class="st1" d="M219.8361359,282.6008911h0.0020142l-75.0693359,39.3446655l-7.2501221-15.0158691
		C137.518692,306.9296875,177.9007111,302.274292,219.8361359,282.6008911z M323.7114868,295.0183716v-0.0004272
		c-2.2185059-0.0040283-4.4067383,0.3295898-6.5424194,1.0413818
		c-13.8405762,4.3253174-20.4199219,23.8375854-17.0915527,46.1385498c1.138916-3.6844482,3.2368164-6.6591797,6.2266846-8.3410034
		c2.0706787-1.164978,4.392395-1.6564331,6.8354492-1.5269165l-0.0001831-0.0004272
		c7.3289185,0.3884277,15.6771851,6.3099365,21.1133423,16.0172729c7.2479248,12.4251709,5.6948853,26.9296265-2.5887451,31.5892334
		c-5.1726074,2.9094238-11.9567261,1.3752441-18.0879517-3.2122192
		c10.3458252,14.7839966,24.4389038,22.7879028,36.2030029,18.7439575
		c16.5670166-5.177063,22.7858887-32.0986328,13.9848022-59.5378418
		C356.0627441,311.9207153,339.2410278,295.0462036,323.7114868,295.0183716z M433.6596069,309.5181885
		c-6.342041-24.4622803-22.2045898-42.1791992-37.5145264-43.1062622l-0.0046997-0.0002441
		c-2.1847534-0.1345215-4.3539429,0.0777588-6.4870605,0.6576538c-15.065979,4.1087646-22.8692627,25.1328735-19.8911743,49.2130127
		c1.1911011-3.4814453,3.3419189-6.2511597,6.430542-7.7954712c0.9680786-0.4556274,1.9983521-0.7402344,3.0649414-0.880188
		l-0.0007935,0.0006104c7.4602051-0.9769897,16.7973022,5.4763794,21.7804565,15.8955078
		c5.6947021,11.9076538,4.1477661,24.8484497-4.1358643,28.9901733c-4.2042847,1.9619751-9.4686279,1.0195923-14.3196411-2.2102051
		c9.4128418,13.7650146,22.0165405,21.380127,33.4732056,18.2555542
		C433.1397705,363.8787231,440.9077148,337.4730225,433.6596069,309.5181885z"/>
</g>
</svg>
