<?xml version="1.0" encoding="UTF-8" standalone="no"?>
<!DOCTYPE svg PUBLIC "-//W3C//DTD SVG 1.1//EN" "http://www.w3.org/Graphics/SVG/1.1/DTD/svg11.dtd">
<svg width="100%" height="100%" viewBox="0 0 359 351" version="1.1" xmlns="http://www.w3.org/2000/svg" xmlns:xlink="http://www.w3.org/1999/xlink" xml:space="preserve" xmlns:serif="http://www.serif.com/" style="fill-rule:evenodd;clip-rule:evenodd;stroke-linejoin:round;stroke-miterlimit:2;">
    <path d="M323.2,207.4C310.5,198.4 295.2,196.4 280.4,194.4C252.1,190.7 229.8,187.8 226.6,141.5C221.9,74.2 220.3,58.7 203.3,46.4C202.7,41.7 199.3,14.8 199.3,14.8C198.2,5.7 189.8,-0.8 180.7,0.4L129,6.9C124.6,7.4 120.7,9.7 117.9,13.2C116.1,15.6 114.9,18.3 114.6,21.2C107.4,20.8 100.4,25.1 97.9,32.2C97.9,32.2 89,57.3 87.3,62C77,66.6 68.7,81.2 59.5,110.6L54.3,127.6C44.2,161 36.1,187.4 21,203.7C8,217.6 1,232.8 1,246.7C1,250.9 1.6,255 2.9,258.8C6.8,270.4 18.4,285.5 52,291.6C70.4,294.8 91.8,308 112.4,320.8C126.6,329.6 141.8,339 155.5,344.7C164.3,348.4 179.4,354.9 221.5,344.3C223.7,343.8 228.3,341.9 229.8,334.6C230.1,333.1 230.3,331.3 230.3,329.4C230.3,315.2 220.4,290.5 193.6,267.6C212.7,269.5 234.2,274.1 250,279.6C276.2,288.8 325.4,295.1 353.7,274.6C356,273.1 358.6,269.7 358.8,263.5C358.8,250.6 348,224.9 323.2,207.4" style="fill:white;fill-rule:nonzero;"/>
    <path d="M319.6,212.5C285.7,188.4 225.8,219.4 220.3,141.9C215.4,71.5 213.6,60.7 197.4,49.9L193,15.5C192.3,9.9 187.1,5.8 181.5,6.6L129.8,13.1C124.8,13.7 121.1,17.8 120.8,22.6C122.6,23.3 125.9,24.4 129.9,25.8L129.5,22.5C129.4,21.6 130,20.8 130.9,20.7C131.8,20.6 132.6,21.2 132.7,22.1L133.3,27C135.5,27.8 137.9,28.6 140.3,29.5L139.3,21.8C139.2,20.6 140,19.6 141.1,19.5C142.2,19.4 143.3,20.2 143.4,21.3L144.6,31.1C146.7,31.8 148.7,32.6 150.7,33.3L149.2,21.1C149,19.7 150,18.4 151.4,18.3C152.8,18.1 154.1,19.1 154.3,20.5L156.1,35.2C158.1,35.9 160,36.6 161.6,37.2L159.4,19.9C159.2,18.5 160.2,17.2 161.6,17.1C163,16.9 164.3,17.9 164.4,19.3L166.9,39.2C167.6,39.5 168.1,39.6 168.1,39.6C170,40.3 171.7,41.3 173.1,42.5L170.1,18.2C170,17.1 170.8,16 171.9,15.9C173,15.8 174.1,16.6 174.2,17.7L178.2,50C178.8,51.7 179.1,53.5 179.1,55.3C179.1,57.1 178.8,59 178.1,60.9C178.1,60.9 169.1,86.3 167.4,90.9C169.4,94.9 170.3,99 170.3,103.3C170.3,116 162.8,129.7 155.9,142.3C153,147.6 150.2,152.7 148.1,157.4C137.5,183.3 132.4,199.3 132.4,210.2C132.4,216 133.8,220.3 136.7,224C136.8,217.1 138.1,211.8 138.8,209.2C145.6,211.4 165.8,217.7 175.9,219.9C175.9,219.9 175.1,240.7 177.6,255.6C178.8,256.5 179.8,257.4 180.5,258C181.8,258.9 183.1,259.8 184.4,260.8C207.2,262.1 234.3,267.8 251.8,273.9C279,283.4 324.9,287.9 349.9,269.6C357.2,265.1 348.3,232.9 319.6,212.5M187.3,53.8C186.4,53.9 185.6,53.3 185.5,52.4L181,16.2C180.9,15.3 181.5,14.5 182.4,14.4C183.3,14.3 184.1,14.9 184.2,15.8L188.7,52C188.8,52.8 188.2,53.7 187.3,53.8M343.4,263C334.7,268.8 323,271.7 310.6,272.6C307.9,272.7 306.2,271.7 305.6,269.6L296.6,245.2C295.7,243.2 295.6,241.3 298.4,239.9C298.4,239.9 316.8,231.9 318.9,230.8C321,229.7 323.5,227.7 326,230.2C338.3,243.2 343.4,257.4 343.4,262.9C343.5,262.8 343.4,262.9 343.4,263" style="fill:rgb(198,32,51);fill-rule:nonzero;"/>
    <path d="M177.8,263.4C175.3,261.4 160.7,248.8 140,234.8C119.3,220.8 124.1,199.9 142.7,154.5C151.8,134 172.6,108.4 160.8,91.1L172.4,58.4C174.3,53 171.5,47.1 166.1,45.2L117,27.8C111.6,25.9 105.7,28.7 103.8,34.1L92.3,66.9C83.3,68.9 75.1,82.1 65.6,112.4C52.7,153.8 44.4,187.7 25.7,207.9C-1,236.6 -4,275.1 53.1,285.4C85.9,291.1 124.6,325 157.4,338.7C165.3,342 178.1,348.7 220,338.2C229.1,336.4 225.6,296.6 177.8,263.4M49.8,275.4C32,271.3 20.9,264 17.5,253.9C14.1,243.6 18.6,230.1 29.6,217C42.1,221.8 52.6,227.6 60.4,232.9C54.9,244.6 51.1,259.3 49.8,275.4M163.5,52.7C164.3,53 164.8,53.9 164.5,54.8L152.2,89.1C151.9,89.9 151,90.4 150.1,90.1C149.3,89.8 148.8,88.9 149.1,88L161.4,53.7C161.7,52.8 162.6,52.4 163.5,52.7M153.7,49.2C154.8,49.6 155.4,50.8 155,51.9L143,85.3C142.6,86.4 141.4,87 140.3,86.6C139.2,86.2 138.7,85 139,83.9L151,50.4C151.4,49.4 152.6,48.8 153.7,49.2M143.9,45.7C145.2,46.2 145.9,47.6 145.4,49L133.7,81.6C133.2,82.9 131.8,83.6 130.4,83.2C129.1,82.7 128.4,81.3 128.9,79.9L140.5,47.3C141.1,45.9 142.6,45.2 143.9,45.7M101.3,72.6C100.5,72.3 100,71.4 100.3,70.5L112.5,36.2C112.8,35.4 113.7,34.9 114.6,35.2C115.4,35.5 115.9,36.4 115.6,37.3L103.3,71.6C103,72.5 102.1,72.9 101.3,72.6M111.1,76.1C110,75.7 109.4,74.5 109.8,73.4L121.7,40C122.1,38.9 123.3,38.3 124.4,38.7C125.5,39.1 126,40.3 125.7,41.4L113.7,74.9C113.3,75.9 112.1,76.5 111.1,76.1M120.8,79.6C119.5,79.1 118.8,77.7 119.3,76.3L130.9,43.7C131.4,42.4 132.8,41.7 134.2,42.2C135.5,42.7 136.2,44.1 135.7,45.5L124.1,78.1C123.6,79.4 122.2,80.1 120.8,79.6M214.9,330C199.4,333.7 188.6,334.8 180.7,334.7C177.9,335.1 175.6,333.7 175.1,330.4L172.2,304.9C172.3,302.3 173.1,300.1 176.3,300C183.9,300.1 193,299.3 195.8,298.4C200,297 201.1,297.5 201.6,298.2C211.9,312 215,323.8 215,329.3C215,329.6 214.9,329.8 214.9,330" style="fill:rgb(198,32,51);fill-rule:nonzero;"/>
</svg>
