<?xml version="1.0" encoding="utf-8"?>
<!-- Generator: Adobe Illustrator 22.0.1, SVG Export Plug-In . SVG Version: 6.00 Build 0)  -->
<svg version="1.1" id="Layer_1" xmlns="http://www.w3.org/2000/svg" xmlns:xlink="http://www.w3.org/1999/xlink" x="0px" y="0px"
	 width="720px" height="720px" viewBox="0 0 720 720" style="enable-background:new 0 0 720 720;" xml:space="preserve">
<style type="text/css">
	.st0{fill:#FFFFFF;}
	.st1{fill:#0E3386;}
	.st2{fill:#CC3433;}
</style>
<g>
	<path class="st0" d="M360,35.9923096c-178.9867401,0-324,145.0132599-324,324
		c0,178.9817505,145.0132599,324.0153809,324,324.0153809c178.9870605,0,324-145.0336304,324-324.0153809
		C684,181.0055695,538.9870605,35.9907417,360,35.9923096z"/>
	<path class="st1" d="M360.0021973,56.0545998c-167.1428528,0-302.9247742,135.7765808-302.9247742,302.9194336
		s135.2778015,302.8887024,302.9247742,302.8887024c167.1428833,0,302.9244385-135.7458496,302.9244385-302.8887024
		S527.1450806,56.0545998,360.0021973,56.0545998z M360,582.6936646c-123.932373,0-223.7142792-100.2857361-223.7142792-223.7142944
		S236.5714264,135.2650909,360,135.2650909s223.7142944,100.2857056,223.7142944,223.7142792
		S483.4285583,582.6936646,360,582.6936646z"/>
	<path class="st2" d="M558.0025024,365.6468201v23.1428528c0,16.9877014-9.7762451,22.1283569-28.788269,22.1283569
		c0,0-21.0846252-0.0040894-39.6260986,0.5022278c-21.5865784,0-17.4575806-27.2705688-17.4575806-34.4433899h34.9453125
		c0,0-1.0079346,5.6516724,1.0546875,8.7290955c2.5714111,4.6368713,14.8858643,4.6365356,14.8858643-1.5569153v-5.6454163
		c0,0,1.5531006-8.7290955-5.6551514-8.7290955h-25.7142944c-20.571106,0-19.5164185-14.9266663-19.5164185-21.6261292
		c0-6.6636658-0.5417786,1.0546875,0-16.9453125c0.5085144-18,9.2307129-24.1975403,24.6592712-24.1975403l0.0003052,0.0006409
		h32.9260559c24.157959,0,28.788269,7.718689,28.788269,31.9121399h-37.5167847v-4.640625
		c0-7.7139587-14.4137268-6.1579895-14.4137268-1.5569153c0,3.1128845-1.5569153,12.8571472,5.1428528,12.8571472h25.211731
		C549.2771606,345.5779419,558.0025024,353.2981873,558.0025024,365.6468201z M359.4927368,476.2157288
		c-64.7948303,0-117.2727661-52.4468384-117.2727661-117.2416992
		c0.5088196-64.8256226,52.9870605-117.2724609,117.7819214-117.2724609c42.6994629,0,79.7142639,22.6368713,100.2857056,56.5714417
		l57.5843506-56.0676422c-35.9999695-48.3483124-93.0805359-79.7142792-157.8700562-79.7142792
		c-108.5041199,0-196.4418335,87.9430389-196.4418335,196.4829407c0,108.5091553,87.9377136,196.431488,196.4418335,196.431488
		c64.2857056,0,120.8571472-30.8483887,156.8571167-78.1457825l-58.6390381-55.0440063
		C437.1425476,454.6322937,401.1447449,476.2157288,359.4927368,476.2157288z M448.9789124,359.4884949
		c9.7442322,5.6488647,9.7533264,15.9305115,9.7533264,24.6593018c0,23.143158-10.2916565,26.7692871-29.8125,26.7692871
		h-55.5584717V307.0055542v-0.0006104h55.5584717c21.0774231,0,29.8125,5.1469421,29.8125,29.3406982
		C458.7322388,349.2027893,456.1517029,355.8661499,448.9789124,359.4884949z M424.7910767,377.4856873
		c-1.5471802-3.8571472-2.5067444-4.252655-7.8850403-4.2087097v0.0003052
		c-1.7929688,0.0144348-4.0705872,0.0803528-7.03125,0.0803528v14.4137573c7.7142944,0,14.9162903,0.5022278,14.9162903-4.640625
		C424.7910767,381.5741577,425.2998962,378.4976807,424.7910767,377.4856873z M425.3017883,335.2912903
		c0-4.0922546-4.0913086-4.0881958-14.8861694-4.0881958v0.0003357v14.3738708
		c6.1576843,0,14.8861694,0.5424194,14.8861694-4.6004333V335.2912903z M274.632782,307.0159302v69.9634399
		c0,23.1428528,5.6551208,33.9405212,22.640625,33.9405212h36.5022278c20.5714417,0,26.7290955-6.1975403,26.7290955-31.9118042v-72
		h-35.4877014l-0.0006409-0.002533v70.9971008c0,9.7797241-14.8858337,9.7797241-14.8858337,0v-70.9867249H274.632782z"/>
</g>
</svg>
