<?xml version="1.0" encoding="UTF-8" standalone="no"?>
<!DOCTYPE svg PUBLIC "-//W3C//DTD SVG 1.1//EN" "http://www.w3.org/Graphics/SVG/1.1/DTD/svg11.dtd">
<svg width="100%" height="100%" viewBox="0 0 176 120" version="1.1" xmlns="http://www.w3.org/2000/svg" xmlns:xlink="http://www.w3.org/1999/xlink" xml:space="preserve" xmlns:serif="http://www.serif.com/" style="fill-rule:evenodd;clip-rule:evenodd;stroke-linejoin:round;stroke-miterlimit:2;">
    <g transform="matrix(0.133333,0,0,-0.133333,0,120)">
        <g id="g10">
            <g id="g12">
                <path id="path14" d="M740.23,0C1106.99,0 1316.99,239.262 1316.99,456.762C1316.99,716.988 1026.76,900 716.25,900C467.27,900 294.77,753.012 200.23,641.25C71.25,487.5 0,468.012 0,468.012C99.769,380.23 146.988,336.02 193.52,285.738C323.98,144.77 431.988,0 740.23,0" style="fill:rgb(198,1,31);fill-rule:nonzero;"/>
                <path id="path16" d="M733.52,61.481C467.27,61.481 362.27,175.512 239.262,306.762C188.98,360.738 156.762,408.75 75,469.488L91.481,430.512C170.23,366.02 202.5,319.488 253.52,265.512C377.27,135 480,32.27 746.25,32.27C979.488,32.27 1160.23,147.73 1245,289.488L1232.27,319.488C1147.5,176.988 966.762,61.481 733.52,61.481" style="fill-rule:nonzero;"/>
                <path id="path18" d="M740.23,728.238C480,728.238 378.012,555.738 378.012,472.5C378.012,424.488 392.27,382.5 415.512,346.48C399.77,375.738 396.02,420 396.02,448.52C396.02,531.762 494.262,698.238 749.262,698.238C902.27,698.238 1017.73,627.73 1056.76,566.25L1249.49,566.25C1245.74,573.012 1237.5,596.25 1237.5,596.25L1053.01,596.25C1014.77,657.73 893.238,728.238 740.23,728.238" style="fill-rule:nonzero;"/>
                <path id="path20" d="M239.262,306.762C362.27,175.512 467.27,61.481 733.52,61.481C966.762,61.481 1147.5,176.988 1232.27,318.75L1050,318.75C964.488,254.262 860.23,201.762 727.5,201.762C605.23,201.762 476.988,252.73 415.512,346.48C391.48,382.5 378.012,424.488 378.012,472.5C378.012,555.738 480,728.238 741.02,728.238C893.98,728.238 1015.51,657.73 1053.75,596.25L1237.5,596.25C1151.99,765 931.48,866.25 711.02,866.25C494.262,866.25 329.262,741.02 233.98,628.52C108.012,480 75,469.488 75,469.488C156.762,408.75 188.98,360.738 239.262,306.762" style="fill:white;fill-rule:nonzero;"/>
                <path id="path22" d="M848.98,489.77L807.73,489.77L807.73,509.262L746.988,509.262L746.988,469.488L767.27,469.488L767.27,488.98L806.988,488.98L828.012,469.488L869.262,469.488L869.262,523.52L848.98,543.75L848.98,489.77Z" style="fill-rule:nonzero;"/>
                <path id="path24" d="M678.75,361.48L698.238,341.25L869.262,341.25L869.262,394.488L848.98,414.77L848.98,361.48L678.75,361.48Z" style="fill-rule:nonzero;"/>
                <path id="path26" d="M746.988,435L746.988,395.23L767.27,395.23L767.27,414.77L817.5,414.77L817.5,449.262L797.27,469.488L797.27,435L746.988,435Z" style="fill-rule:nonzero;"/>
                <path id="path28" d="M678.75,509.262L698.238,488.98L705.738,488.98L705.738,509.262L678.75,509.262Z" style="fill-rule:nonzero;"/>
                <path id="path30" d="M444.77,509.262L465,488.98L471.762,488.98L471.762,509.262L444.77,509.262Z" style="fill-rule:nonzero;"/>
                <path id="path32" d="M444.77,361.48L465,341.25L560.23,341.25L560.23,375L540,395.23L540,361.48L444.77,361.48Z" style="fill-rule:nonzero;"/>
                <path id="path34" d="M591.02,443.98L612.73,395.23L623.98,395.23L611.25,423.75L641.988,449.262L641.988,488.98L621.762,509.262L621.762,469.488L591.02,443.98Z" style="fill-rule:nonzero;"/>
                <path id="path36" d="M513.012,435L513.012,395.23L533.238,395.23L533.238,415.512L560.23,415.512L551.25,435L513.012,435Z" style="fill-rule:nonzero;"/>
                <path id="path38" d="M635.23,361.48L583.52,361.48L603.012,341.25L655.512,341.25L655.512,375L635.23,395.23L635.23,361.48Z" style="fill-rule:nonzero;"/>
                <path id="path40" d="M580.512,488.98L580.512,500.23L570,509.262L513.012,509.262L513.012,468.75L533.238,468.75L533.238,488.98L580.512,488.98Z" style="fill-rule:nonzero;"/>
                <path id="path42" d="M746.988,509.262L807.73,509.262L807.73,489.77L848.98,489.77L848.98,543.75L678.75,543.75L678.75,509.262L705.738,509.262L705.738,395.23L678.75,395.23L678.75,361.48L848.98,361.48L848.98,414.77L807.73,414.77L807.73,395.23L746.988,395.23L746.988,435L797.27,435L797.27,469.488L746.988,469.488L746.988,509.262Z" style="fill:white;fill-rule:nonzero;"/>
                <path id="path44" d="M635.23,395.23L612.73,395.23L591.762,444.77L621.762,469.488L621.762,509.262L580.512,543.75L444.77,543.75L444.77,509.262L471.762,509.262L471.762,395.23L444.77,395.23L444.77,361.48L540,361.48L540,395.23L512.27,395.23L512.27,435L551.25,435L560.23,414.77L583.52,360.738L635.23,360.738L635.23,395.23ZM533.238,468.75L513.012,468.75L513.012,508.52L570,508.52L580.512,499.488L580.512,476.25L570.738,468.012L533.238,468.012L533.238,468.75Z" style="fill:white;fill-rule:nonzero;"/>
                <path id="path46" d="M892.5,509.262L911.988,488.98L919.488,488.98L919.488,509.262L892.5,509.262Z" style="fill-rule:nonzero;"/>
                <path id="path48" d="M1021.48,488.98L1021.48,500.23L1011.02,509.262L960,509.262L960,395.23L980.23,395.23L980.23,488.98L1021.48,488.98Z" style="fill-rule:nonzero;"/>
                <path id="path50" d="M1061.99,395.23L1021.48,361.48L892.5,361.48L911.988,341.25L1028.24,341.25L1082.27,385.512L1082.27,488.98L1061.99,509.262L1061.99,395.23Z" style="fill-rule:nonzero;"/>
                <path id="path52" d="M1196.99,435L1145.23,435L1104.77,469.488L1169.26,414.77L1207.5,414.77L1207.5,426.02L1196.99,435Z" style="fill-rule:nonzero;"/>
                <path id="path54" d="M1268.24,414.77L1248.01,435L1248.01,396.02L1207.5,360.738L1155.74,360.738L1145.23,370.512L1145.23,360.738L1104.77,360.738L1124.26,340.512L1165.51,340.512L1165.51,350.23L1176.02,341.25L1215.74,341.25L1268.24,384.77L1268.24,414.77Z" style="fill-rule:nonzero;"/>
                <path id="path56" d="M1207.5,489.77L1207.5,500.23L1196.99,509.262L1156.48,509.262L1146.02,500.23L1146.02,477.73L1156.48,469.488L1166.25,469.488L1166.25,480L1176.76,488.98L1206.76,488.98L1227.73,469.488L1268.24,469.488L1268.24,523.52L1248.01,543.75L1248.01,489.77L1207.5,489.77Z" style="fill-rule:nonzero;"/>
                <path id="path58" d="M1155,395.23L1166.25,395.23L1145.23,414.77L1145.23,403.52L1155,395.23Z" style="fill-rule:nonzero;"/>
                <path id="path60" d="M1061.99,395.23L1061.99,509.262L1020.74,543.75L892.5,543.75L892.5,509.262L919.488,509.262L919.488,395.23L892.5,395.23L892.5,361.48L1021.48,361.48L1061.99,395.23ZM1011.76,395.23L960,395.23L960,509.262L1011.02,509.262L1021.48,500.23L1021.48,403.52L1011.76,395.23Z" style="fill:white;fill-rule:nonzero;"/>
                <path id="path62" d="M1145.23,370.512L1155.74,360.738L1207.5,360.738L1248.01,396.02L1248.01,435L1206.76,469.488L1156.48,469.488L1146.02,477.73L1146.02,500.23L1156.48,509.262L1196.99,509.262L1207.5,500.23L1207.5,489.77L1248.01,489.77L1248.01,543.75L1207.5,543.75L1207.5,534.77L1196.99,543.75L1146.02,543.75L1104.77,509.262L1104.77,469.488L1145.23,435L1196.99,435L1207.5,426.02L1207.5,403.52L1197.73,395.23L1155,395.23L1145.23,403.52L1145.23,414.77L1104.77,414.77L1104.77,360.738L1145.23,360.738L1145.23,370.512Z" style="fill:white;fill-rule:nonzero;"/>
            </g>
        </g>
    </g>
</svg>
