<svg xmlns="http://www.w3.org/2000/svg" viewBox="0 0 343 289"><title>Cleveland Guardians logo - Brandlogos.net</title><path d="M372.26,531.55,404.48,548l18.24-7.69a105.36,105.36,0,0,0,106-176.62l1.08-23.86s0-10.73-7.88-12.88L331.45,259l-22.91,4.29s-.72,15.74,10.74,27.9L243.39,264,219,268.3s-2.15,25.75,23.63,40.77c0,0-3.58,22.18,20.76,36.48a33.4,33.4,0,0,0,17.18,32.19s-3.58,16.45,20,32.19L330,496.5l31.5,15.74,15.75-5Z" transform="translate(-219 -259)" style="fill:#00385d"/><path d="M385.87,491.49l-6.44,37.2,23.63,11.45,23.63-104.44-40.1-16.45-4.3,15,13.6,12.16-3.58,19.31a8.54,8.54,0,0,1-7.16,5.72l-27.21,5.72-21.48-60.8L376.56,357l58.71,22.89.72-20.74s1.43-5.72-5.73-8.58l-63-22.89-60.14,83.7L335,492.2l26.49,13.59Z" transform="translate(-219 -259)" style="fill:#e50022"/><path d="M444.22,427.46,431.33,431l-38.66-16.45L404.13,411Z" transform="translate(-219 -259)" style="fill:#fff"/><path d="M359,413.87l-15.75,5,19.33,51.51,14.32-3.58Z" transform="translate(-219 -259)" style="fill:#fff"/><path d="M455.68,308l-11.46,3.58L319.64,266.51l12.89-2.86Z" transform="translate(-219 -259)" style="fill:#fff"/><path d="M464.27,310.86l-11.46,2.86,53.7,20s2.86,0,5.73,4.29l11.1-3.93s0-2.86-8.59-5Z" transform="translate(-219 -259)" style="fill:#fff"/><path d="M439.92,315.15l-10.74,15L362.6,306.57s-9.31-7.87-10-22.89Z" transform="translate(-219 -259)" style="fill:#fff"/><path d="M347.56,281.53s.72,12.16,5.73,21.46l-20.76-7.15s-16.47-12.16-17.9-25.75Z" transform="translate(-219 -259)" style="fill:#fff"/><path d="M440.64,350.21s-2.15-4.29-10.74-6.44l-54.42-20,12.17-3.58,59.43,21.46s5,1.43,5.73,4.29Z" transform="translate(-219 -259)" style="fill:#fff"/><path d="M378.35,317.3l-12.89,3.58L230.14,272.23l15-2.86Z" transform="translate(-219 -259)" style="fill:#fff"/><path d="M361.88,324.45l-16.47,22.18L298.16,328s-31.5-10-31.5-37.2Z" transform="translate(-219 -259)" style="fill:#fff"/><path d="M260.93,288.69,224.41,275.1s-1.43,25.75,48,42.92c0,0-9.67-8.94-11.46-29.33" transform="translate(-219 -259)" style="fill:#fff"/><path d="M342.55,351.64l-12.17,16.45-23.63-8.58s-23.63-9.3-24.34-31.48Z" transform="translate(-219 -259)" style="fill:#fff"/><path d="M276.68,325.89s-1.43,11.45,8.59,24.32c0,0-35.08-7.87-37.95-37.91,0,0,20.41,10.37,29.36,13.59" transform="translate(-219 -259)" style="fill:#fff"/><path d="M326.8,373.1l-10.74,14.31s-17.9-7.87-19.33-27.18Z" transform="translate(-219 -259)" style="fill:#fff"/><path d="M292.07,359.15s-2.15,10,8.59,22.89c0,0-30.79-8.58-32.22-32.91Z" transform="translate(-219 -259)" style="fill:#fff"/><path d="M303.17,405.29l10-12.16S292.43,384.54,286,381c0,0,.36,16.1,17.18,24.32" transform="translate(-219 -259)" style="fill:#fff"/><path d="M508.66,348.78c1.43-7.87-4.3-10-4.3-10l-59.43-22.18L434.56,332,446,335.54s31.5-3.58,60.86,12.16Z" transform="translate(-219 -259)" style="fill:#e50022"/><path d="M455,341.39c-.46-.27,1.07,0,1.61,0a99.14,99.14,0,1,1-30.8,193.41L452.45,425l-48-19.31-22.91,7.15-5.73,22.89,13.6,12.88-2.15,13.59a4.8,4.8,0,0,1-5,3.58l-18.62-54.37,27.92-42.21,45.82,18.6,20.76-7.87,1.43-31.48s-.72-4.75-4.65-7" transform="translate(-219 -259)" style="fill:#fff"/><path d="M532.64,489.34c2.86,1.43.72,7.15.72,7.15h1.43c2.15-2.15.72-7.15.72-7.15,1.43,0,7.16-7.87,7.16-7.87H539.8c-1.43,3.58-7.16,7.87-7.16,7.87" transform="translate(-219 -259)" style="fill:#e50022"/><path d="M533.72,481.83h-2.15s-1.43,5.72-5.73,7.87a6.63,6.63,0,0,1,1.07,7.51l1.79.36s2.15-7.15-.72-7.87c0,0,5-2.86,5.73-7.87" transform="translate(-219 -259)" style="fill:#e50022"/><path d="M523,482.37s-1.29,6.45-5.17,9c0,0,4.52,3.23,2.26,7.42l1.94-.65s.48-6.29-1.78-6.94c0,0,4.52-4.84,4.84-8.71Z" transform="translate(-219 -259)" style="fill:#e50022"/><path d="M515.92,484.63h-2.26A16.16,16.16,0,0,1,510.1,494c2.91,1,3.55,7.1,3.55,7.1h1.61c1-3.23-2.91-7.42-2.91-7.42,1.29-1,3.55-9,3.55-9" transform="translate(-219 -259)" style="fill:#e50022"/><path d="M504.29,497.21s3.88-8.39,2.26-9.68l-2.26.65s-.32,8.39-2.58,10c0,0,6.78,3.55,4.84,6.45l2.26-1a12,12,0,0,0-4.52-6.45" transform="translate(-219 -259)" style="fill:#e50022"/><path d="M495.73,501.89s3.23-7.1,2.1-10.49l-2.58,1.29s-.32,8.71-1.94,10c0,0,6.78,2.58,6.14,5.81l1.78-.81s-1.29-4.84-5.49-5.81" transform="translate(-219 -259)" style="fill:#e50022"/><path d="M487.66,506.08s3.23-7.1,2.1-10.49l-2.58,1.29s-.32,8.71-1.94,10c0,0,6.78,2.58,6.14,5.81l1.78-.81s-1.29-4.84-5.49-5.81" transform="translate(-219 -259)" style="fill:#e50022"/><path d="M480.07,510.12c1.29-2.58.32-9.68.32-9.68l-2.58,1.29c1.61,3.55-.65,9.36-.65,9.36,2.75.81,7.27,5.32,7.27,5.32l2.42-1.13c-1-2.9-6.78-5.16-6.78-5.16" transform="translate(-219 -259)" style="fill:#e50022"/><path d="M471.84,513.5s.65-8.39-.32-8.71l-2.1,1.13a12.54,12.54,0,0,1-.32,8.71s6.78,2.26,8.07,5.81l1.61-1s-3.71-5.32-6.94-6" transform="translate(-219 -259)" style="fill:#e50022"/><path d="M463.44,517.7s1.61-7.74,0-9.68l-2.1,1.13s1.94,6.78-.65,9.36c0,0,6.46,1.61,8.4,5.49l2.42-1.13s-4.52-5.49-8.07-5.16" transform="translate(-219 -259)" style="fill:#e50022"/><path d="M456.66,520.6s.65-8.39-.32-8.71l-2.1,1.13a12.54,12.54,0,0,1-.32,8.71s6.78,2.26,8.07,5.81l1.61-1s-3.71-5.32-6.94-6" transform="translate(-219 -259)" style="fill:#e50022"/><path d="M449.07,524c1.29-3.23-1-9.36-1-9.36l-1.94,1.29c2.26,1.29.65,8.71.65,8.71,2.26.65,7.75,5.48,7.75,5.48l1.94-.65c-1-3.55-7.43-5.48-7.43-5.48" transform="translate(-219 -259)" style="fill:#e50022"/><path d="M442,525.93c.32-2.58-.65-9-.65-9l-2.26,1.29c1.94,1,1,8.39,1,8.39,1.94.32,7.43,5.16,7.43,5.16l1.61-.65c-1.61-2.58-7.1-5.16-7.1-5.16" transform="translate(-219 -259)" style="fill:#e50022"/><path d="M434.86,527.54c1.29-1.94-.65-8.71-.65-8.71L432,520.12c2.26,1.94.65,8.07.65,8.07,2.26,0,7.43,5.16,7.43,5.16l1.94-.65c-1.29-2.9-7.1-5.16-7.1-5.16" transform="translate(-219 -259)" style="fill:#e50022"/><path d="M540.13,398.48s-.32,8.71,1.29,10.32l1.61-1s-2.1-6.29-1.61-11.29a6,6,0,0,1-5.49-3.23l-1.29,1.29s2.26,4.84,5.49,3.87" transform="translate(-219 -259)" style="fill:#e50022"/><path d="M535.61,405.26s-1,9-.32,10.32l1.94-1.29s-.48-8.23,0-11.29c0,0-5.17-.32-6.46-4.19l-1.29,1.61s4.2,4.52,6.14,4.84" transform="translate(-219 -259)" style="fill:#e50022"/><path d="M529.16,410.42s-2.26,7.42-1,9.68l2.26-1a24.12,24.12,0,0,1,1-10.32s-5.49-1.61-6.78-5.81l-1.94,1.29s3.88,5.16,6.46,6.13" transform="translate(-219 -259)" style="fill:#e50022"/><path d="M519.47,423l2.26-.32c-.65-3.87,2.58-10.32,2.58-10.32-5.65-.81-6.78-7.1-6.78-7.1l-2.58,1c.32,4.19,6.46,7.42,6.46,7.42-1.61,3.55-1.94,9.36-1.94,9.36" transform="translate(-219 -259)" style="fill:#e50022"/><path d="M509.3,406.87h-3.07c-.32,4.84,6.14,8.71,6.14,8.71-3.23,1.61-3.23,8.71-3.23,8.71H512c-.65-3.55,3.87-9.68,3.87-9.68-5.65-.48-6.62-7.74-6.62-7.74" transform="translate(-219 -259)" style="fill:#e50022"/><path d="M497.83,424.62h3.23c-.32-3.55,4.84-8.71,4.84-8.71-4.36-2.42-5.81-9-5.81-9h-1.94c-1.61,2.26,4.84,9,4.84,9-2.26,1-5.17,8.71-5.17,8.71" transform="translate(-219 -259)" style="fill:#e50022"/><path d="M487.34,423.81h2.91s2.58-6.45,5.65-7.9c0,0-4.84-4.52-4.52-10l-3.23-.65s1.61,8.07,4.2,10.32c0,0-5.33,5.32-5,8.23" transform="translate(-219 -259)" style="fill:#e50022"/><path d="M475.55,422l3.23.32s1.78-6.29,6.78-7.74c0,0-4.84-6.45-3.88-10.65l-3.23-.64s1.61,9,3.55,10.65c0,0-5.81,4.84-6.46,8.07" transform="translate(-219 -259)" style="fill:#e50022"/><path d="M474.9,412.68s-4.84-5.16-3.55-11.62l-3.55-1s1,10.32,3.55,11.62c0,0-6.46,4.19-6.78,7.74l3.07.48s1.94-5.49,7.27-7.26" transform="translate(-219 -259)" style="fill:#e50022"/><path d="M454.24,415.58l2.91,1s4-6.29,7.1-6.45c0,0-3.88-7.74-2.91-12.26l-2.91-.65s.32,8.39,2.58,11.29c0,0-5.49,3.23-6.78,7.1" transform="translate(-219 -259)" style="fill:#e50022"/><path d="M443.9,412l3.07,1.13s3.55-6.13,7.59-6.61c0,0-3.23-5.81-2.58-11.94l-2.58-1s-.32,9.36,1.61,11.29c0,0-5.17,2.9-7.1,7.1" transform="translate(-219 -259)" style="fill:#e50022"/><path d="M433.89,408.49l2.58,1.29s3.39-6.29,7.75-7.1c0,0-3.23-7.42-1.94-11.29l-2.91-1s.65,9.68,1.94,11c0,0-6.14,3.23-7.43,7.1" transform="translate(-219 -259)" style="fill:#e50022"/><path d="M432.6,388.48l-2.91-.65s0,8.71,1.61,10.32c0,0-5.81,3.23-7.1,7.42l2.58.65s3.07-6.29,7.75-6.78c0,0-3.23-9-1.94-11" transform="translate(-219 -259)" style="fill:#e50022"/><path d="M422.91,385.9l-2.91-.32s-1,7.42,1.29,9.68c0,0-6.78,5.16-6.78,8.07l2.74.48s3.55-7.1,7.59-7.58a13.91,13.91,0,0,1-1.94-10.32" transform="translate(-219 -259)" style="fill:#e50022"/><path d="M413.55,384h-3.23s-1,7.42,1.29,9c0,0-6.78,4.84-7.75,8.39l2.91.32s4.36-6.61,8.07-7.74c0,0-2.91-7.42-1.29-10" transform="translate(-219 -259)" style="fill:#e50022"/><path d="M404.51,383.64l-2.91-.32s-1,6.78.65,8.71c0,0-5.81,4.52-7.1,8.71l2.42.16s3.55-7.42,7.59-8.23c0,0-2.91-5.48-.65-9" transform="translate(-219 -259)" style="fill:#e50022"/><path d="M396.11,383.32h-2.58s-1.29,7.1,0,9c0,0-5.49,4.19-6.14,7.74h2.1s2.91-6.29,6.62-7.74c0,0-2.26-5.81,0-9" transform="translate(-219 -259)" style="fill:#e50022"/><path d="M388.36,384.29h-2.58s-1.29,6.78.32,8.71c0,0-4.52,4.19-5.49,7.74h2.1s2.58-6.29,5.65-8.07c0,0-2.58-5.16,0-8.39" transform="translate(-219 -259)" style="fill:#e50022"/></svg>