<?xml version="1.0" encoding="UTF-8" standalone="no"?>
<!DOCTYPE svg PUBLIC "-//W3C//DTD SVG 1.1//EN" "http://www.w3.org/Graphics/SVG/1.1/DTD/svg11.dtd">
<svg width="100%" height="100%" viewBox="0 0 2500 2500" version="1.1" xmlns="http://www.w3.org/2000/svg" xmlns:xlink="http://www.w3.org/1999/xlink" xml:space="preserve" xmlns:serif="http://www.serif.com/" style="fill-rule:evenodd;clip-rule:evenodd;stroke-linejoin:round;stroke-miterlimit:2;">
    <g>
        <g>
            <path d="M1975.33,1397.41L2446.78,1397.41L2446.78,1361.95C2446.78,1361.95 2362.96,1360.33 2362.96,1361.95C2351.53,1238.17 2251.89,892.735 1925.34,650.823C1758.25,519.595 1536.19,421.608 1247.42,412.439C878.261,425.33 731.56,530.113 578.413,628.45C177.011,912.19 125.431,1358.74 125.431,1358.74L46.445,1358.74L46.445,1395.79L534.212,1395.79L551.773,1360.33L447.846,1360.33C447.846,1360.33 536.507,799.34 1194.22,730.029C1192.6,731.637 1245.81,671.989 1245.81,671.989L1303.85,730.029C1303.85,730.029 1392.51,739.692 1450.55,757.434C1508.59,775.164 1563.4,799.34 1563.4,799.34L1787.45,946.041C1787.45,946.041 1869.68,1005.69 1943.83,1126.59C2018.01,1247.51 2035.73,1358.74 2035.73,1358.74L1946.54,1358.74L1975.33,1397.41Z"/>
            <path d="M1200.9,722.428L1213.94,749.901C1206.61,757.178 1199.12,758.895 1192.8,758.358C655.8,817 513.273,1215.16 482.75,1332.33L596.885,1332.33L551.591,1423.79L18.445,1423.79L18.445,1330.74C18.445,1330.74 101.466,1330.74 101.466,1330.74C119.105,1231.55 207.318,856.478 562.76,605.226L563.284,604.889C719.661,504.478 869.499,397.619 1246.44,384.456L1247.38,384.423L1248.31,384.453C1543.91,393.839 1771.21,494.265 1942.32,628.556C2256.84,861.718 2365.66,1188.76 2387.6,1333.29C2412.96,1333.33 2447.32,1333.95 2447.32,1333.95L2474.78,1334.49L2474.78,1425.41L1961.27,1425.41L1924.08,1375.46L1946.54,1330.74C1946.54,1330.74 2000.85,1330.74 2000.85,1330.74C1990.43,1290.57 1967.03,1217.96 1919.96,1141.23L1919.96,1141.23C1852.31,1030.92 1777.86,973.833 1771.44,969.028C1771.44,969.028 1550.05,824.064 1550.04,824.063C1539.74,819.61 1492.28,799.46 1442.37,784.212L1442.37,784.211C1386.37,767.094 1300.82,757.864 1300.82,757.864L1291.02,756.796C1291.02,756.796 1246.98,712.755 1246.98,712.755C1234.63,726.616 1220.33,742.688 1216.33,747.246C1216.05,747.571 1215.69,747.982 1215.69,747.982C1215.69,747.982 1220.61,720.802 1220.46,720.387C1218.73,715.687 1216.21,711.868 1212.89,708.936C1227.67,692.325 1245.81,671.989 1245.81,671.989L1303.85,730.029C1303.85,730.029 1392.51,739.692 1450.55,757.434C1508.59,775.164 1563.4,799.34 1563.4,799.34L1787.45,946.041C1787.45,946.041 1869.68,1005.69 1943.83,1126.59C2018.01,1247.51 2035.73,1358.74 2035.73,1358.74L1946.54,1358.74L1975.33,1397.41L2446.78,1397.41L2446.78,1361.95C2446.78,1361.95 2362.96,1360.33 2362.96,1361.95C2351.53,1238.17 2251.89,892.735 1925.34,650.823C1758.25,519.595 1536.19,421.608 1247.42,412.439C878.261,425.33 731.56,530.113 578.413,628.45C177.011,912.19 125.431,1358.74 125.431,1358.74L46.445,1358.74L46.445,1395.79L534.212,1395.79L551.773,1360.33L447.846,1360.33C447.846,1360.33 536.507,799.34 1194.22,730.029C1193.84,730.411 1196.54,727.338 1200.9,722.428Z" style="fill:white;"/>
            <path d="M419.031,1351.94L522.078,1076.77L834.991,738.795L1331.03,679.618L1788.92,759.295L2163.69,1140.35L2149.89,1487.56L683.148,1510.77L419.031,1351.94Z" style="fill:white;"/>
            <path d="M497.789,1061.79L384.641,1363.94L675.582,1538.9L2176.82,1515.14L2192.14,1129.36L1802.58,733.251L1331.79,651.329L821.444,712.213L497.789,1061.79ZM419.031,1351.94L522.078,1076.77L834.991,738.795L1331.03,679.618L1788.92,759.295L2163.69,1140.35L2149.89,1487.56L683.148,1510.77L419.031,1351.94Z" style="fill:white;"/>
            <path d="M36.756,1926.17L2448.39,1926.17L2448.39,1966.46L2346.84,1966.46L2346.84,2027.75L139.944,2027.75L139.944,1963.25L36.756,1963.25L36.756,1926.17Z"/>
            <path d="M36.756,1898.17L8.756,1898.17L8.756,1991.25L111.944,1991.25C111.944,1991.25 111.944,2055.75 111.944,2055.75L2374.84,2055.75L2374.84,1994.46C2374.84,1994.46 2476.39,1994.46 2476.39,1994.46L2476.39,1898.17L36.756,1898.17ZM36.756,1926.17L2448.39,1926.17L2448.39,1966.46L2346.84,1966.46L2346.84,2027.75L139.944,2027.75L139.944,1963.25L36.756,1963.25L36.756,1926.17Z" style="fill:white;"/>
            <g transform="matrix(117.523,0,0,22.1525,-4566.06,-36857.2)">
                <rect x="39.165" y="1725.12" width="20.523" height="26.442" style="fill:white;"/>
                <path d="M59.927,1752.83L59.927,1723.86L38.927,1723.86L38.927,1752.83L59.927,1752.83ZM59.688,1725.12L39.165,1725.12L39.165,1751.56L59.688,1751.56L59.688,1725.12Z" style="fill:white;"/>
            </g>
        </g>
        <path d="M583.25,1294.24L496.197,1474.81L700.925,1474.81L1273.22,1039.54L792.816,1473.18L828.288,1473.18L1282.89,1147.55L916.949,1474.81L957.246,1474.81L1331.26,1224.92L1045.91,1473.18L1086.22,1474.81L1421.54,1276.51L1171.65,1473.18L1210.34,1476.4L1537.58,1300.7L1297.38,1473.18L2032.48,1473.18L1871.29,1258.78L1806.81,1268.46L1743.93,1160.44L1421.54,870.271L1242.58,705.841L1024.95,983.108L904.057,946.028L702.546,1266.84L647.736,1257.16L623.56,1299.08L583.25,1294.24Z" style="fill:rgb(81,64,127);"/>
        <path d="M779.924,1228.15L920.166,997.621L1041.07,1029.86L1240.97,768.705L1385.08,936.521L1378.65,954.25L1345.77,933.136L1308.67,967L1289.32,883.163L1242.58,939.595L1218.41,904.109L1024.95,1065.32L986.26,1033.08L884.707,1157.21L866.977,1141.09L779.924,1228.15ZM1756.82,1268.46L1714.21,1189.16L1684.42,1206.62C1684.42,1206.62 1714.93,1239.43 1722.98,1244.27C1731.04,1249.11 1756.82,1268.46 1756.82,1268.46Z" style="fill:white;"/>
        <g>
            <path d="M36.756,1926.17L2448.39,1926.17L2448.39,1966.46L2346.84,1966.46L2346.84,2027.75L139.944,2027.75L139.944,1963.25L36.756,1963.25L36.756,1926.17ZM889.531,1700.48C889.531,1587.63 960.463,1498.15 1091.86,1498.15C1141.83,1498.15 1173.26,1516.7 1173.26,1516.7C1173.26,1516.7 1191.79,1504.61 1196.63,1504.61C1201.47,1504.61 1201.47,1511.04 1201.47,1511.04L1206.31,1634.38L1183.74,1634.38C1183.74,1634.38 1164.4,1533.61 1086.2,1533.61C1008.01,1533.61 975.78,1616.64 975.78,1698.85C975.78,1781.07 1020.9,1860.06 1088.62,1860.06C1156.33,1860.06 1195.01,1770.59 1195.01,1770.59C1195.01,1770.59 1197.43,1764.94 1203.08,1764.94C1208.72,1764.94 1215.97,1767.38 1215.97,1767.38L1216.77,1775.43L1187.76,1890.69C1187.76,1890.69 1158.75,1887.48 1145.85,1887.48C1132.95,1887.48 1062.03,1895.53 1050.75,1895.53C1039.46,1895.53 889.531,1879.42 889.531,1700.48Z"/>
            <path d="M1975.33,1397.41L2446.78,1397.41L2446.78,1361.95C2446.78,1361.95 2362.96,1360.33 2362.96,1361.95C2351.53,1238.17 2251.89,892.735 1925.34,650.823C1758.25,519.595 1536.19,421.608 1247.42,412.439C878.261,425.33 731.56,530.113 578.413,628.45C177.011,912.19 125.431,1358.74 125.431,1358.74L46.445,1358.74L46.445,1395.79L534.212,1395.79L551.773,1360.33L447.846,1360.33C447.846,1360.33 536.507,799.34 1194.22,730.029C1192.6,731.637 1245.81,671.989 1245.81,671.989L1303.85,730.029C1303.85,730.029 1392.51,739.692 1450.55,757.434C1508.59,775.164 1563.4,799.34 1563.4,799.34C1563.4,799.34 1371.67,817.199 1363.49,1021.81C1377.78,1199.81 1529.54,1231.38 1571.46,1231.38C1613.35,1231.38 1777.78,1226.54 1798.75,1021.81C1798.75,975.067 1787.45,946.041 1787.45,946.041C1787.45,946.041 1869.68,1005.69 1943.83,1126.59C2018.01,1247.51 2035.73,1358.74 2035.73,1358.74L1946.54,1358.74L1975.33,1397.41ZM1614.97,1536.87L1614.97,1507.84L1785.04,1507.84L1785.04,1540.9C1785.04,1540.9 1754.42,1534.44 1745.55,1555.39C1736.68,1576.36 1739.09,1694.84 1739.09,1694.84C1739.09,1694.84 1736.68,1810.1 1740.71,1819.78C1744.75,1829.45 1747.96,1851.21 1765.69,1853.64C1783.42,1856.05 1785.86,1859.27 1785.86,1859.27L1785.86,1885.05L1615.77,1885.05L1615.77,1856.86C1615.77,1856.86 1641.56,1855.23 1649.61,1841.53C1657.67,1827.82 1656.07,1814.12 1656.07,1814.12L1656.07,1690.8L1654.45,1573.12C1654.45,1573.12 1656.89,1559.41 1648.82,1551.35C1640.75,1543.3 1629.48,1536.87 1614.97,1536.87ZM681.587,1495.75C786.383,1495.75 862.943,1566.68 862.943,1694.84C862.943,1822.99 786.383,1889.89 671.912,1896.35C559.075,1889.89 496.197,1819.78 496.197,1693.24C496.197,1566.68 580.034,1502.18 681.587,1495.75ZM584.859,1704.51C599.372,1860.07 662.236,1863.29 693.675,1863.29C725.114,1863.29 792.012,1816.55 771.857,1675.5C751.702,1534.43 693.675,1528.79 664.649,1528.79C641.29,1532.03 570.358,1548.95 584.859,1704.51Z"/>
        </g>
        <path d="M314.841,1851.2L314.841,1883.44L106.897,1883.44L106.897,1852.01C106.897,1852.01 149.606,1848.79 156.869,1830.24C164.119,1811.69 162.511,1806.05 162.511,1806.05L162.511,1519.12C162.511,1502.17 147.194,1492.52 132.681,1488.48C118.18,1484.44 107.701,1484.44 107.701,1484.44L107.701,1450.6C107.701,1450.6 131.072,1452.23 157.673,1450.6C184.274,1448.98 231.835,1444.14 278.578,1444.14C325.334,1444.14 472.035,1444.95 472.035,1564.24C477.676,1656.93 386.59,1679.53 386.59,1679.53C386.59,1679.53 384.177,1690 393.049,1694.84C401.907,1699.67 404.332,1704.51 404.332,1704.51C404.332,1704.51 437.379,1764.15 442.204,1773.03C447.042,1781.9 468.001,1828.63 480.089,1837.5C492.19,1846.38 522.811,1852.02 522.811,1852.02L522.811,1884.26L397.069,1884.26L289.057,1706.13C289.057,1706.13 276.969,1701.3 272.132,1701.3C267.294,1701.3 259.24,1703.71 259.24,1703.71L257.618,1802.86C257.618,1802.86 255.193,1829.46 268.098,1839.94C281.003,1850.4 314.841,1851.2 314.841,1851.2ZM296.307,1663.4C309.199,1661.78 369.651,1647.29 364.009,1565.87C364.009,1481.24 301.949,1476.4 280.186,1476.4C258.423,1476.4 257.618,1479.62 257.618,1479.62L257.618,1665.02C257.618,1665.02 283.415,1665.02 296.307,1663.4Z"/>
        <path d="M707.384,1302.29L667.087,1294.24L633.223,1345.82L707.384,1302.29ZM1801.97,1315.19L1848.7,1303.91L1880.94,1347.44L1801.97,1315.19ZM1585.93,829.974C1585.93,829.974 1656.89,833.204 1693.94,865.434C1781.01,931.527 1764.87,991.175 1764.87,991.175L1753.6,992.784C1753.6,992.784 1745.55,968.608 1739.09,968.608C1732.66,968.608 1731.84,973.446 1731.84,973.446L1735.87,987.959L1722.16,987.959C1722.16,987.959 1717.33,966.196 1708.45,966.196C1699.58,966.196 1702.8,975.067 1702.8,975.067L1702.01,989.567L1690.71,988.763C1690.71,988.763 1680.22,962.966 1672.17,970.229C1664.11,977.492 1669.75,980.709 1669.75,980.709C1669.75,980.709 1677.81,993.614 1668.95,993.614C1660.09,993.614 1652.02,983.134 1652.02,983.134C1652.02,983.134 1647.19,971.046 1642.35,975.08C1637.51,979.113 1638.32,984.742 1638.32,984.742L1644.75,997.647L1635.07,1001.68C1635.07,1001.68 1617.37,987.168 1613.31,987.168C1609.28,987.168 1600.42,993.614 1606.06,996.843C1611.7,1000.07 1617.36,1003.29 1617.36,1007.32C1617.36,1011.36 1611.7,1012.97 1611.7,1012.97L1603.62,1015.38C1603.62,1015.38 1587.51,998.451 1581.86,1004.9C1576.23,1011.34 1584.3,1017.79 1584.3,1017.79L1589.95,1025.86L1583.49,1030.69C1583.49,1030.69 1572.22,1029.07 1568.98,1026.66C1565.76,1024.24 1558.51,1020.2 1556.09,1025.04C1553.67,1029.89 1558.53,1034.71 1558.53,1034.71L1569.8,1042.77L1556.9,1050.84C1556.9,1050.84 1540.8,1041.16 1537.55,1044.39C1534.34,1047.62 1532.72,1056.49 1532.72,1056.49L1545.63,1063.74L1543.19,1070.19L1535.14,1072.61C1535.14,1072.61 1523.05,1068.58 1519.03,1070.19C1515.01,1071.8 1515,1082.28 1515,1082.28C1515,1082.28 1520.63,1088.72 1523.84,1088.72C1527.09,1088.72 1535.96,1089.53 1530.3,1094.36C1524.65,1099.2 1522.25,1099.2 1522.25,1099.2C1522.25,1099.2 1502.08,1094.36 1498.86,1103.23C1495.65,1112.11 1507.74,1113.71 1507.74,1113.71C1507.74,1113.71 1519.82,1112.91 1519.03,1116.94C1518.23,1120.98 1515,1125 1515,1125L1502.08,1126.62C1502.08,1126.62 1490.81,1128.23 1489.99,1135.49C1489.19,1142.74 1498.86,1143.56 1498.86,1143.56C1498.86,1143.56 1512.57,1141.13 1510.16,1149.2C1507.72,1157.27 1494.83,1158.07 1494.83,1158.07C1494.83,1158.07 1484.34,1158.07 1484.34,1164.52C1484.34,1170.96 1489.17,1174.18 1489.17,1174.18C1489.17,1174.18 1507.72,1172.57 1506.1,1179.83C1504.51,1187.1 1497.23,1186.28 1497.23,1186.28C1497.23,1186.28 1389.24,1142.75 1389.24,1030.72C1387.62,1011.37 1388.44,989.606 1388.44,989.606C1388.44,989.606 1390.85,979.931 1396.49,987.998C1402.15,996.052 1402.95,996.869 1407.79,996.869C1412.6,996.869 1411.01,984.768 1411.01,984.768L1409.38,975.106C1409.38,975.106 1413.42,971.876 1417.44,971.876C1421.49,971.876 1428.74,992.031 1433.57,992.031C1438.41,992.031 1444.85,987.194 1444.85,987.194C1444.85,987.194 1444.04,980.735 1442.43,977.518C1440.81,974.289 1437.6,969.451 1437.6,969.451L1449.68,964.613C1449.68,964.613 1456.14,972.68 1459.36,975.897C1462.57,979.126 1468.23,982.356 1471.45,980.735C1474.66,979.126 1473.07,972.68 1473.07,972.68L1465.01,958.971L1477.1,954.938C1477.1,954.938 1489.99,968.634 1494.03,968.634C1498.06,968.634 1501.28,963.796 1501.28,963.796C1501.28,963.796 1502.08,958.958 1499.68,954.925C1497.24,950.891 1490.01,948.466 1497.24,942.837C1504.52,937.195 1509.36,942.837 1509.36,942.837C1509.36,942.837 1517.41,952.513 1521.44,952.513C1525.48,952.513 1531.94,945.249 1527.9,939.621C1523.86,933.966 1518.23,933.966 1518.23,933.966L1521.44,925.094C1521.44,925.094 1528.69,922.682 1535.15,925.899C1541.61,929.128 1554.5,932.357 1554.5,925.094C1554.5,917.844 1548.85,915.419 1548.85,915.419L1541.6,912.19C1541.6,912.19 1542.39,903.318 1546.41,903.318C1550.46,903.318 1554.49,900.893 1560.12,903.318C1565.78,905.744 1566.58,906.548 1571.42,904.926C1576.25,903.318 1574.63,896.055 1568.2,892.034C1561.74,888.001 1556.9,891.23 1557.71,883.967C1558.51,876.704 1569.8,879.13 1569.8,879.13L1585.9,879.934L1591.56,870.258C1591.56,870.258 1588.34,864.603 1585.13,864.603C1581.88,864.603 1573.83,862.995 1573.83,857.353C1573.83,851.711 1580.29,851.711 1585.92,851.711C1591.57,851.711 1602.87,851.711 1603.65,848.482C1604.45,845.253 1604.45,838.002 1604.45,838.002C1604.45,838.002 1593.18,838.807 1589.96,837.198C1586.75,835.616 1585.93,829.974 1585.93,829.974Z" style="fill:white;"/>
        <path d="M186.687,1480.43L232.626,1480.43L232.626,1850.4L186.687,1850.4L186.687,1480.43ZM359.976,1480.43C359.976,1480.43 442.191,1490.11 442.191,1568.28C442.191,1646.47 361.584,1661.78 361.584,1661.78C361.584,1661.78 386.577,1639.24 386.577,1567.49C386.577,1495.74 359.976,1480.43 359.976,1480.43ZM311.625,1704.51C311.625,1704.51 337.421,1695.64 345.476,1695.64L366.422,1695.64C366.422,1695.64 389.806,1719.03 395.435,1731.1C401.09,1743.19 463.15,1847.98 463.15,1847.98L395.448,1847.98L311.625,1704.51ZM592.122,1544.12C592.122,1544.12 556.662,1596.5 563.108,1690C563.108,1792.37 609.047,1848.8 609.047,1848.8C609.047,1848.8 515.548,1849.59 515.548,1700.48C517.156,1575.55 592.122,1544.12 592.122,1544.12ZM748.485,1536.06C748.485,1536.06 842.788,1558.63 842.788,1683.57C842.788,1808.5 771.857,1845.56 771.857,1845.56C771.857,1845.56 794.424,1815.74 794.424,1686.78C783.957,1575.55 748.485,1536.06 748.485,1536.06Z" style="fill:rgb(190,193,200);"/>
        <path d="M955.638,1700.48C955.638,1788.32 1001.58,1846.36 1001.58,1846.36C1001.58,1846.36 908.078,1831.06 908.078,1704.5C908.078,1577.94 990.293,1548.12 990.293,1548.12C990.293,1548.12 995.131,1549.74 991.915,1556.18C988.685,1562.65 955.638,1612.63 955.638,1700.48ZM1678.24,1538.86L1720.94,1538.86L1720.94,1851.62L1678.24,1851.62L1678.24,1538.86Z" style="fill:rgb(190,193,200);"/>
        <path d="M1224.04,1536.87L1225.66,1507.84L1395.71,1507.84L1395.71,1537.66C1395.71,1537.66 1357.84,1536.87 1355.42,1557.82C1353.01,1578.77 1352.2,1677.92 1352.2,1677.92L1456.19,1560.24C1456.19,1560.24 1461.03,1554.61 1459.41,1548.97C1459.41,1538.47 1441.68,1536.07 1441.68,1536.07L1441.68,1507.05L1580.31,1507.05L1580.31,1538.49C1580.31,1538.49 1539.2,1536.89 1523.09,1550.57C1500.52,1561.87 1426.35,1652.15 1426.35,1652.15C1426.35,1652.15 1458.59,1692.45 1477.14,1719.87C1495.69,1747.25 1542.42,1823.83 1549.69,1829.48C1556.94,1835.13 1560.16,1847.21 1579.51,1852.86C1598.86,1858.49 1602.08,1856.08 1602.08,1856.08L1602.08,1885.89L1419.92,1885.89L1419.92,1854.46C1419.92,1854.46 1448.92,1857.67 1448.92,1843.99C1448.92,1830.28 1437.65,1802.88 1417.48,1779.49C1397.34,1756.11 1368.31,1716.61 1354.63,1715.02C1353.82,1729.51 1354.63,1826.25 1354.63,1826.25C1354.63,1826.25 1356.22,1842.36 1368.31,1850.41C1380.42,1858.46 1396.53,1856.06 1396.53,1856.06L1396.53,1885.88L1224.85,1885.88L1224.85,1856.88C1224.85,1856.88 1261.1,1856.88 1264.35,1835.12C1267.56,1813.36 1267.56,1808.52 1267.56,1808.52L1267.56,1568.3C1267.56,1568.3 1267.56,1548.98 1252.24,1543.32C1236.94,1537.66 1224.04,1536.87 1224.04,1536.87ZM1812.45,1539.28L1812.45,1508.66L2094.54,1508.66L2100.19,1599.72L2073.59,1599.72C2073.59,1599.72 2080.87,1548.95 2044.59,1548.95L1943.01,1548.95L1943.01,1675.51C1943.01,1675.51 1971.24,1678.73 1981.72,1678.73C1992.18,1678.73 2024.42,1674.69 2026.05,1661C2027.64,1647.29 2033.3,1631.97 2033.3,1631.97L2052.65,1631.97L2052.65,1760.13L2031.67,1760.13C2031.67,1760.13 2028.91,1722.76 2007.51,1719.04C1988.97,1715.8 1980.91,1715.01 1973.67,1715.01C1966.4,1715.01 1943.83,1719.84 1943.83,1719.84L1943.83,1831.86C1943.83,1831.86 1947.86,1846.38 1964.8,1846.38L2041.35,1846.38C2047.01,1846.38 2067.95,1841.54 2073.59,1832.67C2079.24,1823.8 2093.76,1783.5 2093.76,1783.5L2117.12,1783.5L2108.25,1885.87L1807.61,1885.87L1807.61,1854.43C1807.61,1854.43 1838.23,1856.87 1848.7,1848.8C1859.19,1840.72 1861.62,1837.5 1861.62,1837.5L1859.99,1577.95C1859.99,1577.95 1862.41,1552.97 1844.69,1544.12C1826.93,1535.24 1812.45,1539.28 1812.45,1539.28Z"/>
        <rect x="1881.36" y="1537.27" width="42.735" height="317.565" style="fill:rgb(190,193,200);"/>
        <path d="M2242.86,1444.16C2298.49,1444.16 2332.33,1457.87 2332.33,1457.87C2332.33,1457.87 2337.98,1460.31 2341.2,1457.87C2344.41,1455.45 2351.69,1448.19 2351.69,1448.19L2367.8,1448.19L2375.05,1575.55L2346.85,1573.12C2346.85,1573.12 2333.96,1481.24 2251.73,1481.24C2186.46,1489.29 2202.56,1549.76 2223.51,1560.22C2267.84,1606.98 2392.78,1649.69 2392.78,1764.95C2392.78,1880.24 2288.01,1899.57 2264.62,1899.57C2241.24,1899.57 2177.59,1882.64 2168.71,1881.84C2159.84,1881.03 2152.58,1893.95 2152.58,1893.95L2138.87,1893.95L2124.38,1757.71L2147.77,1756.91C2147.77,1756.91 2167.09,1806.9 2179.98,1818.97C2192.88,1831.08 2207.39,1859.27 2249.32,1859.27C2291.21,1859.27 2305.74,1824.61 2305.74,1793.99C2305.74,1763.37 2254.16,1721.44 2234.81,1709.36C2215.46,1697.29 2128.42,1660.19 2128.42,1564.26C2128.4,1468.35 2187.26,1444.16 2242.86,1444.16Z"/>
        <path d="M2173.55,1509.46C2173.55,1509.46 2171.93,1541.7 2197.71,1569.1C2238.01,1623.92 2367.79,1656.94 2367.79,1756.9C2362.13,1830.25 2326.67,1847.18 2326.67,1847.18C2326.67,1847.18 2330.71,1831.85 2330.71,1791.55C2330.71,1736.76 2249.32,1691.62 2249.32,1691.62C2249.32,1691.62 2152.58,1636.8 2152.58,1570.72C2152.58,1515.89 2173.55,1509.46 2173.55,1509.46Z" style="fill:rgb(190,193,200);"/>
        <path d="M1512.6,1193.49L1514.22,1187.85C1514.22,1187.85 1531.15,1195.92 1532.74,1192.69C1534.36,1189.46 1533.55,1180.6 1533.55,1180.6L1523.08,1174.14C1523.08,1174.14 1511.78,1174.14 1513.4,1165.28C1515.02,1156.41 1522.27,1162.86 1522.27,1162.86L1532.74,1167.69L1532.74,1150.77C1532.74,1150.77 1519.85,1145.93 1519.85,1139.49C1519.85,1133.04 1523.88,1133.04 1523.88,1133.04L1536.8,1141.9C1536.8,1141.9 1543.23,1140.29 1543.23,1136.26C1543.23,1132.22 1542.43,1128.99 1542.43,1128.99L1529.54,1116.9C1529.54,1116.9 1527.94,1108.03 1534.38,1108.03C1540.83,1108.03 1545.67,1118.51 1545.67,1118.51C1545.67,1118.51 1552.92,1115.28 1552.11,1109.64C1551.3,1104 1547.27,1099.16 1547.27,1099.16C1547.27,1099.16 1540.02,1091.9 1541.64,1087.07C1543.23,1082.24 1548.89,1083.04 1548.89,1083.04C1548.89,1083.04 1553.73,1095.14 1558.56,1095.14C1563.4,1095.14 1569.03,1087.88 1566.62,1083.04C1564.18,1078.21 1557.75,1067.72 1557.75,1067.72C1557.75,1067.72 1558.55,1061.28 1562.58,1061.28C1566.62,1061.28 1574.67,1074.17 1574.67,1074.17C1574.67,1074.17 1583.54,1077.4 1583.54,1070.13C1583.54,1062.87 1581.13,1054.82 1581.13,1054.82C1581.13,1054.82 1575.48,1047.57 1581.92,1044.34C1588.38,1041.11 1588.38,1047.57 1590,1050.78C1591.6,1054.01 1595.63,1062.87 1598.87,1058.85C1602.09,1054.82 1604.5,1047.57 1604.5,1047.57C1604.5,1047.57 1601.29,1041.93 1601.29,1036.28C1601.29,1030.64 1604.5,1028.22 1604.5,1028.22C1604.5,1028.22 1610.96,1020.16 1611.78,1024.99C1612.58,1029.84 1612.58,1037.89 1613.37,1040.31C1614.18,1042.72 1623.87,1042.72 1624.67,1038.68C1625.48,1034.65 1626.27,1032.24 1626.27,1032.24C1626.27,1032.24 1623.05,1025.79 1625.48,1020.95C1627.89,1016.12 1624.67,1013.69 1629.51,1013.69C1634.35,1013.69 1637.56,1024.17 1637.56,1024.17C1637.56,1024.17 1637.56,1033.85 1641.6,1033.04C1645.63,1032.24 1650.47,1024.97 1650.47,1018.53C1650.47,1012.08 1652.88,1004.83 1658.52,1004.03C1664.18,1003.22 1659.33,1019.35 1659.33,1019.35C1659.33,1019.35 1663.36,1026.61 1666.58,1024.99C1669.82,1023.38 1673.85,1019.35 1673.85,1019.35L1680.29,1000.8L1689.16,1000.8C1689.16,1000.8 1685.94,1017.72 1689.96,1018.53C1693.99,1019.33 1699.64,1016.92 1699.64,1016.92C1699.64,1016.92 1702.07,1006.44 1704.47,1003.21C1706.87,999.982 1714.97,999.178 1714.97,999.178C1714.97,999.178 1717.38,999.178 1716.56,1004.01C1715.76,1008.85 1710.13,1016.91 1716.56,1018.52C1723.02,1020.14 1728.67,1018.52 1728.67,1018.52C1728.67,1018.52 1732.71,997.556 1741.57,998.361C1750.44,999.165 1739.95,1012.87 1739.95,1012.87C1739.95,1012.87 1740.75,1020.12 1746.4,1021.75C1752.03,1023.35 1759.3,1012.87 1759.3,1012.87C1759.3,1012.87 1763.33,1004.81 1768.17,1006.42C1773.01,1008.04 1763.33,1020.93 1763.33,1020.93C1763.33,1020.93 1773.01,1033.82 1773.01,1037.85C1773.01,1041.89 1764.11,1120.87 1689.16,1171.65C1609.31,1232.98 1512.6,1193.49 1512.6,1193.49ZM1406.21,962.162C1402.99,966.196 1398.15,965.391 1398.15,965.391L1394.12,962.966C1394.12,962.966 1419.9,892.852 1471.49,863.021C1523.09,833.204 1556.11,831.582 1556.11,831.582L1550.48,843.67L1552.9,850.933C1552.9,850.933 1566.61,859 1560.95,864.629C1555.3,870.284 1547.24,861.413 1547.24,861.413C1547.24,861.413 1547.24,851.737 1540.81,858.183C1534.35,864.629 1539.19,873.501 1539.19,873.501C1539.19,873.501 1551.28,883.98 1545.65,889.622C1539.99,895.264 1535.15,884.784 1535.15,884.784C1535.15,884.784 1531.12,875.913 1526.28,880.751C1521.44,885.589 1523.84,893.643 1523.84,893.643C1523.84,893.643 1535.14,911.372 1526.28,912.19C1517.42,913.007 1513.39,896.068 1513.39,896.068C1513.39,896.068 1504.52,904.939 1504.52,908.96C1504.52,913.007 1515.01,923.473 1506.11,929.115C1497.24,934.77 1495.65,920.257 1495.65,920.257C1495.65,920.257 1490.81,908.96 1485.97,914.615C1481.13,920.257 1484.35,929.115 1484.35,929.115C1484.35,929.115 1487.59,944.432 1480.32,944.432C1473.07,944.432 1471.45,938.79 1471.45,938.79C1471.45,938.79 1472.25,921.865 1466.61,925.081C1460.98,928.311 1460.17,937.182 1460.17,937.182C1460.17,937.182 1465.01,956.52 1454.52,956.52C1444.03,956.52 1448.87,943.628 1448.87,943.628C1448.87,943.628 1447.27,930.736 1441.62,933.149C1435.96,935.574 1435.96,942.824 1435.96,942.824L1433.55,959.75L1422.25,962.162C1422.25,962.162 1424.69,951.682 1423.06,947.649C1421.46,943.615 1419.02,942.007 1415,942.007C1410.98,942.007 1406.95,949.27 1406.95,949.27C1406.95,949.27 1409.42,958.128 1406.21,962.162Z" style="fill:white;"/>
        <path d="M1562.58,829.17C1562.58,829.17 1577.1,836.42 1573.05,841.258C1569.02,846.096 1564.18,840.454 1564.18,840.454L1559.34,834.008L1562.58,829.17Z"/>
        <path d="M2201.75,1058.07C2227.56,1104.01 2246.08,1168.5 2184.02,1209.61C2121.96,1250.73 2056.68,1204.77 2038.13,1166.89C2019.59,1129.01 1995.42,1070.96 2063.11,1020.99C2115.51,992.784 2175.95,1012.13 2201.75,1058.07Z" style="fill:rgb(190,193,200);"/>
        <path d="M2192.88,1070.16C2200.15,1082.25 2222.72,1120.95 2160.66,1166.89C2098.57,1212.83 2052.65,1175.76 2046.99,1159.64C2041.34,1143.52 2022.8,1095.96 2088.11,1060.5C2153.38,1025.03 2185.64,1058.07 2192.88,1070.16Z"/>
        <path d="M1932.55,727.604C1932.55,727.604 1980.09,769.522 1993.8,783.231C2007.51,796.94 2094.55,872.697 2022.8,944.432C1951.09,1016.17 1861.62,921.048 1852.76,911.385C1843.9,901.723 1830.99,887.21 1823.73,879.96C1816.48,872.71 1796.33,854.967 1796.33,854.967L1802.78,846.109C1802.78,846.109 1814.87,855.771 1818.12,856.588C1821.33,857.392 1829.38,856.588 1829.38,856.588C1829.38,856.588 1921.26,773.569 1926.92,767.123C1932.57,760.677 1930.95,749.393 1930.95,745.359C1930.95,741.326 1924.52,732.467 1924.52,732.467L1932.55,727.604Z" style="fill:rgb(190,193,200);"/>
        <path d="M1861.62,882.359L1959.15,792.089C1959.15,792.089 1966.4,779.989 1975.26,788.056C1984.12,796.123 2020.39,823.515 2015.55,863.021C2010.72,902.514 1971.22,945.236 1926.09,938.79C1880.95,932.345 1861.62,901.71 1861.62,901.71C1861.62,901.71 1851.94,895.251 1861.62,882.359Z"/>
        <path d="M1692.35,577.686L1727,598.645C1727,598.645 1710.89,769.522 1711.67,773.556C1712.48,777.589 1713.29,783.231 1718.13,788.873C1722.97,794.515 1725.38,794.515 1725.38,794.515L1723.79,800.157L1638.34,762.272L1643.18,751.792L1658.48,759.847C1658.48,759.847 1672.19,763.88 1673.81,750.975C1675.43,738.083 1676.23,705.036 1676.23,705.036L1620.62,675.219L1587.56,705.036C1587.56,705.036 1580.31,714.712 1585.15,720.354C1589.99,725.996 1602.88,732.455 1602.88,732.455L1599.64,742.117L1528.71,709.887L1535.17,700.212C1535.17,700.212 1548.06,712.312 1564.98,697.786C1581.91,683.273 1692.35,577.686 1692.35,577.686Z" style="fill:rgb(190,193,200);"/>
        <path d="M1680.25,619.592L1677.83,683.273L1634.32,662.314L1680.25,619.592Z"/>
        <path d="M1332.85,593.004L1351.4,595.416C1351.4,595.416 1354.64,597.841 1357.86,603.483C1361.07,609.125 1388.48,666.348 1388.48,666.348C1388.48,666.348 1399.75,680.861 1415.88,683.273C1431.99,685.698 1464.25,688.111 1464.25,688.111C1464.25,688.111 1465.87,682.469 1457.79,677.631C1449.73,672.794 1434.43,662.314 1423.95,633.301C1411.06,609.929 1400.57,592.199 1400.57,592.199C1400.57,592.199 1445.7,584.949 1449.73,551.098C1453.77,517.247 1430.94,496.327 1392.51,488.221C1350.74,479.453 1324.8,479.35 1324.8,479.35L1276.43,475.316L1272.4,484.187L1298.18,496.275C1298.18,496.275 1284.47,638.942 1282.88,642.976C1281.26,647.01 1266.74,651.847 1261.91,651.847C1257.07,651.847 1250.62,651.043 1250.62,651.043L1249.82,659.098L1351.37,672.807L1352.99,663.935L1336.86,659.098C1336.86,659.098 1323.97,659.098 1325.59,640.564C1327.22,622.004 1332.85,593.004 1332.85,593.004Z" style="fill:rgb(190,193,200);"/>
        <path d="M1335.28,578.49L1345.77,497.883C1345.77,497.883 1357.86,496.262 1369.93,499.492C1382.01,502.721 1411.85,514.809 1406.21,542.214C1400.55,569.619 1390.07,584.936 1362.69,583.315C1335.28,581.707 1335.28,578.49 1335.28,578.49Z"/>
        <path d="M1000.77,503.525C1044.26,481.062 1127.32,486.6 1148.28,537.376C1169.24,588.166 1162.79,643.767 1095.89,674.402C1029,705.036 959.672,672.794 945.159,627.659C930.645,582.524 950.8,529.322 1000.77,503.525Z" style="fill:rgb(190,193,200);"/>
        <path d="M1024.14,507.559C1047.52,501.113 1090.24,510.788 1108.77,561.565C1127.31,612.354 1116.04,655.868 1083.78,666.348C1051.54,676.827 1006.4,672.807 985.443,600.254C970.151,535.768 1000.77,514.005 1024.14,507.559Z"/>
        <path d="M656.594,648.605L744.452,601.862L747.681,609.125C747.681,609.125 736.397,613.963 733.168,620.409C729.938,626.855 727.526,630.084 727.526,630.084L797.654,761.468L850.855,731.65C850.855,731.65 863.76,722.779 864.565,716.333C865.369,709.887 870.206,681.665 870.206,681.665L876.652,683.286L884.72,730.846L743.673,810.649L739.64,800.17C739.64,800.17 760.586,791.298 754.957,775.994C749.315,760.677 692.897,661.536 692.897,661.536C692.897,661.536 688.863,651.056 680.796,651.056C672.742,651.056 664.675,655.894 664.675,655.894L656.594,648.605ZM456.704,809.819C502.643,756.617 558.271,747.746 600.98,780.806C643.702,813.853 657.411,873.488 614.676,925.886C571.967,978.283 517.961,985.534 468.779,955.703C431.725,928.298 415.59,870.271 456.704,809.819Z" style="fill:rgb(190,193,200);"/>
        <path d="M467.988,817.873C483.759,793.192 522.798,782.414 567.129,810.623C611.46,838.833 633.223,888.805 602.588,920.244C571.967,951.669 530.048,945.223 496.197,917.818C462.346,890.413 443.812,855.758 467.988,817.873Z"/>
        <path d="M317.253,1212.83C271.055,1196.62 249.551,1131.42 275.348,1071.77C297.915,1029.86 307.591,1030.67 314.037,1023.4C314.841,1017.76 314.037,1014.53 315.645,1010.51C317.253,1006.48 363.205,1029.86 363.205,1029.86L359.172,1035.51C359.172,1035.51 355.138,1036.31 347.888,1036.31C340.625,1036.31 314.037,1030.67 289.848,1075.8C265.673,1120.94 309.199,1159.63 332.571,1170.91C355.942,1182.19 417.51,1198.56 443.799,1137.86C458.767,1103.19 442.178,1079.82 442.178,1079.82L432.516,1066.13L438.158,1055.65L475.225,1090.3C475.225,1090.3 467.171,1103.19 465.55,1109.64C463.941,1116.1 455.07,1150.76 451.037,1158.01C447.029,1165.28 405.928,1245.07 317.253,1212.83Z" style="fill:rgb(190,193,200);"/>
        <path d="M1288.11,1537.27L1330.84,1537.27L1330.84,1852.42L1288.11,1852.42L1288.11,1537.27ZM1379.61,1703.69L1410.23,1671.45C1410.23,1671.45 1440.05,1698.86 1469.07,1744.01C1498.07,1789.14 1536.79,1850.4 1536.79,1850.4L1473.91,1850.4C1473.91,1850.4 1476.32,1824.61 1446.51,1788.34C1419.92,1748.03 1379.61,1703.69 1379.61,1703.69Z" style="fill:rgb(190,193,200);"/>
    </g>
</svg>
