<?xml version="1.0" encoding="utf-8"?>
<!-- Generator: Adobe Illustrator 22.0.1, SVG Export Plug-In . SVG Version: 6.00 Build 0)  -->
<svg version="1.1" id="Layer_1" xmlns="http://www.w3.org/2000/svg" xmlns:xlink="http://www.w3.org/1999/xlink" x="0px" y="0px"
	 width="720px" height="720px" viewBox="0 0 720 720" style="enable-background:new 0 0 720 720;" xml:space="preserve">
<style type="text/css">
	.st0{fill:#FFFFFF;}
	.st1{fill:#C4CDD3;}
</style>
<g>
	<path class="st0" d="M590.9768677,487.5110779l0.0297241-50.7976379l-32.0110474-33.1072083
		c-4.6359253-5.2325745-11.1051025-7.9217834-17.760498-7.3682861c-6.8013916,0.5561829-13.086853,4.3955688-16.753479,10.2708435
		c-1.7225952,2.4730835-16.9370117,21.599884-32.7373962,41.2827454c0-14.6473999,0-58.0361938,0-66.4710693
		c1.9628906-1.9628906,3.9825439-3.9931946,3.9825439-3.9931946c2.8592224-2.4894104,9.3581848-10.5219421,9.3581848-19.9097595
		c0-2.2490845-0.3861389-4.5657043-1.2663574-6.9119568c-1.8629456-4.9194031-6.2720642-10.4813843-16.0702209-12.7844543
		c2.8727722-11.1212769,4.0256348-21.8726501,4.1390076-30.1642456c0.0135498-0.7830505,0.0297546-1.5498962,0.0297546-2.3328247
		c0-22.1858215-5.1327515-40.8859558-15.2036743-55.6333008c-12.0311584-17.5363922-21.3191528-23.4224243-34.1737671-31.587204
		l-3.3263245-2.1032715c-14.9770203-9.5579681-93.5223389-50.8408356-96.8649902-52.6066132
		c-0.2835388-0.1430359-30.1210327-14.9173584-30.1210327-14.9173584
		c-19.6964111-9.9684296-21.1031494-16.9505768-21.1031494-20.7332306c0-0.2429886,0.0135498-0.4563293,0.0269775-0.6696625
		c0.4429016-2.2895126,5.8023071-10.5676727,17.0505371-10.5676727c11.5342712,0,19.6262207,0.3698044,34.8135376,5.4593582
		c24.0461121,8.0621567,24.7292175,17.8631058,24.7454529,21.4891739
		c-0.0701904,0.8802185-0.7965088,11.0348816-0.7965088,11.0348816l50.0145874,34.1736603l74.9597778-96.2491684
		L431.0727539,51.597805l-8.0487366,8.0783768c-2.7161865,2.6999702-4.4091187,4.2363129-5.4026184,4.99226
		c-1.1826172-0.1997833-4.3362427-0.7397346-4.3362427-0.7397346l-13.4270325-5.0922127
		C378.7279968,50.3072357,343.3581543,36,311.1634827,36c-56.2758636,0-85.8271942,26.7515259-111.2611694,54.1267319
		c-16.7749939,17.8199158-32.9371796,53.1869736-35.2564545,77.1656876
		c-0.7532959,7.6652374-1.1151123,14.7769928-1.1151123,21.4459686c0,24.0353394,4.9194183,42.43573,15.6356812,60.3690186
		c13.4594421,22.4423676,34.7569427,40.8995209,61.6003113,53.3572235
		c25.3259125,11.7476501,61.7918549,28.1149597,66.1442108,29.8942871c1.4931335,0.5967102,3.4262695,1.5065613,5.4891357,2.5163879
		c-8.361908,6.0587158-13.281189,9.6145935-17.2501831,12.5144958c-22.5693054-5.1489868-50.9568939-1.1934204-57.5530243,0.3697815
		c-26.8135986,6.3423767-51.4024353,18.4301758-69.2493286,34.0172119
		c-18.1817322,15.9003296-31.8058624,34.1575623-36.4282074,48.8643799
		c-5.1570663,16.3429871-3.4992371,27.9583435,4.9274139,34.5005188
		c12.3929749,9.6551208,28.4065704-0.2267761,33.6391602-3.4992371
		c10.7945557-6.8255615,30.6556549-19.3102722,55.6764984-23.0066528
		c21.7727051-3.2427063,50.9676514-0.272644,64.3812256,8.4915161c0,7.9325562,0,17.290741,0,23.7193604
		c-3.229126,2.959198-6.6716309,6.1020508-6.6716309,6.1020508c-3.3830566,3.3857422-5.1759338,8.0054016-5.1759338,12.7978821
		c0,2.2330017,0.3834534,4.5090637,1.1933899,6.6987305c2.2761841,6.0992737,7.3952637,8.6750793,7.3952637,8.6750793
		c43.2889709,26.3654175,43.2754211,26.3654175,72.4003296,44.12854c-0.413147,0.1566162-1.2798157,0.1835938-1.6065369,0.3267212
		c-3.8394165,1.6929321-12.7412415,7.265686-12.7412415,22.8257446v63.3551636l37.6566772,35.9801025
		c8.3349304,8.3619385,16.4402771,9.7280884,21.7457275,9.3716431c6.5987854-0.3969116,12.571106-3.6125488,16.7966309-9.0584717
		c0,0,25.0721436-32.1676636,40.599762-52.0908203c11.5073242,17.8036499,29.6511841,45.8485718,29.6511841,45.8485718
		c-0.1970215-0.3132935,0.4266663,0.9800415,0.4266663,0.9800415c2.1032715,4.5224609,6.4988403,13.9076538,16.7668762,16.5670776
		c4.5522766,1.1826172,11.7747498,1.322998,20.1527405-4.7653809c11.2616577-8.1890869,37.4434814-28.6118164,41.9363403-33.1072998
		l0.8261108-0.8397217c3.0995483-3.0429077,7.8218384-7.7057495,7.8218384-15.3710327v-60.4823608
		c0-6.4989624-3.4856567-14.7203979-11.4910889-17.9360962c-5.8319702-2.3462524-12.5171509-2.3462524-20.5090942,4.1525879
		c-3.5423584,2.9024048-9.6254883,7.2952881-18.489563,13.9967041c-5.1326294-8.1917725-7.8624268-12.571106-11.7476807-18.7594604
		c7.6086426-9.5984497,25.7255249-32.4241943,35.8369751-45.1924438c1.3067627,1.0368347,3.9527588,3.1131287,3.9527588,3.1131287
		l0.4429321,0.296936c10.6487427,7.0955505,18.7703247,4.4657288,22.6555786,2.2625427
		C590.9472046,504.7478333,591.1604004,491.4368896,590.9768677,487.5110779z"/>
	<path class="st1" d="M580.0283813,488.4641418v-46.9446716l-29.2381592-30.2777405
		c-2.3598633-2.6594543-5.4053955-3.9852295-8.6156616-3.7124634c-3.3155518,0.2699585-6.5150757,2.2598572-8.3349609,5.162384
		c-1.5497437,2.4596558-24.1621399,30.7177429-40.0623474,50.5141296c-4.1363525-3.302124-9.9980774-5.6753845-13.1677856-6.7257385
		c0-3.8960266,0-77.1953125,0-79.3687744c1.052887-1.0530396,7.7650757-7.8651733,7.7650757-7.8651733
		c1.0935669-0.9638367,5.5728455-6.1424561,5.5728455-11.5585938c0-1.0394897-0.1431274-2.0762939-0.5264893-3.0995483
		c-1.7064819-4.5062866-6.9390869-6.7823792-15.5574036-6.7823792c-0.1430359,0-2.8457947,0.2402039-5.4593506,0.4967651
		c6.3422546-14.3774414,8.1890869-29.8348694,8.3483582-40.7860107c0.0269775-0.7263184,0.0431824-1.4364014,0.0431824-2.1626892
		c0-19.9529419-4.4793091-36.5903625-13.327179-49.49086c-10.737793-15.6734314-18.346405-20.5226593-30.990387-28.5416107
		l-3.3696289-2.1464844c-14.6177368-9.3149719-92.8930969-50.4573517-96.2195129-52.1934814
		c-0.0701904-0.0431976-29.9348145-14.8337402-29.9348145-14.8337402
		c-23.5358276-11.9177856-27.2914734-22.2424622-27.2914734-30.8743362c0-0.3969116,0-0.7830505,0.0297546-1.1664124
		c0.2402039-7.1117477,10.4246521-20.9626541,28.1445923-20.9626541c12.3146973,0,21.6161194,0.4265594,38.3695679,6.029068
		c21.7727051,7.3115387,32.3512573,17.8901062,32.3512573,32.3674774c-0.0134277,0.0134277-0.369812,5.1488495-0.369812,5.1488495
		l36.2797241,24.78862l61.3922729-78.8154068l-43.5480347-29.1247711l-1.6767273,1.6631622
		c-9.3581543,9.371727-9.7307434,9.2853241-19.7422485,7.2954407c-2.6163635-0.5265121-8.2485352-2.8161392-15.4008179-5.7024689
		c-20.4199219-8.248394-54.6072693-22.0696526-84.7120972-22.0696526c-51.9370422,0-78.5318756,23.9759254-103.3474884,50.684124
		c-15.1659241,16.1271057-30.318161,49.2343063-32.4080048,70.8369827
		c-0.6912079,7.2386932-1.0691223,13.9642944-1.0691223,20.2363586c0,22.0562286,4.4387665,38.8232269,14.1074524,54.9664154
		c12.3362274,20.5766449,31.9975433,37.5568695,56.8697815,49.1073761
		c26.465332,12.2714844,61.8918152,28.1420593,65.7744141,29.7376709
		c7.2522583,2.9429626,18.246582,8.9316406,21.1463623,12.0311584
		c-3.7962036,2.7458496-32.7940369,23.7788086-34.6435547,25.1153564
		c-19.0700684-6.188446-49.0641632-2.7323914-57.5692291-0.7128601
		c-25.1422119,5.9454651-48.0948792,17.1800232-64.6349792,31.6249695
		c-16.5185699,14.4368286-29.2462616,31.2740173-33.2369232,43.9450684
		c-3.6125183,11.518219-3.2291565,19.0834961,1.1933899,22.5125427c4.2606354,3.3128967,11.1644897,1.9629211,21.0923767-4.1823425
		c10.6001129-6.6959534,32.6104584-20.522522,60.0126648-24.6022644
		c20.2795563-3.0293579,40.7023926-0.6831055,55.9896851,3.1130981c0,0,11.8043823,3.6422729,21.1490173,9.927887
		c0,2.8997803,0,32.8074646,0,35.0674438c-1.6227417,1.4526062-9.9252319,9.0584412-9.9252319,9.0584412
		c-1.3796387,1.3662109-1.9493713,3.2129211-1.9493713,4.9786987c0,1.023407,0.1997986,2.0196533,0.5265198,2.8701172
		c0.7532959,2.0493164,2.7593994,3.0887756,2.7593994,3.0887756l103.2016602,62.9016724
		c0,0,24.5321045-18.7163696,28.7980652-21.9725342c1.663269,2.7999268,3.7961731,6.3422852,4.965271,8.2890625
		c-2.2328796,2.7458496-28.6711121,35.053894-31.9273682,39.0228882
		c-3.7258911-3.2993164-23.065918-20.5496216-23.065918-20.5496216c-5.7456665-5.2892456-10.2248535-4.5062866-12.374115-3.5693359
		c-3.8960266,1.7090454-6.1289063,6.3449097-6.1289063,12.7142944v58.7490845l34.4734192,32.9506226
		c5.4593506,5.4485474,10.224823,6.3692017,13.281189,6.1720581c3.399292-0.2131958,6.5123901-1.9196777,8.7884521-4.819458
		c0,0,39.8357239-51.1539917,50.2305908-64.4811401c3.9231262,6.0588379,38.1697693,59.0325928,38.1697693,59.0325928
		l1.1528625,2.3058472c1.7199097,3.6665649,4.2957153,9.1852417,9.541748,10.5515747
		c3.3156738,0.8504028,6.968689-0.1594238,10.907959-3.0159302c11.2050171-8.1755981,37.0169067-28.3850708,40.6861572-32.067749
		l0.8504639-0.8424683c2.5325928-2.5028687,4.5386963-4.4927368,4.5386963-7.5518799v-60.5957642
		c0-2.859375-1.6091919-6.4558105-4.7357178-7.7788086c-2.0898438-0.8963013-5.5025635-1.0934448-9.784729,3.0293579
		c0.1997681-0.1699829-20.789978,15.6870117-27.9179688,21.0761719
		c-2.7565918-4.4091187-20.5198669-32.7211914-22.3531494-35.6505737
		c2.3300476-2.9025269,44.3986206-55.9492493,47.6278076-60.0018921c3.1859131,2.5190735,12.1741943,9.5714111,12.1741943,9.5714111
		c4.5792236,3.0429077,8.3052368,3.6665955,11.2913818,1.9764404
		C580.3442993,498.5593872,580.0877686,489.4847412,580.0283813,488.4641418z M572.206543,496.5667419
		c-0.9099121,0.5102844-2.8295898-0.0998535-5.0922241-1.6226196c0-0.0135803-16.5076904-12.9708252-16.5076904-12.9708252
		l-53.7028503,67.677887l27.834198,44.3852539l33.1775513-25.0722046c2.0628052-1.9763184,3.3155518-2.3328247,3.8393555-2.1194458
		c0.6831055,0.296936,1.2366333,1.6226196,1.2366333,2.5028076v60.5959473c0,0.6695557-1.3203735,1.9655762-2.8297119,3.4694824
		l-0.8963013,0.8828735c-3.2130737,3.2130737-28.2581177,22.9094849-40.0166626,31.454834
		c-2.4758301,1.7928467-4.5223389,2.5056152-6.1018677,2.1060181c-2.6028442-0.6831055-4.425354-4.5791016-5.745575-7.4249268
		l-1.5363464-2.9834595l-42.5491028-65.8311768l-55.2228394,70.8773804
		c-0.880249,1.1096802-2.3733826,2.4760132-4.6062622,2.6027832c-2.6729736,0.170166-5.7321167-1.3931274-8.8452148-4.4926758
		c0,0-31.0876465-29.7243042-32.8074646-31.3415527c0-2.3463135,0-56.305542,0-56.305542
		c0-4.6224365,1.4066162-6.8823242,2.6999817-7.4654541c1.4498291-0.6264648,3.7826538,0.3401489,6.2153015,2.572998
		c0.0432129,0.0432129,27.5615845,24.5754395,27.5615845,24.5754395l38.2992554-46.788208l-10.3678894-17.2664185
		c0,0-27.958374,21.3461304-30.7475281,23.4952393c-3.256134-1.9763184-100.0480347-60.9683533-100.2019348-61.0655212
		c-0.0999756-0.2295532-0.1997986-0.513092-0.1997986-0.853241c0-0.3861389,0.099823-0.7532959,0.2565308-0.9260864
		l11.5775146-10.5515747l0.0431824-1.2933655V437.84198l-1.3365479-0.8396912
		c-7.8082886-5.0057983-14.1208801-8.6750793-25.3851929-11.5208435
		c-18.9998779-4.8059082-41.3989258-5.6457214-56.9995117-3.156311c-28.5578461,4.5521545-51.31604,18.5273438-62.223999,25.4258728
		c-10.5029297,6.4988098-13.7807159,5.0920715-14.5421143,4.5089417c-1.5848694-1.2528076-2.3462524-6.2450867,0.7964935-16.2565918
		c3.6341705-11.5451965,16.0056-27.7721252,31.5062408-41.3422852
		c15.8623352-13.8508911,37.9347687-24.6320496,62.1968842-30.3613586
		c9.5283051-2.2598572,39.1633759-5.2055969,55.9168243,0.8964233l1.4498291,0.5103149l1.2095947-0.8693542l39.0364685-28.3418274
		v-1.4499512c-0.4535522-6.5852051-19.1401367-15.2440796-25.7254944-18.0898743
		c-3.7124634-1.5929565-39.6763306-17.6201172-65.517868-29.6216431
		c-23.8193359-11.0509644-42.6302032-27.2616882-54.361618-46.8447113
		c-8.5616913-14.3207855-15.9839478-32.8939819-12.2362823-71.7036591
		c1.9493561-20.193161,16.6669312-52.3500671,30.8743439-67.4511261
		c23.9489288-25.7551346,49.5178223-48.8643799,99.1517029-48.8643799c28.9816284,0,62.5290527,13.5539474,82.5818481,21.645874
		c7.6948853,3.1291962,13.2839661,5.3756256,16.440155,6.0019684c10.9916687,2.2032242,13.9076538,1.8063126,23.1820984-7.2251358
		c3.2130432,2.1464767,30.304718,20.2796783,34.557251,23.1092529c-3.4398193,4.4225464-51.267395,65.814949-54.2806396,69.7136459
		c-3.7124634-2.532608-26.7947388-18.3032227-29.1112366-19.8961945c0.0701904-1.0098267,0.1430359-2.0762787,0.1430359-2.0762787
		c0-17.2097855-12.203949-29.9348145-36.2634888-37.9996414c-17.5337219-5.8860397-27.7181702-6.342247-40.1894226-6.342247
		c-21.6295471,0-33.5635376,17.2664108-33.874054,26.4949875c-0.5696106,14.917366,8.8452148,26.4517899,30.4207764,37.3867111
		c0.0432129,0,29.9078369,14.8041077,29.9078369,14.8041077c0.7532654,0.3967896,81.3317871,42.7191315,95.7226563,51.9207306
		l3.3994141,2.1600189c12.4037476,7.8920135,19.2562866,12.2147369,29.354187,26.9350891
		c8.4320984,12.3577881,12.5846558,28.6144714,12.2579346,48.3108826
		c-0.1701355,11.5046692-2.003418,28.2581177-9.6254883,42.848877l-2.4596252,4.6790771l15.2008972-1.4229431
		c5.4594727,0.0297546,9.171936,1.1366272,9.8982239,3.0860901c0.9557495,2.5326233-2.2464294,7.265686-3.4398193,8.3187256
		l-9.927887,10.1114502l0.1997681,0.9233093v84.7445068l2.0628662,0.6264648
		c4.5926819,1.3364563,12.6845093,4.6061401,14.9039307,7.6652527l2.2032471,3.0293579l2.3462524-2.9159546
		c4.0986023-5.0760193,39.992157-49.6879883,42.3088074-53.3598938c0.880188-1.3931885,2.4299927-2.3598328,3.9555664-2.5028687
		c1.3931885-0.0999451,2.6864014,0.4994202,3.8528442,1.8063354c0,0,23.7787476,24.6454468,27.8045044,28.7844849
		c0,2.2032166,0,44.7685547,0,44.7685547c0,0.2132263,0.0134277,0.4400024,0.0134277,0.6831055
		C574.3259888,492.0875549,573.6428833,495.7568054,572.206543,496.5667419z"/>
	<path d="M569.6361694,489.5009766v-43.0458679l-26.9243164-24.2054749l-74.5602417,92.5664673l-10.4678345-16.7075806
		c9.071991-6.7850342,20.7926331-15.4870911,22.1022034-16.1431885c2.1329346-1.0800171,7.508667-4.2957458,10.2086487-4.2957458
		c2.4326477,0-3.7799988-10.764801-21.5297241-10.764801V371.651886l10.2248535-11.3048401
		c0,0-12.4443054,1.9628906-18.3166504,0.1701355c-1.2393799-0.3834839-3.3156738-1.3797607-5.8752747-2.7001038
		c3.3426514-5.3323975,6.3450317-11.3776855,8.5913391-18.4300232c12.203949-38.596344,4.2093201-74.2200623-24.7588501-96.1791229
		c-20.3227539-15.4006805-103.8442383-57.6662598-103.8442383-57.6662598s-50.5276794-24.7589874-55.9734802-30.2075653
		c-3.8961487-3.8960419-11.8179321-9.9548798-11.8179321-29.0545883c0-11.3912659,12.671051-23.948822,18.1304016-26.5219727
		c8.7615051-4.1525726,11.6181641-6.1154785,29.324707-6.3718948c10.0250549-0.1404953,19.3426819,2.2625198,20.5927124,2.4028931
		c11.0214539,1.1664124,37.1168823,9.7713013,50.5978394,27.988121c5.1326294,5.1488571,6.1586914,20.2499161,6.1586914,20.2499161
		l21.0031738,13.4541168l45.7512817-59.7319183l-24.7750549-16.680603
		c-6.995697,7.5384293-20.4335938,8.0621643-25.8118896,5.3891754c-5.3891602-2.6999664-51.5805664-19.526268-58.1361389-21.6161041
		c-12.374115-3.9527893-39.2794495-6.9119644-53.8000183-4.7654915
		c-14.5339966,2.1626854-38.3831177,6.571804-57.0561371,26.3815956
		c-21.7727051,23.1228027-22.0562286,41.6959991-22.0562286,51.6508789c0,15.6140137,4.0391846,36.2499542,21.5161591,53.7270355
		c25.2151642,25.1989746,63.4983368,40.9857941,72.1167755,45.7486115
		c15.31427,8.4617462,63.5253296,33.6904755,70.4804993,37.7430878
		c29.621521,17.2233276,40.9129333,35.5265503,37.6998901,58.6626892c-0.1701355,1.1367493-0.5265198,2.2032166-0.7829285,3.2858887
		c-12.9708252-7.6220398-31.2012024-19.1131287-38.5261536-26.4220276c0,0-4.4226685,4.7060852-7.265686,7.5220947
		l-21.473053,16.0839233c2.5325928-10.4382019,2.8295593-28.2850952,2.3894348-30.0644226
		c-0.5561523-2.1600342-2.1598816-19.3832397-17.2204285-30.1345825
		c-10.2249451-7.3088989-33.0938721-20.9897766-52.7335205-30.6745605
		c-8.4347534-4.1661224-35.8666077-20.7494354-48.9777832-31.670929c0,0-22.5908356-21.0598297-26.0900879-33.9874268
		c-6.7418213-14.8041077-7.011795-49.7742615-3.5045624-53.2734985c0,0-8.6047668,9.6848907-14.5258942,29.0681305
		c-2.8863373,9.4580078-4.8411255,21.7861328-4.8411255,30.1344757c0,13.9806366,2.4111176,38.4695129,17.7713928,59.1891785
		c6.7527008,9.1314087,17.3554688,19.5128479,28.5631561,26.9350891
		c13.7240906,9.0450134,27.5317841,14.3640137,28.457901,15.0308838
		c3.7691956,2.689209,39.2929688,17.6767578,42.5221252,19.2994995c3.2130432,1.6199646,19.4966125,9.1853638,22.9526672,11.0348816
		c12.2713623,6.555603,18.5866089,10.764801,22.45578,21.205658l-36.8224487,27.5749817
		c0,0,1.6199646,2.9430847,1.6199646,7.5222168c0,0,0,1.2933655,0,3.4830322
		c-4.962616-1.6335144-10.0115051-3.0726929-15.0605164-3.9393616c-24.2054749-4.1228027-38.936615-3.8690491-58.1065063,0.8666687
		c-21.2624054,5.2488098-43.5885925,13.8240662-64.5729218,34.8164673
		c-23.6978302,23.6896362-23.4062042,39.576416-23.4062042,39.576416l23.6654205-13.9642944
		c19.8016815-11.1375122,45.8565521-17.7767334,64.3163605-17.7767334c43.9856262,0,66.8112183,12.6980591,73.1670227,19.7666016
		c0,22.0724487,0,41.7229919,0,42.6490784c0,8.4779358-2.5433655,9.541748-4.4360962,11.1643677
		c-0.7261658,0.6236877-1.3364258,0.6668701-3.8960266,2.41922c0,0,3.2427063,1.2068481,4.0391846,2.0195313
		c2.1464844,1.6065369,85.9244995,52.2070313,85.9244995,52.2070313l32.4376526-23.7653809l16.0162659,25.5122681
		l-44.5120239,55.2796021l-30.6745605-27.9880981v52.2070313l34.9838257,32.2973022l61.7486572-77.5356445l50.6976929,80.7485352
		l40.9129639-32.8075562v-51.6669922l-32.821167,24.7454224l-33.2637939-53.0440674l60.1558228-75.5563354L569.6361694,489.5009766z
		 M360.5652771,373.2718506h0.002655l19.1104736-13.9940491c5.1920471,4.3227234,11.3075256,8.2485046,17.3933411,11.7476196
		c-0.3969116,0.3537292-0.7262878,0.6236877-0.7262878,0.6236877s-22.0292358,18.85672-35.7801819,20.789978V373.2718506z
		 M426.5826721,448.5016174L406.03302,415.777771l-31.2874451,22.2425842v39.8193665l17.3069458-11.4776611l12.9706726,20.6630554
		l-10.9916687,8.931488l-33.4635925-20.4334717v-50.7003479c14.0210571-2.4867554,48.2218323-18.7838745,65.9147949-36.4904175
		C426.7095032,391.6722412,426.6393127,425.5489502,426.5826721,448.5016174z"/>
</g>
</svg>
