<?xml version="1.0" encoding="utf-8"?>
<!-- Generator: Adobe Illustrator 22.0.1, SVG Export Plug-In . SVG Version: 6.00 Build 0)  -->
<svg version="1.1" id="Layer_1" xmlns="http://www.w3.org/2000/svg" xmlns:xlink="http://www.w3.org/1999/xlink" x="0px" y="0px"
	 width="720px" height="720px" viewBox="0 0 720 720" style="enable-background:new 0 0 720 720;" xml:space="preserve">
<style type="text/css">
	.st0{fill:#0C2C56;}
</style>
<path class="st0" d="M553.9470215,469.8224792V211.678772c1.6075439-22.0393372,7.1137695-29.1223755,23.1199951-44.078537
	c-35.7061768-13.3761292-76.6448669-55.0776901-98.6705322-99.159584
	c-110.1754761,56.6680603-232.9647827,56.6680603-325.7870178-25.1819878
	c-4.6106873-4.0658112-9.5266724-7.1299896-12.4037323-7.2544708l0.0010681-0.0002708
	c-2.8765106-0.1243477-3.7108612,2.6938171-0.1733093,10.3940392
	c26.1987762,56.9519005,80.625885,92.3842621,141.8254852,108.1134796
	c-35.2205505,30.5382233-55.9839325,48.5314789-60.6045532,87.1891174
	c-30.1312408,2.2366638-62.3591156,24.2828369-72.5715332,44.7418823
	c-11.6283875,23.2944946,5.5968933,23.7596741,17.2870026,15.7360535
	c14.9577789-10.2330627,36.1643677-14.1662292,54.2980652-13.3796082l-0.0343475,29.2455139
	c-30.117569,2.2436523-59.7769012,24.2828369-69.979126,44.7420044
	c-11.6283875,23.2773132,5.5974426,23.7561951,17.2805634,15.7530823
	c14.9711914-10.2467346,34.6013641-15.7530823,52.7312927-14.9733276v88.1639404
	c0,34.6115417-17.3022919,51.9173279-27.5627136,61.3911743c-10.1987305,9.4394531-4.5726013,19.2894287,10.2604218,13.3383789
	c31.1094055-12.4492188,63.4295654-41.9306641,70.7928162-86.8710632
	c11.9058228,1.5049438,26.1880493,1.6416321,36.2330627,0.0342102v12.1072998
	c0,34.6115417-17.315979,51.9173279-27.5423279,61.3911743c-0.1572266,0.1366577-0.2599792,0.2734985-0.4206848,0.444519
	c-33.1067505,2.8728638-62.7250366,14.0567627-86.3099518,32.3885498
	c-53.6823578,41.8964844-61.9387207,120.6276245-53.6823578,138.0360107
	c0.5062561,1.1286621,30.2407074-97.3023682,118.5447998-107.7679443
	c51.1581116-6.0192871,113.9617615,9.2686157,167.4662476,55.7138062
	c33.0450745-55.0982056,88.9640503-86.5632324,154.2541504-97.6786499
	C560.2398071,509.1881104,554.7679443,498.1752625,553.9470215,469.8224792z M317.4615784,161.4983063
	c15.1235657,1.96315,30.377533,2.8011169,45.5147705,2.534317c-16.5945435,14.4807739-30.770813,27.9356384-40.2993774,43.5792694
	c-12.6167603-4.186264-24.1904297-6.6590118-35.442688-7.2815704
	C294.5090027,185.7093811,304.9199524,172.0630951,317.4615784,161.4983063z M310.0124512,416.2631226
	c-8.8785095,1.9152527-22.521698,2.1546936-34.6834412,0.9918213V246.3070984c0-7.517395,1.190094-15.4829407,3.3481445-23.5476227
	c3.1088562-0.3522491,6.2214661-0.5403137,9.302948-0.5608368c9.2546387-0.0580902,18.2597961,1.374939,26.2320251,4.2238159
	c-2.4998474,7.9996338-4.093689,16.5705566-4.0456848,26.2973785L310.0124512,416.2631226z M483.1185303,498.1748657
	c-22.0428467,6.2588806-48.7848816,21.9914551-72.4006348,42.4779663
	c-34.1705017-16.9296265-67.8484497-25.6851196-99.2894287-27.463562
	c28.2296448-18.9817505,53.6512146-52.4304199,53.6512146-96.8920898v-28.9341736
	c15.89328-5.7115784,36.5713501-8.6870728,57.6942444-8.8581238c21.1260986-0.2050781,42.6897888,2.3599548,60.3446045,7.6952515
	V498.1748657z M483.1185303,359.4309998c-35.3163452-10.6468811-86.2557983-10.2569275-118.0388489,1.135376v-77.4109192
	c31.7830505,11.3855896,82.7225037,11.7754211,118.0388489,1.1286621V359.4309998z M483.1185303,257.5250244
	c-35.3163452,10.653717-86.2557983,10.2637939-118.0388489-1.135498v-10.082428
	c0-27.3849945,2.2948914-62.0786285,24.8163147-83.960495c21.5092163-2.2915192,42.413208-6.7991943,61.7367249-13.6190491
	l31.4858093,31.461792V257.5250244z"/>
</svg>
