<?xml version="1.0" encoding="UTF-8" standalone="no"?>
<!DOCTYPE svg PUBLIC "-//W3C//DTD SVG 1.1//EN" "http://www.w3.org/Graphics/SVG/1.1/DTD/svg11.dtd">
<svg width="100%" height="100%" viewBox="0 0 2550 3300" version="1.1" xmlns="http://www.w3.org/2000/svg" xmlns:xlink="http://www.w3.org/1999/xlink" xml:space="preserve" xmlns:serif="http://www.serif.com/" style="fill-rule:evenodd;clip-rule:evenodd;stroke-linejoin:round;stroke-miterlimit:2;">
    <g id="Layer-1" serif:id="Layer 1" transform="matrix(8.75934,0,0,8.75934,-1410.12,-1818.26)">
        <g transform="matrix(0,1,1,0,307.039,257.593)">
            <path d="M138.309,-138.314C61.924,-138.314 0,-76.39 0,-0.001C0,76.383 61.924,138.309 138.309,138.309C214.698,138.309 276.623,76.383 276.623,-0.001C276.623,-76.39 214.698,-138.314 138.309,-138.314" style="fill:rgb(40,65,124);fill-rule:nonzero;"/>
        </g>
        <g transform="matrix(1,0,0,1,307.037,516.527)">
            <path d="M0,-241.248C-66.514,-241.248 -120.627,-187.137 -120.627,-120.625C-120.627,-54.109 -66.514,0.004 0,0.004C66.512,0.004 120.625,-54.109 120.625,-120.625C120.625,-187.137 66.512,-241.248 0,-241.248M0,8.586C-34.516,8.586 -66.961,-4.853 -91.367,-29.256C-115.771,-53.664 -129.213,-86.111 -129.213,-120.625C-129.213,-155.137 -115.771,-187.584 -91.367,-211.99C-66.961,-236.394 -34.516,-249.834 0,-249.834C34.512,-249.834 66.961,-236.394 91.365,-211.99C115.77,-187.584 129.209,-155.137 129.209,-120.625C129.209,-86.111 115.77,-53.664 91.365,-29.256C66.961,-4.853 34.512,8.586 0,8.586" style="fill:rgb(244,121,32);fill-rule:nonzero;"/>
        </g>
        <g transform="matrix(1,0,0,1,307.037,497.069)">
            <path d="M0,-225.809L28.023,-139.559L118.713,-139.559L45.342,-86.254L73.367,0L0,-53.307L-73.371,0L-45.346,-86.254L-118.717,-139.559L-28.027,-139.559L0,-225.809Z" style="fill:rgb(244,121,32);fill-rule:nonzero;"/>
        </g>
        <g transform="matrix(1,0,0,1,245.35,291.259)">
            <path d="M0,189.852L61.688,145.034L123.371,189.852L99.809,117.332L161.494,72.516L85.248,72.516L61.688,0L61.688,104.643L0,189.852Z" style="fill:rgb(244,121,32);fill-rule:nonzero;"/>
        </g>
        <g transform="matrix(1,0,0,1,245.35,291.259)">
            <path d="M0,189.852L23.563,117.332L-38.125,72.516L38.123,72.516L61.688,0L61.688,104.643L0,189.852Z" style="fill:rgb(250,166,25);fill-rule:nonzero;"/>
        </g>
        <g transform="matrix(1,0,0,1,188.32,277.526)">
            <path d="M0,79.984L18.904,86.25L95.152,86.25L118.717,13.734L118.717,-6.266L90.689,79.984L0,79.984Z" style="fill:rgb(250,166,25);fill-rule:nonzero;"/>
        </g>
        <g transform="matrix(-0.580143,0.814514,0.814514,0.580143,405.737,327.344)">
            <path d="M65.573,-40.067L73.266,-40.067L29.032,22.037L12.96,33.801L65.573,-40.067Z" style="fill:rgb(250,166,25);fill-rule:nonzero;"/>
        </g>
        <g transform="matrix(0.953867,-0.300229,-0.300229,-0.953867,248.614,409.651)">
            <path d="M12.123,-5.042L19.814,-5.042L-24.433,-67.136L-40.503,-78.897L12.123,-5.042Z" style="fill:rgb(250,166,25);fill-rule:nonzero;"/>
        </g>
        <g transform="matrix(1,0,0,1,374.865,445.6)">
            <path d="M0,-88.426L0,-109.043L-59.115,-109.043L-59.115,-88.426L-42.873,-82.627L-42.873,-57.473L-93.496,-57.473L-93.496,-82.627L-77.252,-88.426L-77.252,-109.043L-136.367,-109.043L-136.367,-88.426L-120.123,-82.627L-120.123,-5.961L-136.119,-0.002L-136.119,20.617L-77.5,20.617L-77.5,-0.002L-93.496,-5.961L-93.496,-31.049L-42.873,-31.049L-42.873,-5.961L-58.865,-0.002L-58.865,20.617L-0.248,20.617L-0.248,-0.002L-16.244,-5.961L-16.244,-82.627L0,-88.426Z" style="fill:white;fill-rule:nonzero;"/>
        </g>
        <g transform="matrix(1,0,0,1,243.963,450.817)">
            <path d="M0,10.181L48.434,10.181L48.434,-1.491L53.402,-5.219L53.402,15.4L-5.217,15.4L0,10.181Z" style="fill:rgb(209,211,212);fill-rule:nonzero;"/>
        </g>
        <g transform="matrix(1,0,0,1,331.894,438.149)">
            <path d="M0,-23.598L-50.525,-23.598L-50.525,1.49L-55.49,5.215L-55.49,-28.813L5.215,-28.813L0,-23.598Z" style="fill:rgb(209,211,212);fill-rule:nonzero;"/>
        </g>
        <g transform="matrix(1,0,0,1,292.894,388.224)">
            <path d="M0,-46.701L0,-34.777L-16.641,-28.566L-16.641,4.967L-11.525,-0.097L-11.525,-25.252L4.719,-31.051L4.719,-51.668L0,-46.701Z" style="fill:rgb(209,211,212);fill-rule:nonzero;"/>
        </g>
        <g transform="matrix(0.795421,-0.606057,-0.606057,-0.795421,240.105,363.758)">
            <path d="M2.712,6.211L9.271,6.211L18.152,-8.361L12.119,-8.246L2.712,6.211Z" style="fill:rgb(209,211,212);fill-rule:nonzero;"/>
        </g>
        <g transform="matrix(1,0,0,1,321.211,450.817)">
            <path d="M0,10.181L48.438,10.181L48.438,-1.491L53.406,-5.219L53.406,15.4L-5.211,15.4L0,10.181Z" style="fill:rgb(209,211,212);fill-rule:nonzero;"/>
        </g>
        <g transform="matrix(1,0,0,1,370.147,438.646)">
            <path d="M0,-97.123L0,-85.199L-16.643,-78.988L-16.643,4.967L-11.525,0.992L-11.525,-75.674L4.719,-81.473L4.719,-102.09L0,-97.123Z" style="fill:rgb(209,211,212);fill-rule:nonzero;"/>
        </g>
        <g transform="matrix(0.795197,-0.606351,-0.606351,-0.795197,317.359,363.762)">
            <path d="M2.715,6.214L9.271,6.214L18.149,-8.364L12.114,-8.246L2.715,6.214Z" style="fill:rgb(209,211,212);fill-rule:nonzero;"/>
        </g>
    </g>
</svg>
