<?xml version="1.0" encoding="UTF-8" standalone="no"?>
<!DOCTYPE svg PUBLIC "-//W3C//DTD SVG 1.1//EN" "http://www.w3.org/Graphics/SVG/1.1/DTD/svg11.dtd">
<svg width="100%" height="100%" viewBox="0 0 129 149" version="1.1" xmlns="http://www.w3.org/2000/svg" xmlns:xlink="http://www.w3.org/1999/xlink" xml:space="preserve" xmlns:serif="http://www.serif.com/" style="fill-rule:evenodd;clip-rule:evenodd;stroke-linejoin:round;stroke-miterlimit:2;">
    <g transform="matrix(1.25,0,0,-1.25,-3.73808,761.952)">
        <g>
            <path d="M30.678,589.087L30.678,548.622L52.048,536.114L73.417,548.622L73.417,589.087L30.678,589.087Z" style="fill:rgb(17,48,160);fill-rule:nonzero;"/>
            <path d="M74.553,590.223L29.542,590.223L29.542,547.971L52.048,534.798L74.553,547.971L74.553,590.223ZM30.678,589.087L30.678,548.622L52.048,536.114L73.417,548.622L73.417,589.087L30.678,589.087Z" style="fill:white;"/>
            <path d="M31.546,608.827C30.143,608.827 29.008,607.692 29.008,606.289C29.008,604.889 30.143,603.752 31.546,603.752C32.948,603.752 34.083,604.889 34.083,606.289C34.083,607.692 32.948,608.827 31.546,608.827ZM45.348,608.827C43.946,608.827 42.81,607.692 42.81,606.289C42.81,604.889 43.946,603.752 45.348,603.752C46.75,603.752 47.885,604.889 47.885,606.289C47.885,607.692 46.75,608.827 45.348,608.827ZM58.993,608.827C57.592,608.827 56.454,607.692 56.454,606.289C56.454,604.889 57.592,603.752 58.993,603.752C60.394,603.752 61.531,604.889 61.531,606.289C61.531,607.692 60.394,608.827 58.993,608.827ZM72.615,608.827C71.215,608.827 70.078,607.692 70.078,606.289C70.078,604.889 71.215,603.752 72.615,603.752C74.018,603.752 75.153,604.889 75.153,606.289C75.153,607.692 74.018,608.827 72.615,608.827ZM30.645,602.12L30.645,590.232L73.434,590.232L73.434,602.091L71.839,602.091C71.839,598.753 69.132,596.037 65.795,596.037C62.456,596.037 59.77,598.754 59.77,602.093L58.161,602.093C58.161,598.754 55.456,596.037 52.115,596.037C48.778,596.037 46.093,598.767 46.093,602.106L44.47,602.09C44.47,598.751 41.766,596.037 38.426,596.037C35.087,596.037 32.395,598.762 32.395,602.099L30.645,602.12Z" style="fill:rgb(180,153,106);fill-rule:nonzero;"/>
            <path d="M70.719,603.162L70.719,602.091C70.719,599.371 68.514,597.157 65.795,597.157C63.075,597.157 60.89,599.373 60.89,602.093L60.89,603.162C61.946,603.804 62.651,604.965 62.651,606.289C62.651,608.311 61.012,609.947 58.993,609.947C56.974,609.947 55.334,608.311 55.334,606.289C55.334,604.988 56.016,603.845 57.041,603.196L57.041,602.093C57.041,599.372 54.838,597.157 52.115,597.157C49.396,597.157 47.213,599.386 47.213,602.106L47.213,603.143C48.286,603.78 49.005,604.951 49.005,606.289C49.005,608.311 47.369,609.947 45.348,609.947C43.327,609.947 41.69,608.311 41.69,606.289C41.69,604.99 42.368,603.848 43.391,603.199L43.35,603.199L43.35,602.09C43.35,599.369 41.148,597.157 38.426,597.157C35.705,597.157 33.515,599.38 33.515,602.099L33.515,603.206L33.513,603.206C34.53,603.855 35.203,604.994 35.203,606.289C35.203,608.311 33.567,609.947 31.546,609.947C29.524,609.947 27.888,608.311 27.888,606.289C27.888,605.017 28.538,603.896 29.525,603.24L29.525,589.112L74.554,589.112L74.554,603.188C75.587,603.834 76.273,604.982 76.273,606.289C76.273,608.311 74.637,609.947 72.615,609.947C70.597,609.947 68.958,608.311 68.958,606.289C68.958,604.965 69.664,603.804 70.719,603.162ZM30.645,602.12L30.645,590.232L73.434,590.232L73.434,602.091L71.839,602.091C71.839,598.753 69.132,596.037 65.795,596.037C62.456,596.037 59.77,598.754 59.77,602.093L58.161,602.093C58.161,598.754 55.456,596.037 52.115,596.037C48.778,596.037 46.093,598.767 46.093,602.106L44.47,602.09C44.47,598.751 41.766,596.037 38.426,596.037C35.087,596.037 32.395,598.762 32.395,602.099L30.645,602.12ZM31.546,608.827C30.143,608.827 29.008,607.692 29.008,606.289C29.008,604.889 30.143,603.752 31.546,603.752C32.948,603.752 34.083,604.889 34.083,606.289C34.083,607.692 32.948,608.827 31.546,608.827ZM45.348,608.827C43.946,608.827 42.81,607.692 42.81,606.289C42.81,604.889 43.946,603.752 45.348,603.752C46.75,603.752 47.885,604.889 47.885,606.289C47.885,607.692 46.75,608.827 45.348,608.827ZM58.993,608.827C57.592,608.827 56.454,607.692 56.454,606.289C56.454,604.889 57.592,603.752 58.993,603.752C60.394,603.752 61.531,604.889 61.531,606.289C61.531,607.692 60.394,608.827 58.993,608.827ZM72.615,608.827C71.215,608.827 70.078,607.692 70.078,606.289C70.078,604.889 71.215,603.752 72.615,603.752C74.018,603.752 75.153,604.889 75.153,606.289C75.153,607.692 74.018,608.827 72.615,608.827Z" style="fill:white;"/>
            <path d="M69.751,556.416C69.741,556.435 69.727,556.449 69.717,556.468C68.245,558.943 65.668,556.039 67.923,554.943C67.937,554.936 67.946,554.926 67.96,554.919C68.125,554.83 68.218,554.709 68.221,554.499C68.225,554.351 68.192,554.168 68.082,553.889C66.931,550.979 62.698,549.653 59.558,552.311C57.477,554.075 55.875,557.591 55.976,563.572C56.049,567.627 57.01,573.571 62.149,573.414C64.145,573.352 65.468,572.496 66.352,571.391C67.705,569.7 68.022,567.421 68.085,566.466L69.32,566.466L69.32,575.571L67.891,575.571C67.634,574.52 67.462,573.571 65.548,574.1C63.632,574.625 62.802,574.542 62.133,574.572C56.247,574.83 52.214,568.203 52.844,562.734C52.858,562.627 52.86,562.52 52.875,562.415C51.954,563.085 50.758,566.449 48.563,568.923C47.578,570.036 46.386,570.958 44.929,571.383C44.527,571.499 44.112,571.592 43.668,571.624C43.668,571.624 47.349,577.177 49.204,579.466C50.65,581.256 51.74,581.256 52.617,581.256L53.186,581.256L53.186,582.467L45.118,582.467L45.118,581.256C45.411,581.256 45.702,581.253 45.973,581.234C46.665,581.182 47.187,580.987 47.134,580.341C47.115,580.121 47.049,579.861 46.874,579.518C46.198,578.179 43.066,573.7 41.626,571.664C41.549,571.554 41.473,571.447 41.406,571.354L40.773,570.996L40.777,578.203C40.777,580.345 42.107,581.139 43.411,581.237L43.411,582.46L34.308,582.46L34.308,581.26L34.77,581.246C34.899,581.248 35.03,581.236 35.161,581.223C35.982,581.144 36.792,580.779 37.276,579.976C37.547,579.528 37.722,578.956 37.722,578.204L37.722,562.099C37.722,559.784 36.165,559.042 34.77,559.057L34.308,559.042L34.308,557.842L44.188,557.842L44.188,559.042L43.726,559.057C43.163,559.05 42.577,559.178 42.072,559.474C41.33,559.908 40.773,560.721 40.773,562.099L40.749,566.31L40.787,568.678C41.631,569.498 43.836,570.973 46.553,567.872C46.627,567.789 46.7,567.715 46.774,567.624C49.366,564.459 51.561,556.595 56.171,552.387C57.997,550.719 60.2,549.625 62.96,549.625C69.219,549.625 70.421,555.233 69.751,556.416" style="fill:white;fill-rule:nonzero;"/>
        </g>
    </g>
</svg>
