<?xml version="1.0" encoding="UTF-8" standalone="no"?>
<!DOCTYPE svg PUBLIC "-//W3C//DTD SVG 1.1//EN" "http://www.w3.org/Graphics/SVG/1.1/DTD/svg11.dtd">
<svg width="100%" height="100%" viewBox="0 0 129 149" version="1.1" xmlns="http://www.w3.org/2000/svg" xmlns:xlink="http://www.w3.org/1999/xlink" xml:space="preserve" xmlns:serif="http://www.serif.com/" style="fill-rule:evenodd;clip-rule:evenodd;stroke-linejoin:round;stroke-miterlimit:2;">
    <g transform="matrix(1.25,0,0,-1.25,-3.73808,761.952)">
        <g>
            <path d="M30.678,589.087L30.678,548.622L52.048,536.114L73.417,548.622L73.417,589.087L30.678,589.087Z" style="fill:rgb(0,70,135);fill-rule:nonzero;"/>
            <path d="M31.546,608.827C30.143,608.827 29.008,607.692 29.008,606.289C29.008,604.889 30.143,603.752 31.546,603.752C32.948,603.752 34.083,604.889 34.083,606.289C34.083,607.692 32.948,608.827 31.546,608.827ZM45.348,608.827C43.946,608.827 42.81,607.692 42.81,606.289C42.81,604.889 43.946,603.752 45.348,603.752C46.75,603.752 47.885,604.889 47.885,606.289C47.885,607.692 46.75,608.827 45.348,608.827ZM58.993,608.827C57.592,608.827 56.454,607.692 56.454,606.289C56.454,604.889 57.592,603.752 58.993,603.752C60.394,603.752 61.531,604.889 61.531,606.289C61.531,607.692 60.394,608.827 58.993,608.827ZM72.615,608.827C71.215,608.827 70.078,607.692 70.078,606.289C70.078,604.889 71.215,603.752 72.615,603.752C74.018,603.752 75.153,604.889 75.153,606.289C75.153,607.692 74.018,608.827 72.615,608.827ZM30.645,602.12L30.645,590.232L73.434,590.232L73.434,602.091L71.839,602.091C71.839,598.753 69.132,596.037 65.795,596.037C62.456,596.037 59.77,598.754 59.77,602.093L58.161,602.093C58.161,598.754 55.456,596.037 52.115,596.037C48.778,596.037 46.093,598.767 46.093,602.106L44.47,602.09C44.47,598.751 41.766,596.037 38.426,596.037C35.087,596.037 32.395,598.762 32.395,602.099L30.645,602.12L30.645,602.12Z" style="fill:rgb(192,154,91);fill-rule:nonzero;"/>
            <path d="M53.186,581.616L53.186,581.259L52.617,581.259C51.74,581.259 50.65,581.26 49.205,579.468C47.349,577.178 43.669,571.627 43.669,571.627C44.113,571.595 44.528,571.502 44.93,571.387C45.936,572.886 48.576,576.787 50.056,578.616C51.505,580.406 52.592,580.407 53.47,580.407L54.039,580.407L54.039,581.617L53.186,581.617L53.186,581.616ZM43.412,581.61L43.412,581.24C42.108,581.142 40.778,580.349 40.778,578.207L40.775,570.999L41.406,571.357C41.473,571.45 41.549,571.558 41.627,571.667L41.631,577.353C41.631,579.496 42.962,580.289 44.266,580.385L44.266,581.61L43.413,581.61L43.412,581.61ZM45.973,581.237L45.973,580.407C46.382,580.407 46.786,580.399 47.134,580.345C47.188,580.991 46.666,581.185 45.973,581.237ZM35.162,581.226L35.162,580.409L35.623,580.396C36.187,580.401 36.772,580.276 37.275,579.979C36.792,580.782 35.984,581.149 35.162,581.226L35.162,581.226ZM69.321,574.723L69.321,566.471L68.844,566.471C68.894,566.134 68.925,565.839 68.941,565.618L70.174,565.618L70.174,574.723L69.321,574.723L69.321,574.723ZM62.15,573.417C57.011,573.573 56.049,567.631 55.977,563.576C55.875,557.595 57.477,554.079 59.558,552.315C57.909,554.268 56.744,557.589 56.83,562.724C56.902,566.778 57.865,572.722 63.002,572.565C64.44,572.522 65.525,572.058 66.354,571.394C65.47,572.5 64.147,573.354 62.15,573.416L62.15,573.417ZM43.353,569.757C42.168,569.813 41.263,569.144 40.789,568.682L40.751,566.313L40.773,562.104C40.773,560.724 41.331,559.912 42.072,559.477C41.801,559.925 41.626,560.498 41.626,561.251L41.605,565.46L41.644,567.827C42.395,568.56 44.234,569.823 46.555,567.876C45.365,569.232 44.275,569.714 43.353,569.757L43.353,569.757ZM48.566,568.928C50.759,566.452 51.955,563.088 52.875,562.42C52.86,562.523 52.857,562.63 52.845,562.735C51.896,564.341 50.607,567.091 48.566,568.928L48.566,568.928ZM44.189,558.23L44.189,557.846L35.162,557.846L35.162,556.993L45.041,556.993L45.041,558.193L44.581,558.209C44.452,558.207 44.32,558.219 44.189,558.23L44.189,558.23ZM69.716,556.471C69.728,556.452 69.742,556.439 69.754,556.418C70.422,555.236 69.22,549.627 62.96,549.627C60.202,549.627 57.997,550.724 56.172,552.39C58.155,550.255 60.61,548.777 63.813,548.777C70.072,548.777 71.274,554.385 70.604,555.566C70.335,556.04 70.026,556.325 69.716,556.471L69.716,556.471ZM67.96,554.921C68.012,554.776 68.099,554.635 68.221,554.502C68.218,554.712 68.126,554.833 67.96,554.921Z" style="fill-rule:nonzero;"/>
            <path d="M69.751,556.416C69.741,556.435 69.727,556.449 69.717,556.468C68.245,558.943 65.668,556.039 67.923,554.943C67.937,554.936 67.946,554.926 67.96,554.919C68.125,554.83 68.218,554.709 68.221,554.499C68.225,554.351 68.192,554.168 68.082,553.889C66.931,550.979 62.698,549.653 59.558,552.311C57.477,554.075 55.875,557.591 55.976,563.572C56.049,567.627 57.01,573.571 62.149,573.414C64.145,573.352 65.468,572.496 66.352,571.391C67.705,569.7 68.022,567.421 68.085,566.466L69.32,566.466L69.32,575.571L67.891,575.571C67.634,574.52 67.462,573.571 65.548,574.1C63.632,574.625 62.802,574.542 62.133,574.572C56.247,574.83 52.214,568.203 52.844,562.734C52.858,562.627 52.86,562.52 52.875,562.415C51.954,563.085 50.758,566.449 48.563,568.923C47.578,570.036 46.386,570.958 44.929,571.383C44.527,571.499 44.112,571.592 43.668,571.624C43.668,571.624 47.349,577.177 49.204,579.466C50.65,581.256 51.74,581.256 52.617,581.256L53.186,581.256L53.186,582.467L45.118,582.467L45.118,581.256C45.411,581.256 45.702,581.253 45.973,581.234C46.665,581.182 47.187,580.987 47.134,580.341C47.115,580.121 47.049,579.861 46.874,579.518C46.198,578.179 43.066,573.7 41.626,571.664C41.549,571.554 41.473,571.447 41.406,571.354L40.773,570.996L40.777,578.203C40.777,580.345 42.107,581.139 43.411,581.237L43.411,582.46L34.308,582.46L34.308,581.26L34.77,581.246C34.899,581.248 35.03,581.236 35.161,581.223C35.982,581.144 36.792,580.779 37.276,579.976C37.547,579.528 37.722,578.956 37.722,578.204L37.722,562.099C37.722,559.784 36.165,559.042 34.77,559.057L34.308,559.042L34.308,557.842L44.188,557.842L44.188,559.042L43.726,559.057C43.163,559.05 42.577,559.178 42.072,559.474C41.33,559.908 40.773,560.721 40.773,562.099L40.749,566.31L40.787,568.678C41.631,569.498 43.836,570.973 46.553,567.872C46.627,567.789 46.7,567.715 46.774,567.624C49.366,564.459 51.561,556.595 56.171,552.387C57.997,550.719 60.2,549.625 62.96,549.625C69.219,549.625 70.421,555.233 69.751,556.416" style="fill:white;fill-rule:nonzero;"/>
        </g>
    </g>
</svg>
