<?xml version="1.0" encoding="utf-8"?>
<!-- Generator: Adobe Illustrator 22.0.1, SVG Export Plug-In . SVG Version: 6.00 Build 0)  -->
<svg version="1.1" id="Layer_1" xmlns="http://www.w3.org/2000/svg" xmlns:xlink="http://www.w3.org/1999/xlink" x="0px" y="0px"
	 width="720px" height="720px" viewBox="0 0 720 720" style="enable-background:new 0 0 720 720;" xml:space="preserve">
<style type="text/css">
	.st0{fill:#FFFFFF;}
	.st1{fill:#003263;}
	.st2{fill:#CD1141;}
	.st3{fill:#8F0028;}
	.st4{fill:#C4CDD3;}
</style>
<g>
	<path class="st0" d="M400.4729919,684h184.66922c-17.0477905-11.5856934-32.1245728-31.8734741-38.8449097-55.1016235
		l-51.6239624-177.1307678c-5.5809021-19.0781555,3.4938049-38.1428833,18.0036011-51.0407715
		c-20.6010132-6.3476868-38.8719177-20.6171875-44.6066895-40.3677063l-28.9332275-99.1575012
		c41.1156006-13.7645874,67.8941956-38.1131744,67.8941956-66.4172821c0-36.9495087-45.7137146-67.2110901-109.3688965-75.8699951
		L373.4784241,36h-27.0513306l-24.1542053,82.9305038c-63.6848755,8.6588974-109.4579926,38.9043045-109.4579926,75.8537979
		c0,28.3041077,26.8407135,52.6526947,67.9860077,66.4172974l-28.9035034,99.1575012
		c-5.7024078,19.7504883-24.0354004,34.0226746-44.6363983,40.3677063
		c14.4801025,12.8978882,23.6168976,31.9625854,18.0332947,51.040802l-51.651001,177.1307678
		C166.8041992,652.1292114,151.8462067,672.4143066,134.8578033,684h184.6692047
		c-15.1091919-11.5856934-23.3496094-31.8734741-16.5726013-55.1016235l4.5386963-15.406189H412.531189l4.4793091,15.406189
		C423.760498,652.1292114,415.5201111,672.4143066,400.4729919,684 M344.0700073,488.0150757l15.9434814-54.8045959
		l15.9137878,54.8045959H344.0700073z"/>
	<path class="st1" d="M554.086792,671.4449463c-8.8344116-11.5100708-15.8220215-24.9155884-19.9448853-38.9636841
		l-51.2945862-175.967041c-8.0918884-27.9179993,6.9255066-47.7710876,8.8964844-50.9355164
		c-17.8254089-9.6444092-30.8717957-24.3512878-35.82901-41.7123108l-31.1984863-107.0982056
		c44.0099792-11.7179871,74.0151062-35.0514069,74.0151062-61.983902c0-34.0523987-48.2192993-62.4779968-112.0851135-68.7636032
		l-22.5422974-77.4197845h-8.1809998l-22.5422974,77.4197998c-63.9252014,6.2694016-112.1741943,34.6949997-112.1741943,68.7636032
		c0,26.9324951,30.0375061,50.2658997,74.0474854,61.9839172l-31.2011719,107.098175
		c-5.0463257,17.363739-18.0360107,32.0679321-35.8587036,41.7123108
		c2.0007019,3.1643982,17.0477905,23.0174866,8.8667908,50.9355164l-51.2676086,175.967041
		c-4.0904999,14.0480957-11.1078033,27.4536133-19.9449005,38.9636841h127.8800812
		c-10.3004761-22.7825928-4.8950806-39.3821411-0.269989-55.0124512l4.5386963-15.5547485h123.97052l4.5657043,15.5547485
		c4.5386963,15.6303101,9.9710999,32.232605-0.3267212,55.0124512 M327.1409912,500.6132813l32.8725281-112.5602722
		l32.7536926,112.5602722H327.1409912z"/>
	<path class="st2" d="M393.9606018,222.3404846h0.0296936"/>
	<path class="st2" d="M513.0603027,633.3480225l-49.0266113-167.796936
		c-7.7058105-26.2304688-3.4640503-37.5462036,2.1195068-53.3735962
		c-14.7203979-11.3022461-24.5133057-26.0064087-29.2922974-42.5762939l-37.2005615-127.8071899
		c-0.0297241,0-0.0594482,0.0161743-0.0891113,0.0161743l-18.8082275-64.7487183
		c-0.0077515-0.0004272-0.0157471-0.0007324-0.0234985-0.0011597l-20.7260132-71.4192505v70.7940063
		c-0.0009155,0-0.00177,0-0.0026855,0v36.6795654l98.4987183,337.6592407l22.6314087,77.4522095l38.9367065,23.3037109
		C517.3587036,645.6195068,514.9125366,639.5579834,513.0603027,633.3480225z"/>
	<path class="st2" d="M238.2246094,630.2727051l31.4711914,21.2570801
		c-1.7009888-10.5839844-0.0891113-24.5106201,2.9241028-34.3952637l10.4516907-36.1260376l-21.6162109-30.2319336"/>
	<polyline class="st2" points="300.6270142,520.5014648 360.0134888,317.1698914 360.0134888,213.1145935 261.4526978,550.7739258 
		458.5148926,550.7739258 419.2218018,520.5014648 	"/>
	<polyline class="st3" points="360.0134888,317.1698914 419.2218018,520.5014648 458.5148926,550.7739258 360.0134888,213.1145935 	
		"/>
	<path class="st3" d="M450.2744751,651.5270386c1.6119385-10.5839844,0-24.5105591-2.8079834-34.3952637l-10.6002197-36.1260376
		H283.0715942l-21.6162109-30.2318726H458.512146l22.6314087,77.4522095l38.9367676,23.3037109L450.2744751,651.5270386z
		 M360.0134888,213.114563v-36.6795044V168v-2.7158813v-59.6403198l-17.5549927,60.161377c-0.0001221,0-0.0002441,0-0.0003662,0
		l-0.3649292,1.2518311l-0.0059814,0.0205078l-16.1099243,55.2629395l-5.6132813,19.467041
		c-0.0297241,0-0.0594482,0-0.0594482-0.0162354l-37.2329712,127.8071899
		c-4.7789917,16.5698853-14.4801025,31.2741699-29.2896118,42.5762939
		c5.553894,15.8247681,9.8226318,27.1431274,2.149231,53.3736572l-49.0859985,167.796875
		c-1.8522339,6.2127075-4.1796265,12.2714844-7.0469971,18.1817627h69.897583l-31.4711914-21.2570801l23.2307739-79.4960938
		h-0.0026855L360.0134888,213.114563z"/>
	<path class="st4" d="M325.9772949,222.3404846L325.9772949,222.3404846
		c-35.680481-4.2687073-61.0307922-15.0335999-61.0307922-27.5588989c0-14.4207001,33.3800964-26.4248962,77.5115967-28.9764099
		c5.7024231-0.3294067,11.5559998-0.5211029,17.5554199-0.5211029c5.0759888,0,10.0304871,0.1485138,14.8688965,0.402298
		c0.8963928,0.0297089,1.7928162,0.0594025,2.6567993,0.1188049l0,0
		c44.0991211,2.5541992,77.5115967,14.526001,77.5115967,28.9763947c0,12.5252991-25.3800049,23.2874908-61.0604858,27.5588989
		h-0.0296936l5.6133118,19.4669952c0.0296936,0,0.0593872-0.0161896,0.0890808-0.0161896
		c45.9512939-6.8957977,78.9156189-25.274704,78.9156189-47.0097046c0-25.8713989-46.9962158-47.1743927-107.0415039-49.6098022
		c-3.790802-0.1484985-7.6437073-0.2537994-11.5263062-0.2537994s-7.7327881,0.1053009-11.5263062,0.2537994
		c-60.164093,2.4327087-107.0684814,23.7384033-107.0684814,49.6098022c0,21.7350006,32.9021912,40.1274109,78.8832092,47.0097046
		c0,0.0161896,0.0296936,0.0161896,0.0594177,0.0161896"/>
</g>
</svg>
