<?xml version="1.0" encoding="utf-8"?>
<!-- Generator: Adobe Illustrator 22.0.1, SVG Export Plug-In . SVG Version: 6.00 Build 0)  -->
<svg version="1.1" id="Layer_1" xmlns="http://www.w3.org/2000/svg" xmlns:xlink="http://www.w3.org/1999/xlink" x="0px" y="0px"
	 width="720px" height="720px" viewBox="0 0 720 720" style="enable-background:new 0 0 720 720;" xml:space="preserve">
<style type="text/css">
	.st0{fill:#EF3340;}
	.st1{fill:#41748D;}
	.st2{fill:#00A3E0;}
</style>
<g>
	<path class="st0" d="M308.1417847,494.9086304l21.7657166,103.1744385l-10.1595154,13.5509644l-23.5281067-113.0134888
		l4.5317993,21.7609253c0.0635986-0.159668,0.1393127-0.3337402,0.1957092-0.4873657
		c1.6866455-4.5654297,2.4693909-11.0851746,2.7718506-16.2531738c0.0084229-0.1609192,0.0228577-0.3217468,0.0420532-0.4826355
		c0.1656799-1.4441833,0.6038208-2.7250366,2.3528748-5.2808533L308.1417847,494.9086304z M163.8800507,639.307251
		c-29.6876068,13.9134521-60.6585541,15.633728-74.1590042,16.5964966
		c-5.5137787,0.3973389-10.9375153,0.5618286-16.3191833,0.6038208
		c20.2854843-15.8690186,36.3537903-31.3634644,47.0475998-53.3308716
		c3.3505325-6.4897461,6.222023-13.2160034,8.5929871-20.1246948
		c3.849884-11.1763916,42.1389008-134.9556885,69.4147949-223.2910767
		c-2.8403473,3.1980591-5.4885712,6.5641785-7.9267426,10.0779724c-6.3588867,9.223175-13.3659973,19.0946655-17.5220642,29.6936035
		l-0.5293884,1.7142334c-0.0816193,0.216095-0.1536407,0.4501953-0.2316742,0.6686707l-2.0732117,6.7298584l-0.0024109,0.0120239
		l-2.1872864,7.091156c-3.6085815,11.6998291-7.3012238,23.6408691-10.8990479,35.2554016l-1.7647247,5.692627l-0.0840454-0.0852051
		c-20.0033875,64.4556885-36.4462585,117.15625-38.7427139,124.1298218
		C102.9610214,621.852417,73.3490295,641.4332886,36,669.5963135c13.3564034,0.241272,27.7404327,0.5438232,41.5134583-0.5582275
		c19.1150513-1.5197754,73.2634888-4.8234863,109.1923828-42.0080566c1.3961029-1.3817139,2.7526398-2.8031006,4.0695343-4.256897
		c3.462204-3.8666992,6.6974792-7.9314575,9.6902313-12.1715088c-1.102005,1.3432617-2.2292786,2.6710205-3.3961029,3.9675293
		C187.3660889,625.3518066,175.8055573,633.3432617,163.8800507,639.307251z M276.3869324,403.3439941l8.7442017,42.0152893
		c3.5258179-2.8871765,7.122467-5.6866455,10.7862854-8.3973083l-12.1680298-57.7018433L276.3869324,403.3439941z
		 M486.5688782,387.3813171l-21.0694275,28.335907l-68.5408936,218.2527466L510.850769,634.00354l12.4476929-12.4416504
		L414.1120911,621.56427L486.5688782,387.3813171z M532.0895386,220.0334015
		c-3.3289185,1.9075317-6.6182251,3.8859253-9.8630981,5.932663
		c-30.1041565,17.8666077-55.9430542,37.7188416-94.6954346,87.2369995
		c-0.3253174,0.4129333-0.7479553,0.9640198-1.0576782,1.3901672
		c-18.3167725,24.925354-36.6431274,49.8435364-54.9730835,74.7593079l3.3876648,16.1546936
		c3.0600281-4.1200256,6.6218567-8.9375,10.5689697-14.279541c17.6505127-23.8833923,41.8244019-56.5890198,64.3560181-85.9225159
		l0.1716614-0.2124634c40.5518494-48.3009033,66.3788452-71.9850006,98.697876-90.502243
		c10.3372192-5.7706604,21.1534424-10.6338043,32.3286133-14.5353241
		C565.2872925,204.3708649,548.6884766,210.7405243,532.0895386,220.0334015z M300.264801,192.4380493
		c-0.9760437,0.0192566-1.9580078,0.0312042-2.9267883,0.0612488
		c-42.7787781,1.3349152-82.4014893,12.8822632-110.8081665,34.3286591
		c-4.5306396,3.4213104-8.8558807,7.1067657-12.9518738,11.0383301c-4.9687958,4.9639587-9.5641937,10.291626-13.7454071,15.936203
		c5.05159-0.85112,10.0142975-1.5894012,14.8761902-2.2208405
		C204.7097473,218.13414,249.9806824,198.8329773,300.264801,192.4380493z M137.8963623,372.492981
		c-2.7719116-36.1509094,3.5246277-66.5996399,16.5316772-91.641449c-3.3973541-0.0540771-6.793457-0.0768433-10.1908112-0.0696716
		c-8.2075806,19.0274963-11.8881989,39.5255432-10.937439,60.9899597
		C133.769165,352.1426392,135.3093872,362.4378662,137.8963623,372.492981z"/>
	<path class="st1" d="M355.1051331,430.2376099c0.1404724,0.0348816,0.2881165,0.0420837,0.4285583,0.0816345
		c-9.7177734,3.2581482-22.0658264,17.3492432-36.3838196,33.8389282l-0.2017212,0.2316589l-0.3997803,0.4622192
		l-2.5989685,2.9891357c-7.4969482,8.6253967-15.9758606,20.9806213-18.9326172,25.3071289l-0.0191956,0.0287781
		c-0.5270386,0.7634888-0.9964294,1.5654297-1.404541,2.3973694h-0.0084229
		c-0.5473938,1.1692505-0.7322693,2.0528259-0.8835754,2.9399109c-0.0227966,0.1872864-0.0336304,0.3517761-0.0419922,0.4862366
		c-0.3025208,5.1643982-0.8666992,11.6793518-2.5534058,16.2471313c-1.2484741,3.3757324-4.2640686,8.1343994-7.3384399,12.7694702
		c-0.1836853,0.2772217-0.2989502,0.4477539-0.4322205,0.6661987c-1.1896362,2.2844849-1.1872253,2.6398315-1.1368103,3.8463135
		l0.0227966,0.7514648c0.0696106,2.8823242,0.1260071,5.7598877,0.1705017,8.6409912
		c0.2316895,13.1283569-0.313385,35.4570923,0.3421021,61.0427246
		c0.6254272,24.5076294,11.2555847,56.4413452,17.6132813,67.5324707c0,0-6.2544556-2.5714111-12.8786621-9.019165v-0.0023193
		l0.0168457,0.0023193c0,0-12.1619568-22.8005371-13.0682983-58.2971802
		c-0.9063721-35.4991455-0.4262085-67.4075928-0.5090332-69.807373c-0.0840149-2.3997803-0.3973389-4.5029297,2.1980591-8.8306885
		c0.2905273-0.4885864,5.8378601-8.4981079,7.194397-12.1739502c1.7826843-4.8222656,2.0227966-14.2736206,2.1236877-14.8786011
		c0.5365601-3.2580566,1.3505249-5.1968079,4.0611877-8.6853943c3.6253662-4.6914673,8.5125427-12.8702393,19.0249939-24.7357483
		c9.5101318-10.736969,17.3600159-18.3539734,23.6756592-23.7668762
		C346.2108459,430.1211853,353.1591492,429.9951782,355.1051331,430.2376099z M389.4083862,209.1526031
		c21.3155212-8.0599518,135.1212769-49.9095001,136.1020508-50.270874l9.128418-8.9087067l-29.1257935,7.4657135
		l-97.5274353,17.5976868l97.8262939-17.6180573c0,0-98.2320862,35.9624481-119.8441162,44.1304779
		c-21.60849,8.1679382-21.0934448,28.5015717-21.0934448,28.5015717l42.2073059-2.5618439
		c32.4871521-2.039566,43.3946228,6.8103027,43.3946228,6.8103027l-76.2010803,8.1547546l-24.182251,23.5088348
		c-61.8794556-0.4898376-195.6922455,49.769104-182.1125183,149.7826843l2.1848602-7.0852051l0.0059357-0.0203857
		l2.0732727-6.7298584c0.0780334-0.2184753,0.1512299-0.4525757,0.2328644-0.6686707l0.5281982-1.7142334l2.7971191-9.0599365
		c0.7503052-2.369751,1.503006-4.708252,2.1896362-6.7947083c2.1320343-7.6398315,5.0491638-15.038269,8.7033997-22.0766907
		c16.5784912-31.919281,50.2108612-52.6477661,74.611618-63.9561768
		c23.9553833-11.1055908,50.9443665-18.7621765,73.7137451-21.1403198c4.2039795-0.4465942,8.4260559-0.70224,12.6529236-0.7634888
		c0.5005798-0.006012,1.0203552-0.0300293,1.5161743-0.0300293l4.8438721,0.0324402l26.1042175-25.5220032l92.1685486-9.9158936
		c-3.4934082-3.8186646-20.8929749-20.7561035-55.2468262-21.4415588
		c-3.3613586-0.0672607-6.9147034,0.1151733-10.5569458,0.3445129l-28.6948547,1.753891
		C379.4288025,216.1669617,383.500824,211.3842773,389.4083862,209.1526031z M363.8528748,208.4437714
		c-24.3227844,8.0792236-28.1462708,23.3912201-28.1462708,23.3912201l18.4164124-1.1236725
		C356.2046509,212.8447266,363.8528748,208.4437714,363.8528748,208.4437714z M221.0449066,268.5021667
		c-45.9971924-2.006012-107.8382721,0.2988586-166.8461761,19.4967957
		c1.4573593-0.2796631,23.684082-4.3612976,57.4448929-6.2604065c3.4021835-0.1896973,6.9231491-0.3577881,10.5485153-0.49823
		c6.9759827-0.2713318,14.3360443-0.4417725,22.0454559-0.4586182c3.3337555-0.0083618,6.7382813,0.0204468,10.1908112,0.0708618
		c14.0058746,0.2088928,28.9289551,0.9255371,44.4425964,2.4021912
		C205.9405518,277.870575,213.3475037,272.942688,221.0449066,268.5021667z"/>
	<path class="st2" d="M288.4714966,661.4779663c6.6266174,6.4501343,12.8774109,9.0216064,12.8834229,9.0095825
		c-13.4992676-3.0203857-46.7391205-4.3937378-54.9886932-78.3763428
		c-3.4069519-30.5495605-5.7311096-52.3153076-5.7311096-52.3153076c-0.3901672-4.4440918-1.091217-8.3300171-2.3193054-11.9086304
		l-2.8763275,9.4080811c-0.189621,0.6314087-0.4249725,1.4453735-0.7046509,2.4057617
		c-3.3289185,11.4608765-13.1331482,45.1677246-34.2662201,70.8949585c-1.1056671,1.3444824-2.2292786,2.6710815-3.3961182,3.96521
		c-9.7046509,10.7813721-21.2651062,18.7764893-33.1894379,24.7404175
		c-29.6876068,13.9134521-60.6597214,15.6361084-74.1590042,16.5953369
		c-5.4321594,0.3768921-10.8750916,0.5786133-16.3204346,0.6049805
		c20.2831421-15.8690186,36.3538666-31.3634644,47.0476761-53.3308716
		c3.3504639-6.4897461,6.2231903-13.2171631,8.594162-20.1270752
		c3.8487091-11.1739502,42.1400757-134.9544373,69.4147949-223.2898865
		c5.5581818-6.2940369,11.7922211-11.9446106,18.3839569-17.034668
		c-27.27948,88.3942871-71.6692657,232.0065002-75.9441071,244.4122009
		c-8.8139038,25.586792-21.2927399,43.2961426-31.1282578,54.3236084
		c52.6442642-7.1307983,71.3980179-27.9613647,77.9801559-35.2769775
		c21.5749054-23.9733887,31.633606-58.5949707,34.940918-69.9706421
		c0.2929382-1.0131836,63.2864227-207.1315308,63.2864227-207.1315308l22.6732178,107.497345
		c-4.5005188,3.0791931-9.3708191,6.830658-14.6348877,11.3960266c-9.799469,8.4945068-12.6013489,10.3108215-20.1607056,17.2507629
		c-7.4573059,6.8475342-13.6781616,10.8474426-20.1643066,12.388855l3.285675-10.7585754
		c3.3013-1.216095,6.7250366-3.4970093,11.5641479-7.3840942c2.9087524-2.3361206,8.8534546-7.7814636,16.5904846-14.106781
		c3.5258179-2.887085,7.1236267-5.6878052,10.7862244-8.3972778l-12.1703796-57.7017822l-7.3624878,24.0838318
		l-31.9732819,104.5897522l0.0120239,0.0132446l-2.1812744,7.1343689
		c5.6746063,10.4656982,6.651825,19.4140015,7.1740265,23.6433105c1.3037109,10.5628662,0.9879761,22.3311157,6.3168182,58.0438843
		C264.6805725,656.6977539,288.1353149,661.4143677,288.4714966,661.4779663z M654.7253418,187.6631927
		c-19.2087402,0-45.5110474,2.503006-73.710083,12.3972931c-11.1763916,3.901535-21.9938354,8.7645874-32.3286743,14.5352631
		c-32.3201904,18.5172424-58.1507568,42.1988983-98.7002563,90.5034637l-0.1692505,0.2124939
		c-22.5328674,29.329895-46.7079163,62.0378723-64.3583679,85.9212646
		c-3.9471741,5.342041-7.507782,10.1595154-10.5677795,14.2832031l-3.3876953-16.1547546l-23.8245544-113.6173096
		c-4.0276184,0.050415-8.2544556,0.3049011-12.6517334,0.7634888l33.2613831,158.6265869l8.3084717-10.9543152
		c3.8607178-5.0888062,10.5148926-14.0935669,18.9433899-25.495636c17.6013489-23.8125,41.6935425-56.4125061,64.1339417-85.6271362
		c39.4414978-46.969574,64.3740234-69.8961792,95.1876831-87.5527039
		c35.5603638-19.9049988,71.3151245-24.838913,96.1828613-25.2674713
		c-25.9193726,24.0201721-45.0752563,56.5757599-58.3189087,98.9931488l-81.5706177,262.7157288
		c-2.5606079,8.7970581-4.3217468,15.5725708-5.204071,22.1654663c-1.2713318,9.5557861-1.2472839,17.6733398,0.1188354,24.9157715
		l-74.9537659,0.0023804l89.0689087-287.8751526l-183.7451782,247.143219l-18.3876038-87.1685486
		c-3.4057007,4.5209656-6.708252,9.1188049-9.9050598,13.7898254l21.7657166,103.1768188l135.5931091-182.3718262
		l21.0694275-28.3371582L414.116272,621.569519l109.1899414-0.0023193c-2.2520142-5.7346802-2.5568848-6.708252-3.1415405-8.4537354
		c-2.7203369-7.322876-3.2857666-16.0118408-1.7778931-27.3431396c0.774231-5.8102417,2.4152832-12.0839233,4.7790527-20.2111206
		l81.538269-262.6004333c14.5184937-46.5014648,36.3238525-80.3354645,66.659729-103.4324951
		c4.1536255-3.2604828,8.3660889-6.4465332,12.6361694-9.5557709
		C683.9904175,189.9644928,669.0313721,187.8372955,654.7253418,187.6631927z M111.6432571,281.7359924
		c-6.2231903,18.7357178-9.1271362,38.7667542-8.5148849,58.9238586c0,0.1008301,0.0707779,1.6962891,0.0707779,1.6962891
		c2.2797546,47.0896606,26.1786728,88.1589661,52.0368423,114.2547607l0.056427,0.056427
		c0.6134186-1.8835144,1.2112274-3.7706909,1.7934418-5.6650391
		c-40.8603897-46.3477783-55.7030182-112.2463684-34.8928452-169.7644653
		C118.5639877,281.3806152,115.0454407,281.545105,111.6432571,281.7359924z M305.6667786,164.9851227
		c-7.4248962-14.5148926-20.8569946-38.7200012-39.2325439-63.6297607c0.0227966,1.1897049,0.0203857,2.3925934,0.050415,2.8475266
		c2.3829346,34.1306076-9.589386,59.1291733-20.0839081,73.3391037
		C262.4066162,170.7281647,282.5661621,165.1340179,305.6667786,164.9851227z M221.0454865,268.504425
		c12.5461121-7.2640686,25.7104645-13.2700043,38.6816254-18.0394287
		c-18.202774-2.5702667-48.7655334-3.6062469-85.0185699,1.1128387
		c-14.3600006,1.8690643-28.6071625,4.5137177-42.6814728,7.9230804
		c12.8990479-23.4812012,32.5447388-44.7631683,59.7005463-61.6609802
		c16.4812622-11.097168,25.4907837-13.1979828,41.7379456-31.0705872c4.2400513-4.6625214,6.1620178-8.63974,8.2688446-13.0370178
		c18.7861328-39.2205887,5.20047-58.3212891,14.8366089-86.8084259
		c35.3322754,38.4042053,57.6658325,79.6272125,69.0402527,103.8262482
		c2.4225464,0.4309845,4.8270874,0.9351501,7.2196655,1.5113525c8.2459717,1.6398773,16.2398987,4.3601379,23.7740479,8.0888214
		c0,0,13.5281677-2.1284485,30.295105-1.5126038l21.0934448-3.7982941l97.5274353-17.5988617l29.1341858-7.4597015
		l9.5893555-9.2340393l-158.0635071,28.3118744c-9.3540344-0.2664948-18.7141113,0.1500549-28.0069885,1.244873
		c-7.6109314-3.5066071-15.6156921-6.0875702-23.8413086-7.6878052c-0.6230164-0.1308594-1.244873-0.2785034-1.8655701-0.4225616
		c-12.0562744-24.9925537-33.8412476-63.7582016-68.239502-101.1599884
		c-5.7094421-5.749054-7.7490845-7.5305595-12.655365-11.5305672c-2.0024109,4.3721504-4.8727264,14.9038887-4.8727264,14.9038887
		c-3.0935822,10.4032211-4.1176147,25.6168213-4.2184296,40.5830612
		c0.2689056,11.1667786-1.1632538,30.266304-10.0983429,45.9648056
		c-6.0984039,10.2796173-15.3648376,18.8978119-29.3347321,28.3334961
		c-1.0995789,0.6854401-2.2124176,1.4020996-3.3577118,2.1620026c-7.0035248,4.1656647-18.7741241,10.8534698-27.6924438,17.6433258
		c-24.8569336,17.8293762-40.3789978,37.8724823-52.7378235,63.7521973
		c-21.3600006,5.9759216-43.4077988,14.1403503-65.156723,25.1702576l0.0900497-0.0167847
		C113.2072983,268.8009644,175.0471191,266.4960938,221.0454865,268.504425z"/>
	<path d="M167.9775085,415.7483826c-13.5797272-100.0136108,120.2367249-150.2736816,182.1125183-149.7838745l24.1823425-23.5076447
		l76.2009888-8.1547699c0.006012,0-10.9002075-8.8498688-43.3886108-6.8114777l-42.2084961,2.5630188
		c0,0-0.5150146-20.3335571,21.094696-28.5015717c21.6084595-8.1680145,119.8441467-44.1304779,119.8441467-44.1304779
		l-97.8275757,17.6168976l-21.0934448,3.7994537c-16.7645874-0.6158447-30.2938538,1.5126038-30.2938538,1.5126038
		c-7.5354004-3.7286835-15.5293274-6.4489288-23.7752991-8.0899811c-2.3901672-0.5786133-4.7971191-1.0816193-7.2196655-1.5101929
		c-11.3708496-24.1990204-33.7068176-65.4255524-69.0402222-103.8262405
		c-9.6338196,28.4871368,3.9495239,47.5878296-14.8353882,86.8072433c-2.1068268,4.3985291-4.0288086,8.3756714-8.2700806,13.039444
		c-16.2459259,17.8714294-25.2566986,19.9722443-41.7379608,31.0693512
		c-27.1558075,16.9002228-46.8014984,38.1821899-59.6993713,61.6598053
		c9.1968231-2.2316895,18.4716644-4.1332245,27.8041077-5.7010651c4.1824493-5.6434021,8.7766113-10.9699097,13.7465668-15.936203
		c4.095993-3.9304047,8.4200745-7.6170197,12.951889-11.0371704
		c28.4030914-21.4475555,68.0294495-32.9949036,110.8082123-34.3286438
		c0.9711304-0.0299683,1.9495239-0.0419922,2.9255066-0.0611877
		c-50.2828979,6.3972778-95.5549927,25.6948547-125.5547333,59.1399384
		c36.2518005-4.7166595,66.8181458-3.6818542,85.0173187-1.1128387
		c-12.9711609,4.7658997-26.1318512,10.7742004-38.6803741,18.0394287
		c-7.6986389,4.4393616-15.1055298,9.3673401-22.1750641,14.752594c-14.7766113-1.3925171-29.6024628-2.194458-44.4438477-2.4020996
		c-13.0058899,25.0406189-19.3035889,55.4893494-16.5316772,91.6402588
		c-2.5846252-10.0551147-4.1247864-20.3503418-4.5953979-30.7212524c-0.9507751-21.4667358,2.7298431-41.9647827,10.9375-60.9898682
		c-7.7094116,0.0168457-15.0695496,0.1872864-22.0454483,0.4561768
		c-20.8089294,57.518158-5.9663773,123.4155884,34.8928452,169.7645569
		C160.6774597,439.3880005,164.3700867,427.4469604,167.9775085,415.7483826z M363.8522034,208.4391632
		c0,0.0024109-7.6469727,4.4057007-9.7285156,22.2687073l-18.4176636,1.1248474
		C335.7060242,231.8327179,339.5307617,216.5231323,363.8522034,208.4391632z M246.4066772,177.5390625
		c10.4920959-14.2087555,22.464325-39.2061462,20.0814209-73.3355103c-0.0312195-0.4561844-0.0312195-1.6566544-0.050415-2.8475266
		c18.3756104,24.9097595,31.8076172,49.1111984,39.2349548,63.626091
		C282.5720215,165.1334229,262.4088745,170.7287598,246.4066772,177.5390625z M651.0378418,200.234436
		c-25.9180908,24.0201721-45.0740356,56.5757446-58.317627,98.9931335l-81.5707092,262.7145691
		c-2.5594482,8.7993774-4.3216858,15.5736694-5.2028198,22.166626c-1.2724915,9.5557861-1.2472839,17.6732788,0.1175842,24.9157715
		l-74.9537048,0.0024414l89.0688171-287.8752136l-183.7451477,247.143219l-18.3863525-87.1685181
		c-3.4069519,4.5209656-6.7095032,9.1187744-9.906311,13.7897949c-0.8163147,1.1896362-1.5101929,2.2076416-2.0276184,2.9651184
		c-1.7478943,2.5570068-2.1872253,3.8355103-2.3528748,5.2821045c-0.0216064,0.1848755-0.0336304,0.3529358-0.0420532,0.4837952
		c-0.3013,5.1644287-1.0852356,11.6841431-2.7718506,16.2519531c-0.056488,0.1549072-0.1321106,0.3253174-0.1909485,0.4921875
		l-4.5317078-21.7597351l-0.6338806-3.0431519l0.0048218-0.0084534c0.1440735-0.3025208,0.3193359-0.6290283,0.5149536-0.9759521
		c0.2809143-0.4849854,0.5774536-0.9579468,0.8895874-1.4213867l0.0203857-0.0276184
		c2.9555969-4.3312683,11.4320679-16.684082,18.931427-25.3070984l2.598999-2.9915771l0.3997498-0.4597778l0.2017212-0.2328491
		c14.3191833-16.4897156,26.6660767-30.5796204,36.3838196-33.8388672c-0.1391907-0.0384521-0.2844849-0.046814-0.4273682-0.081604
		c-1.947113-0.2437134-8.8978882-0.1165161-21.9205322,10.0646973
		c-6.3157349,5.4129028-14.1643677,13.0299072-23.6757202,23.7657166
		c-10.5148926,11.8666687-15.398407,20.0454407-19.0238342,24.736908c-2.7106628,3.4885864-3.5245667,5.4260864-4.0623779,8.6853943
		c-0.1008911,0.605072-0.3409119,10.0563354-2.1224365,14.8785706c-1.3565369,3.6759033-6.9015198,11.6842651-7.194458,12.1740112
		c-2.598999,4.3301392-2.2832642,6.4332886-2.1992188,8.8306274c0.081604,2.4009399-0.3997803,34.3095093,0.5090027,69.8061523
		c0.9063721,35.4979248,13.0694885,58.2985229,13.0694885,58.2985229l-0.0167847-0.0024414
		c-0.3361816-0.0636597-23.7909241-4.7802734-32.7368622-64.7089844
		c-5.3288422-35.7139893-5.0095215-47.4821777-6.3168182-58.0439453c-0.5198669-4.229248-1.4958344-13.1775513-7.1740265-23.6432495
		l2.1812744-7.1355591l9.2675934-30.3334961c6.4837341-1.5390015,12.7045898-5.5414124,20.1655273-12.388855
		c7.5605469-6.9399414,10.3612366-8.7562561,20.1606445-17.2507629c5.2664795-4.5689392,10.1332092-8.3168335,14.6349792-11.3960571
		l-22.674469-107.4973145c0,0-62.9923096,206.1183167-63.2864227,207.1303406
		c-3.3060608,11.3768311-13.3648376,45.9984741-34.940918,69.9718018
		c-6.5821381,7.3145142-25.3347321,28.1462402-77.9800797,35.2770386
		c9.8354416-11.0275269,22.3142776-28.7380371,31.1281815-54.3237305
		c4.2712555-12.4056396,48.6646271-156.0214844,75.9441071-244.4132996
		c-6.5905609,5.0875549-12.8294373,10.7418213-18.3839569,17.0358582
		c-2.8415222,3.1980591-5.4885712,6.5629272-7.9279175,10.0779724c-6.3577118,9.223175-13.3648224,19.0946655-17.5220642,29.6936035
		l2.7971191-9.0599365c0.7466278-2.3673096,1.4993439-4.708252,2.1907959-6.7958679
		c2.1296844-7.6385803,5.0468292-15.0371094,8.70224-22.0754395c16.5796661-31.9205322,50.2108459-52.6478271,74.6115875-63.957489
		c23.9554138-11.1055298,50.944397-18.7609558,73.7149353-21.1390381l33.2613831,158.6264954l8.3084717-10.9542847
		c3.8607178-5.0888062,10.5149536-14.0935059,18.9422302-25.4955444
		c17.6012573-23.8137817,41.6947021-56.414917,64.1339417-85.6271667
		c39.4450684-46.969635,64.3776245-69.8961639,95.1828003-87.5515289
		C590.4189453,205.5969086,626.1749268,200.6629944,651.0378418,200.234436z"/>
</g>
</svg>
