<?xml version="1.0" encoding="utf-8"?>
<!-- Generator: Adobe Illustrator 22.0.1, SVG Export Plug-In . SVG Version: 6.00 Build 0)  -->
<svg version="1.1" id="Layer_1" xmlns="http://www.w3.org/2000/svg" xmlns:xlink="http://www.w3.org/1999/xlink" x="0px" y="0px"
	 width="720px" height="720px" viewBox="0 0 720 720" style="enable-background:new 0 0 720 720;" xml:space="preserve">
<style type="text/css">
	.st0{fill:#FFC52F;}
	.st1{fill:#12284B;}
	.st2{fill:#FFFFFF;}
</style>
<g>
	<path class="st0" d="M599.0029907,92.7293777c-4.9146118-3.4349823-8.1005859-5.446846-14.4192505-9.4743881l-3.2952881-2.0911026
		c-13.8266602-8.802597-29.1366577-13.2831345-45.5073853-13.2831345c-10.7540283,0-22.0213623,1.9666672-33.6321716,5.8545074
		c-7.2435913-7.94561-16.2159729-14.7815399-26.6415405-20.1189194l-3.3406372-1.732605
		c-1.9062195-1.0304413-3.5745544-1.8721657-6.4472046-3.2461319c-13.2640686-6.3339157-28.4646912-9.6896591-43.9784851-9.6896591
		c-19.6169128,0-39.2225037,5.3827209-56.6841736,15.5893669c-0.607666,0.3586388-1.2304688,0.7360649-1.8872986,1.1098213
		c-6.3226013-5.2279053-13.6567383-9.4707184-21.9119568-12.5922623c-2.3288574-0.8757668-4.106781-1.5136642-5.7148132-2.1063614
		C326.5554199,37.668335,316.7526245,36,306.3760681,36c-24.5014343,0-50.0331726,9.096962-73.8324127,26.2867203
		c-38.0033569,27.4342575-65.5017548,49.206543-97.5561066,75.4404373
		c-31.9940414,26.169754-55.4535828,49.6254883-65.9396286,78.93573
		c-9.7876854,27.388916-7.4474106,56.6652374,7.8475876,97.9147491
		c14.7174072,39.7319946,45.1222076,118.5620728,60.8248596,158.9057007
		c2.0118713,5.1486511,4.0539551,10.6898804,6.2244415,16.5594788c7.5832977,20.5378723,16.619812,45.0694275,30.3066406,69.7293396
		c0.4267273,0.8209229,0.8798676,1.6279297,1.3589935,2.4194946c4.1572113,7.4995117,8.7264557,14.7630005,13.6868286,21.7571411
		c0.5134583,0.7020264,1.0116577,1.4193115,1.5438995,2.1213379c0.0792389,0.1699219,0.2189331,0.3397217,0.3435211,0.4983521
		c0.696228,0.9800415,1.4096985,1.9477539,2.1401215,2.9025879c8.6628876,11.656189,18.7110443,23.0028687,30.5106049,33.5379639
		l1.7174835,1.5136719l9.2705688,8.3042603l0.3737488-0.1397095C276.7600098,665.9760132,328.216156,684,382.9299927,684
		c83.227417,0,152.7717896-35.4100952,209.1727905-154.6592407c53.5625-113.2738647,64.7203369-154.5987854,64.7203369-222.8145447
		v-81.7326813C656.8231201,147.4166718,636.5003662,118.6840134,599.0029907,92.7293777z"/>
	<path class="st1" d="M585.1575317,112.7388306c-5.2770996-3.650116-8.3496094-5.5563202-16.9483643-11.0483704
		c-16.7141724-10.6596451-38.8751831-14.1700592-69.1065369-0.6568298
		c-1.9967346,0.8908844-3.8727112,1.7174911-5.7109985,2.5441055c-6.7264404-13.781189-18.6505737-23.0178452-28.9667053-28.2947693
		c-4.2315063-2.1704941-5.4016418-2.8725204-9.2102356-4.6843643c-20.5227661-9.8179207-50.1916504-11.2372284-77.8901672,4.9485092
		c-5.5713196,3.2462692-12.8602295,7.5681839-19.1336975,11.2674484
		c-6.3980408-10.9239273-16.2612915-17.4955673-25.5167542-20.9910126
		c-2.2156982-0.8266068-3.9180603-1.4532089-5.4770813-2.0156746c-20.443512-7.4587135-50.3464355-3.4953003-80.4040375,18.182621
		c-35.7837219,25.8601379-62.051651,46.4471741-96.3859711,74.55336
		c-62.8028183,51.3958282-76.1462631,80.9250031-50.6899719,149.5785217
		c13.9813461,37.7503662,43.665329,114.8024902,60.6776733,158.5319519
		c9.7537994,25.0637512,19.9453278,57.5749207,38.3468933,88.957489h0.0151062
		c1.6941833,2.8973999,3.44841,5.7591553,5.2618103,8.5834961c0.4832306,0.7511597,0.9965363,1.4835815,1.4834442,2.2158203
		c8.3647003,12.6866455,18.2920837,24.9694214,30.24646,36.3613281c0.9511871,0.9060059,1.9174957,1.842041,2.8874817,2.7327881
		c0.4983368,0.4530029,0.9362183,0.9211426,1.4344177,1.3588867l0.0453491-0.0490112
		c37.4711151,34.1153564,87.100296,54.8571777,142.818161,54.8571777c102.2064209,0,185.0602112-82.8727417,185.0602112-185.0452271
		v-0.2038269c0-97.5561218-79.0791016-176.6353455-176.6351929-176.6353455
		c-53.0000305,0-106.2492371,30.6351624-137.6505585,78.9546509
		C232.606369,325.0664978,211.457428,273.40979,190.267395,221.7700195
		c-11.5806122-28.1854401-8.9270325-42.4649658,8.7685547-58.8658295
		c9.036499-8.3798218,20.0245514-16.7633209,32.2280884-25.0336609c12.4676819-8.4438171,26.532074-3.4650726,26.532074,13.0150299
		v174.555542c28.4646912-28.7328186,63.3765869-47.4437256,108.091156-55.6989441l-0.6869202-144.0939636
		c3.1858215-1.9665222,6.1640015-3.7934875,8.3986206-5.0882034c11.4070129-6.6169891,19.5715637,0.7171402,19.5715637,11.3465576
		v134.1552429c0.702179,0,1.4193115-0.0300903,2.1213379-0.0300903
		c36.3504028-0.0244141,72.0486755,9.6520996,103.4107361,28.0306396v-150.390152
		c2.8535767-1.155014,5.5411987-2.2308044,7.6171875-3.0574188c11.4259338-4.5409851,19.1489563,2.5441132,19.1489563,12.8753357
		c0,10.3312378-0.7965088,159.4341431-0.7965088,159.4341431c41.9818726,34.6288452,69.2310791,85.6018677,73.5228882,143.0673218
		c20.0245972-42.6235962,34.2890015-82.3253784,34.2890015-149.4653625v-81.7326813
		C632.4766235,156.7363892,617.0419312,134.8092957,585.1575317,112.7388306z M389.7507935,370.2953491
		c58.914856,0,106.6681824,47.7721252,106.6681824,106.6719971s-47.7571411,106.6719971-106.6681824,106.6719971
		c-58.8998718,0-106.6568604-47.7721558-106.6568604-106.6719971S330.8471069,370.2953491,389.7507935,370.2953491z"/>
	<path class="st2" d="M327.0423279,528.0385742c-11.7752686-14.4125977-18.199707-32.4562378-18.1826172-51.0674133
		c0-19.3527832,6.8208008-37.127594,18.1826172-51.0788574
		C349.6563416,456.0444031,349.6563416,497.8864441,327.0423279,528.0385742z M452.459259,425.8886414
		c-22.6139832,30.151947-22.6139832,71.9941406,0,102.1460876c11.3616943-13.9511108,18.1976013-31.7147827,18.1976013-51.0673828
		C470.6568604,457.614563,463.8209534,439.8397522,452.459259,425.8886414z M438.3154907,412.2695923
		c-13.987854-10.5625916-31.0405884-16.2720337-48.568512-16.2611389
		c-17.5223999-0.0122986-34.5696411,5.6974182-48.5497131,16.2611389
		c29.7481384,37.8296204,29.7481384,91.5620422-0.0151062,129.3916626
		c13.9859924,10.5635986,31.0377502,16.2731934,48.5648193,16.2612915
		c17.5281982,0.0124512,34.5813599-5.6971436,48.568512-16.2612915
		C408.5522461,503.8316345,408.5522461,450.0993652,438.3154907,412.2695923z"/>
</g>
</svg>
