<?xml version="1.0" encoding="utf-8"?>
<!-- Generator: Adobe Illustrator 22.0.1, SVG Export Plug-In . SVG Version: 6.00 Build 0)  -->
<svg version="1.1" id="Layer_1" xmlns="http://www.w3.org/2000/svg" xmlns:xlink="http://www.w3.org/1999/xlink" x="0px" y="0px"
	 width="720px" height="720px" viewBox="0 0 720 720" style="enable-background:new 0 0 720 720;" xml:space="preserve">
<style type="text/css">
	.st0{fill:#E31E34;}
	.st1{fill:#091F40;}
</style>
<g>
	<path class="st0" d="M668.8384399,423.5538025c-23.677063,79.7538757-111.7385864,143.7229919-237.1846924,155.3537903
		c-13.2922363,1.2461548-27.4153442,2.0769653-41.5384216,2.0769653c-15.7845764,0-31.1538086-0.8308105-45.6922302-2.4923096
		c-83.9076843-9.1384277-145.8000183-43.6154175-205.6153412-103.4307251
		c-24.9231949-24.9230347-53.5847015-58.5691833-87.6461716-90.1384888
		c34.06147-31.9844971,62.7229767-65.2153015,87.6461716-90.1384888
		c60.2306519-60.2306671,122.1229706-94.7076416,206.4459991-103.4307556v72.2769165
		c-44.4460754,5.8154602-80.5845337,21.1847229-105.9230804,41.1231079
		c-26.9998322,21.1847229-43.6152344,49.0153809-43.6152344,79.7538757s17.0307312,58.5691833,43.6152344,79.7538757
		c24.9232025,19.938385,61.0616608,34.8923035,105.5077362,41.1229553
		c13.7077637,2.0769653,28.661499,2.9078064,44.0307617,2.9078064c14.5384216,0,28.661499-1.2461548,41.9539185-2.9078064
		c69.3691101-9.1384583,119.6306458-41.1229553,143.3077087-82.2460327L668.8384399,423.5538025z M430.8230896,262.384552
		c69.3691101,9.1384583,120.0461731,41.1231079,142.8921814,83.4923706l94.7078247-0.4153442
		c-24.0923462-80.16922-112.1538696-144.1385193-238.0155029-155.3539581
		c0.4153442,23.6770477,0.4153442,47.7692413,0.4153442,72.2769318H430.8230896z"/>
	<path class="st1" d="M431.2384338,577.6616211C432.8999329,613.3845825,441.6230469,647.446228,454.0844727,684H321.1615601
		c12.4614258-36.5539551,21.1845398-71.0307617,22.8460388-106.7539063
		c14.5385742,1.661499,29.9076538,2.4923096,45.6924133,2.4923096
		C403.8230896,579.7384033,417.5306702,578.9075928,431.2384338,577.6616211z M344.4230957,168.0922546
		c0,30.7384949,0,61.8923187,0.4153137,93.8769531v0.8308411c0,80.9998779,0.4153442,164.4922485,0,242.5844727
		c13.7077637,2.0769653,28.661499,2.9078064,44.0307617,2.9078064c14.5384216,0,28.661499-0.8308411,41.9539185-2.9078064
		V167.2615967c0-25.3385315,0.4153442-44.8615875,0.4153442-62.3078232
		c80.5845337,4.1539841,156.1846008,29.9078293,223.4768982,74.769249L637.6845703,73.3846207
		C567.4844971,48.4615974,477.3460083,36,387.2076721,36c-89.3078308,0-179.4461517,12.4615974-249.6462555,37.3846207
		l-17.0307312,107.1692276c67.2922821-44.8615875,143.3076935-70.6154327,223.4769135-74.7692413
		C344.4230957,122.8153381,344.4230957,142.753891,344.4230957,168.0922546z"/>
</g>
</svg>
