<?xml version="1.0" encoding="UTF-8" standalone="no"?>
<!DOCTYPE svg PUBLIC "-//W3C//DTD SVG 1.1//EN" "http://www.w3.org/Graphics/SVG/1.1/DTD/svg11.dtd">
<svg width="100%" height="100%" viewBox="0 0 150 150" version="1.1" xmlns="http://www.w3.org/2000/svg" xmlns:xlink="http://www.w3.org/1999/xlink" xml:space="preserve" xmlns:serif="http://www.serif.com/" style="fill-rule:evenodd;clip-rule:evenodd;stroke-linejoin:round;stroke-miterlimit:2;">
    <g transform="matrix(1.25,0,0,-1.25,-1.0414,761.6)">
        <g>
            <path d="M60.688,604.901C30.058,604.901 5.142,579.983 5.142,549.355C5.142,518.727 30.059,493.81 60.688,493.81C91.314,493.81 116.234,518.727 116.234,549.355C116.234,579.983 91.314,604.901 60.688,604.901" style="fill:rgb(255,89,16);fill-rule:nonzero;"/>
            <path d="M108.29,527.411C108.161,527.131 108.03,526.85 107.897,526.571C107.147,525.025 106.322,523.52 105.428,522.062C104.673,520.826 103.865,519.626 103.01,518.459C102.118,517.237 101.172,516.054 100.176,514.914C99.453,514.086 98.703,513.279 97.93,512.498C92.788,507.303 86.571,503.175 79.642,500.478C80.302,500.805 80.669,500.997 81.681,502.092L80.971,502.271C80.091,501.39 79.15,500.552 77.501,499.894L78.492,500.046C77.727,499.769 76.957,499.509 76.175,499.267L77.171,500.224L76.353,500.544C75.96,499.957 75.351,499.353 74.116,498.678C69.829,497.539 65.327,496.93 60.686,496.93C46.081,496.93 32.857,502.935 23.342,512.6C22.572,513.385 21.821,514.192 21.101,515.023C20.196,516.062 19.337,517.138 18.516,518.247C17.663,519.4 16.856,520.59 16.098,521.814C15.252,523.178 14.467,524.585 13.747,526.029C13.614,526.293 13.483,526.558 13.355,526.825C11.746,530.193 10.485,533.757 9.621,537.474C9.556,537.753 9.496,538.035 9.436,538.317C9.415,538.408 9.393,538.5 9.375,538.592C8.648,542.067 8.263,545.667 8.263,549.354C8.263,556.361 9.647,563.048 12.151,569.16C11.987,568.374 12.025,567.705 12.216,566.94C11.336,566.061 10.719,565.054 10.347,563.643L11.066,563.204C11.295,564.354 12.216,565.842 12.985,566.72C12.436,568.588 13.264,569.647 13.594,570.966L12.999,571.118C16.528,578.822 21.869,585.527 28.476,590.687C28.15,590.113 27.774,589.383 27.601,588.814L28.371,589.307C28.371,589.307 29.267,590.797 30.132,591.927C31.814,593.138 33.571,594.251 35.393,595.26L33.958,594.432C32.541,592.761 32.353,591.688 31.836,590.462L33.493,590.881C33.789,591.932 34.583,594.089 36.077,595.632C43.419,599.551 51.797,601.778 60.687,601.778C80.656,601.778 98.051,590.555 106.898,574.085C106.972,573.565 107.2,572.249 106.825,572.062C106.952,571.028 106.367,569.875 105.968,569.193L106.408,567.71C107.092,568.534 107.606,570.034 107.533,570.864C108.011,571.217 107.789,571.879 107.785,572.357C108.187,571.539 108.569,570.711 108.927,569.872C108.869,569.571 108.678,568.717 108.321,568.274C108.524,567.315 108.081,566.336 107.674,565.621L108.222,564.247C108.469,564.411 109.179,566.251 109.168,567.267C109.431,567.615 109.501,567.994 109.561,568.317C109.879,567.494 110.18,566.661 110.46,565.818C110.41,565.4 110.276,564.595 109.949,564.287C110.153,563.366 109.708,562.709 109.431,562.103L109.928,560.729C109.928,560.729 110.752,562.57 110.731,563.232C110.867,563.538 110.993,563.719 111.038,563.96C111.323,562.974 111.582,561.977 111.812,560.968C111.628,560.109 111.142,559.297 110.752,558.421L110.86,557.595C110.86,557.595 111.519,558.418 112.104,559.591C112.229,558.969 112.34,558.342 112.441,557.713C112.335,557.394 111.867,556.032 111.577,555.838L111.685,555.234C111.685,555.234 112.267,556.016 112.612,556.566C112.939,554.209 113.11,551.801 113.11,549.354C113.11,545.851 112.763,542.43 112.104,539.118C111.291,535.024 110.001,531.102 108.29,527.41" style="fill:white;fill-rule:nonzero;"/>
            <path d="M60.011,599.991L59.687,597.419L58.977,596.652L58.977,591.296L57.224,589.979L57.224,586.129L56.086,585.361L56.086,577.552L51.126,577.552L51.126,583.645L43.872,583.645L43.872,577.711L42.335,577.052L42.335,566.28L37.056,566.28L37.056,575.294L36.507,575.841L36.507,580.568L35.96,580.568L34.663,585.54C34.708,585.777 34.739,586.079 34.739,586.414C34.739,587.164 34.596,587.456 34.425,587.456C34.254,587.456 34.116,587.164 34.116,586.414C34.116,586.044 34.15,585.709 34.205,585.465L32.882,580.568L32.333,580.568L32.333,575.841L31.781,575.294L31.781,565.489L25.958,565.489L25.958,566.135C25.626,564.817 24.758,562.616 25.188,560.807L25.048,560.898L25.514,560.563C24.306,560.233 22.327,558.587 21.887,557.377L20.791,558.256C21.336,559.892 22.73,560.253 24.363,561.333L23.977,561.577C23.91,563.182 23.918,564.969 24.796,566.837L25.958,566.135L25.958,572.738C25.958,573.729 24.526,573.754 24.526,573.754L24.526,575.52L23.316,575.852L23.207,576.611L22.88,576.723L22.548,576.611L22.439,575.852L21.229,575.52L21.229,573.754C21.229,573.754 19.8,573.839 19.8,572.629L19.8,563.182L17.493,561.663L17.493,556.058L16.614,555.562L16.614,551.277L15.79,550.782L15.79,542.815L14.141,542.815L14.141,550.727L13.757,550.727L12.767,559.34L12.274,559.355L11.227,550.727L10.623,550.727L10.623,544.409L9.357,544.409C9.357,544.409 8.571,543.742 8.611,543.409C8.793,541.779 9.049,540.173 9.376,538.592C9.394,538.499 9.416,538.408 9.438,538.317C9.497,538.035 9.557,537.75 9.622,537.472C10.486,533.755 11.747,530.192 13.358,526.824C14.498,527.597 15.639,528.658 15.652,528.669L15.782,528.789L18.916,528.789L19.041,528.688C28.765,520.567 46.815,517.109 58.204,516.56L57.392,516.93C58.491,517.699 59.919,519.389 60.029,519.829L60.848,518.839C60.344,518.032 59.522,517.105 58.797,516.531C59.502,516.503 60.184,516.486 60.83,516.479C73.586,516.365 93.379,521.594 102.513,529.561L102.635,529.67L105.958,529.67L106.371,529.255L108.292,527.409C110.002,531.101 111.292,535.024 112.105,539.117L111.579,540.339L109.16,540.339L109.16,545.617L106.521,545.617L106.521,542.537L104.325,542.537L104.325,570.677L98.168,570.677L98.168,556.387L93.553,556.387L93.553,573.096L92.716,573.814L92.716,575.795L90.911,576.612L90.911,579.02L87.906,579.02L87.906,576.612L86.102,575.795L86.102,573.814L85.27,573.096L85.27,569.796L80.8,569.796L80.8,579.469L77.064,579.469L77.064,584.086L74.648,584.086L74.648,586.502L69.152,586.502L69.152,584.086L67.171,584.086L67.171,576.391L64.192,576.391L64.192,585.362L63.052,586.129L63.052,589.979L61.299,591.296L61.299,596.652L60.646,597.42L60.376,599.991L60.01,599.991L60.011,599.991ZM102.944,528.789C101.89,527.886 100.699,527.018 99.405,526.189L99.405,514.914L100.178,514.914C101.173,516.054 102.12,517.237 103.014,518.458L103.014,528.789L102.944,528.789L102.944,528.789ZM105.43,528.789L105.43,522.061C106.325,523.518 107.148,525.023 107.898,526.57L105.747,528.639L105.596,528.789L105.43,528.789L105.43,528.789ZM18.517,527.91L18.517,518.245C19.339,517.137 20.198,516.061 21.102,515.022L22.251,515.019L22.251,525.337C20.955,526.139 19.735,526.992 18.624,527.909L18.517,527.909L18.517,527.91ZM16.098,527.887C15.788,527.606 14.793,526.718 13.75,526.028C14.47,524.584 15.252,523.176 16.098,521.812L16.098,527.887ZM98.526,525.639C97.484,525.007 96.384,524.401 95.229,523.819L95.229,514.919L98.526,514.916L98.526,525.639ZM23.129,524.807L23.129,515.017L26.427,515.012L26.427,523.073C25.287,523.617 24.183,524.193 23.129,524.807ZM94.349,523.384C93.286,522.871 92.185,522.381 91.052,521.911L91.052,514.924L94.349,514.919L94.349,523.384L94.349,523.384ZM27.308,522.663L27.308,515.012L30.603,515.009L30.603,521.281C29.48,521.712 28.38,522.175 27.308,522.662L27.308,522.663ZM90.172,521.553C89.096,521.122 87.991,520.715 86.875,520.327L86.875,514.929L90.172,514.924L90.172,521.553L90.172,521.553ZM31.482,520.952L31.482,515.007L34.783,515.002L34.783,519.829C33.669,520.178 32.567,520.552 31.482,520.952ZM85.993,520.024C84.908,519.659 83.808,519.316 82.698,518.994L82.698,514.937L85.993,514.932L85.993,520.024L85.993,520.024ZM35.661,519.557L35.661,515.002L38.956,514.997L38.956,518.637C37.851,518.922 36.753,519.227 35.661,519.557ZM81.819,518.743C80.724,518.436 79.623,518.15 78.522,517.885L78.522,514.942L81.819,514.937L81.819,518.743L81.819,518.743ZM39.838,518.414L39.838,514.994L43.136,514.989L43.136,517.662C42.039,517.891 40.938,518.14 39.838,518.414ZM77.643,517.677C76.54,517.423 75.439,517.191 74.346,516.98L74.346,514.95L77.643,514.945L77.643,517.678L77.643,517.677ZM44.012,517.478L44.012,514.989L47.313,514.984L47.313,516.874C46.224,517.053 45.124,517.254 44.012,517.478ZM73.463,516.817C68.94,515.997 64.58,515.566 60.822,515.601C57.33,515.631 52.922,515.986 48.191,516.731L48.191,514.984L73.463,514.947L73.463,516.817ZM23.344,512.598C32.858,502.933 46.084,496.929 60.687,496.929C65.328,496.929 69.829,497.54 74.116,498.677C75.351,499.352 75.959,499.956 76.354,500.544L77.17,500.225L76.175,499.268C76.956,499.509 77.729,499.769 78.493,500.046L77.502,499.893C79.15,500.553 80.092,501.391 80.971,502.27L81.681,502.091C80.671,500.996 80.304,500.807 79.644,500.479C86.571,503.177 92.788,507.301 97.932,512.498L66.326,512.542L66.663,512.192C65.893,510.982 64.095,509.291 62.885,508.632L62.006,509.4C63.196,509.949 64.62,511.477 65.384,512.544L23.343,512.599L23.344,512.598Z" style="fill:rgb(0,45,114);fill-rule:nonzero;"/>
            <path d="M67.196,542.751C67.933,543.189 68.525,543.086 68.712,542.874C68.766,542.812 68.792,542.731 68.792,542.635C68.792,542.439 68.679,542.185 68.462,541.916C67.573,540.8 65.824,540.106 64.649,539.884C65.105,540.841 66.02,542.052 67.196,542.751M69.35,541.206C69.768,541.727 69.93,542.217 69.93,542.635C69.93,543.038 69.779,543.377 69.569,543.62C68.94,544.344 67.725,544.389 66.615,543.728C64.876,542.696 63.536,540.687 63.24,539.34L63.099,538.694L63.761,538.653C65.139,538.565 67.999,539.515 69.35,541.206M91.294,560.115L83.678,560.052C83.678,560.052 81.123,554.636 80.85,554.062C80.235,554.052 75.413,553.971 75.413,553.971L72.707,548.456C72.707,548.456 76.963,548.622 78.244,548.671C77.622,547.316 74.854,541.309 74.854,541.309C73.492,538.681 69.737,533.728 65.343,533.964C64.6,534.004 64.233,534.442 64.021,535.172C69.455,535.822 71.916,537.943 72.863,539.211C73.829,540.506 74.318,541.85 74.318,543.093C74.318,544.022 74.044,544.895 73.492,545.652C72.02,547.663 68.941,548.288 65.831,547.208C60.82,545.468 56.997,540.198 56.997,535.301C56.997,535.041 57.022,534.782 57.045,534.521C56.802,534.327 56.52,534.151 56.365,534.166C56.354,534.168 56.33,534.169 56.289,534.233C54.24,537.632 64.041,555.518 67.731,562.253L68.192,563.094L59.315,563.094L59.148,562.926C56.186,559.948 52.509,553.832 49.552,548.919C49.552,548.919 48.842,547.758 48.154,546.629C48.512,548.078 48.892,549.609 48.892,549.609C49.965,554.157 51.303,559.817 52.637,562.309L53.086,563.152L52.129,563.145L44.822,563.091L44.654,562.888C42.934,560.816 40.858,556.016 38.663,550.933C35.65,543.968 31.528,534.427 29.026,535.147C28.913,535.18 28.825,535.237 28.767,535.404C28.392,536.455 29.693,539.436 31.098,541.456L32.112,542.916L25.93,540.696L25.835,540.589C23.776,538.321 21.928,534.072 22.532,531.16C22.817,529.789 23.618,528.772 24.848,528.216C26.495,527.471 28.211,527.435 29.947,528.108C34.518,529.881 38.13,536.084 40.07,540.111C39.111,535.588 37.589,530.801 36.501,529.092L35.943,528.218L42.97,528.218L43.141,528.442C44.004,529.57 45.285,531.686 46.768,534.137C47.774,535.794 48.847,537.533 49.916,539.201C49.345,537.57 48.955,535.904 48.955,534.351C48.955,533.041 49.171,531.833 49.62,530.858C50.342,529.298 51.608,528.349 53.282,528.118C55.806,527.833 57.948,529.406 58.909,530.352C59.315,529.92 59.712,529.487 60.263,529.144L60.279,529.134C62.315,527.943 68.03,527.499 72.27,531.619C72.853,530.111 74.095,528.998 75.775,528.611C77.885,528.127 80.323,528.895 82.169,530.474C83.196,529.761 84.354,529.051 85.523,528.842C92.075,527.674 95.312,532.736 95.782,535.225C95.952,536.132 96.024,536.954 96.024,537.707C96.024,539.599 95.582,541.044 95.204,542.273C94.932,543.166 94.706,543.898 94.706,544.601C94.706,545.235 94.891,545.846 95.383,546.526L95.775,547.062C95.775,547.062 93.188,548.391 92.378,548.807C93.976,548.832 96.313,548.869 96.313,548.869L98.544,554.309C98.544,554.309 89.968,554.177 88.451,554.153C89.039,555.381 91.294,560.115 91.294,560.115M90.635,548.781C89.468,547.931 87.422,545.509 83.14,540.09C81.985,538.626 80.752,537.072 79.958,536.139C80.042,536.376 80.132,536.622 80.279,536.911C80.279,536.911 85.81,548.66 85.831,548.708C86.161,548.713 88.234,548.744 90.635,548.781M86.475,537.121C87.482,538.695 88.362,539.799 89.198,540.806C89.218,540.594 89.25,540.277 89.25,540.277C89.357,539.407 89.462,538.573 89.462,537.632C89.462,537.166 89.435,536.673 89.372,536.137C89.288,535.427 88.785,534.375 88.022,533.827C87.541,533.482 87.001,533.369 86.422,533.492C86.238,533.53 86.012,533.706 85.923,534.01C85.895,534.101 85.88,534.199 85.88,534.3C85.88,534.794 86.202,535.39 86.791,535.981L87.179,536.371C87.179,536.371 86.638,536.947 86.475,537.121M84.834,533.684C85.028,533.024 85.561,532.511 86.187,532.379C87.079,532.191 87.944,532.371 88.687,532.903C89.772,533.684 90.388,535.058 90.501,536.004C90.708,537.755 90.539,539.107 90.379,540.416L90.054,543.613L89.183,542.581L88.425,541.659C87.463,540.501 86.467,539.304 85.267,537.363L85.035,536.993C85.035,536.993 85.495,536.502 85.657,536.329C85.023,535.536 84.746,534.819 84.746,534.303C84.746,534.055 84.785,533.845 84.834,533.685" style="fill:white;fill-rule:nonzero;"/>
            <path d="M54.312,598.761L52.391,598.486C52.006,597.716 50.962,596.564 50.467,596.179C50.988,595.96 51.401,595.465 51.292,591.891L53.021,592C52.911,595.959 52.171,595.958 51.896,595.958C52.5,596.343 54.312,598.761 54.312,598.761L54.312,598.761ZM57.776,598.595C57.5,597.936 55.468,596.673 54.973,596.288C55.068,596.21 55.387,596.109 55.658,595.888C56.147,595.494 56.836,594.354 56.788,591.865L58.323,591.756C58.241,594.613 57.527,595.527 57.247,595.756C57.044,595.98 56.607,596.015 56.402,596.07C57.563,596.53 59.368,598.432 59.368,598.432L57.776,598.595L57.776,598.595ZM49.036,598.541L47.39,598.377C47.222,597.498 46.728,596.398 46.234,596.013C46.783,595.022 46.784,593.595 45.904,591.782L47.553,591.891C48.433,594.089 48.212,595.19 47.719,595.958C48.323,596.343 49.036,598.541 49.036,598.541L49.036,598.541ZM44.642,597.994L42.827,597.496C42.608,596.507 42.166,595.848 41.673,595.463C42.198,595.287 41.941,594.651 41.606,593.82C41.311,593.083 40.932,592.523 40.517,591.67L42.166,591.782C43.268,593.652 44.091,595.465 43.268,595.684C43.872,596.069 44.642,597.994 44.642,597.994L44.642,597.994ZM64.807,597.937C63.655,596.618 62.609,596.123 62.116,595.738C62.993,595.298 63.709,593.815 63.49,591.562L65.25,591.123C65.139,593.981 64.479,595.081 63.656,595.3C64.26,595.685 66.622,597.773 66.622,597.773L64.807,597.937L64.807,597.937ZM40.437,596.993L38.791,596.684C38.5,595.885 38.072,595.256 37.528,594.859C37.669,594.001 37.372,593.234 36.123,591.341L37.671,591.541C39.179,593.482 39.046,594.395 39.029,595.062C39.679,595.458 40.437,596.993 40.437,596.993L40.437,596.993ZM69.536,596.946C68.877,596.176 67.612,595.574 67.12,595.191C67.665,594.201 69.096,592.607 68.877,590.353L70.415,590.133C69.975,593.76 69.318,594.309 68.494,594.53C69.098,594.915 71.351,596.674 71.351,596.674L69.536,596.946L69.536,596.946ZM74.7,595.629C74.315,594.859 73.327,594.474 72.831,594.089C73.382,593.1 74.372,591.45 74.153,589.197L75.857,588.705C75.526,592.001 75.141,593.43 74.316,593.649C74.92,594.033 76.406,595.354 76.406,595.354L74.7,595.629L74.7,595.629ZM79.538,593.926C79.153,593.156 78.163,592.771 77.669,592.386C78.22,591.397 79.098,590.188 78.879,587.935L80.526,587.276C80.196,590.684 79.868,591.561 79.045,591.782C80.034,592.331 81.244,593.485 81.244,593.485L79.538,593.926L79.538,593.926ZM84.702,592C84.317,591.231 83.329,591.068 82.836,590.683C83.383,589.694 84.374,588.21 84.155,585.957L85.913,585.078C85.802,587.825 85.143,589.694 84.319,589.913C85.417,590.407 86.354,591.453 86.354,591.453L84.702,592L84.702,592ZM89.045,589.913C88.66,589.363 87.674,588.978 87.178,588.593C87.727,587.604 88.771,586.341 88.552,584.087L90.308,583.099C90.2,585.957 89.54,587.77 88.716,587.989C89.54,588.374 90.531,589.363 90.531,589.363L89.045,589.913L89.045,589.913ZM93.167,587.496C92.782,586.727 92.289,586.78 91.793,586.395C92.344,585.406 93.386,583.374 93.167,581.119L94.704,580.022C94.484,583.54 94.101,585.461 93.276,585.682C93.88,586.067 94.484,586.727 94.484,586.727L93.167,587.496L93.167,587.496ZM97.567,584.691C97.401,584.087 96.737,583.868 96.244,583.483C96.794,582.494 97.233,580.297 97.014,578.044L98.552,576.942C98.663,580.35 98.166,581.724 97.618,582.768C98.222,583.153 98.552,583.704 98.552,583.704L97.567,584.691L97.567,584.691ZM101.466,581.342C101.3,580.736 100.808,580.516 100.312,580.131C100.586,578.921 101.136,577.164 100.807,575.405L102.013,574.142C102.29,576.12 102.125,578.208 101.795,579.252C102.18,579.527 102.565,580.131 102.565,580.131L101.466,581.342L101.466,581.342ZM104.489,577.494C104.489,577.26 104.515,575.746 104.076,575.526C104.206,574.493 103.895,573.338 103.498,572.656L104.543,571.391C105.061,572.437 105.301,574.049 105.225,574.878C105.354,575.311 105.493,575.254 105.531,575.734L104.489,577.494L104.489,577.494ZM15.074,570.79C14.194,568.922 14.413,567.162 14.744,565.843C13.863,564.964 13.164,564.433 12.613,562.784L13.484,562.234C13.594,563.442 14.525,564.632 15.623,565.511C15.074,567.38 15.853,569.157 16.183,570.476L15.074,570.79L15.074,570.79ZM17.822,570.017C17.231,568.02 17.162,566.174 17.493,564.853C16.611,563.973 15.364,563.342 14.814,561.693L15.903,561.135C16.343,562.343 17.493,563.973 18.701,564.303C18.15,566.173 18.762,568.211 19.092,569.53L17.822,570.017L17.822,570.017ZM21.28,568.659C20.62,566.79 20.901,565.369 21.12,563.17L21.317,563.074C20.431,562.21 18.697,561.764 18.151,560.129L19.25,559.248C19.688,560.457 21.56,561.997 22.768,562.325L22.439,562.512C21.888,564.38 22.22,566.689 22.548,568.008L21.28,568.659L21.28,568.659ZM24.796,566.839C23.918,564.969 23.91,563.186 23.977,561.581L24.363,561.335C22.73,560.255 21.335,559.896 20.79,558.26L21.89,557.378C22.329,558.588 24.307,560.237 25.517,560.567L25.045,560.899L25.187,560.811C24.756,562.619 25.625,564.817 25.957,566.136L24.796,566.839L24.796,566.839ZM28.594,564.202C27.824,562.42 26.836,559.357 27.466,558.97L27.785,558.574C26.348,558.026 23.754,557.368 23.445,556.087L24.485,555.149C24.689,556.002 26.612,556.941 28.703,557.49L28.342,557.936C28.289,559.741 29.317,562.009 29.75,563.204L28.594,564.202ZM51.279,562.001C50.018,561.991 45.87,561.96 45.394,561.957C43.796,559.923 41.813,555.353 39.706,550.48C35.156,539.954 31.934,533.124 28.714,534.054C28.224,534.195 27.872,534.53 27.697,535.021C27.608,535.268 27.57,535.548 27.57,535.848C27.57,537.303 28.485,539.264 29.3,540.696C28.075,540.258 26.792,539.794 26.606,539.726C24.991,537.903 23.552,534.778 23.552,532.382C23.552,532.033 23.58,531.702 23.645,531.391C23.859,530.363 24.407,529.664 25.315,529.253C26.695,528.629 28.074,528.599 29.533,529.167C34.71,531.175 38.823,539.945 39.958,542.586C40.577,544.021 40.81,544.562 41.402,544.388C41.731,544.293 41.838,544.081 41.838,543.724C41.838,543.475 41.786,543.155 41.721,542.752C41.721,542.752 41.635,542.22 41.635,542.21C40.915,537.967 39.336,532.202 37.931,529.353L42.395,529.353C43.22,530.48 44.415,532.438 45.799,534.725C47.415,537.394 49.248,540.422 50.886,542.725C52.417,544.884 52.613,545.159 53.159,544.831C53.7,544.504 53.549,544.208 52.348,541.839C50.214,538.509 49.472,533.891 50.652,531.331C51.211,530.123 52.15,529.42 53.426,529.244C55.854,528.97 58.001,530.937 58.443,531.481L58.897,532.041L59.335,531.468C59.741,530.937 60.23,530.506 60.862,530.11C62.455,529.184 67.831,528.6 71.733,532.637L71.795,532.723L72.461,533.12L72.785,533.268L73.029,532.648C73.029,532.648 73.151,532.342 73.208,532.228C73.825,530.545 75.084,529.936 76.029,529.718C77.918,529.285 80.173,530.003 81.779,531.551L82.118,531.878L82.502,531.606C83.498,530.899 84.66,530.15 85.722,529.959C92.016,528.838 94.411,534.075 94.666,535.432C94.826,536.269 94.889,537.02 94.889,537.709C94.889,539.423 94.486,540.739 94.119,541.937C93.834,542.87 93.567,543.737 93.567,544.618C93.567,545.26 93.783,545.924 94.161,546.614C93.333,547.042 91.772,547.841 91.48,547.991C90.48,547.533 86.462,542.456 84.034,539.383C79.777,533.992 79.729,534.016 79.15,534.299L78.67,534.859C78.425,535.594 78.94,536.781 79.267,537.423C79.267,537.423 84.808,549.193 84.799,549.17L85.069,549.831C85.069,549.831 94.854,549.982 95.551,549.992C95.74,550.462 96.45,552.192 96.842,553.145C95.398,553.122 86.64,552.987 86.64,552.987C86.64,552.987 88.903,557.741 89.487,558.962C88.239,558.951 84.943,558.923 84.405,558.918C84.13,558.341 81.577,552.937 81.577,552.937C81.577,552.937 76.737,552.854 76.13,552.844C75.919,552.419 75.062,550.671 74.566,549.666C75.872,549.717 80.052,549.878 80.052,549.878C80.052,549.878 75.888,540.833 75.878,540.809C74.279,537.72 70.245,532.561 65.282,532.827C64.25,532.883 62.969,533.399 62.713,535.546L62.646,536.127L63.226,536.179C68.777,536.667 71.075,538.714 71.953,539.889C73.348,541.759 73.574,543.614 72.575,544.978C71.402,546.584 68.841,547.046 66.208,546.132C61.368,544.453 57.623,538.937 58.194,534.331L58.228,534.056L58.034,533.862C57.881,533.709 57.08,532.952 56.252,533.035C55.879,533.073 55.563,533.269 55.329,533.626C55.049,534.089 54.917,534.715 54.917,535.479C54.917,540.348 60.249,550.909 66.28,561.954L59.814,561.954C56.972,559.023 53.407,553.116 50.528,548.33C50.528,548.33 48.016,544.223 47.943,544.11C47.318,543.161 47.107,542.842 46.61,543.068C46.363,543.179 46.263,543.328 46.263,543.583C46.263,543.851 46.373,544.233 46.533,544.807L47.785,549.868C48.832,554.303 50.015,559.175 51.28,562.001L51.279,562.001ZM31.731,561.625C30.74,558.768 30.244,557.267 30.572,555.839L30.881,555.504C29.983,555.172 27.503,554.479 26.522,552.95L27.383,551.773C28.153,552.872 30.462,554.08 32.001,554.301L31.669,554.669C31.465,556.75 32.444,559.255 32.882,560.456L31.731,561.625L31.731,561.625ZM36.076,556.847C34.876,555.115 33.651,552.872 33.761,551.553L34.064,551.219C31.827,550.729 30.63,550.789 29.097,549.583L30.079,548.146C30.848,549.245 33.651,549.797 35.189,550.016L34.857,550.379C34.768,552.131 36.084,554.316 37.066,555.408L36.076,556.847L36.076,556.847ZM34.969,546.497C34.199,546.278 32.99,545.947 31.892,545.398L31.653,545.279L32.138,544.125C32.856,544.614 33.882,544.973 34.857,545.126L34.969,546.497L34.969,546.497ZM68.273,544.19C68.794,544.171 69.255,543.978 69.569,543.617C69.78,543.373 69.93,543.035 69.93,542.631C69.93,542.213 69.767,541.724 69.349,541.203C67.998,539.512 65.139,538.56 63.762,538.649L63.101,538.691L63.241,539.336C63.536,540.684 64.877,542.694 66.616,543.726C67.171,544.056 67.752,544.209 68.273,544.19L68.273,544.19ZM90.053,543.611L90.38,540.415C90.539,539.106 90.709,537.753 90.502,536.002C90.389,535.057 89.772,533.683 88.687,532.902C87.943,532.369 87.08,532.188 86.188,532.375C85.562,532.508 85.028,533.022 84.834,533.682C84.786,533.843 84.746,534.053 84.746,534.302C84.746,534.818 85.022,535.533 85.656,536.326C85.493,536.499 85.034,536.99 85.034,536.99L85.267,537.361C86.467,539.302 87.463,540.499 88.425,541.657L89.182,542.58L90.053,543.611L90.053,543.611ZM48.267,530.591C47.935,529.71 47.606,529.274 47.826,528.393L48.353,527.737C47.047,527.953 46.17,527.898 44.86,527.789L43.979,526.633C44.858,526.633 47.934,526.745 49.034,526.415L48.412,527.659L48.705,527.294C48.705,527.294 48.704,528.613 49.034,529.383L48.267,530.591L48.267,530.591ZM52.941,526.913C51.909,525.779 50.675,524.173 50.689,523.441L51.067,522.975C50.154,523.184 47.401,523.029 45.34,522.811L46.139,521.543C47.235,521.653 51.203,521.712 52.301,521.492L51.865,522.028C51.66,522.614 51.808,523.367 52.324,524.056C52.86,524.769 53.821,525.796 54.772,526.866C54.06,526.688 52.941,526.913 52.941,526.913L52.941,526.913ZM56.96,524.006C56.519,523.346 53.372,520.301 53.921,518.982L54.697,518.72C54.697,518.72 55.415,518.287 54.642,518.72C53.852,519.161 49.846,519.38 47.759,519.161L48.799,517.673C49.897,517.782 54.541,517.95 55.643,517.73C55.582,517.783 54.741,518.57 54.971,518.94C55.36,519.568 55.89,520.632 57.87,522.643L56.96,524.006L56.96,524.006ZM60.027,519.861C59.917,519.421 58.486,517.731 57.388,516.962L58.204,516.592C58.402,516.582 58.6,516.571 58.795,516.563C59.522,517.137 60.342,518.068 60.846,518.873L60.027,519.861L60.027,519.861ZM65.386,512.573C64.621,511.508 63.195,509.983 62.005,509.434L62.884,508.664C64.093,509.324 65.891,511.013 66.661,512.221L66.324,512.573L65.386,512.573ZM60.356,511.521C57.939,511.192 55.063,511.082 53.745,511.303L54.751,510.146C56.838,510.037 59.257,510.256 61.017,510.696L60.356,511.521L60.356,511.521ZM68.782,510.289C68.352,509.597 66.495,507.188 65.067,506.527L66.055,505.869C67.264,506.527 68.782,508.132 69.552,509.4L68.782,510.289L68.782,510.289ZM62.829,508.609C62.06,508.279 61.125,508.004 56.418,508.054L57.53,506.955C61.048,507.065 62.004,507.29 63.763,507.728L62.829,508.609L62.829,508.609ZM71.447,507.759C70.9,506.771 69.368,505.249 67.939,504.591L68.818,504.041C70.028,504.7 71.559,505.782 72.329,506.991L71.447,507.759L71.447,507.759ZM65.943,505.869C64.184,505.265 61.176,504.821 59.418,505.042L60.846,504.051C62.824,503.942 65.284,504.659 67.042,505.099L65.943,505.869ZM74.076,505.773C73.528,504.784 72.114,503.717 70.685,503.058L71.219,502.758C70.779,502.205 70.116,501.234 66.537,500.476L67.817,500.043C71.222,500.702 72.445,502.345 71.675,502.454L71.419,502.646L71.675,502.504C72.885,503.162 74.187,503.956 74.957,505.164L74.076,505.773L74.076,505.773ZM76.562,504.279C75.466,502.96 74.863,502.366 73.215,501.708L73.85,501.435L73.765,501.464C73.197,500.714 72.263,499.865 69.676,499.276L71.175,498.952C73.06,499.172 75.082,501.025 74.423,501.244L74.123,501.345C75.314,501.995 76.134,502.423 77.332,503.841L76.562,504.279L76.562,504.279ZM68.544,504.158C67.115,502.948 65.469,502.449 63.27,502.229L64.543,501.464C66.849,501.575 69.807,503.223 69.256,503.774L68.543,504.158L68.544,504.158ZM78.824,503.136C78.054,502.147 77.395,501.484 75.967,500.824L76.731,500.499C77.941,501.158 78.273,501.487 79.594,502.916L78.824,503.136L78.824,503.136Z" style="fill:rgb(255,89,16);fill-rule:nonzero;"/>
            <path d="M68.162,543.061C67.899,543.058 67.566,542.975 67.198,542.755C66.021,542.058 65.107,540.845 64.649,539.888C65.825,540.11 67.572,540.805 68.463,541.92C68.678,542.191 68.792,542.445 68.792,542.641C68.792,542.736 68.766,542.817 68.712,542.88C68.619,542.986 68.425,543.064 68.162,543.061L68.162,543.061ZM89.198,540.811C88.363,539.805 87.483,538.701 86.476,537.127C86.638,536.951 87.178,536.377 87.178,536.377L86.792,535.986C86.203,535.394 85.88,534.801 85.88,534.306C85.88,534.205 85.895,534.106 85.924,534.013C86.013,533.709 86.24,533.534 86.424,533.497C87.003,533.374 87.542,533.487 88.024,533.832C88.787,534.379 89.287,535.431 89.372,536.142C89.435,536.676 89.462,537.17 89.462,537.637C89.462,538.578 89.357,539.412 89.247,540.282C89.247,540.282 89.22,540.6 89.198,540.811L89.198,540.811Z" style="fill:rgb(0,45,114);fill-rule:nonzero;"/>
        </g>
    </g>
</svg>
