<?xml version="1.0" encoding="UTF-8" standalone="no"?>
<!DOCTYPE svg PUBLIC "-//W3C//DTD SVG 1.1//EN" "http://www.w3.org/Graphics/SVG/1.1/DTD/svg11.dtd">
<svg width="100%" height="100%" viewBox="0 0 302 335" version="1.1" xmlns="http://www.w3.org/2000/svg" xmlns:xlink="http://www.w3.org/1999/xlink" xml:space="preserve" xmlns:serif="http://www.serif.com/" style="fill-rule:evenodd;clip-rule:evenodd;stroke-linejoin:round;stroke-miterlimit:2;">
    <g>
        <g transform="matrix(6.58,0,0,-6.58,151,0.99535)">
            <path d="M0,0C-12.57,0 -22.797,-10.226 -22.797,-22.796C-22.797,-31.535 -17.932,-39.356 -10.101,-43.233C-10.134,-43.298 -10.209,-43.444 -10.209,-43.444C-10.573,-44.154 -11.33,-45.632 -11.561,-45.739L-11.989,-45.873C-12.2,-45.924 -12.418,-45.976 -12.61,-46.125C-12.817,-46.283 -13.134,-46.886 -13.134,-47.196L-13.15,-47.302C-13.167,-47.395 -13.192,-47.525 -13.192,-47.684C-13.192,-48.188 -12.942,-48.987 -11.425,-49.826C-11.422,-49.828 -11.117,-49.988 -11.117,-49.988C-9.051,-50.962 -8.329,-50.197 -8.058,-49.911L-7.981,-49.836C-7.73,-49.654 -7.427,-49.045 -7.419,-48.784C-7.418,-48.774 -7.418,-48.764 -7.418,-48.755C-7.418,-48.524 -7.5,-48.326 -7.579,-48.134L-7.721,-47.708C-7.722,-47.702 -7.722,-47.695 -7.722,-47.688C-7.722,-47.398 -6.929,-45.872 -6.541,-45.128C-6.541,-45.128 -6.372,-44.801 -6.32,-44.7C-4.274,-45.289 -2.15,-45.593 -0,-45.593C12.57,-45.593 22.796,-35.366 22.796,-22.796C22.796,-10.226 12.57,0 -0,0" style="fill:white;fill-rule:nonzero;"/>
        </g>
        <g transform="matrix(6.58,0,0,-6.58,94.087,195.32)">
            <path d="M0,0C-0.047,-0.056 -0.037,-0.138 0.019,-0.184L0.338,-0.446C0.394,-0.491 0.476,-0.483 0.523,-0.427C0.568,-0.371 0.559,-0.288 0.504,-0.244L0.184,0.019C0.128,0.064 0.046,0.056 0,0" style="fill:rgb(227,0,43);fill-rule:nonzero;"/>
        </g>
        <g transform="matrix(6.58,0,0,-6.58,103.15,202.97)">
            <path d="M0,0C0.061,-0.039 0.142,-0.021 0.18,0.04C0.219,0.101 0.201,0.182 0.142,0.221L-0.149,0.406C-0.208,0.445 -0.29,0.427 -0.329,0.366C-0.368,0.306 -0.35,0.225 -0.289,0.186L0,0Z" style="fill:rgb(227,0,43);fill-rule:nonzero;"/>
        </g>
        <g transform="matrix(6.58,0,0,-6.58,99.789,212.69)">
            <path d="M0,0C0.048,0.054 0.044,0.136 -0.009,0.185L-0.619,0.737C-0.673,0.785 -0.756,0.781 -0.805,0.728C-0.853,0.674 -0.848,0.591 -0.794,0.542L-0.184,-0.009C-0.131,-0.057 -0.049,-0.053 0,-0" style="fill:rgb(227,0,43);fill-rule:nonzero;"/>
        </g>
        <g transform="matrix(6.58,0,0,-6.58,211.26,204.17)">
            <path d="M0,0C-0.072,-0.007 -0.124,-0.071 -0.117,-0.143C-0.109,-0.216 -0.046,-0.267 0.026,-0.26L0.608,-0.202C0.679,-0.195 0.731,-0.131 0.724,-0.059C0.717,0.013 0.653,0.065 0.58,0.058L0,-0Z" style="fill:rgb(227,0,43);fill-rule:nonzero;"/>
        </g>
        <g transform="matrix(6.58,0,0,-6.58,201.53,163.86)">
            <path d="M0,0C0.683,1.299 -0.952,3.102 -3.372,4.29C-5.791,5.478 -8.107,5.717 -8.849,4.301C-9.249,3.54 -8.385,2.484 -6.914,1.502C-6.859,1.66 -6.807,1.812 -6.756,1.96C-6.719,2.071 -6.697,2.19 -6.648,2.293C-6.623,2.37 -6.593,2.454 -6.569,2.53C-6.552,2.587 -6.463,2.729 -6.388,2.838C-6.091,3.281 -5.095,3.373 -4.167,2.935C-3.237,2.497 -2.574,1.466 -2.833,0.79C-2.833,0.787 -2.833,0.786 -2.834,0.783C-2.883,0.659 -2.979,0.493 -3.015,0.446C-3.165,0.248 -3.321,0.035 -3.483,-0.19C-1.792,-0.754 -0.405,-0.77 0,0" style="fill:rgb(20,36,72);fill-rule:nonzero;"/>
        </g>
        <g transform="matrix(6.58,0,0,-6.58,174.61,170.97)">
            <path d="M0,0L-0.019,0C-0.09,-0.103 -0.161,-0.207 -0.234,-0.313C-0.231,-0.318 -0.229,-0.322 -0.228,-0.322C0.647,-0.626 2.254,-1.732 2.785,-2.294C2.8,-2.311 2.824,-2.333 2.838,-2.347C2.843,-2.35 2.85,-2.351 2.854,-2.353C2.988,-2.271 3.124,-2.192 3.262,-2.12C3.344,-2.078 3.426,-2.037 3.509,-1.999L3.492,-1.981C3.143,-1.661 0.93,-0.377 0,0" style="fill:rgb(20,36,72);fill-rule:nonzero;"/>
        </g>
        <g transform="matrix(6.58,0,0,-6.58,152.52,163.65)">
            <path d="M0,0C0.052,0.135 0.104,0.27 0.154,0.404C-0.723,0.864 -2.264,1.391 -3.058,1.7C-3.173,1.745 -3.299,1.804 -3.431,1.873C-3.642,1.985 -3.868,2.127 -4.094,2.297C-5.005,2.981 -5.906,4.11 -5.731,5.506C-5.575,6.744 -4.592,7.354 -3.21,7.524C-2.989,7.551 -2.76,7.567 -2.521,7.572C-0.326,7.622 2.578,6.789 4.844,5.65C6.603,4.77 8.956,3.059 10.113,1.943C10.398,1.668 10.624,1.437 10.818,1.223C10.981,1.042 11.119,0.871 11.23,0.711C11.596,0.178 11.706,-0.303 11.758,-1.119C11.762,-1.946 11.533,-2.69 11.251,-3.28C11.247,-3.289 11.246,-3.296 11.242,-3.304C11.49,-3.155 11.75,-3.023 12.009,-2.913C12.011,-2.903 12.014,-2.896 12.014,-2.895C12.031,-2.82 12.041,-2.672 12.041,-2.672C12.409,-0.949 12.072,0.571 11.54,1.677C11.409,1.95 11.267,2.195 11.12,2.413C10.918,2.715 10.708,2.967 10.509,3.153C9.602,4.003 10.034,3.368 10.335,2.978C10.549,2.702 10.651,2.539 10.742,2.368C10.901,2.064 10.976,1.885 10.987,1.793C10.982,1.771 10.976,1.748 10.971,1.727C10.905,1.704 10.691,1.888 10.364,2.223C9.13,3.485 6.979,5.084 5.004,6.073C2.575,7.288 -0.341,7.925 -2.234,7.999C-2.444,8.007 -2.644,8.01 -2.825,8.005C-2.51,8.15 -2.255,8.239 -2.008,8.302C-1.662,8.39 -1.331,8.423 -0.879,8.469C-0.192,8.539 -0.462,8.675 -0.879,8.643C-1.13,8.624 -1.436,8.606 -1.77,8.578C-2.024,8.556 -2.294,8.528 -2.573,8.487C-4.071,8.271 -5.779,7.708 -6.138,5.913C-6.498,4.104 -5.339,2.518 -3.954,1.648C-3.728,1.505 -3.495,1.384 -3.261,1.281C-3.203,1.257 -3.145,1.229 -3.086,1.206C-1.614,0.632 -0.061,-0.049 -0.024,-0.066L-0.021,-0.066L-0,0Z" style="fill:rgb(20,36,72);fill-rule:nonzero;"/>
        </g>
        <g transform="matrix(6.58,0,0,-6.58,159.51,98.155)">
            <path d="M0,0L0.149,0.462L0.445,0.054L0.939,0.034L0.627,-0.343L0.77,-0.829L0.29,-0.648L-0.113,-0.948L-0.096,-0.44L-0.485,-0.151L0,0ZM2.825,0.047L3.202,0.681L3.502,-0.02L4.225,-0.217L3.637,-0.669L3.685,-1.434L3.039,-1.006L2.343,-1.315L2.536,-0.569L2.058,-0.015L2.825,0.047ZM5.813,-0.797L6.596,-1.25L7.383,-0.891L7.204,-1.769L7.77,-2.441L6.902,-2.486L6.436,-3.256L6.099,-2.41L5.221,-2.243L5.905,-1.653L5.813,-0.797ZM8.625,-4.398L8.793,-3.908L9.104,-4.354L9.625,-4.358L9.305,-4.792L9.443,-5.303L8.957,-5.106L8.506,-5.409L8.538,-4.861L8.102,-4.547L8.625,-4.398ZM4.832,-2.856C5.879,-3.378 7.244,-4.395 8.754,-6.108L10.099,-5.339L10.352,-5.194C9.917,-2.463 8.392,-0.593 6.285,0.543C3.425,2.086 0.228,1.3 -1.094,0.383L-1.071,0.081L-0.977,-1.17C1.347,-1.287 3.787,-2.333 4.832,-2.856" style="fill:rgb(20,36,72);fill-rule:nonzero;"/>
        </g>
        <g transform="matrix(6.58,0,0,-6.58,158.43,195.62)">
            <path d="M0,0L-0.024,0.002C0.158,0.289 0.34,0.575 0.523,0.858C0.578,0.944 0.632,1.027 0.687,1.112L0.716,1.121C0.861,1.18 1.032,1.229 1.206,1.265C1.638,1.353 2.088,1.35 2.188,1.129C2.191,1.119 2.191,1.11 2.195,1.1C2.257,0.923 2.157,0.734 1.953,0.56C1.548,0.214 0.737,-0.058 -0,0M-7.679,-12.23C-7.71,-12.218 -7.741,-12.209 -7.773,-12.198C-6.131,-9.224 -2.804,-3.387 -0.128,1.096C-0.028,1.263 0.069,1.425 0.166,1.589C0.606,2.32 1.026,3.013 1.413,3.642C2.241,4.927 3.193,6.464 3.278,6.601C3.329,6.558 3.425,6.406 3.416,6.275C3.407,6.158 1.704,3.623 1.597,3.461C1.203,2.861 0.785,2.208 0.354,1.519C0.254,1.358 0.152,1.196 0.049,1.031C-2.715,-3.422 -5.973,-9.172 -7.679,-12.23M-2.664,-2.273C-2.507,-1.968 -1.607,-0.431 -0.578,1.302C-0.482,1.462 -0.385,1.625 -0.288,1.788C0.997,3.945 2.389,6.252 2.756,6.806C2.788,6.974 2.585,7.089 2.585,7.089C2.321,6.633 1.033,4.435 -0.469,1.875C-0.563,1.713 -0.658,1.551 -0.754,1.387C-3.105,-2.625 -5.84,-7.299 -5.992,-7.59C-5.661,-6.984 -3.458,-2.537 -2.642,-0.965C-2.373,-0.444 -1.913,0.586 -1.407,1.762C-1.333,1.934 -1.258,2.11 -1.183,2.286C-0.133,4.75 1.019,7.603 1.06,7.796C1.832,7.821 2.679,7.473 3.132,6.851C3.141,6.868 2.96,6.568 2.96,6.568C2.813,6.342 0.744,3.004 -0.06,1.679C-0.202,1.446 -0.305,1.274 -0.351,1.193C-0.354,1.187 -0.36,1.176 -0.363,1.171C-0.627,0.699 -7.302,-10.673 -7.302,-10.673C-5.653,-7.47 -3.026,-2.982 -2.664,-2.273M-1.631,1.905C-1.552,2.087 -1.476,2.264 -1.403,2.439C-0.259,5.143 0.329,7.025 0.418,7.354L0.584,7.39C0.072,5.839 -0.645,4.051 -1.357,2.404C-1.435,2.227 -1.511,2.049 -1.589,1.874C-2.605,-0.432 -3.566,-2.357 -3.868,-2.771C-2.978,-1.078 -2.235,0.509 -1.631,1.905M-8.195,-11.94C-8.197,-11.945 -8.212,-11.976 -8.236,-12.019C-8.242,-12.016 -8.25,-12.014 -8.256,-12.011C-8.233,-11.965 -8.211,-11.921 -8.196,-11.89C-8.063,-11.662 -8.179,-11.889 -8.195,-11.94M-8.827,-14.312L-8.849,-14.35L-8.849,-14.375C-8.86,-14.365 -8.853,-14.394 -8.865,-14.384C-8.86,-14.399 -8.866,-14.416 -8.874,-14.425C-8.894,-14.442 -8.895,-14.455 -8.905,-14.478C-8.905,-14.478 -8.897,-14.486 -8.902,-14.49C-8.917,-14.503 -8.914,-14.527 -8.928,-14.545C-8.947,-14.569 -9.004,-14.587 -9.02,-14.618C-8.981,-14.539 -8.942,-14.463 -8.9,-14.407C-8.868,-14.365 -8.897,-14.393 -8.876,-14.351C-8.865,-14.321 -8.785,-14.101 -8.771,-14.069C-8.74,-13.997 -8.665,-13.847 -8.556,-13.64C-8.53,-13.649 -8.502,-13.658 -8.476,-13.667C-8.654,-13.991 -8.777,-14.217 -8.827,-14.312M-9.055,-14.84C-9.057,-14.844 -9.111,-14.847 -9.114,-14.861C-9.119,-14.877 -9.11,-14.897 -9.119,-14.909C-9.164,-14.975 -9.16,-15.038 -9.184,-15.112C-9.187,-15.121 -9.211,-15.124 -9.211,-15.13C-9.206,-15.201 -9.29,-15.249 -9.306,-15.313C-9.335,-15.429 -9.385,-15.52 -9.431,-15.634C-9.434,-15.643 -9.456,-15.645 -9.457,-15.653C-9.464,-15.699 -9.513,-15.716 -9.526,-15.755C-9.53,-15.764 -9.524,-15.781 -9.53,-15.785C-9.558,-15.805 -9.569,-15.835 -9.591,-15.858C-9.599,-15.867 -9.59,-15.889 -9.595,-15.905C-9.606,-15.936 -9.633,-15.96 -9.639,-15.991C-9.665,-16.13 -9.71,-16.26 -9.765,-16.381C-9.779,-16.411 -9.801,-16.453 -9.789,-16.495C-9.828,-16.494 -9.778,-16.55 -9.822,-16.546C-9.822,-16.579 -9.813,-16.615 -9.826,-16.644C-9.86,-16.733 -9.87,-16.821 -9.89,-16.914C-9.894,-16.93 -9.917,-16.947 -9.917,-16.965C-9.912,-17.037 -9.992,-17.095 -9.992,-17.168C-9.992,-17.23 -10.029,-17.269 -10.056,-17.333C-10.072,-17.37 -10.102,-17.404 -10.128,-17.44C-10.167,-17.496 -10.231,-17.55 -10.262,-17.608C-10.271,-17.626 -10.227,-17.66 -10.249,-17.671C-10.262,-17.676 -10.274,-17.678 -10.281,-17.691C-10.303,-17.737 -10.254,-17.802 -10.314,-17.825C-10.35,-17.95 -10.485,-18.058 -10.524,-18.182C-10.537,-18.222 -10.483,-18.274 -10.499,-18.311C-10.542,-18.402 -10.545,-18.469 -10.577,-18.565C-10.582,-18.579 -10.595,-18.591 -10.607,-18.581C-10.621,-18.571 -10.624,-18.553 -10.627,-18.534C-10.631,-18.521 -10.664,-18.52 -10.66,-18.483C-10.645,-18.357 -10.567,-18.305 -10.537,-18.188C-10.495,-18.031 -10.469,-17.892 -10.441,-17.744C-10.433,-17.704 -10.417,-17.668 -10.413,-17.625C-10.412,-17.612 -10.42,-17.603 -10.42,-17.591C-10.414,-17.543 -10.372,-17.507 -10.384,-17.457C-10.313,-17.368 -10.332,-17.246 -10.257,-17.15C-10.245,-17.136 -10.209,-17.106 -10.2,-17.088C-10.145,-16.984 -10.159,-16.881 -10.096,-16.778C-10.089,-16.768 -10.082,-16.772 -10.076,-16.759C-10.065,-16.735 -10.005,-16.693 -9.998,-16.665C-9.993,-16.646 -10.023,-16.621 -10.008,-16.596C-10.003,-16.588 -10.009,-16.575 -10.005,-16.565C-9.987,-16.518 -9.948,-16.481 -9.933,-16.432C-9.914,-16.373 -9.894,-16.311 -9.852,-16.265C-9.842,-16.255 -9.828,-16.242 -9.828,-16.226C-9.826,-16.21 -9.842,-16.193 -9.792,-16.175C-9.796,-16.11 -9.734,-16.073 -9.718,-16.009C-9.712,-15.981 -9.677,-15.951 -9.664,-15.921C-9.651,-15.884 -9.635,-15.847 -9.626,-15.805C-9.623,-15.792 -9.61,-15.783 -9.595,-15.788C-9.595,-15.771 -9.599,-15.753 -9.592,-15.739C-9.541,-15.64 -9.458,-15.566 -9.427,-15.452C-9.424,-15.443 -9.403,-15.442 -9.398,-15.433C-9.391,-15.419 -9.402,-15.396 -9.394,-15.385C-9.333,-15.311 -9.318,-15.228 -9.267,-15.146C-9.259,-15.133 -9.268,-15.112 -9.263,-15.097C-9.247,-15.056 -9.219,-15.019 -9.201,-14.978C-9.195,-14.964 -9.205,-14.942 -9.196,-14.93C-9.177,-14.899 -9.157,-14.871 -9.138,-14.841C-9.101,-14.783 -9.065,-14.706 -9.025,-14.628C-9.043,-14.69 -9.016,-14.782 -9.055,-14.84M-10.929,-17.621C-10.978,-17.758 -11.012,-17.86 -11.026,-17.908C-11.091,-18.134 -11.171,-18.471 -11.236,-18.766C-11.276,-18.948 -11.373,-18.986 -11.473,-18.948C-11.537,-18.925 -11.601,-18.881 -11.655,-18.836C-11.686,-18.812 -11.728,-18.804 -11.777,-18.779C-11.792,-18.771 -11.807,-18.796 -11.823,-18.786C-11.847,-18.769 -11.874,-18.717 -11.901,-18.704C-11.942,-18.687 -12.002,-18.65 -12.045,-18.627C-12.084,-18.609 -12.115,-18.561 -12.148,-18.546C-12.173,-18.535 -12.196,-18.558 -12.223,-18.544C-12.289,-18.511 -12.335,-18.462 -12.388,-18.432C-12.423,-18.412 -12.483,-18.378 -12.502,-18.361C-12.545,-18.325 -12.538,-18.295 -12.523,-18.271C-12.5,-18.238 -12.424,-18.219 -12.391,-18.214C-12.353,-18.208 -12.225,-18.256 -12.081,-18.324C-11.966,-18.38 -11.839,-18.456 -11.742,-18.484C-11.66,-18.509 -11.562,-18.487 -11.517,-18.443C-11.484,-18.41 -11.502,-18.367 -11.5,-18.323C-11.496,-18.265 -11.447,-18.204 -11.477,-18.164C-11.515,-18.111 -11.553,-18.096 -11.591,-18.073C-11.637,-18.045 -11.684,-18.016 -11.731,-17.997C-11.814,-17.965 -11.849,-17.832 -11.748,-17.814C-11.748,-17.814 -11.658,-17.779 -11.602,-17.725C-11.57,-17.694 -11.583,-17.658 -11.545,-17.615C-11.527,-17.597 -11.482,-17.577 -11.469,-17.557C-11.458,-17.541 -11.482,-17.526 -11.467,-17.508C-11.45,-17.493 -11.459,-17.47 -11.432,-17.442C-11.41,-17.418 -11.352,-17.39 -11.33,-17.358C-11.308,-17.333 -11.285,-17.305 -11.262,-17.276C-10.804,-16.683 -10.045,-15.357 -9.392,-14.158C-9.692,-14.719 -9.963,-15.238 -10.084,-15.499C-10.337,-16.049 -10.737,-17.001 -10.933,-17.539C-10.942,-17.567 -10.919,-17.594 -10.929,-17.621M-12.096,-17.489C-11.855,-17.427 -11.397,-16.846 -11.372,-16.795C-11.347,-16.744 -11.28,-16.693 -11.313,-16.802C-11.363,-17.055 -11.539,-17.301 -11.683,-17.461C-11.77,-17.557 -11.824,-17.622 -11.892,-17.638C-12.064,-17.679 -12.127,-17.616 -12.146,-17.565C-12.146,-17.482 -12.13,-17.498 -12.096,-17.489M-14.785,-7.896C-14.783,-7.895 -14.781,-7.893 -14.778,-7.892C-14.772,-7.901 -14.768,-7.909 -14.763,-7.918C-14.769,-7.911 -14.777,-7.903 -14.785,-7.896M-14.988,-7.709C-15.042,-7.656 -15.096,-7.607 -15.151,-7.554C-15.047,-7.594 -14.961,-7.628 -14.938,-7.637C-14.935,-7.64 -14.928,-7.651 -14.925,-7.657C-14.946,-7.675 -14.966,-7.692 -14.988,-7.709M-21.232,6.639C-21.39,8.896 -20.737,10.341 -20.205,11.321C-19.657,12.329 -18.492,13.659 -17.458,13.457C-15.857,13.142 -16.887,11.051 -18.247,8.68C-19.576,6.361 -21.187,3.927 -19.89,2.526C-18.841,1.392 -16.693,1.649 -15.38,2.954L-18.607,-3.104C-20.264,-0.227 -21.232,3.092 -21.232,6.639M-13.454,-1.38C-14.048,-0.72 -11.736,1.557 -11.194,0.874C-10.784,0.215 -12.79,-2.115 -13.454,-1.38M6.109,1.182C6.358,1.382 6.615,1.516 6.815,1.536C6.955,1.551 7.067,1.511 7.119,1.392C7.283,1.021 6.308,0.211 5.335,0.084C5.431,0.487 5.758,0.898 6.109,1.182M12.235,1.658C12.521,1.26 11.526,0.376 10.418,0.332C10.495,1.022 11.879,2.155 12.235,1.658M13.983,-0.423C14.022,-0.462 14.788,-0.433 14.793,0.309C15.032,0.474 15.286,0.67 15.515,0.891C15.522,0.826 15.529,0.762 15.545,0.699C15.691,0.163 15.707,-1.277 14.611,-1.223C13.952,-1.191 13.85,-0.567 13.983,-0.423M12.074,21.339C12.186,21.474 12.297,21.602 12.398,21.716C12.674,21.467 12.942,21.211 13.204,20.947C12.921,21.045 12.358,21.24 12.074,21.339M0.675,-2.141C1.106,-2.471 2.403,-2.067 3.622,-0.979L3.735,-0.889C3.751,-0.984 3.778,-1.079 3.821,-1.172C4.356,-2.346 6.88,-1.916 8.796,-0.54C8.81,-0.679 8.849,-0.819 8.92,-0.957C9.443,-1.974 11.584,-1.691 13.31,-0.654C13.349,-0.781 13.402,-0.913 13.486,-1.048C13.687,-1.376 14.177,-1.667 14.614,-1.741C15.297,-1.856 16.121,-1.768 16.6,-1.118C16.726,-0.949 16.801,-0.767 16.855,-0.583C17.536,-0.002 19.198,1.814 20.252,3.984C20.554,4.61 20.64,6.224 20.629,6.785L20.616,6.822C20.616,18.818 10.888,28.545 -1.109,28.545C-11.798,28.545 -20.683,20.826 -22.495,10.657L-20.389,12.89C-19.426,15.884 -17.783,18.573 -15.645,20.777C-15.582,20.726 -15.521,20.674 -15.46,20.622L-15.961,19.092C-15.983,19.022 -15.946,18.949 -15.877,18.926C-15.807,18.904 -15.735,18.941 -15.712,19.01C-15.712,19.01 -15.361,20.082 -15.245,20.439C-15.047,20.266 -14.855,20.087 -14.666,19.907L-15.289,18.434C-15.317,18.367 -15.286,18.291 -15.219,18.262C-15.153,18.233 -15.077,18.265 -15.048,18.332L-14.464,19.714C-14.28,19.535 -14.103,19.351 -13.927,19.165L-14.535,17.676C-14.561,17.61 -14.529,17.533 -14.463,17.506C-14.396,17.478 -14.319,17.511 -14.292,17.578L-13.731,18.956C-13.642,18.858 -13.552,18.76 -13.465,18.66C-13.465,18.657 -13.467,18.655 -13.467,18.652C-13.46,18.604 -13.422,18.574 -13.38,18.558C-13.368,18.545 -13.357,18.532 -13.345,18.518L-14.122,17.049C-14.156,16.985 -14.131,16.906 -14.067,16.872C-14.003,16.838 -13.924,16.863 -13.891,16.927L-13.164,18.303C-13.049,18.164 -12.932,18.026 -12.82,17.884C-12.801,17.86 -12.784,17.835 -12.766,17.81C-12.731,17.767 -12.7,17.723 -12.666,17.679L-13.563,16.334C-13.603,16.274 -13.586,16.193 -13.527,16.153C-13.466,16.113 -13.385,16.13 -13.346,16.188L-12.5,17.458C-12.303,17.192 -12.115,16.923 -11.934,16.649C-11.939,16.645 -11.948,16.646 -11.952,16.64L-12.998,15.508C-13.048,15.455 -13.045,15.372 -12.992,15.323C-12.939,15.274 -12.856,15.278 -12.806,15.331L-11.789,16.433C-11.563,16.08 -11.345,15.722 -11.143,15.356L-12.299,14.144C-12.35,14.092 -12.348,14.009 -12.295,13.959C-12.243,13.909 -12.161,13.912 -12.11,13.964C-12.11,13.964 -11.291,14.822 -11.016,15.11C-10.839,14.778 -10.673,14.44 -10.516,14.097L-11.745,12.898C-11.796,12.847 -11.798,12.765 -11.747,12.713C-11.696,12.662 -11.613,12.661 -11.563,12.711C-11.563,12.711 -10.679,13.574 -10.403,13.844C-10.216,13.419 -10.04,12.989 -9.885,12.551L-11.194,11.241C-11.244,11.19 -11.244,11.108 -11.194,11.056C-11.143,11.005 -11.059,11.005 -11.009,11.056L-9.794,12.271C-9.651,11.849 -9.526,11.42 -9.415,10.986L-9.915,10.485C-9.966,10.435 -9.966,10.351 -9.915,10.301C-9.864,10.249 -9.781,10.249 -9.731,10.301L-9.339,10.693C-9.223,10.212 -9.126,9.725 -9.047,9.234L-10.351,7.929C-10.403,7.878 -10.403,7.795 -10.352,7.745C-10.3,7.693 -10.217,7.693 -10.166,7.745L-9.002,8.908C-8.913,8.284 -8.854,7.653 -8.829,7.016L-10.34,5.818C-10.397,5.773 -10.406,5.691 -10.361,5.635C-10.317,5.578 -10.235,5.569 -10.177,5.614C-10.177,5.614 -9.177,6.406 -8.82,6.689C-8.816,6.54 -8.807,6.39 -8.807,6.239C-8.807,5.811 -8.823,5.399 -8.85,4.991L-10.302,4.023C-10.362,3.983 -10.379,3.902 -10.338,3.843C-10.298,3.782 -10.217,3.766 -10.157,3.806C-10.157,3.806 -9.245,4.414 -8.88,4.657C-8.927,4.117 -8.994,3.581 -9.091,3.041L-10.715,2.38C-10.781,2.353 -10.813,2.276 -10.787,2.21C-10.759,2.142 -10.683,2.111 -10.616,2.138C-10.616,2.138 -9.591,2.555 -9.148,2.736C-9.213,2.408 -9.284,2.078 -9.369,1.739C-9.371,1.731 -9.365,1.724 -9.365,1.716C-9.366,1.699 -9.364,1.686 -9.359,1.67C-9.353,1.654 -9.347,1.64 -9.336,1.626C-9.331,1.62 -9.331,1.612 -9.326,1.607L-8.426,0.852C-8.37,0.805 -8.287,0.813 -8.241,0.867C-8.195,0.923 -8.202,1.005 -8.258,1.051L-9.097,1.756C-9.011,2.103 -8.934,2.444 -8.87,2.78C-8.521,2.634 -7.201,2.081 -7.201,2.081C-7.134,2.052 -7.058,2.084 -7.029,2.15C-7.002,2.216 -7.033,2.293 -7.099,2.322L-8.825,3.044C-8.727,3.601 -8.658,4.151 -8.613,4.708C-8.214,4.546 -6.995,4.056 -6.995,4.056C-6.93,4.028 -6.853,4.06 -6.826,4.127C-6.799,4.195 -6.831,4.27 -6.898,4.297L-8.588,4.979C-8.562,5.39 -8.546,5.807 -8.546,6.239C-8.546,6.402 -8.555,6.563 -8.559,6.726C-8.123,6.541 -6.853,6.002 -6.853,6.002C-6.786,5.974 -6.709,6.005 -6.681,6.072C-6.653,6.138 -6.684,6.215 -6.75,6.243L-8.567,7.013C-8.592,7.639 -8.648,8.259 -8.732,8.872L-7.164,8.323C-7.095,8.299 -7.022,8.335 -6.998,8.404C-6.974,8.471 -7.009,8.547 -7.079,8.57L-8.773,9.164C-8.773,9.167 -8.774,9.169 -8.774,9.173C-8.767,9.204 -8.771,9.234 -8.787,9.263C-8.865,9.75 -8.959,10.231 -9.073,10.708L-7.387,10.266C-7.317,10.248 -7.245,10.29 -7.227,10.361C-7.209,10.431 -7.251,10.501 -7.321,10.519L-9.147,10.997C-9.263,11.448 -9.391,11.895 -9.538,12.335C-9.042,12.293 -7.684,12.18 -7.684,12.18C-7.612,12.174 -7.549,12.228 -7.542,12.299C-7.537,12.371 -7.59,12.436 -7.662,12.441L-9.626,12.604C-9.781,13.046 -9.958,13.48 -10.145,13.909C-9.673,13.881 -8.437,13.807 -8.437,13.807C-8.363,13.802 -8.302,13.858 -8.298,13.929C-8.294,14.002 -8.349,14.063 -8.421,14.068L-10.266,14.178C-10.424,14.526 -10.592,14.869 -10.771,15.208C-10.303,15.221 -8.947,15.26 -8.947,15.26C-8.876,15.262 -8.82,15.319 -8.82,15.39C-8.82,15.392 -8.82,15.392 -8.822,15.393C-8.823,15.466 -8.883,15.523 -8.956,15.52L-10.905,15.466C-11.108,15.835 -11.326,16.196 -11.553,16.55L-9.696,16.712C-9.624,16.719 -9.57,16.782 -9.577,16.854C-9.583,16.926 -9.646,16.979 -9.718,16.973L-11.719,16.799C-11.95,17.148 -12.193,17.489 -12.448,17.823L-10.851,18.051C-10.78,18.061 -10.73,18.128 -10.741,18.199C-10.751,18.271 -10.817,18.32 -10.888,18.31L-12.627,18.061C-12.767,18.239 -12.913,18.411 -13.059,18.584L-11.459,18.834C-11.388,18.846 -11.338,18.912 -11.35,18.984C-11.361,19.055 -11.428,19.104 -11.5,19.092L-13.256,18.818C-13.4,18.982 -13.549,19.142 -13.699,19.303L-12.427,19.711C-12.358,19.732 -12.32,19.807 -12.342,19.875C-12.364,19.943 -12.437,19.982 -12.506,19.959L-13.899,19.514C-13.998,19.617 -14.095,19.722 -14.198,19.823L-12.943,20.294C-12.876,20.319 -12.842,20.394 -12.867,20.461C-12.892,20.53 -12.968,20.564 -13.035,20.538L-14.408,20.023C-14.615,20.222 -14.824,20.419 -15.042,20.61C-14.643,20.757 -13.699,21.107 -13.699,21.107C-13.646,21.126 -13.614,21.176 -13.614,21.229C-13.614,21.244 -13.616,21.26 -13.622,21.275C-13.647,21.342 -13.723,21.377 -13.79,21.352L-15.271,20.803C-15.334,20.857 -15.397,20.911 -15.461,20.965C-11.801,24.642 -6.736,26.919 -1.138,26.919C3.975,26.919 8.641,25.016 12.201,21.887C12.089,21.762 11.97,21.622 11.848,21.476C11.669,21.734 11.113,22.526 11.113,22.526C11.071,22.585 10.989,22.599 10.93,22.558C10.872,22.517 10.857,22.435 10.899,22.375L11.675,21.268C11.521,21.083 11.372,20.895 11.232,20.718C11.007,20.95 10.227,21.73 10.227,21.73C10.175,21.781 10.092,21.781 10.04,21.73C9.99,21.678 9.99,21.597 10.04,21.545L11.071,20.514C10.972,20.388 10.88,20.268 10.806,20.175C9.1,21.347 7.059,22.049 4.877,22.049C2.614,22.049 0.516,21.334 -1.201,20.118C-1.225,20.101 -1.013,16.694 -0.94,15.534C-0.629,15.704 -0.302,15.847 0.031,15.976L-0.049,20.141C0.372,20.476 0.946,20.752 1.39,20.911L1.295,16.352C1.811,16.457 2.344,16.513 2.89,16.513C3.059,16.513 3.222,16.497 3.387,16.487L4.221,21.507C5.297,21.608 6.371,21.492 7.317,21.187L5.365,16.117C6.262,15.824 7.088,15.376 7.816,14.806L11.273,19.207C12.021,18.554 12.615,17.925 13.198,17.009L9.163,13.467C9.586,12.933 9.944,12.346 10.221,11.715L14.379,14.593C14.463,14.431 14.702,13.431 14.663,13.138L10.627,10.532C10.697,10.266 10.752,9.996 10.795,9.722C11.804,10.294 15.48,12.383 15.482,12.414C15.167,15.506 13.464,18.26 11.021,20.025C11.093,20.117 11.186,20.236 11.289,20.368C11.616,20.209 12.402,19.835 12.402,19.835C12.466,19.804 12.545,19.831 12.577,19.896C12.584,19.915 12.589,19.934 12.589,19.953C12.589,20.001 12.561,20.048 12.514,20.071C12.514,20.071 11.78,20.421 11.453,20.576C11.592,20.752 11.742,20.939 11.895,21.125L13.288,20.642C13.346,20.622 13.405,20.652 13.436,20.704C16.927,17.071 19.076,12.141 19.076,6.705L19.087,6.689C18.957,2.949 18.23,1.327 16.9,0.348C16.841,0.724 16.716,1.055 16.618,1.257C16.415,1.675 16.507,1.697 16.646,1.833C17.395,2.478 17.548,3.136 17.271,3.333C16.866,3.622 15.722,2.702 15.576,1.819C15.557,1.687 15.535,1.547 15.518,1.405C15.272,1.115 14.951,0.849 14.648,0.635C14.221,1.024 13.316,0.585 13.257,-0.215C12.424,-0.679 11.753,-0.931 11.134,-0.936C10.379,-0.944 10.18,-0.496 10.321,-0.088C10.323,-0.085 10.323,-0.083 10.322,-0.082C10.323,-0.084 10.331,-0.091 10.371,-0.088C11.848,0.028 13.589,0.876 13.307,1.869C13.142,2.452 12.133,2.376 11.111,1.946C10.852,1.837 10.592,1.705 10.344,1.555C9.67,1.148 9.09,0.609 8.877,0.036C7.842,-0.846 6.766,-1.145 6.035,-1.152C5.28,-1.159 5.081,-0.711 5.221,-0.304C5.229,-0.286 5.205,-0.304 5.272,-0.302C6.883,-0.288 8.838,0.654 8.424,1.707C8.32,1.976 8.071,2.114 7.741,2.153C7.318,2.201 6.759,2.081 6.192,1.847C6.117,1.816 6.042,1.784 5.968,1.748C5.885,1.71 5.803,1.67 5.721,1.627C5.583,1.555 5.447,1.477 5.313,1.395C4.963,1.175 4.636,0.92 4.372,0.644C4.137,0.399 3.954,0.139 3.84,-0.127C3.318,-0.82 2.374,-1.494 2.044,-1.449C1.286,-1.35 2.018,-0.527 1.279,-0.39C1.848,-0.297 2.563,0.041 2.999,0.506C3.167,0.684 3.294,0.879 3.356,1.088C3.408,1.266 3.413,1.452 3.357,1.643C3.147,2.361 1.893,2.149 1.125,1.756L1.094,1.739C1.482,2.332 1.862,2.902 2.225,3.434C2.298,3.54 2.369,3.644 2.44,3.747C2.653,4.056 2.86,4.35 3.058,4.626C3.06,4.63 3.064,4.634 3.066,4.637C3.228,4.862 3.384,5.075 3.534,5.273C3.57,5.32 3.666,5.487 3.715,5.61C3.716,5.613 3.716,5.615 3.716,5.617C3.975,6.294 3.312,7.324 2.382,7.763C1.454,8.201 0.458,8.108 0.161,7.666C0.086,7.556 -0.003,7.415 -0.02,7.357C-0.044,7.281 -0.074,7.198 -0.099,7.12C-0.132,7.011 -0.17,6.898 -0.207,6.787C-0.26,6.625 -0.307,6.47 -0.366,6.303C-0.483,5.965 -0.61,5.617 -0.744,5.264C-0.795,5.13 -0.846,4.995 -0.898,4.86L-0.919,4.793L-0.923,4.794C-1.186,4.114 -1.47,3.416 -1.769,2.713C-1.844,2.535 -1.92,2.359 -1.997,2.179C-2.459,1.112 -2.94,0.053 -3.407,-0.947C-3.622,-1.093 -4.023,-1.337 -4.185,-1.233C-4.583,-0.979 -2.778,0.836 -3.371,1.452C-3.859,1.958 -5.366,1.24 -6.081,0.495C-5.998,0.714 -5.977,1.117 -6.291,1.424C-7.298,2.414 -10.26,-2.126 -10.775,-1.755C-11.071,-1.542 -9.918,-0.187 -9.36,1.31L-10.586,1.301L-10.767,1.013C-10.76,1.089 -10.798,1.182 -10.905,1.281C-12.259,2.526 -15.617,-1.07 -14.38,-2.141C-13.803,-2.641 -12.434,-2.04 -11.87,-1.296C-12.249,-2.105 -11.966,-2.427 -11.859,-2.504C-10.601,-3.424 -7.922,0.906 -7.465,0.507C-7.144,0.225 -8.799,-2.199 -8.723,-2.257L-7.481,-2.246C-6.954,-1.309 -6.566,-0.567 -6.566,-0.567C-5.869,0.236 -5.014,0.879 -4.807,0.632C-4.463,0.223 -6.282,-1.245 -5.687,-2.169C-5.401,-2.614 -4.284,-2.07 -3.741,-1.655C-4.833,-3.96 -5.786,-5.828 -6.085,-6.434C-6.644,-7.574 -7.758,-9.673 -8.89,-11.753C-10.794,-10.933 -12.567,-9.819 -14.145,-8.468C-14.144,-8.442 -14.143,-8.415 -14.158,-8.391L-14.579,-7.716C-14.576,-7.712 -14.572,-7.71 -14.568,-7.705C-14.365,-7.52 -14.179,-7.319 -13.986,-7.124C-13.736,-7.408 -13.321,-7.878 -13.321,-7.878C-13.273,-7.932 -13.191,-7.937 -13.136,-7.89C-13.083,-7.842 -13.078,-7.759 -13.126,-7.705L-13.8,-6.94C-13.639,-6.773 -13.479,-6.608 -13.324,-6.436C-13.041,-6.735 -12.563,-7.242 -12.563,-7.242C-12.513,-7.295 -12.43,-7.297 -12.378,-7.247C-12.325,-7.198 -12.323,-7.115 -12.373,-7.063L-13.155,-6.235C-12.921,-5.967 -12.686,-5.7 -12.468,-5.418C-12.205,-5.79 -11.761,-6.414 -11.761,-6.414C-11.719,-6.473 -11.637,-6.488 -11.579,-6.445C-11.52,-6.403 -11.506,-6.322 -11.548,-6.263L-12.309,-5.193C-12.094,-4.907 -11.883,-4.618 -11.685,-4.318C-11.444,-4.623 -10.826,-5.404 -10.826,-5.404C-10.781,-5.461 -10.699,-5.472 -10.643,-5.427C-10.586,-5.381 -10.577,-5.3 -10.621,-5.243L-11.535,-4.086C-11.34,-3.782 -11.157,-3.468 -10.98,-3.151L-9.999,-4.054C-9.946,-4.103 -9.862,-4.099 -9.814,-4.046C-9.765,-3.993 -9.768,-3.911 -9.822,-3.861L-10.843,-2.921C-10.837,-2.91 -10.829,-2.898 -10.823,-2.887C-10.789,-2.823 -10.812,-2.744 -10.876,-2.709C-10.939,-2.676 -11.019,-2.7 -11.053,-2.762C-11.07,-2.793 -11.089,-2.821 -11.105,-2.85C-11.107,-2.852 -11.109,-2.851 -11.11,-2.853C-11.113,-2.856 -11.112,-2.864 -11.116,-2.868C-11.131,-2.897 -11.151,-2.926 -11.167,-2.954L-12.396,-2.84C-12.468,-2.833 -12.532,-2.886 -12.539,-2.958C-12.545,-3.03 -12.492,-3.094 -12.42,-3.101L-11.315,-3.204C-11.457,-3.451 -11.598,-3.698 -11.75,-3.938L-13.178,-3.77C-13.249,-3.761 -13.315,-3.813 -13.322,-3.885C-13.324,-3.89 -13.324,-3.895 -13.324,-3.901C-13.324,-3.965 -13.274,-4.022 -13.207,-4.03C-13.207,-4.03 -12.261,-4.14 -11.909,-4.182C-12.087,-4.451 -12.277,-4.71 -12.468,-4.969L-12.477,-4.956C-12.499,-4.925 -12.533,-4.906 -12.57,-4.901L-13.966,-4.756C-14.036,-4.748 -14.102,-4.801 -14.109,-4.873C-14.11,-4.877 -14.11,-4.882 -14.11,-4.887C-14.11,-4.953 -14.059,-5.009 -13.992,-5.016C-13.992,-5.016 -12.764,-5.144 -12.656,-5.155C-12.653,-5.161 -12.638,-5.181 -12.629,-5.193C-12.853,-5.486 -13.094,-5.766 -13.334,-6.045L-13.36,-6.016C-13.376,-6 -13.395,-5.988 -13.418,-5.981L-14.754,-5.575C-14.823,-5.554 -14.897,-5.593 -14.917,-5.662C-14.921,-5.674 -14.923,-5.688 -14.923,-5.7C-14.923,-5.756 -14.887,-5.808 -14.83,-5.825C-14.83,-5.825 -13.59,-6.202 -13.527,-6.222L-13.505,-6.244C-13.656,-6.414 -13.815,-6.579 -13.974,-6.744L-13.998,-6.717C-14.013,-6.699 -14.035,-6.686 -14.058,-6.678L-15.249,-6.33C-15.318,-6.309 -15.392,-6.349 -15.411,-6.418C-15.415,-6.431 -15.416,-6.444 -15.416,-6.455C-15.416,-6.511 -15.379,-6.564 -15.322,-6.581C-15.322,-6.581 -14.236,-6.898 -14.167,-6.919C-14.166,-6.92 -14.161,-6.926 -14.16,-6.929C-14.345,-7.116 -14.526,-7.31 -14.721,-7.489L-14.739,-7.461C-14.754,-7.437 -14.777,-7.418 -14.803,-7.408L-15.557,-7.118C-15.565,-7.115 -15.571,-7.119 -15.578,-7.118C-16.32,-6.35 -17.007,-5.527 -17.624,-4.649L-9.809,10.105L-11.62,10.054L-14.82,4.1C-15.852,3.135 -17.527,2.247 -18.485,2.909C-20.384,4.221 -12.942,11.329 -15.681,13.642C-17.869,15.487 -20.245,12.73 -20.998,11.424C-21.611,10.359 -22.761,8.727 -22.803,6.715C-22.783,-2.207 -17.385,-9.864 -9.678,-13.189C-10.406,-14.509 -11.091,-15.722 -11.583,-16.553C-11.928,-17.139 -12.153,-17.405 -12.566,-17.374C-12.645,-17.367 -12.816,-17.39 -12.869,-17.41C-13.074,-17.49 -13.156,-17.851 -13.149,-18.004C-13.133,-18.319 -12.875,-18.893 -11.847,-19.363C-10.821,-19.834 -10.249,-19.789 -9.983,-19.617C-9.855,-19.532 -9.611,-19.255 -9.668,-19.041C-9.681,-18.986 -9.764,-18.834 -9.816,-18.773C-10.084,-18.459 -10.02,-18.177 -9.75,-17.554C-9.366,-16.665 -8.701,-15.308 -7.953,-13.844C-5.793,-14.565 -3.483,-14.961 -1.081,-14.961C9.15,-14.961 17.728,-7.891 20.036,1.63C20.122,1.979 20.215,2.405 20.215,2.405C19.604,1.447 17.993,0.018 17.993,0.018C17.137,-2.45 15.815,-4.673 14.133,-6.564L14.435,-5.962C14.467,-5.897 14.44,-5.818 14.375,-5.786C14.312,-5.754 14.232,-5.78 14.2,-5.845C14.2,-5.845 13.857,-6.53 13.814,-6.617C13.627,-6.497 13.424,-6.346 13.214,-6.172C13.458,-5.878 13.896,-5.347 13.896,-5.347C13.941,-5.291 13.934,-5.209 13.879,-5.163C13.821,-5.117 13.739,-5.125 13.694,-5.18C13.694,-5.18 13.247,-5.722 13.016,-6.003C12.917,-5.917 12.817,-5.828 12.717,-5.734L13.551,-4.585C13.594,-4.528 13.581,-4.446 13.523,-4.402C13.465,-4.361 13.382,-4.373 13.339,-4.432L12.526,-5.551C12.363,-5.393 12.199,-5.229 12.035,-5.057C12.281,-4.76 12.792,-4.126 12.792,-4.126C12.838,-4.07 12.829,-3.987 12.772,-3.942C12.717,-3.896 12.634,-3.906 12.588,-3.962C12.588,-3.962 12.084,-4.589 11.858,-4.869C11.679,-4.677 11.501,-4.482 11.326,-4.283L12.093,-3.373C12.141,-3.317 12.133,-3.235 12.078,-3.189C12.023,-3.141 11.94,-3.149 11.893,-3.204C11.893,-3.204 11.414,-3.773 11.152,-4.083C10.94,-3.835 10.734,-3.589 10.539,-3.348L11.337,-2.445C11.384,-2.391 11.38,-2.309 11.324,-2.261C11.27,-2.213 11.188,-2.218 11.14,-2.273L10.374,-3.141C10.127,-2.828 9.903,-2.532 9.714,-2.267L10.052,-1.929C10.102,-1.876 10.102,-1.795 10.052,-1.743C10.002,-1.692 9.918,-1.692 9.867,-1.743C9.867,-1.743 9.692,-1.919 9.562,-2.049C9.409,-1.826 9.285,-1.633 9.202,-1.482C9.168,-1.419 9.088,-1.396 9.024,-1.431C8.962,-1.465 8.938,-1.545 8.974,-1.608C9.059,-1.763 9.188,-1.965 9.346,-2.195C9.065,-2.246 8.193,-2.404 8.193,-2.404C8.13,-2.416 8.086,-2.471 8.086,-2.533C8.086,-2.54 8.086,-2.549 8.088,-2.556C8.101,-2.628 8.169,-2.675 8.24,-2.662L9.512,-2.43C9.721,-2.723 9.973,-3.053 10.248,-3.398L8.735,-3.449C8.663,-3.451 8.607,-3.512 8.609,-3.584C8.612,-3.656 8.672,-3.712 8.744,-3.709L10.454,-3.652C10.623,-3.859 10.801,-4.07 10.983,-4.28C10.89,-4.307 9.632,-4.674 9.632,-4.674C9.576,-4.691 9.539,-4.742 9.539,-4.799C9.539,-4.811 9.54,-4.824 9.543,-4.836C9.564,-4.906 9.637,-4.945 9.706,-4.925L11.1,-4.518C11.123,-4.512 11.142,-4.497 11.156,-4.48C11.323,-4.669 11.494,-4.855 11.665,-5.039C11.355,-5.169 10.253,-5.668 10.253,-5.668C10.189,-5.698 10.16,-5.775 10.189,-5.841C10.219,-5.907 10.296,-5.936 10.362,-5.906L11.848,-5.233C11.974,-5.364 12.099,-5.492 12.224,-5.616L12.218,-5.616L10.94,-6.372C10.877,-6.409 10.856,-6.489 10.893,-6.55C10.93,-6.612 11.01,-6.634 11.071,-6.597L12.349,-5.841C12.372,-5.828 12.381,-5.806 12.392,-5.786C12.392,-5.828 12.403,-5.866 12.439,-5.893C12.469,-5.914 12.504,-5.922 12.537,-5.916C12.639,-6.013 12.741,-6.104 12.843,-6.191C12.657,-6.309 11.688,-6.957 11.688,-6.957C11.629,-6.997 11.611,-7.077 11.652,-7.138C11.692,-7.198 11.773,-7.214 11.834,-7.174L13.045,-6.367C13.234,-6.525 13.416,-6.662 13.587,-6.779C13.272,-6.995 12.732,-7.364 12.732,-7.364C12.696,-7.389 12.676,-7.43 12.676,-7.472C12.676,-7.497 12.682,-7.523 12.699,-7.545C12.74,-7.605 12.821,-7.62 12.881,-7.58L13.691,-7.025C9.999,-10.916 4.74,-13.299 -1.109,-13.349C-3.201,-13.367 -5.254,-13.027 -7.202,-12.39C-6.139,-10.351 -5.046,-8.334 -4.429,-7.257C-3.616,-5.836 -2.004,-3.135 -0.321,-0.466L-0.306,-0.463C-0.029,-0.444 0.139,-0.466 0.24,-0.552C0.611,-0.863 -0.053,-1.585 0.675,-2.141" style="fill:rgb(227,0,43);fill-rule:nonzero;"/>
        </g>
    </g>
</svg>
