<?xml version="1.0" encoding="UTF-8" standalone="no"?>
<!DOCTYPE svg PUBLIC "-//W3C//DTD SVG 1.1//EN" "http://www.w3.org/Graphics/SVG/1.1/DTD/svg11.dtd">
<svg width="100%" height="100%" viewBox="0 0 150 140" version="1.1" xmlns="http://www.w3.org/2000/svg" xmlns:xlink="http://www.w3.org/1999/xlink" xml:space="preserve" xmlns:serif="http://www.serif.com/" style="fill-rule:evenodd;clip-rule:evenodd;stroke-linejoin:round;stroke-miterlimit:2;">
    <g transform="matrix(0.49333,0,0,0.49285,0.522208,0.492899)">
        <path d="M151.137,8.203C97.061,8.606 27.962,40.452 11.153,128.868C11.613,129.309 151.107,268.703 151.107,268.783C151.107,268.783 291.061,128.888 291.071,128.888C274.162,32.7 192.146,7.883 151.137,8.203" style="fill:rgb(232,24,40);fill-rule:nonzero;"/>
        <path d="M275.922,126.135C268.282,75.727 221.934,21.819 151.157,21.189L151.119,21.189C80.207,21.839 33.594,75.727 25.744,126.135L25.609,126.935L151.144,251.989L276.059,126.935L275.925,126.13L275.922,126.135Z" style="fill:white;fill-rule:nonzero;"/>
        <path d="M151.157,24.423C82.392,25.055 37.122,76.991 29.112,125.829C30.322,127.039 148.897,245.154 151.137,247.374C153.377,245.154 271.382,127.039 272.572,125.829C264.763,76.995 219.774,25.063 151.157,24.423" style="fill:rgb(40,72,152);fill-rule:nonzero;"/>
        <g transform="matrix(1,0,0,1,-0.000930751,0)">
            <path d="M188.616,40.797C188.482,40.816 177.928,44.799 177.928,44.799L150.851,44.78L124.844,44.78C124.844,44.741 114.447,40.815 114.447,40.815C114.294,40.796 100.677,40.854 100.677,40.854L100.467,40.854L95.871,48.285C95.871,48.285 95.812,77.852 95.812,78.618L95.238,78.618C93.548,76.818 91.385,75.286 88.819,74.099C77.501,68.89 61.511,71.264 53.18,79.403C47.78,84.688 45.138,91.124 46.133,96.638C46.727,100.028 48.717,102.708 51.571,103.991C55.458,105.734 58.407,105.006 60.207,104.087C61.433,103.455 62.429,102.575 63.271,101.579L63.271,124.865C60.284,128.351 58.524,131.95 58.524,135.148C58.524,136.125 58.657,137.083 58.963,137.964C59.882,140.779 62.219,142.713 65.359,143.249C68.883,143.881 72.714,142.771 75.644,140.32C78.478,137.926 80.105,134.517 80.105,130.955L80.105,112.782C86.06,110.522 91.749,107.764 95.502,103.245L95.502,135.666C95.483,135.915 95.443,136.164 95.443,136.394C95.443,138.654 96.459,140.626 98.316,141.87C100.71,143.517 104.234,143.632 106.876,142.158C109.155,140.875 110.439,138.672 110.439,136.068C110.439,135.934 110.438,135.799 110.419,135.646C110.419,135.646 110.439,121.13 110.439,120.383C110.496,120.345 110.553,120.326 110.611,120.307L110.65,120.422L110.65,134.765C110.707,138.595 112.889,141.487 116.509,142.732C116.451,143.019 116.375,143.326 116.317,143.632L68.749,143.632L68.576,143.652C65.09,144.111 62.716,146.696 62.716,150.028C62.716,150.143 62.736,150.257 62.736,150.372C62.908,153.781 65.551,156.444 68.921,156.54L111.759,156.54C107.585,164.257 103.583,168.297 100.5,171.361C96.785,175.019 94.236,177.547 94.236,183.771C94.236,184.307 94.257,184.843 94.295,185.437L94.315,185.8L144.027,185.8C144.104,183.693 143.837,182.084 143.568,180.667C143.568,180.667 143.223,177.011 143.223,176.992C143.319,175.728 142.745,174.923 142.018,173.908C141.386,173.027 140.657,172.031 140.408,170.576L139.66,169.504C139.66,169.504 138.627,167.454 138.627,167.416C138.685,166.707 138.378,166.229 137.823,165.463C137.823,165.463 136.616,163.087 136.616,163.049C136.328,161.383 136.712,160.311 137.057,159.354C137.344,158.511 137.611,157.803 137.401,156.615L137.401,156.539L139.145,156.539C139.202,156.846 139.24,157.152 139.24,157.42C139.24,158.454 138.952,159.239 138.703,159.947C138.474,160.598 138.264,161.174 138.264,161.939C138.264,162.169 138.282,162.418 138.321,162.705L139.24,164.447C139.777,165.194 140.389,166.018 140.389,167.205C140.389,167.32 140.388,167.436 140.369,167.551L140.926,168.277C140.926,168.277 142.15,170.327 142.131,170.289C142.322,171.323 142.86,172.088 143.453,172.892C144.238,173.984 145.139,175.229 144.967,177.124L145.291,180.36C145.578,181.854 145.866,183.559 145.789,185.8L145.924,185.8L145.924,188.155C145.426,188.557 142.667,190.818 142.418,194.399C142.418,194.552 142.4,194.725 142.4,194.897C142.4,197.31 143.626,199.722 146.039,202.059L145.924,207.478L145.924,207.881L157.011,207.881L157.011,201.772C159.309,199.703 160.535,197.31 160.535,194.897C160.535,194.725 160.534,194.571 160.515,194.399C160.266,190.818 157.528,188.557 157.011,188.155L157.011,185.8L208.62,185.8L208.64,185.436C208.678,184.843 208.696,184.287 208.696,183.77C208.696,177.547 206.15,175.018 202.435,171.361C199.371,168.297 195.368,164.276 191.193,156.54L219.842,156.54C222.351,159.776 225.645,161.537 229.187,161.307C232.73,161.058 235.833,158.875 237.269,155.62L237.384,155.372L237.441,155.122C238.437,150.985 237.27,148.4 236.121,146.964C233.593,143.842 229.378,143.594 227.674,143.632L213.465,143.632C214.825,143.421 216.147,143.076 217.43,142.54C219.843,141.564 221.852,140.05 223.652,138.365C230.47,144.359 235.928,144.15 239.318,142.886C244.373,140.99 247.705,135.531 248.241,131.337C248.375,130.342 248.452,129.404 248.452,128.503C248.452,119.043 241.195,113.758 234.742,109.047C234.742,109.047 233.994,108.511 233.515,108.166C233.228,107.707 231.255,104.413 231.255,104.413L221.603,111.307L221.699,112.934C221.737,113.47 221.758,113.987 221.758,114.504C221.758,118.296 220.799,121.513 219.037,124.041C220.512,121.398 221.049,118.986 221.049,117.09C221.049,115.328 220.666,113.969 220.379,113.184C218.368,107.803 212.45,104.528 206.303,105.409C204.178,105.715 198.795,107.227 195.118,113.699C194.275,110.195 192.726,103.818 192.649,103.493C192.86,103.282 195.885,100.237 197.954,98.149L211.644,98.112L211.644,78.617L207.107,78.617L207.107,48.493C207.05,48.283 202.568,41.044 202.568,41.044L202.453,40.853L188.628,40.796L188.616,40.797ZM119.043,78.064L135.55,78.064L135.55,81.913C127.775,82.2 121.111,90.167 120.287,100.392L120.095,106.367C119.578,105.965 119.042,105.619 118.449,105.332C115.71,104.049 112.856,104.355 110.539,105.025L110.539,98.17L114.925,98.189C114.925,98.189 118.908,78.695 119.042,78.063L119.043,78.064ZM167.379,78.064L183.886,78.064C183.924,78.313 184.555,81.414 185.302,85.11C184.593,86.853 182.333,92.501 181.452,94.704C179.078,87.369 173.603,82.143 167.379,81.913L167.379,78.064L167.379,78.064ZM190.952,113.337C192.177,114.256 193.307,115.138 194.092,115.712C193.192,117.723 192.444,120.116 191.965,122.97L191.965,117.224C191.831,115.673 191.469,114.39 190.952,113.337L190.952,113.337ZM198.44,140.492C201.676,142.158 204.796,143.211 207.803,143.633L190.032,143.633C192.56,143.518 194.953,142.771 196.887,141.699C197.577,141.316 197.923,140.894 198.44,140.492L198.44,140.492Z" style="fill:white;fill-rule:nonzero;"/>
        </g>
        <g transform="matrix(1,0,0,1,-0.000930751,0)">
            <path d="M74.821,74.03C67.274,74.166 59.669,76.737 54.989,81.297C50.221,85.97 47.865,91.542 48.689,96.195C49.148,98.742 50.546,100.676 52.614,101.595C55.066,102.705 57.229,102.765 59.048,101.788C62.744,99.796 63.683,94.28 63.721,94.031L63.758,93.724L63.454,93.724C62.515,93.743 61.366,93.553 61.155,92.519C61.117,92.404 61.116,92.27 61.116,92.136C61.116,90.317 63.396,87.387 66.499,85.931L66.499,125.764C63.243,129.115 61.442,132.676 61.442,135.568C61.442,136.238 61.518,136.851 61.71,137.425C62.284,139.168 63.741,140.317 65.809,140.681C68.567,141.16 71.744,140.222 74.1,138.25C76.379,136.334 77.643,133.749 77.643,130.973L77.643,110.807C85.207,108.184 92.274,105.042 95.492,98.474C96.449,96.482 97.101,94.243 97.273,91.562C97.388,89.743 97.196,88.038 96.756,86.449C95.913,83.349 94.037,80.724 91.26,78.656C90.206,77.852 89.019,77.124 87.697,76.512C83.855,74.745 79.349,73.95 74.82,74.032L74.821,74.03ZM80.105,83.809C84.908,83.793 87.618,86.211 88.138,90.969C88.675,96.005 85.342,99.834 79.463,100.945L77.873,101.251L77.873,83.92L79.117,83.844C79.456,83.821 79.785,83.81 80.105,83.809L80.105,83.809ZM103.12,85.667C102.164,85.693 101.197,85.974 100.354,86.51C98.707,87.564 97.902,89.346 98.151,91.395L98.151,135.688C97.921,137.373 98.497,138.811 99.799,139.692C101.389,140.764 103.801,140.84 105.563,139.844C107.076,139.002 107.862,137.565 107.766,135.803L107.766,119.986C107.574,119.067 108.722,117.955 110.082,117.668C110.676,117.534 112.706,117.342 113.318,120.043L113.299,134.771C113.356,137.644 114.984,139.653 117.914,140.419C121.782,141.434 126.935,140.017 128.62,137.566C130.938,139.864 133.446,141.051 136.089,141.013C140.34,140.975 143.364,138.026 143.882,137.509C145.911,139.616 148.248,140.802 150.871,140.898C156.176,141.128 160.659,137.26 161.271,136.724C169.85,145.437 180.152,137.873 180.899,137.298C185.591,142.239 191.548,141.646 195.588,139.386C196.698,138.773 197.635,137.969 197.884,137.318C204.759,141.339 211.003,142.334 216.423,140.113C226.61,135.9 230.612,121.939 231.053,120.349C235.17,121.479 237.027,125.117 237.334,127.99C237.372,128.296 237.373,128.603 237.373,128.89C237.373,130.767 236.722,132.223 235.611,132.759C234.252,133.41 232.297,132.549 230.133,130.347C228.065,130.922 225.289,135.728 225.174,135.919C231.168,141.53 235.648,141.414 238.367,140.399C242.714,138.791 245.224,133.927 245.607,130.997C245.722,130.136 245.779,129.312 245.779,128.507C245.779,120.407 239.631,115.926 233.158,111.215L231.455,109.971C231.455,109.933 230.611,108.516 230.611,108.516L230.459,108.266L224.465,112.537C225.04,123.932 219.16,128.681 215.598,130.519C212.17,132.299 208.877,132.432 208.034,131.743C207.843,131.59 207.861,131.456 207.88,131.341C216.153,126.113 219.926,119.621 217.877,114.144C216.288,109.893 211.596,107.346 206.675,108.055C204.013,108.438 195.203,110.947 194.054,127.148C194.322,130.097 193.154,131.438 192.082,131.707C190.99,131.975 189.842,131.247 189.287,129.945L189.305,117.228C188.96,113.264 186.778,112.058 184.824,112.211C182.603,112.422 180.382,114.491 180.631,117.267L180.631,127.415C180.344,129.598 178.964,131.361 176.954,132.089C175.115,132.74 173.124,132.396 171.764,131.132C170.615,130.078 168.911,127.417 170.481,121.595C174.637,113.533 176.169,106.792 176.208,101.526C176.227,99.228 175.958,97.235 175.479,95.549C175.154,94.42 174.77,93.386 174.272,92.544C172.989,90.361 171.19,89.134 169.198,89.057C167.034,89.038 164.602,89.211 162.974,90.934C161.576,92.428 160.983,94.899 161.251,98.25L161.251,125.94C160.543,129.675 158.992,130.978 157.804,131.399C156.425,131.878 154.777,131.419 153.302,130.155C153.302,130.117 153.093,129.733 153.093,129.733C152.634,128.814 152.174,127.914 152.174,125.979C152.174,124.945 152.307,123.586 152.652,121.767C156.501,113.13 158.494,105.451 158.494,99.668C158.494,96.489 157.899,93.883 156.654,92.025C155.313,90.015 153.245,88.999 150.66,89.057C148.4,89.114 146.735,89.727 145.566,90.953C144.054,92.562 143.384,95.147 143.537,98.843L143.537,128.219C143.537,129.732 142.981,130.881 141.908,131.475C140.913,132.03 139.629,131.972 138.653,131.34C137.695,130.727 137.217,129.694 137.313,128.411L137.313,117.475C137.389,115.177 136.548,113.34 134.997,112.44C133.714,111.693 132.104,111.731 130.841,112.536C129.328,113.474 128.543,115.313 128.696,117.553L128.696,129.311C128.639,131.092 127.125,131.934 125.632,131.973C124.004,132.011 122.262,131.11 122.109,129.291L122.109,116.614C121.553,111.96 119.926,108.972 117.302,107.747C113.549,105.966 109.085,108.284 107.879,108.993L107.879,91.412C107.917,91.144 107.937,90.858 107.937,90.609C107.937,88.694 107.189,87.2 105.81,86.357C105.016,85.869 104.074,85.639 103.119,85.666L103.12,85.667ZM150.417,95.489C150.594,95.498 150.767,95.549 150.93,95.645C152.232,96.449 152.729,100.051 152.825,102.023C152.365,109.339 151.485,112.861 150.03,113.072L149.723,113.131L149.723,95.664L149.876,95.588C150.057,95.512 150.239,95.479 150.417,95.489L150.417,95.489ZM168.133,95.489C168.308,95.498 168.482,95.549 168.644,95.645C169.947,96.449 170.462,100.051 170.539,102.004C170.098,109.243 169.179,112.862 167.762,113.072L167.457,113.13L167.457,95.664L167.609,95.588C167.782,95.511 167.958,95.478 168.133,95.488L168.133,95.489ZM209.893,114.691C210.324,114.719 210.698,114.823 210.985,115.005C210.985,115.024 211.311,115.888 211.311,115.888C211.33,116.041 211.329,116.232 211.329,116.423C211.329,117.974 210.679,120.197 209.338,121.786C207.653,123.72 204.896,125.31 203.153,125.329L202.061,124.964C201.812,124.811 201.697,124.6 201.639,124.294C201.391,122.992 202.271,120.253 204.091,118.089L204.13,118.033C204.953,116.558 206.658,115.293 208.458,114.833C208.975,114.709 209.462,114.662 209.893,114.691L209.893,114.691ZM68.929,146.539C64.141,147.152 64.888,153.528 68.986,153.643L221.229,153.643C225.595,160.69 232.586,159.043 234.616,154.447C236.32,147.381 230.384,146.463 227.741,146.539L68.928,146.539L68.929,146.539Z" style="fill:rgb(232,24,40);fill-rule:nonzero;"/>
        </g>
        <g transform="matrix(1,0,0,1,-0.000930751,0)">
            <path d="M185.786,90.779C185.69,90.779 185.594,90.836 185.555,90.932L182.95,98.38L177.263,98.228C177.167,98.228 177.071,98.285 177.052,98.38C177.033,98.4 177.034,98.439 177.034,98.459C177.034,98.535 177.053,98.592 177.11,98.63C177.11,98.63 182.204,103.131 182.223,103.15C182.07,103.15 179.944,110.081 179.944,110.081C179.925,110.1 179.925,110.14 179.925,110.159C179.925,110.236 179.963,110.293 180.02,110.351C180.116,110.408 180.231,110.408 180.308,110.351C180.308,110.351 185.9,106.022 185.919,106.003C185.919,106.214 191.262,110.351 191.262,110.351C191.358,110.408 191.473,110.408 191.549,110.351C191.607,110.293 191.645,110.236 191.645,110.159C191.645,110.14 191.645,110.1 191.626,110.081C191.626,110.081 189.424,102.919 189.424,102.9C189.52,102.996 194.459,98.63 194.459,98.63C194.536,98.573 194.556,98.476 194.518,98.38C194.499,98.285 194.403,98.228 194.307,98.228L188.409,98.228L188.409,98.209C188.409,97.787 186.015,90.932 186.015,90.932C185.976,90.836 185.882,90.779 185.786,90.779L185.786,90.779ZM133.235,90.797C133.139,90.797 133.043,90.855 133.024,90.951L130.401,98.4L124.714,98.246C124.618,98.246 124.541,98.304 124.503,98.38C124.484,98.419 124.484,98.438 124.484,98.476C124.484,98.534 124.521,98.61 124.56,98.648C124.56,98.648 129.654,103.15 129.673,103.15C129.539,103.169 127.394,110.101 127.394,110.101C127.394,110.12 127.376,110.138 127.376,110.157C127.376,110.234 127.414,110.311 127.472,110.368C127.567,110.426 127.682,110.406 127.759,110.349C127.759,110.349 133.351,106.022 133.37,106.003C133.37,106.214 138.731,110.349 138.731,110.349C138.808,110.406 138.903,110.426 138.999,110.368C139.056,110.311 139.096,110.234 139.096,110.157L139.096,110.101C139.096,110.101 136.874,102.939 136.874,102.919C136.95,102.977 139.422,100.851 140.858,99.568C141.471,99.051 141.911,98.648 141.911,98.648C141.987,98.591 142.025,98.476 141.987,98.38C141.949,98.304 141.852,98.246 141.756,98.246L139.803,98.246C138.099,98.246 135.877,98.247 135.858,98.228C135.858,97.788 133.466,90.951 133.466,90.951C133.427,90.855 133.331,90.797 133.235,90.797L133.235,90.797Z" style="fill:rgb(40,72,152);fill-rule:nonzero;"/>
        </g>
    </g>
</svg>
