<?xml version="1.0" encoding="utf-8"?>
<!-- Generator: Adobe Illustrator 22.0.1, SVG Export Plug-In . SVG Version: 6.00 Build 0)  -->
<svg version="1.1" id="Layer_1" xmlns="http://www.w3.org/2000/svg" xmlns:xlink="http://www.w3.org/1999/xlink" x="0px" y="0px"
	 width="720px" height="720px" viewBox="0 0 720 720" style="enable-background:new 0 0 720 720;" xml:space="preserve">
<style type="text/css">
	.st0{fill:#FDB827;}
</style>
<path class="st0" d="M561.5891724,251.0703735c0-32.9956207,4.619751-68.8518524,25.3469849-104.447876
	C532.2752075,133.0539856,490.1463623,81.5441513,476.5,36l-0.0003662,0.0096245
	c-22.6773987,22.148613-44.8919983,27.2957268-80.0579224,27.2957268l-234.9128723-0.3307152l-31.9730225,79.960968
	c19.3214111,8.3302307,31.9730225,26.6607208,31.9730225,48.6511383v366.2808228
	c0,21.9899292-12.6516113,40.3049927-31.9730225,48.6261597L161.5288391,684h89.7048798l31.9966278-77.5062866
	c-19.3214111-7.9976196-31.9966278-26.9849854-31.9966278-48.6261597V413.4623718l145.2079926,0.0710449
	c35.1652527,0,57.3771973,8.6670837,80.0579224,30.8155212c14.8084412-45.5513306,59.2907715-79.5132141,113.944519-93.0591431
	C569.7244873,315.6783752,561.5891724,284.0684509,561.5891724,251.0703735z M485.5016174,294.0620422
	c0,25.8295593-14.5888367,39.9214478-47.89505,39.9214478H251.6853485V140.1852264h185.9212189
	c29.45047,0,47.89505,18.5605927,47.89505,43.1575623V294.0620422z"/>
</svg>
