<?xml version="1.0" encoding="UTF-8" standalone="no"?>
<!DOCTYPE svg PUBLIC "-//W3C//DTD SVG 1.1//EN" "http://www.w3.org/Graphics/SVG/1.1/DTD/svg11.dtd">
<svg width="100%" height="100%" viewBox="0 0 720 720" version="1.1" xmlns="http://www.w3.org/2000/svg" xmlns:xlink="http://www.w3.org/1999/xlink" xml:space="preserve" xmlns:serif="http://www.serif.com/" style="fill-rule:evenodd;clip-rule:evenodd;stroke-linejoin:round;stroke-miterlimit:2;">
    <path d="M603.594,267.043C603.586,215.601 561.887,173.91 510.445,173.91L248.318,173.933C248.318,173.933 263.981,196.467 263.981,239.289L263.981,272.437L208.503,272.437C195.187,272.437 184.391,261.642 184.391,248.326L184.391,113.548C184.391,100.287 195.242,89.436 208.503,89.436L388.402,89.436C402.244,89.625 411.344,103.365 409.452,117.074C407.623,130.351 400.69,138.304 400.69,138.304L472.075,138.304L472.075,107.401C472.075,67.963 440.112,36 400.674,36L187.799,36C148.369,36 116.406,67.963 116.406,107.401L116.406,255.784C116.406,295.214 148.369,327.177 187.799,327.177L384.217,327.177C397.534,327.177 408.329,337.973 408.329,351.289L408.329,479.84C408.329,493.093 397.486,503.936 384.233,503.936L331.967,503.936L331.967,352.859L263.989,352.859L263.989,503.936L204.648,503.936C191.34,503.936 180.56,493.148 180.56,479.84L180.56,467.003C180.56,424.299 192.039,414.43 192.039,414.43L120.654,414.43L120.654,487.283C120.654,526.705 152.617,558.668 192.039,558.668L263.989,558.668L263.989,618.645C263.989,661.466 248.325,684 248.325,684L510.484,684C561.903,684 603.594,642.317 603.594,590.89L603.594,267.043L603.594,267.043ZM535.609,592.201C535.609,612.505 519.144,628.969 498.84,628.969L331.967,628.969L331.967,558.676L404.929,558.676C444.351,558.676 476.315,526.713 476.315,487.291L476.315,343.83C476.315,304.4 444.351,272.429 404.914,272.429L331.958,272.429L331.958,228.948L498.848,228.948C519.152,228.948 535.609,245.405 535.609,265.709L535.609,592.201Z" style="fill:rgb(255,199,44);fill-rule:nonzero;"/>
</svg>
