<?xml version="1.0" encoding="utf-8"?>
<!-- Generator: Adobe Illustrator 22.0.1, SVG Export Plug-In . SVG Version: 6.00 Build 0)  -->
<svg version="1.1" id="Layer_1" xmlns="http://www.w3.org/2000/svg" xmlns:xlink="http://www.w3.org/1999/xlink" x="0px" y="0px"
	 width="720px" height="720px" viewBox="0 0 720 720" style="enable-background:new 0 0 720 720;" xml:space="preserve">
<style type="text/css">
	.st0{fill:#BCCCD3;}
	.st1{fill:#FFFFFF;}
	.st2{fill:#004565;}
	.st3{fill:#006F61;}
	.st4{fill:#E63047;}
</style>
<g>
	<circle class="st0" cx="360" cy="360" r="324"/>
	<path class="st1" d="M360,46.3622627C186.7826843,46.3622627,46.3623161,186.7827301,46.3623161,360
		S186.7826843,673.6376953,360,673.6376953S673.6376953,533.2172852,673.6376953,360S533.2173462,46.3622627,360,46.3622627z
		 M360,657.7160034C195.5760345,657.7160034,62.2840538,524.4240112,62.2840538,360S195.5760345,62.28405,360,62.28405
		S657.7159424,195.5759735,657.7159424,360S524.4240112,657.7160034,360,657.7160034z"/>
	<circle class="st2" cx="360" cy="360" r="287.5043945"/>
	<circle class="st3" cx="360" cy="360" r="175.4907837"/>
	<circle class="st1" cx="360" cy="360" r="168.4632568"/>
	<path class="st1" d="M469.7670593,524.8341064l4.4278564,7.3729858l-10.3302917,6.6377563l8.1163635,14.0149536
		l10.3343506-5.8985596l4.4238281,7.3731689l-11.0696411,5.9024658l11.80896,19.913208l10.3302917-5.9024658l4.4319153,7.3770752
		l-19.925354,11.7969971l-32.4695435-56.7867432L469.7670593,524.8341064z M217.3804321,496.0690613l-50.1857605,40.5657043
		l7.3805542,8.1125488l10.3315887-8.8518677l6.6428833,6.6379395l-8.1184082,11.0615234l7.3807373,8.116394l39.8506622-52.3627319
		L217.3804321,496.0690613z M214.4258881,511.5584717l1.4755249,0.7393188l-18.4499969,23.5976563l-5.9017181-5.8983765
		L214.4258881,511.5584717z M558.3240967,422.3183899c-9.5949707-3.6885376-12.5441895-3.6885376-16.2327271,5.9024353
		c0,0.7352905-2.2139282,6.6377563-2.2139282,6.6377563c-4.4318848,10.3222046-2.9532471,12.5361328,6.6376953,16.9601135
		l8.8557129,3.6885376c3.6885376,1.4745789,7.3811035,2.2139282,11.0696411-0.7352905l5.9064941-5.1671753
		c2.2139282-2.2100525,5.163147-7.3731995,6.6417847-6.6338501l12.5442505,5.1592407
		c1.4786377,0.7391663,2.2139282,0.7391663,2.2139282,1.4746094c0,0.7393188-1.4746094,6.6417847-2.2139282,6.6417847
		c0,1.4746094-1.4746094,1.4746094-2.9492188,0.73526l-10.3343506-4.4237976l-4.4278564,10.3222046l9.5950317,3.6885376
		c9.5950317,4.4278564,11.8049316,3.6885376,16.2368164-6.633667c0-0.7393494,2.2139282-6.6417847,2.2139282-6.6417847
		c3.6885376-10.3223877,2.2098389-11.7969971-7.3811035-16.2248535l-12.5442505-5.1631165
		c-3.6925659-1.4705811-7.3811035,0-11.0696411,2.9532471l-7.3811035,8.8516541
		c-2.2139282,1.4705505-2.9492188,1.4705505-5.1671753,0.7312317l-8.8516235-3.6844788
		c-1.4827271-0.7352905-2.2180176-1.4746094-2.2180176-2.2098999c0-0.7393188,2.2180176-6.6417542,2.2180176-6.6417542
		c0.7352295-0.7352905,1.47052-0.7352905,2.9491577,0l8.8557129,3.6885071l3.6885376-10.3222046L558.3240967,422.3183899z
		 M331.0266724,557.2834473l-7.3807373,64.9030762l11.0733032,1.4746094l7.3766785-64.9030762L331.0266724,557.2834473z
		 M173.8375549,424.5323181l-57.5628128,27.2861938l4.4302444,8.8518372l33.9449005-16.2288818v0.7393188l-30.9940414,23.6018982
		l2.9503021,5.1631165l36.8998184-9.5869141l0.7378387,1.4746094l-34.6827545,16.2246399l4.425827,8.8516846l57.5628204-27.2902527
		l-5.9052124-13.2756653l-30.2567444,7.3772583v-0.7393494l24.3550262-20.6486511L173.8375549,424.5323181z M265.3494873,535.156311
		l-27.3060608,59.0045166l10.331604,5.1592407l11.0692444-25.0724487c0.7376709,0.7393188,7.3805542,3.6885376,7.3805542,4.4278564
		c0.737854,0.7352905,0.737854,1.4746094,0,2.9492188l-10.3313904,21.3839111l10.3313904,5.163147l8.8562622-20.6486816
		c2.2130127-4.4238281,2.9506836-8.1123047,0-11.0615234c4.4262085,0,6.6388245-2.9532471,8.8520203-8.116394l3.6925659-7.3729858
		c3.6881714-9.5830688,3.6881714-13.2716064-5.9057617-17.6994629L265.3494873,535.156311z M271.2512207,547.7005615
		c0.7373047,0,6.6428833,2.9451294,7.3805542,3.6885376c1.4755249,0.7312012,0.737854,1.47052,0,3.680603l-5.1679077,11.8048706
		c-0.7376709,1.4705811-1.4753418,2.2098999-2.9505005,2.2098999c-0.7376709,0-6.6432495-2.9532471-7.3811035-3.6885376
		L271.2512207,547.7005615z M383.4241333,558.0227661l12.5442505,64.1635742l9.5948181-2.2098999l-6.6417542-32.4533691
		l16.2367859,30.2394409l9.5950317-1.4746094l-12.54422-64.1676025l-8.8597412,1.4746094l5.9026184,32.4495239
		l-16.2367859-30.2355957L383.4241333,558.0227661z M496.3341675,501.971344l48.7063599,42.7757874l6.6417847-8.8516846
		l-19.925293-17.6992798c0.7393188-0.7393188,5.1671753-5.1630859,5.9024048-5.8983765c0.7393799,0,1.4786987,0,2.2180176,1.4746094
		l17.7073364,15.4893799l7.3811035-8.116394l-16.2367554-14.750061c-4.4278564-3.6887207-6.6377563-5.1632996-11.0697021-2.9493713
		c1.4786987-4.4238281-0.7352295-7.3770752-5.1630859-11.061554l-5.9064941-5.1631165
		c-7.3770752-7.3730164-11.8049316-6.6417847-18.4507446,1.4746094L496.3341675,501.971344z M509.6177368,499.0221252
		c0.7352905-0.7393188,5.1671753-5.1671753,5.1671753-5.898407c1.4746094-0.7393188,2.2139282,0,4.4278564,1.4746094
		l8.8516846,8.1082764c1.482666,1.4747925,2.2138672,2.2139282,1.482666,3.6887207c0,0-4.4318848,5.163147-5.1671753,5.9024658
		L509.6177368,499.0221252z M347.2634583,96.3388824v8.8485336h8.8560791l-0.7376709,56.7898178h11.0692749v-56.7898178h8.8564453
		v-8.8485336H347.2634583z M142.1056519,241.6311188c-9.5937347-4.4261932-11.8069305-4.4261932-16.2371674,5.1598206
		c0,0-2.2126389,5.9013367-2.9503098,5.9013367c-4.426384,10.3238678-2.9508591,13.2743683,6.6428757,17.7005768
		l8.1143646,3.6844788c4.4302368,1.4754944,8.1183929,0.7416992,11.8109741-2.2091675l6.6390228-4.426178
		c2.2170563-1.4753418,4.4298859-5.1635132,6.6428833-4.4258423l11.8069305,5.9011841
		c1.4795685,0,2.2131805,0.737854,2.2131805,1.4755249l-2.2131805,5.897644
		c-0.7376709,1.4753418-1.4753418,1.4753418-2.9506836,0.7376709l-11.8065643-5.1600037l-5.1680908,10.3235168l11.0733032,4.4263611
		c9.5898895,4.4221497,11.802887,3.6885376,16.2327728-6.6393738c0.7376556,0,2.9508514-5.9013367,2.9508514-5.9013367
		c4.4298706-9.5858459,2.9545441-11.7988586-6.6390228-16.2250366l-12.5446014-5.8976746
		c-3.6925659-1.4751587-6.642868-2.2128296-11.0733032,0.7376556l-7.3805542,8.848526
		c-2.2131805,1.4753418-3.6885223,2.9506836-5.163681,2.2130127l-9.5937347-4.426178
		c-1.4753418-0.7376709-2.2131958-1.4753418-1.4753418-2.9508667c0,0,2.2130127-5.1600037,2.2130127-5.8973083
		c0.7372894,0,1.4749603,0,2.9504852,0.7373047l8.8560791,3.6887054l4.4302368-10.3275452L142.1056519,241.6311188z
		 M174.5754089,175.9892578l44.2803497,47.1999512l16.9746704-16.2211609l-5.9053955-6.6392059l-8.8560791,8.8483429
		l-15.4991302-16.2250366l8.8562469-8.848526l-5.9017181-5.9013519l-8.8560638,8.1104889l-11.0692749-11.7990112
		l8.8524017-8.8479767l-5.901535-5.9017181L174.5754089,175.9892578z M258.7064209,116.9902954l16.2368164,64.1624603
		l10.331604-4.425827l-3.6925964-13.274353l8.8560791-3.6885223l6.6434326,12.5366821l9.59375-4.4223328l-30.9944153-57.5271225
		L258.7064209,116.9902954z M271.2512207,126.5761261l1.4749756-0.7376633l13.2863159,26.5488968l-6.6428833,2.9504852
		L271.2512207,126.5761261z M441.7253418,109.6136093l-2.9530334,8.1104965l8.1163635,2.9547195l-20.6607971,53.0972519
		l10.3304749,3.6885223l20.6644897-52.3634415l7.3811035,2.9503098l2.9491882-8.114357L441.7253418,109.6136093z
		 M528.8078003,159.7640533l-42.8039246,48.6754608l16.9720764,16.2246704l5.163147-6.6347961l-8.8557129-8.1148987
		l37.6408081-42.7737579L528.8078003,159.7640533z M587.8404541,234.9920959l-57.5621338,28.7619019l10.3344116,21.3885498
		l8.116394-3.6885376l-5.9025269-11.0611572l19.925354-10.3273926l5.9024658,11.065033l7.3811035-4.426178l-5.9024658-11.0652161
		l14.7581787-7.3726501l5.9064941,11.0611877l7.3770752-3.6885376L587.8404541,234.9920959z"/>
	<polygon class="st0" points="359.9999695,360 360.0000305,360 359.9999695,360 	"/>
	<path class="st4" d="M331.0717163,411.7495422l5.8656921,4.3900146l-2.808075,0.9369202l-7.2353516-4.8256836l3.3491821-0.8295288
		l0.7375488-5.9025269l3.4919739-0.8751526l-0.8066711,6.4564209L331.0717163,411.7495422z M322.5779419,414.0375671
		l1.6152954-6.4532776l-3.5438232,0.8838806l-0.7451477,5.9571838l-2.4387207,1.6246948l7.1122131,4.7409363l2.6813354-1.7915039
		l-6.5255737-4.3460388L322.5779419,414.0375671z M315.2439575,416.9291687v-5.6580811l-2.7367554,0.9028931v5.9021301
		l-2.5724487,0.8552551l7.9885864,4.791626l2.0033569-1.003479l-6.6905518-4.455719L315.2439575,416.9291687z
		 M365.2856445,407.4623413l4.8716431-5.6826477h-3.6357117l-4.4301758,5.1630859h-3.2732544l3.9822083,7.1533813h3.5454102
		l-3.692627-6.6338196H365.2856445z M307.8874207,421.3921204l-0.8094177-6.4778137l-1.9475403,0.9749756v5.9559631
		l-1.6430359,1.6409302l7.0785522,3.9338989l2.7181702-1.8113098l-7.2170105-3.6079712L307.8874207,421.3921204z
		 M347.6326599,305.9398804l-3.6523438-0.9115906l3.769104,6.7724304h-2.6167297l-5.6878052,5.6834412h3.6907654
		l5.1638489-5.1638794h2.5253296L347.6326599,305.9398804z M343.2235413,408.896637l2.4516602-6.5419617l-2.8318176,0.9472351
		l-2.9308167,5.8545227h-2.6266785l5.6604614,6.4556274l2.7759705-0.9226685l-5.1402588-5.1322021L343.2235413,408.896637z
		 M328.3017578,314.3668213l3.7097778,0.9266357l6.3058777-4.726593l0.0744934,0.2232666l2.7724304,0.9250488l-1.6101379-7.240509
		l-3.5664063-0.8910217l2.249054,6.7415771h-2.6573486L328.3017578,314.3668213z M317.2322998,311.415802l3.6895752,0.9219055
		l6.6326294-3.6821289l2.4857178,0.8285217l-0.7943726-7.9398499l-2.7538147-0.9187317l0.7408142,7.4051514l-2.6915283-0.6730957
		L317.2322998,311.415802z M358.2332458,401.7796936h-3.5592651l-2.6166077,5.2268372l-0.0734558-0.0978088l-3.5307617,0.8838806
		l5.5579224,6.3447571l2.7236938-0.9036865l-3.9447937-5.2518921l2.2150574-0.5542908L358.2332458,401.7796936z
		 M424.6195679,289.837616l2.4457092,5.7151184l1.8588257-1.8540955l-1.4116516-4.9263611
		c-1.57724-1.4955139-3.20401-2.9389343-4.8777771-4.328125l-1.4349976-0.7236023l-1.8901367,1.8865662l7.2878113,2.9134827
		L424.6195679,289.837616z M302.4313049,303.4846497l7.3800964-2.2125549l2.4090881,0.8035889l1.5887756-7.1506348
		l-2.7090759-0.9024658l-1.4555359,6.5500793l-2.0110779-1.3410645l-8.1675415,3.2654419L302.4313049,303.4846497z
		 M294.2395935,299.0771484l8.1686401-2.2271118l1.6585693,0.82724l2.3898621-7.1652832l-2.7328186-0.9159546l-1.4597473,6.5507813
		l-1.9997253-1.3330383l-7.9141235,2.3732605L294.2395935,299.0771484z M298.7231445,426.8371582l-2.0849609,1.0446472
		l8.0729065,3.2274475l1.9087219-1.907959l-7.7980652-2.3340454L298.7231445,426.8371582z M311.2728577,308.6730957
		l7.3803406-3.6856995l2.4472656,1.632019l0.8019104-8.0135193l-2.7153931-0.9056396l-0.737854,6.6390686l-1.9977417-0.6653748
		l-7.9291687,3.1688232L311.2728577,308.6730957z M296.9632874,421.153717l2.390686,5.5780945l1.9313049-0.9622803
		l-2.4362183-6.4999695L296.9632874,421.153717z M354.7147522,312.5388794l-4.8759766,5.6834106h3.639679l4.4266052-5.1638489
		h3.3002014l-4.0138855-6.4176331h-3.5675964l3.6921692,5.8980713H354.7147522z M425.70578,421.6756592l-8.0660095,2.2002869
		l-1.6697083-1.6696472l-2.4057312,7.2254639l2.6904602,1.7994385l1.4986267-6.7271729l2.0151062,0.6699219l8.0883484-2.4259033
		L425.70578,421.6756592z M376.7919312,311.0633545l-2.4085083,6.4208069h2.7494507l2.9732971-5.9488525l2.5109558-0.8370667
		l-5.537323-5.5321655h-2.8943787l5.1635437,5.8972778H376.7919312z M374.8780212,408.2012634l4.87323-5.6865845h-2.8868713
		l-5.1673889,5.1670227h-2.5047607l3.1818848,7.1534119h3.5660095l-3.6929932-6.6338501H374.8780212z M391.6242065,405.6185303
		l-3.6392822-0.912384l-6.3050537,4.7272034l-0.0741577-0.2222595l-2.7625122-0.9219055l1.6046143,8.0206299h3.5271912
		l-2.255127-6.7566833l2.6681519,0.8807983L391.6242065,405.6185303z M297.385437,293.366394l2.4172058-7.2480469
		l-1.9348755-0.9678345l-2.2137146,5.8983765l-1.3134766-0.6513367l-4.9983521,1.4971008
		c-0.615387,0.6382446-1.2238464,1.2831421-1.8219299,1.9379272l0.8330994,0.8327026l7.3802185-2.9507141L297.385437,293.366394z
		 M431.6553345,426.0823669l-7.3769226,2.2146606l-1.6622314-1.6618347l-2.4021606,7.1850891l1.88974,1.8897095l2.2140503-6.6388855
		l1.2865906,1.2825623l4.0353699-1.205719c0.8440857-0.8500366,1.6706848-1.7170715,2.483429-2.5975037L431.6553345,426.0823669z
		 M295.382843,430.1564636l-2.4540405-5.7095642l-1.8544617,1.8532715l1.3713989,4.8009644l-0.1422119-0.0568237
		l0.0112305,0.0224609c1.6375732,1.5600586,3.3304443,3.0626831,5.0726929,4.5076904l1.4113159,0.7049866l1.8857727-1.8857727
		l-7.2875061-2.912384L295.382843,430.1564636z M386.3316345,309.6385498l-0.8082581,6.4540405l3.493927-0.8719788
		l0.7352905-5.9012451l3.3031616-0.8237l-7.177948-5.5741272l-2.7763672,0.9258728l5.8694458,5.1311035L386.3316345,309.6385498z
		 M412.1217041,299.3963318l0.8161621,6.5886841l1.9309082-1.9269409v-5.8484802l1.7721252-0.8867493l-7.172821-3.9825745
		l-2.9177246,0.9717712l7.541748,3.7688599L412.1217041,299.3963318z M402.698822,408.5671692l-3.6361084-0.9060364
		l-6.6276855,4.4139404l-2.4819641-0.8182373l0.7983398,7.2008972l2.7565918,0.9163513l-0.7350769-6.6693726l2.6984558,0.6762695
		L402.698822,408.5671692z M408.6986694,412.0852661l-7.3809204,2.9491272l-2.4292603-0.8067627l-0.7979431,7.1652832
		l2.7185364,0.9084473l0.7391052-6.6417847l1.9992676,0.6668701l8.1235962-3.2472229L408.6986694,412.0852661z
		 M397.4197083,305.9620667l-1.618866,6.4556274l3.5466003-0.8854675l0.736969-5.9115295l2.5672913-0.8545837l-7.1902466-4.7908325
		l-2.8432922,0.9448547l6.6426086,4.4274292L397.4197083,305.9620667z M418.7282104,295.0383301l2.4346313,5.6782837
		l1.875061-1.8707275l-2.1929016-5.105072l0.4683228,0.1871033l1.879425-1.8758545l-7.9069824-3.1565552l-1.8746643,1.8754883
		l6.8486938,2.736084L418.7282104,295.0383301z M404.7584229,303.0736084v6.5229492l2.7296448-1.8223877v-5.8492737
		l2.572052-0.8574219l-8.0353088-4.8213501l-1.8667603,1.8623962l6.5713806,3.6491699L404.7584229,303.0736084z
		 M417.5540771,416.5133667l-7.3424988,2.9332886l-2.4233398-1.6145935l-1.5954895,7.983429l2.7051086,0.8981323
		l1.4746094-6.6375122l2.0351563,0.6784363l8.1200256-3.2527466L417.5540771,416.5133667z M361.7255859,319.0887451
		l3.611145-0.9005127l2.9309692-5.1297913h3.3726196l-5.6188965-6.4176331h-2.8508301l4.4263,5.8980713h-2.591217
		L361.7255859,319.0887451z"/>
	<path class="st3" d="M461.1197205,359.9983215c0-31.2483826-14.1683655-59.179657-36.4388428-77.7276306l44.0380554-50.0963287
		l-65.424469,36.4226532c-13.1221924-6.2286377-27.8015747-9.7159424-43.2919312-9.7159424
		c-24.5250549,0-47.0063782,8.7346497-64.5161438,23.2518005l-44.2002411-50.0882111l27.2743988,68.0034943
		c-12.3679504,16.7717896-19.6833191,37.5093689-19.6833191,59.9501648c0,31.0456238,13.9899902,58.8228455,36.0171509,77.3787537
		l-43.6082306,49.6097412l64.6053314-35.9684448c13.3330688,6.4718933,28.2962952,10.1052246,44.1110535,10.1052246
		c25.2874146,0,48.4013062-9.2860718,66.1300354-24.6304932l42.3349304,51.4670105l-25.4009399-70.2825928
		C454.4450989,401.3194275,461.1197205,381.4333496,461.1197205,359.9983215z M424.2429504,434.1979675
		c-17.2097473,14.9063416-39.6667175,23.9411316-64.2404175,23.9411316c-14.5982361,0-28.4503784-3.1873169-40.8994141-8.9049072
		h-0.0081177c-8.0614929-3.6982727-15.5228271-8.4589233-22.2218018-14.09552
		c-21.4107361-18.0044556-35.0114441-44.9787903-35.0114441-75.1403503c0-21.1188354,6.6665649-40.6723633,18.0126343-56.6817627
		c5.0039368-7.0639954,10.9243164-13.438446,17.5827637-18.9533997
		c16.9826355-14.0549316,38.7745667-22.5056152,62.5453796-22.5056152c14.2738342,0,27.8421326,3.049408,40.0721741,8.5318909
		c8.207489,3.6738892,15.8147583,8.4344482,22.6354065,14.1115417c21.6459656,18.0045776,35.433197,45.1410522,35.433197,75.497345
		c0,20.0401306-6.0096436,38.6772156-16.3257141,54.2081299
		C436.8866272,421.6434937,430.9662476,428.3667297,424.2429504,434.1979675z"/>
	<path class="st0" d="M294.9012146,437.3721313l-43.6171417,49.6112366h-0.0000458l26.9318848-67.5140381
		C283.039032,426.0907898,288.6456604,432.1035156,294.9012146,437.3721313z M424.6751404,282.2695923
		c6.3328857,5.2750549,12.0085754,11.3101501,16.8923035,17.9639893l27.1485596-68.0570526L424.6751404,282.2695923z
		 M405.6623535,450.2427979l62.8039551,37.7148132l-42.3319397-51.4610596
		C419.9256287,441.8690491,413.0543823,446.4951477,405.6623535,450.2427979z M316.995697,268.4613953l-65.7116699-36.4191132
		v0.0001068l44.2052002,50.0883179C302.0164795,276.717041,309.2372131,272.1126404,316.995697,268.4613953z"/>
	<polygon class="st3" points="391.5522156,326.7931824 360.000061,164.1908569 328.4478455,326.7931824 78.8295364,360 
		328.4478455,393.2068176 360.000061,555.8091431 391.5522156,393.2068176 641.1704712,360 	"/>
	<path class="st0" d="M328.4478455,326.7930908L360.000061,360H78.8296356L328.4478455,326.7930908z M360.000061,360
		l31.5522156,33.2068176L641.1704712,360H360.000061z M360.000061,555.8091431V360l-31.5522156,33.2068176L360.000061,555.8091431z
		 M360.000061,164.1908569V360l31.5522156-33.2069092L360.000061,164.1908569z"/>
</g>
</svg>
