<?xml version="1.0" encoding="UTF-8" standalone="no"?>
<!DOCTYPE svg PUBLIC "-//W3C//DTD SVG 1.1//EN" "http://www.w3.org/Graphics/SVG/1.1/DTD/svg11.dtd">
<svg width="100%" height="100%" viewBox="0 0 150 144" version="1.1" xmlns="http://www.w3.org/2000/svg" xmlns:xlink="http://www.w3.org/1999/xlink" xml:space="preserve" xmlns:serif="http://www.serif.com/" style="fill-rule:evenodd;clip-rule:evenodd;stroke-linejoin:round;stroke-miterlimit:2;">
    <g transform="matrix(1.25,0,0,-1.25,-18.759,421.63)">
        <g>
            <path d="M81.687,255.17C81.687,256.832 80.334,258.187 78.672,258.187C77.009,258.187 75.655,256.833 75.655,255.17C75.655,253.508 77.009,252.155 78.672,252.155C80.334,252.155 81.687,253.508 81.687,255.17M131.034,238.32C129.85,238.912 128.694,239.023 127.78,238.969C127.889,240.358 127.394,241.814 126.971,243.057C126.816,243.515 126.669,243.948 126.569,244.327C126.135,245.97 125.93,246.888 126.431,248.255C126.985,249.775 124.698,250.807 123.722,251.25L123.307,251.436C123.305,251.438 122.94,251.296 122.94,251.296C121.666,250.804 119.065,247.708 114.401,241.789C113.854,241.094 113.299,240.388 112.855,239.834C113.143,241.146 114.077,245.393 114.526,247.432C116.324,247.268 117.709,248.407 118.045,250.12C119.537,249.752 121.192,251.946 121.192,254.736C121.978,254.684 124.221,258.165 120.709,262.245C119.638,263.487 111.099,270.846 105.255,275.843L105.235,275.863L112.298,278.139C112.735,278.257 113.538,278.444 113.932,278.412C114.187,278.39 114.733,278.018 114.999,277.725C115.256,277.474 115.966,277.16 116.798,277.766C117.924,278.585 117.409,280.502 116.922,281.873C116.384,283.392 115.713,284.047 115.229,284.238C114.832,284.393 114.373,284.438 113.932,284.21C112.92,283.686 113.388,282.588 112.833,282.169C112.833,282.169 112.672,281.68 109.523,280.913L102.289,278.857L101.865,278.737L101.83,278.767C100.543,279.862 99.743,280.539 99.743,280.539C99.235,281.409 98.518,282.355 97.878,282.71C98.024,284.837 95.864,287.794 94.76,288.307C95.063,289.241 93.797,291.89 92.551,292.442C88.573,299.487 83.18,307.837 77.455,311.692C76.541,312.307 76.046,312.585 75.977,313.537C75.656,317.888 74.423,321.641 73.138,323.183C73.611,323.849 74.582,325.445 75.211,327.828C75.211,327.828 74.48,327.344 73.92,327.166C74.221,327.51 74.96,328.353 75.622,331.615C75.651,332.008 75.317,331.271 74.523,330.814C74.653,331.385 75.327,332.904 74.559,334.881C71.996,332.032 67.893,330.88 64.976,329.675C60.546,327.845 58.229,325.936 55.928,320.924C55.113,320.189 52.437,318.321 51.017,314.15C52.433,313.243 53.973,312.623 56.158,311.877C56.158,311.877 56.175,311.176 56.187,311.097C49.548,296.59 60.494,287.55 74.131,280.736C73.253,279.157 72.532,277.901 72.453,276.336L67.028,270.617C67.028,270.617 65.792,270.363 65.278,269.814C65.051,269.572 64.869,269.173 64.755,268.878C64.436,268.807 64.159,268.747 63.934,268.702C60.631,268.038 55.313,266.799 41.961,263.088C41.916,263.135 41.873,263.187 41.826,263.234C40.085,264.972 36.977,266.099 33.907,266.099C29.24,266.099 26.18,263.534 23.021,259.685C18.39,254.041 13.119,238.64 19.981,230.546C21.139,229.181 25.496,224.774 32.978,225.346C35.031,225.504 36.582,225.845 37.95,226.147C40.778,226.771 42.335,227.113 45.395,225.057L45.961,224.678L46.495,225.101C48.353,226.57 51.271,226.134 53.601,225.59L55.739,225.093L54.617,226.979C50.975,233.11 45.343,232.098 39.894,231.119C35.937,230.408 31.845,229.673 28.21,231.471C25.49,232.815 23.386,236.354 23.316,239.7C23.249,242.995 23.994,246.655 25.138,249.804C26.037,248.646 27.18,248.022 28.213,248.294C28.353,248.332 28.48,248.381 28.604,248.437C28.703,248.451 28.804,248.471 28.9,248.503C47.423,254.743 59.993,259.304 66.258,262.054C68.553,263.062 80,267.225 83.829,268.604C87.221,269.826 91.068,271.147 94.827,272.408C97.087,268.956 106.003,255.417 109.877,250.524C109.113,246.024 107.785,240.666 105.532,239.281C105.438,239.22 105.322,239.146 105.221,239.084C105.71,241.71 107.327,248.653 107.581,249.696L107.861,250.853L102.548,250.855L102.458,250.505C101.769,250.781 100.917,250.849 99.956,250.67C95.844,249.896 93.348,246.106 92.54,239.406C92.525,239.286 92.511,239.162 92.497,239.065C91.694,238.143 91.064,237.965 90.875,238.036C90.806,238.061 90.794,238.211 90.799,238.298C90.825,239.09 91.257,240.583 91.677,242.026C92.74,245.698 93.361,248.206 92.328,249.528C91.724,250.3 90.868,250.729 89.855,250.772C88.966,250.811 88.052,250.548 87.221,250.132L87.371,250.78L81.86,250.78L81.705,250.035C81.079,246.996 79.252,240.563 77.999,239.094C77.751,238.804 77.263,238.624 76.924,238.576C77.269,240.239 78.831,245.998 79.84,249.606L80.171,250.793L74.582,250.793L74.418,250.063C74.4,249.983 72.578,241.893 71.157,239.414C70.746,238.702 70.365,238.505 70.221,238.55C70.125,238.579 70.033,238.731 70.047,238.926C70.187,240.821 73.241,253.06 74.404,257.617L74.857,259.39L68.509,256.886L67.048,250.484C66.859,250.547 66.648,250.603 66.409,250.642C62.325,251.33 60.335,247.605 59.587,246.203C58.628,244.408 57.661,241.455 57.571,239.108C56.979,238.41 56.257,237.879 56.014,237.912C55.809,237.938 55.757,238.011 55.71,238.102C54.937,239.622 57.359,245.387 59.327,248.996L60.078,250.38L52.258,250.378L52.489,251.256L47.673,251.256L47.506,250.533C46.524,246.315 44.765,240.787 43.219,238.615C43.033,238.354 42.872,238.216 42.762,238.15C42.858,239.149 44.09,244.723 45.245,249.639L45.517,250.789L40.013,250.789L39.779,249.894C37.996,250.553 35.659,250.424 33.714,248.238C30.879,245.051 29.813,241.332 30.741,237.958C30.329,237.648 29.421,237.128 28.532,236.706L26.962,235.959L28.453,235.062C28.457,235.057 29.444,234.438 29.996,233.283L30.258,232.736L30.862,232.752C31.871,232.777 32.659,233.472 33.171,234.007C35.018,232.963 37.041,233.159 38.73,234.545C40.256,233.414 42.05,233.313 42.625,233.313C47.346,233.313 49.153,239.563 50.47,244.13C50.647,244.737 50.814,245.317 50.977,245.84L52.785,245.84C52.673,245.569 52.557,245.289 52.438,245.001C51.911,243.738 51.316,242.305 50.856,240.91C50.346,239.356 49.148,235.72 51.398,234.122C53.615,232.548 56.626,233.385 58.826,234.956C59.872,233.766 61.405,233.262 62.574,233.313C63.802,233.337 64.823,233.614 65.775,234.189C66.367,233.639 67.055,233.319 67.832,233.244C69.282,233.103 70.735,233.863 71.902,234.754C72.488,233.835 73.389,233.318 74.511,233.313C75.439,233.308 76.42,233.572 77.375,234.052L77.173,233.313L82.895,233.313L84.747,240.092C85.819,244.409 86.891,244.909 87.097,244.968C87.189,244.993 87.263,244.97 87.314,244.94C87.31,244.658 87.074,243.938 86.862,243.29C86.67,242.704 86.431,241.976 86.186,241.104L86.115,240.854C85.636,239.161 84.834,236.327 86.036,234.595C86.399,234.071 87.11,233.426 88.445,233.316C90.278,233.163 92.558,234.015 94.166,235.371C96.459,232.56 99.214,233.261 101.344,234.351C101.933,233.699 102.726,233.135 104.084,233.321C105.277,233.4 106.369,234.12 107.291,234.945C108.024,233.876 109.099,233.295 110.371,233.313C112.437,233.343 114.163,234.822 115.522,236.2C117.181,234.271 119.245,232.772 122.52,233.326C123.075,233.42 123.545,233.544 123.957,233.654C125.181,233.983 125.687,234.119 126.95,233.051L128.339,231.875L128.487,233.687C128.485,233.678 128.709,235.109 131.129,236.705L132.483,237.596L131.035,238.321L131.034,238.32ZM76.891,273.006C76.243,272.879 75.929,272.788 75.489,272.38C75.179,272.095 74.97,271.695 74.857,271.398C73.636,271.08 72.376,270.758 71.153,270.446C70.875,270.611 70.34,270.827 69.513,270.769C69.435,270.775 69.217,270.814 69.234,271.043C69.249,271.243 73.8,275.363 73.8,275.363C75.072,275.623 79.733,278.331 79.733,278.331L81.158,277.749L81.053,277.515L80.85,277.154L77.159,273.235C77.08,273.147 77.004,273.028 76.891,273.006M81.161,273.054C80.84,273.291 80.5,273.429 80.185,273.424C79.003,273.404 79.404,273.835 79.674,274.14L82.838,277.095C82.838,277.095 85.332,276.058 88.327,275.008C83.989,273.818 81.634,273.181 81.161,273.054M36.241,238.384C36.229,238.384 36.212,238.384 36.168,238.438C36.106,238.517 35.592,239.278 36.263,241.951C36.757,243.922 37.484,245.243 38.306,245.671C38.465,245.753 38.688,245.838 39.004,245.826C38.581,242.157 37.414,238.384 36.241,238.384M65.391,241.954C65.154,241.01 64.911,240.034 64.692,239.03C64.661,238.885 64.283,238.585 63.76,238.536C63.571,238.516 63.23,238.531 63.155,238.705C62.683,239.796 63.333,243.31 64.863,245.124C65.312,245.659 65.757,245.931 66.188,245.947C66.205,245.203 65.74,243.35 65.391,241.954M98.501,238.353C98.489,238.353 98.47,238.353 98.428,238.41C98.366,238.486 97.854,239.249 98.523,241.921C99.03,243.934 99.7,245.169 100.522,245.592C100.799,245.734 101.115,245.773 101.464,245.731C100.982,242.033 99.747,238.353 98.501,238.353M122.604,238.175C122.387,237.964 121.972,237.823 121.529,237.814C120.979,237.801 120.469,237.978 120.136,238.3C118.435,239.896 118.435,239.896 119.254,240.961C119.784,241.647 120.248,242.287 120.699,242.907C121.094,243.455 121.47,243.967 121.844,244.449C121.974,243.496 122.246,242.611 122.504,241.782C123.033,240.073 123.298,239.055 122.604,238.175" style="fill:rgb(20,38,75);fill-rule:nonzero;"/>
            <path d="M63.333,317.22C63.043,316.752 62.507,316.456 61.918,316.496C61.077,316.555 60.443,317.285 60.501,318.126C60.561,318.971 61.291,319.605 62.134,319.544C62.69,319.505 63.158,319.172 63.392,318.706C62.34,318.819 62.11,317.803 62.11,317.803C61.429,318.638 62.309,319.12 62.309,319.12C61.723,319.197 61.167,318.749 61.119,318.078C61.072,317.404 61.579,316.822 62.251,316.775C62.705,316.743 63.096,316.891 63.333,317.22" style="fill:white;fill-rule:nonzero;"/>
            <g transform="matrix(0.8,0,0,-0.8,15.008,337.3)">
                <path d="M73.621,5.434C70.826,8.364 66.396,9.32 62.607,10.914C57.055,13.252 54.171,16.861 52.734,20.348C53.273,21.27 56.643,21.355 57.148,21.055C58.008,20.543 59.174,20.286 60.105,20.824C60.785,21.217 61.153,21.609 61.463,21.816C62.286,22.167 63.435,22.457 64.287,22.256C60.537,26.017 60.105,30.954 60.457,31.789C56.045,31.789 51.618,37.762 50.811,39.373C46.093,57.143 73.026,68.854 75.699,70.098C74.144,72.583 72.829,74.572 72.945,75.496C73.038,76.234 73.455,76.254 74.314,76.08C76.282,74.97 79.754,73.381 80.979,71.961C81.722,71.101 80.952,69.85 80.588,69.443C80.197,69.002 80.422,68.616 81.322,69.166C82.176,69.888 82.33,70.289 82.6,70.922C82.985,71.838 81.883,72.814 81.883,72.814C84.914,74.184 95.277,78.261 98.486,78.896L95.008,73.264C88.69,70.742 79.805,66.934 74.764,64.432C66.949,60.548 54.013,52.462 60.463,40.074C62.347,36.919 63.063,36.856 63.33,37.594C63.348,37.669 63.292,37.881 63.213,37.922C63.093,38.044 62.243,38.862 61.451,40.543C55.389,51.809 67.933,59.884 75.33,63.471C86.039,68.661 95.952,72.659 102.48,74.85C103.48,75.185 104.39,75.527 105.1,75.729C107.08,76.311 104.53,69.451 102.03,68.746C88.784,64.853 76.033,59.047 72.502,55.561C70.383,55.309 64.727,53.586 63.807,45.924C63.77,45.717 63.78,45.539 64.039,45.48C64.279,45.426 64.377,45.601 64.398,45.707C66.018,52.662 70.757,54.516 72.76,54.564C73.868,54.59 75.613,53.486 75.156,53.219C71.718,51.224 69.786,47.207 69.65,46.791C69.561,46.52 69.662,46.446 69.832,46.355C69.991,46.272 70.175,46.338 70.348,46.605C71.235,47.981 74.498,53.357 79.33,53.504C80.608,53.543 82.014,53.498 82.299,52.354C82.299,52.354 78.212,50.47 76.207,47.156C76.137,47.05 76.08,46.848 76.338,46.691C76.601,46.533 76.804,46.804 76.924,46.916C80.826,50.919 83.959,52.545 85.854,52.344C86.62,52.295 87.156,51.747 87.184,51.361C87.286,49.907 85.815,49.017 85.428,48.754C85.372,48.717 85.342,48.585 85.406,48.5C85.464,48.417 85.613,48.374 85.809,48.469C86.574,48.833 88.071,49.909 87.947,51.605C87.924,51.906 87.885,52.106 87.658,52.354C89.872,53.518 93.64,55.016 95.391,55.559C90.02,46.554 84.083,37.087 76.346,32.371C76.138,33.043 76.785,34.573 76.014,34.203C75.479,33.947 75.012,31.718 74.992,30.713C74.891,25.515 73.466,21.18 71.566,18.686C70.515,19.509 68.607,19.926 68.615,19.938C72.421,16.562 72.91,14.193 72.91,14.193C71.8,15.051 69.135,16.234 67.748,16.475C67.748,16.475 72.091,13.938 73.834,9.412C73.834,9.373 71.063,12.131 67.01,13.047C67.008,13.041 73.745,9.971 73.621,5.434ZM83.184,52.676C83.108,53.166 82.96,53.632 82.188,53.98C89.247,58.176 96.783,60.465 98.436,60.943C98.776,60.699 97.914,57.475 95.549,56.637C92.02,55.382 89.08,54.137 86.994,52.828C86.258,53.233 85.165,53.472 83.184,52.676ZM76.217,53.76C76.135,54.354 74.578,55.232 73.877,55.355C78.953,59.671 96.832,66.328 101.94,67.525C102.76,67.717 101.57,64.04 99.32,62.533C97.676,61.425 87.345,59.036 80.799,54.324C79.695,54.504 78.32,54.546 76.217,53.76ZM106.67,73.061C106.88,73.518 106.99,74.11 107.09,74.66C107.99,78.921 104.77,76.561 96.549,73.793C103.14,84.201 113.18,99.572 118.86,106.76C119.18,104.64 119.41,102.78 119.55,101.57L119.67,100.54L120.86,100.08L105.38,80.229L106.76,80.229C106.76,80.229 115.58,91.628 121.98,99.645L126.41,97.912C119.92,91.046 109.12,79.891 109.12,79.891L110.53,79.928C110.52,79.815 131.45,101.55 131.45,101.55C132.6,102.84 134.55,98.471 131.41,94.975C129.67,92.197 106.67,73.061 106.67,73.061ZM23.625,90.17C18.615,90.17 15.072,92.703 10.922,97.762C4.951,105.04 -0.802,123.36 7.111,132.69C9.763,135.82 15.118,139.33 22.375,138.78C30.31,138.17 32.464,135.19 38.635,139.33C41.54,137.04 45.969,137.91 48.508,138.5C41.251,126.28 27.365,138.96 15.986,133.34C12.043,131.39 9.31,126.5 9.217,122.03C9.122,117.51 10.211,112.48 11.869,108.18C11.507,107.51 11.207,106.76 10.994,105.96C10.119,102.64 11.22,99.314 13.168,98.564C13.274,98.514 13.388,98.47 13.512,98.438C15.481,97.868 17.363,97.382 19.17,96.867C19.803,96.304 20.443,95.823 21.082,95.447C23.358,94.117 27.709,94.061 30.25,95.912C29.07,97.299 28.053,99.187 29.723,100.74C31.028,102 33.177,101.48 34.061,99.984C35.422,97.668 34.311,95.064 32.699,93.41C30.762,91.475 27.183,90.17 23.625,90.17L23.625,90.17ZM127.305,98.861L126.045,104.68C127.355,106.24 128.235,107.24 128.445,107.33C130.465,108.23 131.915,104.23 131.135,103.09C130.875,102.7 129.385,101.08 127.305,98.861ZM73.108,99.314L67.874,101.38L65.763,110.63C65.763,110.63 65.744,109.76 64.052,109.47C60.331,108.85 58.267,111.58 56.751,114.42C55.618,116.54 54.358,120.37 54.358,123.17C54.358,123.17 52.524,125.58 51.102,125.4C46.22,124.76 54.366,109.82 54.366,109.82L45.04,109.82L45.331,108.72L41.755,108.72C40.767,112.97 38.505,120.81 36.21,124.04C34.966,125.79 33.553,125.3 33.513,124.09C33.472,122.85 36.655,109.31 36.655,109.31L32.155,109.31L31.729,110.94C30.467,110.13 27.175,108.82 24.253,112.11C20.432,116.4 19.796,120.96 20.942,124.39C21.101,125.04 17.401,126.8 17.401,126.8C17.401,126.8 18.922,127.71 19.784,129.52C21.202,129.48 22.397,127.53 22.55,127.63C24.734,129.28 27.408,129.26 29.626,126.88C30.978,128.3 32.998,128.82 34.518,128.82C40.581,128.82 42.406,118.15 44.106,113.16L48.931,113.16C48.226,115.09 46.837,118.06 45.915,120.86C44.948,123.79 44.36,126.74 46.159,128.02C48.921,129.98 52.822,128.19 55.018,126.24C55.94,128.02 57.862,128.88 59.403,128.82C61.102,128.79 62.383,128.35 63.643,127.35C65.993,130.59 69.58,128.12 71.556,126.28C71.9,127.64 72.753,128.81 74.38,128.82C76.305,128.83 78.34,127.76 79.929,126.24L79.231,128.82L83.96,128.82L86.04,121.21C88.331,111.98 91.163,114.43 91.388,114.8C91.912,115.61 91.046,117.16 90.095,120.56C89.434,122.93 87.673,128.47 91.89,128.82C94.305,129.02 97.47,127.53 99.1,125.63C101.505,129.5 104.395,129.39 108.205,127.2C109.035,128.27 109.655,129.03 111.195,128.82C112.965,128.74 114.715,127 115.675,126C116.215,127.54 117.335,128.85 119.185,128.82C121.755,128.78 124.035,126.38 125.715,124.62C127.975,127.55 130.265,129.48 134.195,128.82C136.945,128.35 138.015,127.17 140.675,129.42C140.675,129.42 140.865,127.17 144.505,124.77C142.505,123.77 140.485,124.03 139.355,124.38C140.625,122.05 138.925,118.8 138.315,116.52C137.775,114.46 137.415,113 138.175,110.91C138.515,109.98 135.785,108.8 135.335,108.6C133.005,109.5 123.025,123.12 121.985,123.99C121.505,124.4 120.365,125.06 121.055,122.06C121.055,122.06 126.065,99.338 126.035,99.314L120.745,101.38C120.145,106.4 118.575,120.56 113.765,123.52C113.325,123.79 111.865,124.87 111.435,124.02C111.195,123.56 114.545,109.38 114.575,109.23L110.325,109.23L109.995,110.52C109.295,109.23 107.525,109.23 106.395,109.44C98.338,110.95 98.21,122.92 97.94,123.33C95.605,126.21 93.503,125.48 93.565,123.71C93.672,120.66 97.348,112.52 95.724,110.44C93.936,108.15 90.253,109.79 88.409,111.77L88.977,109.32L84.513,109.32C83.871,112.42 81.545,121.27 79.622,123.52C78.609,124.7 76.031,125.05 76.143,123.79C76.271,122.33 79.911,109.3 79.911,109.3L75.399,109.3C75.399,109.3 73.081,119.65 71.194,122.94C69.579,125.76 67.508,124.52 67.628,122.88C67.851,119.89 73.108,99.314 73.108,99.314ZM79.575,100.06C78.138,100.06 76.974,101.23 76.974,102.66C76.974,104.1 78.138,105.26 79.575,105.26C81.01,105.26 82.177,104.1 82.177,102.66C82.177,101.23 81.01,100.06 79.575,100.06ZM125.705,106.3L124.675,111.04C126.365,110.99 128.065,109.52 127.225,108.26L125.705,106.3ZM134.825,112.88C133.625,117.71 137.895,121.58 135.365,124.69C134.355,125.74 131.955,125.89 130.595,124.59C127.835,122 127.885,121.63 129.375,119.71C131.515,116.93 132.905,114.6 134.825,112.88ZM63.874,113.01C64.112,113 64.356,113.02 64.604,113.08C65.987,113.42 64.301,118.18 63.239,123.08C62.91,124.61 59.811,125.34 59.104,123.7C57.995,121.14 60.306,113.2 63.874,113.01ZM30.065,113.17C30.435,113.19 30.83,113.28 31.251,113.44C31.251,113.44 30.284,124.81 26.532,124.81C25.356,124.81 24.34,123.23 25.429,118.9C26.113,116.16 27.477,113.04 30.065,113.17ZM108.045,113.27C108.445,113.3 108.875,113.4 109.345,113.58C109.345,113.58 108.205,124.85 104.355,124.85C103.185,124.85 102.165,123.27 103.255,118.94C103.935,116.2 105.235,113.04 108.045,113.27Z" style="fill:rgb(183,33,38);fill-rule:nonzero;"/>
            </g>
            <g transform="matrix(0.8,0,0,-0.8,15.008,337.3)">
                <path d="M51.596,22.049C47.949,24.286 46.309,28.434 46.309,28.434C49.518,27.748 50.021,26.828 52.463,27.039C53.334,27.115 53.746,27.512 54.439,28.023C53.378,27.783 52.559,27.73 51.666,27.709C50.425,27.68 47.97,28.552 46.723,28.676C46.723,28.676 50.813,30.437 52.07,30.623C52.07,30.623 54.71,31.661 55.473,28.318C55.887,26.504 54.518,23.879 52.758,24.613C52.74,24.621 53.073,22.702 51.596,22.049ZM124.63,67.074C124.54,67.069 124.45,67.076 124.37,67.092C123.52,67.251 123.49,68.219 123.49,68.219C123.49,68.219 123.63,69.08 122.66,69.803C122.18,70.169 120.72,70.811 118.37,71.277L109.33,73.848L112.08,76.158L121.36,73.166C121.36,73.166 124.79,72.309 124.79,70.693C124.79,68.205 126.09,72.94 125.56,73.879C125.56,73.879 126,74.3 126.76,73.75C127.51,73.2 127.37,71.689 126.62,69.561C125.95,67.696 125.25,67.108 124.63,67.074ZM93.111,78.367L83.648,80.953C83.581,80.976 83.505,81 83.424,81.027C84.489,82.335 85.037,84.439 83.607,85.834C84.475,85.522 85.615,85.107 85.615,85.107C89.413,83.74 93.995,82.155 99.234,80.393C99.234,80.393 99.258,80.386 99.291,80.377C99.177,80.203 99.111,80.102 99.111,80.102C97.266,79.691 95.147,79.047 93.111,78.367ZM81.355,81.645C80.995,81.734 80.692,81.793 80.514,81.791C79.944,81.938 72.703,83.816 71.096,84.234C72.775,85.704 73.056,88.71 71.074,90.428C75.138,88.913 79.75,87.233 82.277,86.316L82.787,86.131C83.368,85.069 83.337,82.956 82.264,82.08C82.024,81.884 81.683,81.745 81.355,81.645ZM68.281,84.992C68.223,84.995 68.16,84.996 68.088,84.996C67.362,85.18 66.771,85.326 66.771,85.326C64.087,85.994 62.214,86.435 61.207,86.637C55.732,87.737 47.423,89.857 34.297,93.504C35.691,95.386 36.542,98.066 35.066,100.58C34.429,101.66 33.298,102.41 32.041,102.58C30.877,102.74 29.737,102.38 28.928,101.6C28,100.74 26.85,98.968 28.529,96.279C27.857,95.991 27.109,95.82 26.344,95.734L13.627,99.361C13.563,99.381 13.499,99.395 13.436,99.412C11.805,100 11.069,102.91 11.799,105.68C12.55,108.53 14.47,110.71 16.211,110.25C17.948,109.79 18.623,106.93 17.871,104.09C17.583,102.99 17.347,102.25 16.789,101.46C16.789,101.46 17.981,102.45 18.543,104.88C19.023,106.96 18.948,108.63 18.365,109.76C40.729,102.21 55.949,96.675 63.598,93.318C64.496,92.923 66.532,92.129 69.648,90.961C69.648,90.961 69.961,90.845 70.201,90.756C70.914,89.518 71.054,86.546 69.578,85.504C69.233,85.258 68.713,85.095 68.281,84.992Z" style="fill:rgb(254,230,14);fill-rule:nonzero;"/>
            </g>
        </g>
    </g>
</svg>
