<?xml version="1.0" encoding="utf-8"?>
<!-- Generator: Adobe Illustrator 22.0.1, SVG Export Plug-In . SVG Version: 6.00 Build 0)  -->
<svg version="1.1" id="Layer_1" xmlns="http://www.w3.org/2000/svg" xmlns:xlink="http://www.w3.org/1999/xlink" x="0px" y="0px"
	 width="720px" height="720px" viewBox="0 0 720 720" style="enable-background:new 0 0 720 720;" xml:space="preserve">
<style type="text/css">
	.st0{fill:#003278;}
	.st1{fill:#C0111F;}
</style>
<g>
	<path class="st0" d="M272.1063843,131.044754c-80.850296,8.0592651-88.3179169,56.1193542-88.3179169,132.3498383
		l-0.0857239,13.6579895h-68.173912l-39.0220947-36.5752411h72.3679886l0.1078339-16.9592285
		c0.1051178-74.4498291,35.4167786-104.4864044,121.9626617-104.4864044h1.1611633V131.044754z M447.4290466,315.7123718
		c-0.4201965,0.1160889-42.0190735,12.1512451-42.0190735,40.4265747V522.736145
		c0,11.3078003,4.6836243,18.8557739,27.2967834,18.8557739h11.7695313
		c0.0443726-1.0535278,0.0830078-2.1483154,0.0443726-3.2874146V371.7378845
		c0-34.0566406,47.1670837-47.1118774,47.1670837-47.1118774s-12.8562927-5.0596008-25.131897-14.2938538l0.0027161-0.0194092
		L447.4290466,315.7123718z M405.4017029,119.4657364v139.850708c0,26.2930298,42.2485657,43.1029358,42.6743164,43.2715149
		l17.3407898,6.7820129c-10.8240356-8.3966064-20.9072876-19.9341125-20.9072876-34.4353638V133.3726349l6.6853027,0.4230499
		c25.969574,2.2144928,44.6981201,9.0933533,58.0297852,19.1764221
		c-21.620575-21.5901947-56.3736877-33.3956757-103.8450012-33.5090714L405.4017029,119.4657364z M606.2904663,36v204.4800415
		h-58.0049438l41.0845337,38.9060059h54.1341553V70.761528L606.2904663,36z M475.3782043,643.5236206H216.0201111L258.8381958,684
		h249.4962463v-97.845459l-32.9562378-30.7166138V643.5236206z"/>
	<path class="st1" d="M592.430603,36.0109673v190.6451874h-44.1866455c0.0386963-4.06987,0.0830688-8.1837921,0.0830688-8.1837921
		c0-71.7596436-52.2295532-112.9024048-143.2459412-112.9024048c0.3759766,0-6.2234497-0.3594284-6.2234497-0.3594284
		l-7.2990417-0.4007797v154.5066833c0,24.3411255,22.400177,40.5426636,37.6727905,49.0747681
		c-15.4411926,7.2327271-37.6727905,21.6011658-37.6727905,47.756012v166.597168
		c0,21.7255249,13.8348389,32.6933594,41.1316223,32.6933594h28.7895203v74.2481689h-245.462326v-74.2481689h30.4594421
		c24.7226715,0,39.4866486-12.7815552,39.4866486-34.2112427V356.1472168c0-26.420105-19.0466309-40.3850708-32.8843536-47.4711609
		c13.7327423-7.88797,32.8843536-22.920105,32.8843536-49.3596191V105.1774521h-15.01828
		c-93.8226624,0-135.7146606,36.2352066-135.7146606,117.5085678l0.453598,3.9701385h-59.188385V36.0109673H592.430603z"/>
</g>
</svg>
