<?xml version="1.0" encoding="utf-8"?>
<!-- Generator: Adobe Illustrator 22.0.1, SVG Export Plug-In . SVG Version: 6.00 Build 0)  -->
<svg version="1.1" id="Layer_1" xmlns="http://www.w3.org/2000/svg" xmlns:xlink="http://www.w3.org/1999/xlink" x="0px" y="0px"
	 width="720px" height="720px" viewBox="0 0 720 720" style="enable-background:new 0 0 720 720;" xml:space="preserve">
<style type="text/css">
	.st0{fill:#FEFFFE;}
	.st1{fill:#E9291C;}
	.st2{fill:#134A8D;}
	.st3{fill:#1D2E5D;}
</style>
<g>
	<path class="st0" d="M555.2346802,101.9504242c0.2593384,0,1.8153687,0.518692,3.37146,1.037384
		s3.6308594,1.556076,4.4088745,2.3341141c0.7780762,1.037384,1.8154297,2.8528137,2.3341064,4.4088898
		c0.5186768,2.3341141,0.7780762,3.8901901,0.2593994,7.5210419c-0.2593994,2.3341141-0.5186768,4.4088898-0.2593994,4.4088898
		c0,0.259346,1.5560913-0.259346,3.6308594-0.7780457c1.8154297-0.778038,6.743042-2.0747681,10.6331787-3.1121521
		c4.8411865-1.037384,8.7313843-1.556076,11.6705933-1.556076c3.8901978-0.259346,4.6682739,0,6.4837036,1.29673
		c1.0373535,0.778038,2.5934448,2.3341141,3.1121216,3.8901978c0.7780151,1.29673,1.2967529,3.3714981,1.2967529,4.9275742
		c0,1.29673-0.5187378,3.3714981-1.0374146,4.4088821s-2.8527832,4.1495514-4.9275513,6.7430115
		c-2.3341064,2.8528137-6.742981,8.2990875-9.3364868,11.9299316c-2.8527832,3.8901978-5.1868896,7.0023499-5.1868896,7.0023499
		c0,0.2593536,1.5560913,0,3.37146-0.2593536c1.8154297-0.2593384,4.6682739-0.518692,6.2243042-0.518692
		c1.5560913,0,3.6308594,0.2593536,4.6682739,0.518692c1.0373535,0.2593536,2.5934448,1.2967377,3.6307983,2.3341217
		c1.0374146,1.037384,2.3341064,2.8528137,2.5935059,4.4088898c0.7780151,2.0747681,0.7780151,3.1121521,0.2593384,5.1869202
		c-0.2593384,1.8154297-1.2967529,3.6308594-3.371521,5.9649658c-1.2966919,1.8154297-3.6307983,5.4462738-5.1868896,8.2990875
		c-1.2967529,2.8528137-3.1121826,7.7803802-4.1495972,11.151886c-1.2966919,3.3715057-3.371521,11.6705933-5.1868896,18.4135895
		c-1.5560913,6.7429962-3.1121826,13.2266541-3.6308594,14.2640381c-0.5186768,2.0747681-0.2593384,2.0747681,0.7780762,1.556076
		c0.7780151,0,2.8527832-0.7780304,4.6682129-1.556076c1.8154297-0.518692,3.8901978-1.037384,4.6682739-1.037384
		c0.7780151,0,2.3340454,0.2593384,3.6307983,0.518692c1.5560913,0.518692,3.1121826,1.2967377,4.4088745,2.5934601
		c1.0373535,1.2967377,2.0747681,3.1121674,2.3341064,4.4088898c0.5186768,1.556076,0,7.2617035-1.2967529,22.3037872
		c-1.0373535,11.1518707-2.0747681,20.7476959-1.8153687,21.2663727c0,0.7780457,2.3341064-1.037384,9.0770874-7.5210266
		c7.2617188-7.2616882,9.3364868-8.8177795,11.4112549-9.3364563c1.2966919-0.2593689,2.8527832-0.5187073,3.37146-0.5187073
		c0.5187378,0,2.0748291,0.2593384,3.371521,0.5187073c1.2967529,0.2593384,3.1121826,1.2967224,4.1495972,2.5934448
		c1.0373535,1.037384,2.5934448,3.6308594,3.6307983,6.4836731c1.0373535,2.5934448,2.0747681,4.9275818,2.0747681,4.9275818
		c0.2593994,0.2593384,6.743042-0.7780457,14.2640381-2.0747986c12.7080078-2.0747681,14.0046997-2.3341064,16.5981445-1.5560608
		c2.0748291,0.5186768,3.1121826,1.2967224,4.9276123,3.1121521c1.2966919,1.5560608,2.0747681,3.1121521,2.3341064,4.9275818
		c0.2593384,1.2967224,0,7.7803955-0.5187378,14.5233765c-0.5186768,6.7430115-1.2966919,13.4859924-1.5560913,18.1542358
		l3.6308594,1.2967529c2.8528442,0.7780457,4.4088745,1.8153992,5.9649658,3.3714905
		c1.2967529,1.2967529,2.3341064,2.8528137,2.5934448,4.4088745c0.5187378,2.0747986,0.5187378,3.371521,0,5.4462891
		c-0.5186768,2.0747681-1.5560913,3.3714905-3.37146,5.1869202c-1.2967529,1.2967224-5.7056274,5.4462585-9.8551636,8.8177795
		c-4.1495972,3.6308594-8.5584717,7.2616882-9.8552246,8.5584412c-1.5560913,1.2967224-4.1495361,3.6308289-6.2242432,5.1869202
		c-1.8154297,1.8153992-4.4088745,3.8901978-5.7056274,5.1869202c-1.2967529,1.037384-4.4088745,3.6308594-7.0023193,5.9649658
		c-2.5935059,2.0747986-9.5958252,8.2990723-26.9720459,23.0818176l3.371521,4.1495361
		c2.0747681,2.5934753,3.371521,4.9276123,3.8901978,6.4836731c0.2593384,1.2967224,0.5186768,3.371521,0.2593384,4.4088745
		c-0.2593384,1.037384-0.7780151,2.8528137-1.5560913,3.8901978c-0.5186768,1.037384-1.8153687,2.3341064-3.1121216,3.1121521
		c-1.0373535,0.5186768-2.5934448,1.2967224-3.6308594,1.5560608c-0.7780151,0-13.4859619-0.7780457-28.5280762-2.0747681
		c-15.0420532-1.037384-27.2313232-2.0747681-27.2313232-1.8154297c0,0-0.5187378,1.0374146-1.2967529,2.334137
		c-0.5186768,1.037384-1.8154297,2.8528137-2.5934448,3.6308594c-0.7780762,0.7780457-2.8528442,1.8153992-4.1495972,2.3341064
		c-2.0747681,0.7780457-3.1121216,0.7780457-5.4462891,0.2593384c-2.3341064-0.5186768-3.6307983-1.2967224-5.1868896-3.1121521
		c-1.2967529-1.037384-2.5935059-3.1121521-3.1121826-3.8901978c-0.5186768-1.5560608-1.0373535-1.8153992-2.3341064-1.8153992
		c-1.2966919,0-1.5560913,0.2593384-2.0747681,2.5934448c-0.5186768,1.8154297-1.5560913,3.1121521-2.8527832,4.6682434
		c-1.2967529,1.0374146-5.7056274,5.1869507-10.114502,8.8177795c-4.1495972,3.6308594-11.1519165,10.1145325-15.3014221,14.2640686
		c-4.1495667,4.1495361-12.18927,12.7079468-17.8948975,18.9322815
		c-5.7055969,6.2242737-12.7079468,14.0046692-15.5607605,17.3761902c-2.8528442,3.371521-5.9649658,6.7430115-6.4836731,7.7803955
		c-0.7780457,0.7780457-4.4088745,5.1869202-7.780365,9.5957947c-3.6308594,4.4088745-9.0771484,11.4112244-12.18927,15.8201294
		c-3.1121521,4.1495667-8.2990723,10.8925171-11.1519165,15.0421143
		c-2.8528137,4.1495361-8.0397339,11.9299316-11.6705627,17.3761597
		c-3.8901978,5.4462891-9.0771484,13.7453613-11.6705933,18.1542358c-2.8528442,4.1495972-7.0023499,11.4112549-9.5957947,15.560791
		c-2.5934753,4.4088745-6.743042,11.6705933-9.3364868,16.3388672c-2.5934753,4.6682129-6.743042,12.189209-9.0771179,16.8574829
		c-2.5934753,4.4088745-5.1869507,8.817749-5.7056274,9.5958252c-0.7780457,0.7780151-2.3341064,1.8153687-3.3714905,2.0747681
		c-0.7780762,0.5186768-2.8528442,0.7780151-4.1495667,0.7780151s-3.371521-0.5186768-4.6682434-1.2966919
		c-1.2967224-0.5186768-3.1121521-2.0748291-3.6308594-3.1121826c-0.7780457-1.0373535-2.8528137-5.9649658-4.4088745-10.8925171
		c-1.8154297-4.6682739-5.1869202-14.0046997-7.7803955-20.2290039c-2.3341064-6.4837036-6.742981-16.5981445-9.3364563-22.8225098
		c-2.5934753-5.9649658-8.5584412-18.4135742-12.9673157-27.4907227
		c-4.4088745-9.0770874-10.8925476-21.5257568-14.2640381-27.4907227
		c-3.1121521-5.9649658-7.5210571-13.2266541-9.3364563-16.5981445c-2.0747986-3.1121521-5.9649963-9.3364868-8.8177795-14.0046692
		c-2.8528137-4.6682434-7.2617188-11.1519165-9.5958252-14.523407c-2.5934448-3.6308289-6.742981-9.3364868-9.5957947-13.2266846
		c-2.5934753-3.6308289-7.0023499-9.0771179-9.5957947-12.18927c-2.5934753-3.371521-7.2617188-9.0771179-10.8925476-12.9673157
		c-3.3715057-3.6308594-8.0397339-8.8177795-10.633194-11.151886c-2.5934601-2.5934753-7.0023346-6.4836731-9.5958099-9.0771179
		c-2.8527985-2.334137-7.7803802-6.2243347-11.151886-8.5584412c-3.1121521-2.334137-8.5584412-5.7056274-11.6705933-7.7803955
		c-3.3715057-2.0747681-8.5584259-4.9275818-11.9299164-6.7430115c-3.3715057-1.5560608-9.3364716-4.1495361-13.4860077-5.4462585
		s-12.4486237-3.371521-18.4135895-4.6682434c-6.2243195-1.2967224-12.9673157-2.5934448-15.3014374-3.1121521
		c-2.0747681-0.5186768-10.114502-2.3341064-17.6355438-4.1495361c-7.2616959-1.8153992-18.1542358-4.6682434-23.6005096-6.2243042
		c-5.7056198-1.8154297-15.0420914-4.6682434-20.7477036-6.7430115c-5.7056198-1.8153992-14.5233917-5.1869202-19.4509735-7.2616882
		c-5.1869278-1.8154297-12.4486237-5.1869202-16.3388176-7.2617188c-3.8901939-2.0747681-8.5584259-4.6682434-10.3738518-5.9649658
		c-1.8154221-1.2967224-3.8901939-3.371521-4.408886-4.6682434c-1.037384-1.8153992-1.556076-3.8901978-2.0747719-7.7803955
		c-0.518692-4.4088745-0.259346-5.7055969,0.259346-8.2990723c0.7780418-2.3341064,1.5560799-3.6308289,3.8901978-5.7055969
		c1.556076-1.5560913,4.408886-3.8901978,6.483654-5.1869202c1.8154259-1.2967529,5.7056198-3.371521,8.2990837-4.6682434
		c2.8528099-1.2967529,8.5584297-3.8901978,12.7079697-5.4462891c4.4088821-1.5560608,12.448616-4.1495361,18.4135818-5.7055969
		c5.7056198-1.8154297,15.8201294-4.4088745,22.8224792-5.9649658c6.7430038-1.8154297,18.4135818-4.4088745,26.193985-5.7056274
		c7.5210419-1.5560608,17.6355438-3.6308594,31.1215515-5.9649658l2.3341217-3.3714905
		c1.2967377-1.8154297,3.8901978-4.927597,5.7056122-6.7430115c1.8154297-2.0747681,4.6682434-4.6682281,6.4836578-5.9649506
		c1.8154297-1.556076,5.1869354-3.6308594,7.5210571-4.6682434c2.5934601-1.2967224,5.4462585-2.3341217,10.114502-2.8527985
		l4.6682281-6.2243195c2.5934753-3.3714905,6.7430115-8.2990723,9.0771332-10.8925476
		c2.5934601-2.3341217,6.4836578-6.2243042,8.8177643-8.0397186c2.5934753-2.0747833,6.4836578-4.927597,9.0771332-6.7430115
		c2.5934601-1.8154144,7.7803802-4.6682281,11.4112396-6.7429962c3.6308441-1.8154297,9.0771179-4.1495361,11.9299164-5.1869202
		c2.8527985-1.0373993,7.7803802-2.8528137,11.1519012-3.6308594c3.371521-0.7780304,8.0397339-2.0747681,10.3738403-2.5934601
		c2.0747986-0.2593384,7.5210571-1.2967377,11.6705933-2.0747681c4.4088745-0.7780304,13.2266541-2.0747681,19.9696655-3.1121521
		c6.742981-0.7780457,20.4883423-2.5934753,30.8622131-4.1495514c10.3738403-1.2967224,24.6378784-3.3714905,31.6402588-4.4088898
		c7.2616882-1.037384,18.6729126-2.8527985,25.4159241-4.1495361c6.743042-1.2967377,17.1168823-3.1121521,22.8224792-4.4088898
		c5.7056274-1.2967377,15.8201599-3.6308441,22.0444641-5.1869202c6.4836426-1.5560913,15.8201294-4.1495514,20.7476807-5.9649658
		c4.9275818-1.556076,12.9673157-4.1495514,17.6355591-5.9649658c4.6682434-1.8154297,11.6705933-4.6682281,15.8201294-6.2243042
		c3.8901978-1.8154297,10.114502-4.6682434,13.7453613-6.7430115c3.6308594-1.8154144,8.817749-4.9275818,11.6705933-6.7429962
		c2.8528442-1.8154297,6.743042-4.4088898,8.5584106-5.7056274c1.8154297-1.29673,5.7056274-4.4088821,8.2991333-6.7430038
		c2.8527832-2.3341141,6.4836426-5.7056122,8.2990723-7.7803879c1.8153687-1.8154221,4.1495361-3.8901901,4.9275513-4.6682281
		c1.0373535-0.518692,2.5934448-1.29673,3.6307983-1.556076
		C553.9379883,102.4691162,554.9753418,101.9504242,555.2346802,101.9504242L555.2346802,101.9504242z"/>
	<path class="st1" d="M672.4591675,322.1354065c-0.5185547-0.5187378-3.1119995-1.5559998-5.9649048-2.5934753
		c-2.8527832-0.7779846-5.446228-1.8154297-5.7056885-2.0747375c0,0,0.2594604-8.5583801,1.2967529-18.6729431
		c1.2966919-18.4135437,1.2966919-18.4135437,0.2593994-18.6729736c-0.5186768-0.2592773-8.0397949,1.0374451-16.8574829,2.3341675
		c-8.5584106,1.5560303-15.8201904,2.5934753-16.3388062,2.5934753c-0.2593994,0-1.5561523-3.37146-3.1121826-7.2616577
		c-1.5559692-3.6309204-3.1121826-7.2618408-3.6309204-7.5211182c-0.7779541-0.7780151-2.5934448,0.7780151-12.7078247,10.8925781
		c-6.4837036,6.2242126-12.9673462,12.1893005-14.2640381,13.226593c-1.5560303,0.7780151-3.371521,1.5561829-4.4089355,1.5561829
		c-1.0374756,0-2.0747681-0.5187378-2.8527832-1.2967224c-0.5186768-0.7781677-1.2966919-2.0749207-1.5561523-3.1122131
		c0-1.0374451,0.2594604-6.4836426,0.7780151-11.9300232c0.5187378-5.4461975,1.5561523-16.0793457,2.0748901-23.859726
		c0.7780151-7.5211029,1.5560303-15.0422058,1.5560303-16.5982208c0.2592773-1.556015,0-2.8527374-0.2592773-3.1121826
		c-0.2594604-0.2592926-2.5935059,0.5187225-5.4464111,1.5561676c-2.8527222,1.2967377-5.446167,2.3340302-5.7056274,2.5934601
		c-0.2592773,0.2592926-2.074707,0.7780151-4.1494751,1.556015c-1.8154297,0.5187225-3.8901978,1.0374451-4.1496582,1.0374451
		c-0.2592773-0.2594299-4.4088745-6.7430878-9.3363647-14.5234833c-4.6682129-8.0396729-9.8551636-16.3387756-11.1518555-18.6729584
		c-1.2967529-2.0747375-2.8529053-4.1494751-3.1121826-4.4087677c-0.2594604-0.2594299-0.7780151-0.5187225-0.7780151-0.5187225
		c-0.2592773,0-0.7780151,0.7780151-1.5560303,1.556015c-0.5187378,0.7780151-2.8529053,4.6681976-5.1869507,8.299118
		c-2.3341675,3.6309052-7.0023804,11.670578-10.6332397,17.6355133c-3.6307983,5.7056427-7.0022583,10.6332855-7.2616577,10.6332855
		c-0.5187378,0-4.6682129-1.5561676-9.5958862-3.3716278c-4.6681824-1.8152924-9.0771179-3.37146-9.5956726-3.37146
		c-0.7781677,0.2594452-0.7781677,0.5187225-0.7781677,1.8154449c0.2594299,0.7780151,1.0374451,8.0398407,1.8154602,16.0795135
		s1.8154602,18.4135132,2.0747375,22.8224487c0.5187073,4.408905,1.0374451,9.8551025,1.0374451,11.9298401
		c0,2.5934753-0.5187378,4.1496582-1.2967224,5.4463806c-0.7780151,1.5560303-1.2967529,1.8154602-3.1121826,1.8154602
		c-1.0374756,0-2.8527527-0.5187378-4.1495056-1.2967224c-1.0374451-0.7781677-7.2618103-6.4836731-13.7454529-12.9673157
		c-6.7429504-6.4836731-12.1891479-11.6705933-12.7078857-11.6705933c-0.2594299,0-1.0374451,0.2592773-1.2967224,0.5185547
		c-0.2594604,0.5187378-1.5561829,3.6309204-2.8529053,7.2618408c-1.2967529,3.37146-2.8527527,6.4836426-3.11203,6.7429199
		c-0.5187378,0.5187378-4.1496277,0.2593079-14.5234985-1.8154297c-7.7803955-1.2967529-15.5607605-2.5934753-17.1167908-2.5934753
		l-2.8529053-0.5187378c0,2.5934753,0.7780151,10.8925781,1.5561829,20.2291565
		c0.5185547,9.3363953,1.0372925,17.1167908,1.0372925,17.3760681c-0.2592773,0.5187378-2.5934753,1.5561829-5.446228,2.3341675
		c-2.8529053,1.0374756-5.4463501,2.0747375-5.9650879,2.5934753c-0.7779846,0.7780151-0.5185547,1.0374451,1.5561829,3.1121826
		c1.5559998,1.2967224,3.37146,2.8527527,4.408905,3.6307678c1.2967529,0.7781677,2.5934753,2.0748901,3.11203,2.5934448
		c0.7780151,0.7781677,9.8551331,8.5585632,20.4884338,17.6356812
		c10.6331177,9.3363953,22.3037109,19.4509583,26.1939087,22.5629883c3.6309204,3.3716431,8.2991028,7.2618408,10.114563,9.0771179
		c1.8154602,1.5561829,3.8901978,3.1122131,4.6682129,3.6309204c0.7780151,0.7780151,1.0374451,1.2967224,0.7780151,2.0747375
		c-0.2593079,0.5187378-2.8527527,3.6309204-5.7055054,7.0023804c-3.2851868,3.9766235-4.6683655,6.13797-4.1496277,6.4836731
		c0.2592773,0.2594299,4.9276428,0,10.114563-0.5187378c5.4461975-0.5185547,14.2640381-1.0372925,19.7102356-1.5559998
		c5.446228-0.5187378,13.486084-1.0374451,17.8949585-1.2967529c4.4087524-0.5187073,8.2989502-0.7779846,8.817688-0.7779846
		c0.5187378-0.2594604,1.2967529,0,1.5561523,0.2592773c0.5187378,0.2592773,1.8154907,2.0747375,2.8527832,4.1494751
		c1.0374146,2.0748901,2.3341675,3.6309204,2.8529053,3.6309204c0.2592773,0,1.8154297-1.8154602,2.8527222-4.1494751
		c1.2967529-2.334198,2.5935059-4.1496582,3.1121826-4.1496582c0.5187378,0,3.37146,0.2594604,6.742981,0.5187378
		c3.1121826,0.2592773,15.56073,1.2967224,27.4907837,2.3341675c11.9298706,1.0372925,22.3037109,1.5560303,23.0817261,1.5560303
		c1.0374146-0.5187378,1.0374146-0.5187378-2.0747681-4.1494751c-1.8154297-2.0749207-4.1494751-4.9276428-5.1868896-6.4836731
		c-1.0374756-1.2967224-2.0747681-2.8529053-2.0747681-3.3716125c0-0.5185852,7.0023804-6.7429504,15.560791-14.0046082
		s17.1168213-14.7827759,19.4509888-16.8575134c2.074707-1.8154602,5.7056274-4.9276428,7.7803955-6.743103
		c2.074707-2.0747375,4.9274902-4.4087524,6.4836426-5.7054749c1.5560303-1.2967529,7.5209351-6.2243958,12.9672852-11.1520386
		C671.1624146,324.469574,672.9779053,322.6541443,672.4591675,322.1354065z"/>
	<path class="st2" d="M589.2089233,166.0089111c-0.7780151,0-2.8527832,0.2594452-4.6682129,0.5187225
		c-1.8154297,0.5187225-5.1869507,1.556015-7.5209351,2.3341827c-2.5934448,0.7779999-7.2618408,3.11203-10.3738403,5.1869202
		c-3.3716431,2.0747375-6.2244263,3.6307526-6.4837036,3.6307526c-0.2593994,0-0.5186768-0.2592773-0.5186768-0.7779999
		c0-0.2592926,1.2966919-3.6309204,2.8527222-7.261673c1.8154297-3.6309052,4.668335-9.3365631,6.743103-12.7080231
		c2.074707-3.3714752,5.1869507-8.299118,7.2616577-11.1518707c2.0747681-2.5934601,5.4463501-7.2616577,7.7803955-10.114563
		c2.3341675-2.8527527,4.6682129-5.7054901,5.1869507-6.2242126c0.5186768-0.7780151,1.0374146-1.556015,0.7779541-2.3341827
		c-0.2592773-0.5185623-0.7779541-0.7780075-2.074707-0.5185623c-1.0374756,0.2592773-4.9276733,1.0372849-8.5584106,1.8153
		c-3.6309204,1.0374451-9.0770874,2.5934601-12.4486084,3.8901825c-3.1121826,1.0374603-7.7803345,3.1121979-10.3738403,4.4089203
		c-2.5934448,1.2967377-4.9276123,2.3341827-5.4463501,2.3341827c-0.2592773,0-0.5187378-0.5187225-0.5187378-1.0374451
		c0.2594604-0.5187225,1.0374756-3.1121826,1.8154907-5.9649353c0.7779541-2.5934601,1.8154297-7.5211029,2.074707-10.373848
		c0.5187378-3.1121902,0.7781982-5.9649353,0.5187378-6.2243805c0-0.5187225-0.5187378-0.7780075-1.0372925-0.7780075
		c-0.5187378,0.259285-3.1121826,2.3340225-5.9649658,5.1869278c-2.8529053,2.5934601-8.0397949,7.0023804-11.6705322,9.8551254
		c-3.6309204,2.8527527-10.114563,7.261673-14.2640381,9.8551331c-4.1495361,2.3341827-11.4113159,6.2243652-16.0795288,8.5583954
		c-4.4089355,2.0748901-11.9298706,5.4463654-16.3387756,7.2618256c-4.6682129,1.8152924-11.6705933,4.4087524-15.8202209,5.9649353
		c-4.1494751,1.2967224-10.3738708,3.37146-14.0046082,4.408905c-3.6309204,1.0372925-11.4113159,3.11203-17.1169434,4.6682129
		c-5.705658,1.556015-13.4860535,3.37146-17.1167908,4.1494751c-3.6309204,0.7779999-9.5958557,2.0747375-13.2267761,2.8529053
		c-3.6307373,0.7779999-10.1144104,2.0747375-14.2640381,2.5934601c-4.4087524,0.7779999-10.1144104,1.8152924-12.7078857,2.3340149
		c-2.8527222,0.5187225-9.0771179,1.5561829-14.0047607,2.3341827c-5.1869202,0.7780151-12.4485779,1.8154602-16.598053,2.3340302
		c-4.1496277,0.5187225-13.2267761,1.8154449-20.4884338,2.8529053c-7.0023804,0.7779999-15.5607605,2.0747375-18.932251,2.5934601
		c-3.37146,0.2592773-10.3738403,1.2967224-15.8200378,2.0747375c-5.1869507,0.7779999-13.7454834,2.0747375-18.6729736,3.1121826
		c-4.9276428,1.0372925-11.9300232,2.5934601-15.0420532,3.6307526c-3.3716431,0.7781677-9.0771179,3.1121826-12.7080383,4.6683655
		c-3.6309052,1.556015-7.7803802,3.37146-9.0771179,4.1494751c-1.556015,0.7779999-4.1494751,2.3341827-6.2243652,3.6309052
		c-1.8153076,1.2967377-4.9274902,3.3714752-6.7429504,4.6682129c-1.8154449,1.556015-4.6681976,3.8901825-6.4836578,5.4461975
		c-1.556015,1.2967377-4.9276428,4.6682129-7.0023804,7.0023804c-2.3340149,2.5934753-5.7056427,6.7429504-7.5209503,9.3364105
		l-3.3716278,4.6683655c0.2594452,6.4836426,0.7780151,9.5956726,1.5561829,12.1891479
		c0.7779999,2.3341675,2.0747375,5.4463501,3.11203,7.0023804c0.7781525,1.5561829,2.8529053,4.1496277,4.408905,5.9649353
		c1.5561829,1.5561523,3.8901978,3.8901978,5.705658,4.6683655c1.556015,1.0372925,4.1494751,2.0747375,5.9649353,2.5934448
		c1.5561676,0.5185852,3.1121826,0.7780151,3.6309052,0.5185852c0.2592926,0,0.2592926-2.3340454,0.2592926-5.7055054
		c-0.2592926-3.6309204,0-6.743103,0.5187225-8.5585632c0.2592773-1.5559998,1.0372925-3.6307373,1.8154449-4.6681824
		c0.5185699-1.2967529,1.8153076-3.3714752,3.11203-4.6682129c1.2967377-1.556015,4.4089203-3.8901978,6.4836578-5.4462128
		c2.3341827-1.5561676,5.705658-3.3716278,7.5211029-4.1496277c1.8154602-1.0372925,5.4462128-2.3340302,7.7804108-3.1121979
		c2.5934448-0.7779999,6.7429199-1.8152924,9.3363953-2.0747375c2.3341675-0.5187225,8.0398254-1.0372772,12.4487305-1.556015
		c5.446228-0.2594299,10.8924255-0.2594299,16.8575134,0c4.6682129,0.2592926,11.9298706,1.0372925,15.560791,1.556015
		c3.8901978,0.2594452,10.8924255,1.5561829,15.5607605,2.3341827c4.6682129,1.0372925,11.9298706,2.5934601,16.3388062,3.6307526
		c4.1494751,1.0374451,7.780365,2.0749054,8.2991028,2.3341827c0.2592773,0.2594452-7.2616577,0.5187225-17.1169434,0.5187225
		c-13.226593,0-18.1542358,0-18.932251,0.5187225c-0.7780151,0.5185699-1.2967224,1.0372925-1.0374451,1.556015
		c0.2594299,0.2594452,6.2243652,2.5934601,13.4860229,4.9276428c7.0023804,2.3340149,13.7453308,4.6682129,14.5234985,4.9274902
		c1.0372925,0.5187378,6.2242126,2.3341675,11.4111328,3.8901978c5.1869202,1.8154602,13.226593,3.8901978,17.3762512,4.9276428
		c4.1494751,1.0374451,10.8925476,2.5934448,14.5233154,3.37146c3.8901978,0.7780151,9.5958557,1.8154602,12.7080383,2.334198
		c3.1121826,0.2592773,9.0771179,1.0372925,13.226593,1.5559998c6.4836426,0.5187378,7.2618103,0.5187378,7.7803955-0.2592773
		c0.2594299-0.5187378,0.2594299-1.8154602,0.2594299-3.37146c-0.2594299-1.2967529-0.2594299-2.5934753,0-2.8529053
		c0.2592773,0,8.2991028,1.0374451,17.8948059,2.5934448c9.5958252,1.8154602,18.1542358,3.1121826,18.9324036,2.8529053
		c1.5559998,0,1.8153076-0.2594299,5.7054749-10.3738403c2.334198-5.705658,4.4089355-10.3738556,4.6683655-10.3738556
		c0.2592773,0,6.7429504,5.96492,14.2640686,13.2266083c7.2616577,7.2616577,13.7453003,13.226593,14.2640381,13.226593
		c0.2592773,0,0.7780151,0,0.7780151-0.2592773c0.2592773-0.2593079,0.2592773-2.5934753-0.2594604-5.1869507
		c-0.2592773-2.5934448-1.0372925-10.114563-1.5559998-16.5982056c-0.5187378-6.4836731-1.5560303-17.116806-2.334198-23.8597412
		c-0.5185547-6.4836578-0.7779846-11.9300232-0.5185547-12.1893158c0.2592773,0,5.9649353,1.8154602,12.4485779,4.6682129
		c6.742981,2.5934601,12.4486084,4.9276428,12.9673462,4.9276428c0.5186768,0,4.1494751-5.705658,8.817688-13.2267609
		c4.4088745-7.2616577,10.3738403-17.1167908,13.4860229-22.3037109c3.1121826-5.1869354,5.7056274-9.3365631,5.9649048-9.3365631
		c0,0,5.1869507,8.2991028,11.1520386,18.1542358c8.2989502,13.4860382,11.4111328,18.1542358,12.1891479,18.1542358
		c0.7781372,0,1.2967529-0.5185547,1.5561523-2.3340149c0.2592773-1.0374451,1.8154907-7.261673,3.1121826-13.4860382
		c1.5560303-6.2243805,3.8901978-14.5233307,5.1869507-18.1542358c1.0372925-3.8901978,3.1119995-9.0771332,4.4087524-11.9298706
		c1.2967529-2.8529053,3.3716431-6.2243805,4.4089355-7.5211029c1.0374146-1.556015,1.8154297-3.1121979,1.8154297-3.6309204
		C590.5056152,166.5276337,589.7276611,166.0089111,589.2089233,166.0089111z"/>
	<path class="st3" d="M53.6589813,311.2428284c3.6307526-0.2592773,14.5233307-0.7780151,24.1191711-1.0374451
		c9.3364029-0.2592773,27.2313614-0.5185547,39.4206696-0.5185547c11.9298706,0,37.0864868,0.5187073,55.5000153,0.7779846
		l33.4557343,1.0374451c3.6307526-3.6308899,5.9649353-5.1869202,7.5209503-5.9650879
		c1.2967224-0.7779846,4.1496277-1.8154602,5.9650879-2.0747375c2.0747375-0.5187073,5.7056427-1.0374451,10.1144104-1.0374451
		c4.6683655,0,8.0398254,0.5187378,10.3738556,1.0374451c1.8154449,0.5187378,4.6683502,1.5560303,6.2243652,2.334198
		c1.8154602,1.0372925,4.6681976,3.1121826,6.7429504,4.6681824c2.0748901,1.5560303,5.9650879,4.6682129,8.8178406,7.0023804
		c2.8527222,2.0747375,6.4836426,4.6682129,8.2991028,5.446228c1.8154602,1.0374451,4.6682129,2.0747375,6.2242126,2.5934448
		c1.8154602,0.5187378,5.4463806,0.7780151,8.0398254,0.7780151c2.5934753,0,5.9649353-0.2592773,7.7803955-0.5185547
		c1.5560303-0.2594604,4.6682129-1.5561829,6.7429504-2.5934753c2.0747375-1.0374451,7.2616577-4.408905,11.1518555-7.7803955
		c4.1496277-3.3716125,9.0771179-7.0023804,11.4112854-8.2991028c2.0747375-1.2967224,5.446228-2.8529053,7.5211182-3.37146
		c3.37146-1.2967529,5.1869202-1.2967529,48.2383423-1.2967529c26.9719238,0,44.8668823,0,45.3855896-0.5187073
		c0.7780151-0.2594604,0.7780151-1.2967224,0.5187378-6.4836731c-0.2594299-4.6681824-0.7781677-5.9649353-1.2967224-6.4836426
		c-0.7781677-0.5187378-10.3738708-0.7780151-44.8670349-0.7780151c-37.3457947,0-44.348175,0-46.9416199-0.7781677
		c-1.8154602-0.5185547-4.6682129-1.5559998-6.4836731-2.5934448c-1.5559998-0.7780151-4.408905-2.5934753-6.2243652-3.8901978
		c-1.5559998-1.2967529-5.4461975-4.408783-8.5583801-6.7429504c-2.8527527-2.5934753-7.2616882-5.4461975-9.5958557-6.7429504
		c-2.8527527-1.2967224-5.7055054-2.0748901-9.3363953-2.8529053c-4.6682129-0.7779846-5.705658-0.7779846-10.1145935,0
		c-3.37146,0.5187378-6.4836426,1.5561829-9.3363953,3.1122131c-3.1121826,1.2967224-7.2616577,4.408905-12.1893005,8.5583801
		c-4.4089203,3.6309204-9.3364105,7.2616577-11.4111481,8.2991028c-1.8154449,1.0374756-4.9276428,2.334198-6.7430878,2.8527527
		c-1.8154602,0.5187378-4.6682129,0.7781677-6.2242279,0.7781677c-1.5561676,0-4.6681976-0.2594299-6.7430878-0.7781677
		c-2.3340302-0.5187073-5.1869354-1.5559998-6.7429504-2.0747375c-1.8154449-0.7780151-4.1494751-2.0747375-5.7056427-3.1121826
		c-1.556015-1.0372925-3.8901978-3.11203-5.1869202-4.4087524c-1.2967377-1.5561829-3.3714752-3.8901978-4.4089203-5.705658
		c-1.2967377-1.5561829-2.8527527-4.6682129-3.8901978-6.743103c-0.7780151-2.3340149-2.0747375-6.2242126-2.8527527-9.3363953
		c-0.5187225-2.8527527-1.2967224-5.4462128-1.2967224-5.705658c-0.2592926-0.5187225-0.7780151-0.7779999-1.2967377-0.7779999
		s-2.3341827,0.7779999-3.8901978,1.556015c-1.8154449,1.0374451-4.4089203,2.8529053-5.9649353,4.1496277
		c-1.8154449,1.0372925-4.408905,3.6307678-5.9650879,5.705658c-1.556015,2.0747375-3.8901978,5.1869202-5.1869202,7.2616577
		c-2.3340302,3.37146-2.3340302,3.37146-5.1869202,3.6307678c-1.556015,0.2594299-8.2989655,1.2967224-14.7826233,2.5934448
		c-6.4836578,1.2967529-16.0794983,3.1121826-21.5258636,4.1496277c-5.1869202,1.0372925-14.2640457,3.11203-19.9695358,4.408783
		c-5.7056503,1.2967224-14.0047684,3.3716125-18.413681,4.6683655c-4.4089203,1.2967224-11.6705856,3.37146-16.0795059,4.9274597
		c-4.4087601,1.5561829-10.8924179,3.8901978-14.0046005,5.1869507c-3.3714752,1.5561523-8.0398331,3.8901672-10.3738556,5.1869202
		c-2.5934639,1.5561523-5.186924,3.37146-6.2243729,4.408905c-1.556015,1.2967224-1.8154564,2.0747375-1.556015,2.8527527
		C47.1753235,311.5021057,47.4346085,311.5021057,53.6589813,311.2428284z M266.8416748,288.4203796
		c0.2592773-1.5559998,1.0372925-3.8901978,1.8152771-5.4461975c0.7781677-1.5561829,2.334198-3.8901978,3.6309204-5.1869202
		c1.2967224-1.2967529,2.3341675-2.334198,2.3341675-2.334198s0.2593079,3.3714905,0.2593079,15.560791h-8.2991333
		L266.8416748,288.4203796z M520.4821167,406.6824036c0,0.5187073-2.3339844,2.5934448-4.9274292,4.9276428
		c-2.5935059,2.0747375-8.039856,7.2616577-12.1893311,11.1518555
		c-4.1496277,3.8901978-10.8925781,10.6331177-15.0420532,14.7827759
		c-4.1496277,4.4087524-8.8178406,9.3363953-10.8925781,11.4111328c-1.8154602,2.0747375-5.1869202,5.9649353-7.7803955,8.8178406
		c-2.5934448,2.8527222-6.743103,7.780365-9.0771179,10.6331177c-2.5934448,2.8529053-7.5210876,8.8178406-11.1518555,13.4860535
		c-3.6309204,4.408905-9.8552856,12.7078552-14.0047607,18.1542358
		c-4.1494751,5.4461975-10.3738403,14.2640381-14.0046082,19.4509888
		c-3.6309204,5.1868896-9.0771179,13.2265625-12.1893005,17.8947754
		c-3.1121826,4.668335-7.7803955,12.1893311-10.3738708,16.5982056c-2.8528748,4.4089355-7.780365,12.4486084-10.8925476,17.8948364
		c-3.1122131,5.4463501-8.5584106,15.3014526-12.1893311,22.0444336
		c-4.6681824,8.5585327-6.7429199,11.9299927-7.5209351,11.9299927c-0.5187378,0-1.2967224-1.2966919-2.5934753-5.1868896
		c-1.0374451-2.5935059-3.8901978-10.114563-6.4836426-16.5982666c-2.334198-6.4836426-6.4836731-16.5980225-9.0771179-22.8223877
		c-2.8527527-6.2242432-7.0023804-16.0795288-9.5958557-21.7850342
		c-2.5934448-5.4463501-7.5209351-15.0421753-10.6331177-21.2664185
		c-3.1122131-5.9649048-7.5211182-14.5234985-9.8551331-18.6729736c-2.334198-4.1494751-7.0023804-12.1893005-10.114563-17.3762207
		c-3.1122131-5.4461975-9.0771179-14.7826233-13.2266235-21.0069885
		c-4.1496277-6.2243652-10.114563-14.7827759-13.2267456-19.1916809c-3.37146-4.1494751-7.7803955-10.1144104-10.3738403-13.226593
		c-2.3340149-2.8527527-7.0023804-8.5584106-10.3738708-12.4486084c-3.37146-3.6308899-9.0771027-9.5958252-12.4485779-12.9673157
		c-3.3714752-3.6308899-8.8178406-8.2991028-11.670578-10.8925781c-2.8527527-2.3341675-7.7803955-6.2243652-11.1518707-8.5583801
		c-3.3716278-2.334198-8.558548-5.9649353-11.4113007-7.7803955c-2.8527374-1.8154602-7.2616577-4.408905-9.8551178-5.705658
		c-2.5934601-1.2967224-6.743103-3.37146-9.3365631-4.408905c-2.5934601-1.0372925-7.7803955-2.8527527-11.4111481-3.8901978
		c-3.6309052-1.2967224-13.2267456-3.37146-21.2664185-5.1869202c-8.0396729-1.5560303-17.6355133-3.6307678-21.7851563-4.6682129
		c-3.8901978-0.7780151-9.5956879-2.3341675-12.7078705-3.1121826c-2.8529053-0.7780151-9.8551254-2.5934753-15.0420532-4.1494751
		c-5.1869278-1.5560303-13.7454834-4.1494751-18.672966-5.705658c-5.1869278-1.8154602-13.7453232-4.9274902-19.1916885-7.0023804
		c-5.4462128-2.0747375-13.4860382-5.7054749-17.8947983-8.0396729c-4.4089203-2.0747375-8.8178368-4.6681824-10.1145706-5.705658
		c-1.29673-1.2967224-1.8154564-2.0747375-1.556015-2.8527222c0.259285-0.7780151,1.0372925-1.0374451,4.1494789-1.0374451
		v-0.0001831c2.3341789,0,12.1893082,0.5187378,22.0444374,0.7781677
		c9.8551254,0.5185852,23.3411636,1.2967529,29.8248215,1.8153076c6.7430954,0.5187378,17.6355133,1.2967224,24.3786163,1.8154602
		c6.7429352,0.7780151,15.8200531,1.5561829,20.2289734,2.0747375c4.4089203,0.5187073,9.8551331,1.0374451,12.1893158,1.2967224
		c2.5934601,0.2594604,6.4836578,0.7781677,8.5583954,1.0374451c2.3341675,0.5187378,9.0771179,1.2967529,15.3014832,2.0747375
		c5.9649353,0.7781677,11.4111481,1.8154602,11.6705933,2.0749207c0.5185547,0.2592773,0.7779999,1.8152771,0.7779999,3.37146
		c0,1.2967224,0.5187225,4.1494751,1.0372925,5.9649353c0.7781677,2.0747375,2.3341827,5.1869202,4.1496429,7.7803955
		c2.3340149,2.8527222,4.6681976,5.4461975,8.0396729,7.780365c2.5934601,1.8154602,6.2243652,4.4089355,8.5583954,5.705658
		c2.0748901,1.2967224,5.7056427,3.1121826,8.0398254,4.4089355c2.5934601,1.2967224,8.0396729,3.6307373,12.1893005,5.4461975
		c4.4087677,1.8154602,10.6331329,4.6682129,14.5233307,6.4836426c3.6309052,1.5560303,9.5958405,4.6682129,13.4860382,6.7429504
		c3.6307678,2.0748901,8.817688,4.9276428,11.4111328,6.4836731c2.5934753,1.5561523,7.7803955,4.9276428,11.4113159,7.2618103
		c3.6309204,2.3340149,9.8551331,6.7429504,13.7453308,9.8551331c3.8901672,2.8527527,10.114563,7.7803955,13.7453003,10.8925781
		c3.6309204,3.11203,10.114563,9.3363953,14.2640686,13.4858704c4.408905,4.408905,10.3738403,10.8925781,13.4860229,14.5234985
		c3.1121826,3.6307373,8.0398254,9.8551025,11.1518555,13.7453003c2.8529053,3.8901978,7.2618408,10.1144104,9.5958557,13.4860535
		c2.0747375,3.6307373,5.705658,9.0771179,7.5210876,12.4485779c1.8153076,3.3714905,5.7055054,10.6331482,8.2989807,16.0794983
		c2.5934448,5.446228,4.9276428,10.3738708,4.9276428,10.6331482c0,0.2594299,0.2592773,0.7780151,0.5187073,0.7780151
		c0.2592773,0,1.5560303-1.8153076,2.5934753-3.8901978c1.2967224-2.0747375,4.4087524-7.0022278,7.2616577-11.1518555
		c2.5934448-4.1494751,8.0396729-11.4111633,11.6705933-16.5980835
		c3.6307373-4.9276428,10.1144104-12.9673157,14.0045776-17.8949585
		c3.8901978-4.9274902,10.8925781-12.9673157,15.3015137-18.1542358c4.1494751-5.1869202,8.5583801-10.3738403,9.5958252-11.6705933
		c1.0372925-1.2967224,1.8153076-2.5934448,1.8153076-3.1121826c0-0.7779846-1.5559998-0.7779846-13.4858704-0.2592773
		c-12.448761,0.2592773-13.4860535,0.2592773-13.7454834-0.7780151c-0.2592773-0.5187073,0-1.5561523,0.2594299-2.5934448
		c0.5187378-0.7780151,2.0747375-4.6682129,3.8901978-8.5584106c1.8154602-3.6308899,4.9274902-10.114563,7.2616577-14.2640381
		c2.0747375-4.1496277,6.743103-12.1893005,10.1145935-17.6356812c3.37146-5.7054749,7.5209351-12.4485779,9.3363953-15.0420532
		c2.0747375-3.6309204,3.37146-4.9276428,3.8901978-4.408905c0.2594299,0.2594299,6.2243652,4.9276428,12.7080078,10.6332703
		c6.7429504,5.9649353,12.1891785,10.8924255,12.1891785,11.4111633c0,0.2594299-3.6307678,5.4463501-8.5584106,11.1520081
		c-4.6682129,5.7055054-8.817688,10.8924255-8.817688,11.4111328c0,0.5187378,0.5185852,0.7780151,3.6307678,0.5187378
		c2.0747375-0.2592773,11.4112854-1.0374451,20.7477112-1.8154602c9.5958252-0.7780151,19.969696-1.5559998,23.6005859-1.8154602
		c3.6307678-0.2592773,7.0022278-0.5185547,7.5209656-0.5185547
		C519.9634399,405.9043884,520.4821167,406.1636658,520.4821167,406.6824036z"/>
</g>
</svg>
