<?xml version="1.0" encoding="utf-8"?>
<!-- Generator: Adobe Illustrator 22.0.1, SVG Export Plug-In . SVG Version: 6.00 Build 0)  -->
<svg version="1.1" id="Layer_1" xmlns="http://www.w3.org/2000/svg" xmlns:xlink="http://www.w3.org/1999/xlink" x="0px" y="0px"
	 width="720px" height="720px" viewBox="0 0 720 720" style="enable-background:new 0 0 720 720;" xml:space="preserve">
<style type="text/css">
	.st0{fill:#AB0003;}
</style>
<path class="st0" d="M626.1077881,53.9928207l0.000061,0.0000992
	c-60.270813-48.2627563-114.9229126,12.0644379-114.9229126,46.5892105
	c60.2080688,12.8432236,114.0862427,73.1719894,90.0136108,229.7894897
	c-19.7105103,128.1282349-95.2719116,207.8697815-142.7590027,209.4820251
	c39.3631287-53.9972229,65.8830261-114.8666382,80.2226257-174.3554382
	c43.2425537-177.8840332-25.9261475-235.2263184-80.6394348-237.8570862
	c-66.4816284-3.4015045-133.1434631,87.2106781-151.7196045,194.1303101
	c-14.6920776,84.7006226-12.782135,171.2516479,38.706604,234.6921997
	c-45.6383667,57.4598389-155.0664215,75.2588501-135.8916931-63.3810425
	c16.12883-115.9382019,73.7077942-243.8878021,105.6645508-306.7201538l0.957428-1.6734467
	c17.0845947-35.1217804,30.7033386-59.9730606,36.4958801-69.8862762l-12.902832-0.1769714
	c-124.4209137,2.1496582-223.6365051,30.9382629-269.6884155,94.0120087
	c-43.3052673,59.078476-44.560257,121.3171844-8.8415794,158.0528107l5.2567253,5.3145447
	c10.5133591,10.4538574,24.1916351,15.890686,37.8699036,15.890686h0.0596161
	c12.3653412,0,24.7901917-4.539032,34.2271118-13.9775085c9.4980927-9.3773804,14.1562347-21.980896,14.1562347-34.4009399
	c0-13.6831665-5.494873-27.3598633-15.947052-37.8152771c-5.6750793-5.4932251-12.0065842-9.6734924-18.7547836-12.3621216
	l0.1174545-0.3636475l3.2261047-6.6243591c8.4199677-14.6357117,23.0556641-28.01474,42.0518494-37.5144043
	c14.989624-7.4642181,32.492569-12.661438,51.5482635-14.5745087l-2.9268494,6.2703247
	c-26.4008026,49.0414581-64.9884033,142.285965-77.233139,190.7836151
	c-37.9310913,152.0205688,23.4741211,240.9641724,89.8978119,253.4437256
	c79.981369,14.9333496,141.2674408-23.8311768,173.6989288-73.8863525
	c38.6486816,24.5504761,140.7895813,38.6486816,217.6043396-98.1375732
	C703.9958496,351.2792969,707.2235107,119.0392532,626.1077881,53.9928207z M400.0223694,504.1333313h-0.0000916
	c-15.1119995-36.9125977-22.0436707-80.3417969-22.0436707-121.6164246c0-49.8137512,9.9759827-96.1086426,27.1796875-123.3461609
	c11.2293701-17.9197388,24.7901917-26.5794373,39.9021912-25.5641632
	c5.4352722,0.2992249,11.5286255,2.1496429,15.947052,12.6034851c3.5237732,8.4232178,5.0780945,19.6493683,5.0780945,32.6165314
	C466.0856323,343.7539063,427.2614441,454.551239,400.0223694,504.1333313z"/>
</svg>
